<svg width="24" height="24" viewBox="0 0 24 24" fill="none" xmlns="http://www.w3.org/2000/svg">
<g clip-path="url(#clip0_1187_19786)">
<path d="M4.61508 18.2302H13.3645C14.1847 18.2302 14.8255 18.0048 15.2871 17.554C15.7488 17.1032 15.9796 16.4678 15.9796 15.6477V7.57434C15.9796 6.75967 15.7624 6.12695 15.3279 5.67617C14.8934 5.22539 14.2661 5 13.446 5H4.61508C3.833 5 3.20163 5.22539 2.72098 5.67617C2.24033 6.12695 2 6.75967 2 7.57434V15.6477C2 16.4678 2.23082 17.1032 2.69246 17.554C3.15411 18.0048 3.79498 18.2302 4.61508 18.2302ZM17.0876 14.0183L20.0529 16.5845C20.1941 16.704 20.3422 16.8004 20.497 16.8737C20.6518 16.947 20.8025 16.9837 20.9491 16.9837C21.2641 16.9837 21.518 16.8792 21.7108 16.6701C21.9036 16.461 22 16.1881 22 15.8513V7.37882C22 7.04209 21.9036 6.76918 21.7108 6.56008C21.518 6.35099 21.2641 6.24644 20.9491 6.24644C20.8025 6.24644 20.6518 6.28174 20.497 6.35234C20.3422 6.42295 20.1941 6.52071 20.0529 6.64562L17.0876 9.20367V14.0183Z" fill="white"/>
</g>
<defs>
<clipPath id="clip0_1187_19786">
<rect width="20" height="13.2383" fill="white" transform="translate(2 5)"/>
</clipPath>
</defs>
</svg>
