<svg width="32" height="32" viewBox="0 0 32 32" fill="none" xmlns="http://www.w3.org/2000/svg">
<g clip-path="url(#clip0_1187_20002)">
<path d="M8.31426 23.7221C8.45056 23.8584 8.61092 23.9506 8.79533 23.9987C8.97973 24.0468 9.16615 24.0468 9.35457 23.9987C9.54298 23.9506 9.70534 23.8584 9.84164 23.7221L15.9993 17.5524L22.169 23.7221C22.3053 23.8584 22.4656 23.9506 22.65 23.9987C22.8344 24.0468 23.0188 24.0468 23.2032 23.9987C23.3876 23.9506 23.5479 23.8584 23.6842 23.7221C23.8286 23.5858 23.9228 23.4235 23.9669 23.2351C24.011 23.0466 24.011 22.8602 23.9669 22.6758C23.9228 22.4914 23.8286 22.331 23.6842 22.1947L17.5267 16.0251L23.6842 9.86742C23.8286 9.73112 23.9228 9.57077 23.9669 9.38636C24.011 9.20195 24.011 9.01553 23.9669 8.82711C23.9228 8.6387 23.8286 8.47634 23.6842 8.34004C23.5479 8.20373 23.3876 8.11153 23.2032 8.06342C23.0188 8.01532 22.8344 8.01532 22.65 8.06342C22.4656 8.11153 22.3053 8.20373 22.169 8.34004L15.9993 14.5097L9.84164 8.34004C9.70534 8.20373 9.54298 8.11153 9.35457 8.06342C9.16615 8.01532 8.97973 8.01532 8.79533 8.06342C8.61092 8.11153 8.45056 8.20373 8.31426 8.34004C8.16994 8.47634 8.07573 8.6387 8.03164 8.82711C7.98754 9.01553 7.98954 9.20195 8.03765 9.38636C8.08576 9.57077 8.17796 9.73112 8.31426 9.86742L14.4839 16.0251L8.31426 22.1947C8.17796 22.331 8.08576 22.4914 8.03765 22.6758C7.98954 22.8602 7.98754 23.0466 8.03164 23.2351C8.07573 23.4235 8.16994 23.5858 8.31426 23.7221Z" fill="white" fill-opacity="0.8"/>
</g>
<defs>
<clipPath id="clip0_1187_20002">
<rect width="16" height="16.0315" fill="white" transform="translate(8 8.00391)"/>
</clipPath>
</defs>
</svg>
