<svg width="32" height="32" viewBox="0 0 32 32" fill="none" xmlns="http://www.w3.org/2000/svg">
<g clip-path="url(#clip0_1187_20062)">
<path d="M6 15.8951C6 17.1797 6.23033 18.3953 6.69098 19.5418C7.15163 20.6884 7.80166 21.6993 8.64107 22.5745C8.77927 22.7178 8.93154 22.7869 9.09788 22.7818C9.26423 22.7767 9.40114 22.7127 9.50863 22.5899C9.62123 22.4721 9.6673 22.3339 9.64682 22.1752C9.62635 22.0166 9.55214 21.8682 9.42418 21.7299C8.68714 20.9622 8.12412 20.078 7.73512 19.0774C7.34612 18.0767 7.15163 17.016 7.15163 15.8951C7.15163 14.7741 7.34612 13.7134 7.73512 12.7127C8.12412 11.7121 8.68714 10.8279 9.42418 10.0601C9.55214 9.92194 9.62635 9.7735 9.64682 9.61484C9.6673 9.45617 9.62123 9.31541 9.50863 9.19257C9.40114 9.07485 9.26423 9.01215 9.09788 9.00447C8.93154 8.9968 8.77927 9.06717 8.64107 9.2156C7.80166 10.0908 7.15163 11.1004 6.69098 12.2444C6.23033 13.3883 6 14.6052 6 15.8951ZM8.74855 15.8951C8.74855 16.8061 8.90594 17.6724 9.22072 18.4939C9.5355 19.3154 9.9872 20.0435 10.5758 20.6782C10.7089 20.8317 10.8624 20.9097 11.0365 20.9123C11.2105 20.9149 11.3538 20.8496 11.4664 20.7166C11.579 20.5886 11.6238 20.4478 11.6008 20.2943C11.5777 20.1407 11.4997 19.9923 11.3666 19.849C10.8906 19.3167 10.5259 18.7127 10.2725 18.0371C10.0192 17.3615 9.89251 16.6474 9.89251 15.8951C9.89251 15.1427 10.0192 14.4286 10.2725 13.753C10.5259 13.0774 10.8906 12.4734 11.3666 11.9411C11.4997 11.7978 11.5777 11.6494 11.6008 11.4958C11.6238 11.3423 11.579 11.199 11.4664 11.0659C11.3538 10.9379 11.2105 10.8752 11.0365 10.8778C10.8624 10.8803 10.7089 10.9558 10.5758 11.1043C9.9872 11.739 9.5355 12.4683 9.22072 13.2924C8.90594 14.1164 8.74855 14.984 8.74855 15.8951ZM11.4894 15.8951C11.4894 16.412 11.5739 16.9059 11.7428 17.3768C11.9117 17.8477 12.1497 18.2725 12.4568 18.6513C12.5796 18.8151 12.7319 18.8995 12.9136 18.9046C13.0953 18.9098 13.245 18.8458 13.3627 18.7127C13.4754 18.5848 13.5163 18.4453 13.4856 18.2943C13.4549 18.1433 13.3832 17.9884 13.2706 17.8298C13.0608 17.5688 12.9034 17.2732 12.7985 16.9431C12.6935 16.6129 12.6411 16.2636 12.6411 15.8951C12.6411 15.5265 12.6935 15.1772 12.7985 14.8471C12.9034 14.5169 13.0608 14.2188 13.2706 13.9526C13.3832 13.7991 13.4549 13.6468 13.4856 13.4958C13.5163 13.3448 13.4754 13.2054 13.3627 13.0774C13.245 12.9443 13.0953 12.8803 12.9136 12.8855C12.7319 12.8906 12.5796 12.9725 12.4568 13.1311C12.1497 13.515 11.9117 13.9424 11.7428 14.4133C11.5739 14.8842 11.4894 15.3781 11.4894 15.8951ZM20.5105 15.8951C20.5105 15.3781 20.4261 14.8842 20.2572 14.4133C20.0883 13.9424 19.8503 13.515 19.5432 13.1311C19.4152 12.9725 19.2616 12.8906 19.0825 12.8855C18.9033 12.8803 18.7549 12.9443 18.6372 13.0774C18.5195 13.2054 18.4773 13.3448 18.5105 13.4958C18.5438 13.6468 18.6168 13.7991 18.7293 13.9526C18.9341 14.2188 19.0902 14.5169 19.1977 14.8471C19.3052 15.1772 19.3589 15.5265 19.3589 15.8951C19.3589 16.2636 19.3052 16.6129 19.1977 16.9431C19.0902 17.2732 18.9341 17.5688 18.7293 17.8298C18.6168 17.9884 18.5438 18.1433 18.5105 18.2943C18.4773 18.4453 18.5195 18.5848 18.6372 18.7127C18.7549 18.8458 18.9033 18.9098 19.0825 18.9046C19.2616 18.8995 19.4152 18.8151 19.5432 18.6513C19.8503 18.2725 20.0883 17.8477 20.2572 17.3768C20.4261 16.9059 20.5105 16.412 20.5105 15.8951ZM23.2514 15.8951C23.2514 14.984 23.094 14.1164 22.7793 13.2924C22.4645 12.4683 22.0128 11.739 21.4241 11.1043C21.286 10.9558 21.1311 10.8803 20.9596 10.8778C20.7882 10.8752 20.6462 10.9379 20.5335 11.0659C20.421 11.199 20.3762 11.3423 20.3992 11.4958C20.4222 11.6494 20.4977 11.7978 20.6257 11.9411C21.1068 12.4734 21.4741 13.0774 21.7274 13.753C21.9808 14.4286 22.1075 15.1427 22.1075 15.8951C22.1075 16.6474 21.9808 17.3615 21.7274 18.0371C21.4741 18.7127 21.1068 19.3167 20.6257 19.849C20.4977 19.9923 20.4222 20.1407 20.3992 20.2943C20.3762 20.4478 20.421 20.5886 20.5335 20.7166C20.6462 20.8496 20.7882 20.9149 20.9596 20.9123C21.1311 20.9097 21.286 20.8317 21.4241 20.6782C22.0128 20.0435 22.4645 19.3154 22.7793 18.4939C23.094 17.6724 23.2514 16.8061 23.2514 15.8951ZM26 15.8951C26 14.6052 25.7684 13.3883 25.3052 12.2444C24.842 11.1004 24.1932 10.0908 23.3589 9.2156C23.2207 9.06717 23.0684 8.9968 22.9021 9.00447C22.7357 9.01215 22.5988 9.07485 22.4914 9.19257C22.3787 9.31541 22.3327 9.45617 22.3532 9.61484C22.3736 9.7735 22.4478 9.92194 22.5758 10.0601C23.3128 10.8279 23.8758 11.7121 24.2648 12.7127C24.6538 13.7134 24.8483 14.7741 24.8483 15.8951C24.8483 17.016 24.6538 18.0767 24.2648 19.0774C23.8758 20.078 23.3128 20.9622 22.5758 21.7299C22.4478 21.8682 22.3736 22.0166 22.3532 22.1752C22.3327 22.3339 22.3787 22.4721 22.4914 22.5899C22.5988 22.7127 22.7357 22.7767 22.9021 22.7818C23.0684 22.7869 23.2207 22.7178 23.3589 22.5745C24.1932 21.6993 24.842 20.6884 25.3052 19.5418C25.7684 18.3953 26 17.1797 26 15.8951ZM14.5988 15.9104C14.5988 16.1612 14.6641 16.3903 14.7946 16.5975C14.9251 16.8048 15.0966 16.9712 15.309 17.0966C15.5214 17.222 15.7556 17.2847 16.0115 17.2847C16.2623 17.2847 16.4926 17.222 16.7025 17.0966C16.9123 16.9712 17.08 16.8023 17.2053 16.5899C17.3308 16.3775 17.3935 16.1459 17.3935 15.8951C17.3935 15.5112 17.2591 15.1823 16.9904 14.9085C16.7217 14.6347 16.3954 14.4977 16.0115 14.4977C15.7505 14.4977 15.5137 14.5617 15.3014 14.6897C15.0889 14.8176 14.9187 14.9891 14.7907 15.2041C14.6628 15.419 14.5988 15.6545 14.5988 15.9104Z" fill="#FCE872"/>
</g>
<defs>
<clipPath id="clip0_1187_20062">
<rect width="20" height="13.7817" fill="white" transform="translate(6 9)"/>
</clipPath>
</defs>
</svg>
