<svg width="32" height="32" viewBox="0 0 32 32" fill="none" xmlns="http://www.w3.org/2000/svg">
<g clip-path="url(#clip0_1187_20046)">
<path d="M16.004 22.7189C17.0532 22.7189 18.0447 22.593 18.9785 22.3412C19.9124 22.0894 20.7753 21.7562 21.5675 21.3418C22.3597 20.9274 23.0692 20.471 23.6961 19.9725C24.323 19.4742 24.8581 18.9732 25.3014 18.4696C25.7447 17.9659 26.0831 17.5003 26.3165 17.0728C26.55 16.6452 26.6667 16.2977 26.6667 16.0301C26.6667 15.7626 26.55 15.415 26.3165 14.9874C26.0831 14.5599 25.7447 14.0943 25.3014 13.5907C24.8581 13.087 24.3217 12.586 23.6922 12.0877C23.0626 11.5893 22.3518 11.1329 21.5596 10.7184C20.7674 10.304 19.9058 9.97084 18.9746 9.71903C18.0434 9.46722 17.0532 9.34131 16.004 9.34131C14.9653 9.34131 13.9816 9.46722 13.053 9.71903C12.1245 9.97084 11.2641 10.304 10.4719 10.7184C9.67978 11.1329 8.96762 11.5893 8.33547 12.0877C7.70331 12.586 7.16296 13.087 6.71442 13.5907C6.26587 14.0943 5.92356 14.5599 5.68749 14.9874C5.45141 15.415 5.33337 15.7626 5.33337 16.0301C5.33337 16.2977 5.45141 16.6452 5.68749 17.0728C5.92356 17.5003 6.26587 17.9659 6.71442 18.4696C7.16296 18.9732 7.70331 19.4742 8.33547 19.9725C8.96762 20.471 9.67978 20.9274 10.4719 21.3418C11.2641 21.7562 12.1245 22.0894 13.053 22.3412C13.9816 22.593 14.9653 22.7189 16.004 22.7189ZM16.004 20.4132C15.3902 20.4132 14.817 20.2991 14.2846 20.0709C13.7521 19.8427 13.2852 19.5254 12.8839 19.1188C12.4825 18.7122 12.1691 18.2453 11.9435 17.7181C11.7179 17.1908 11.6025 16.6282 11.5972 16.0301C11.592 15.4163 11.7035 14.8445 11.9317 14.3146C12.1599 13.7848 12.4747 13.3192 12.876 12.9178C13.2773 12.5165 13.7455 12.2044 14.2806 11.9814C14.8157 11.7585 15.3902 11.647 16.004 11.647C16.6125 11.647 17.183 11.7585 17.7155 11.9814C18.248 12.2044 18.7149 12.5165 19.1162 12.9178C19.5176 13.3192 19.8324 13.7848 20.0606 14.3146C20.2888 14.8445 20.4029 15.4163 20.4029 16.0301C20.4029 16.6282 20.2888 17.1908 20.0606 17.7181C19.8324 18.2453 19.5176 18.7122 19.1162 19.1188C18.7149 19.5254 18.248 19.8427 17.7155 20.0709C17.183 20.2991 16.6125 20.4132 16.004 20.4132ZM16.004 17.6118C16.4394 17.6118 16.8145 17.4557 17.1293 17.1436C17.444 16.8315 17.6014 16.4603 17.6014 16.0301C17.6014 15.5947 17.444 15.2209 17.1293 14.9088C16.8145 14.5966 16.4394 14.4405 16.004 14.4405C15.5633 14.4405 15.1856 14.5966 14.8708 14.9088C14.556 15.2209 14.3987 15.5947 14.3987 16.0301C14.3987 16.4603 14.556 16.8315 14.8708 17.1436C15.1856 17.4557 15.5633 17.6118 16.004 17.6118Z" fill="white" fill-opacity="0.8"/>
</g>
<defs>
<clipPath id="clip0_1187_20046">
<rect width="21.3333" height="13.3854" fill="white" transform="translate(5.33337 9.3335)"/>
</clipPath>
</defs>
</svg>
