<svg width="24" height="24" viewBox="0 0 24 24" fill="none" xmlns="http://www.w3.org/2000/svg">
<g clip-path="url(#clip0_1184_19144)">
<path d="M12.003 17.039C12.7899 17.039 13.5335 16.9446 14.2339 16.7558C14.9342 16.5669 15.5815 16.317 16.1756 16.0062C16.7697 15.6954 17.3019 15.3531 17.7721 14.9793C18.2422 14.6055 18.6436 14.2298 18.976 13.852C19.3085 13.4743 19.5623 13.1251 19.7373 12.8045C19.9124 12.4838 20 12.2231 20 12.0225C20 11.8218 19.9124 11.5611 19.7373 11.2405C19.5623 10.9198 19.3085 10.5706 18.976 10.1929C18.6436 9.81515 18.2413 9.4394 17.7691 9.06562C17.2969 8.69183 16.7638 8.34952 16.1697 8.03869C15.5756 7.72786 14.9293 7.47801 14.2309 7.28915C13.5325 7.10029 12.7899 7.00586 12.003 7.00586C11.2239 7.00586 10.4862 7.10029 9.78975 7.28915C9.09332 7.47801 8.44805 7.72786 7.85393 8.03869C7.2598 8.34952 6.72569 8.69183 6.25157 9.06562C5.77745 9.4394 5.37219 9.81515 5.03578 10.1929C4.69937 10.5706 4.44264 10.9198 4.26558 11.2405C4.08853 11.5611 4 11.8218 4 12.0225C4 12.2231 4.08853 12.4838 4.26558 12.8045C4.44264 13.1251 4.69937 13.4743 5.03578 13.852C5.37219 14.2298 5.77745 14.6055 6.25157 14.9793C6.72569 15.3531 7.2598 15.6954 7.85393 16.0062C8.44805 16.317 9.09332 16.5669 9.78975 16.7558C10.4862 16.9446 11.2239 17.039 12.003 17.039ZM12.003 15.3098C11.5426 15.3098 11.1127 15.2242 10.7134 15.0531C10.314 14.8819 9.96386 14.6439 9.66286 14.339C9.36186 14.034 9.12677 13.6838 8.95758 13.2884C8.78839 12.893 8.70183 12.471 8.6979 12.0225C8.69396 11.5621 8.77757 11.1332 8.94873 10.7358C9.11988 10.3385 9.35596 9.98926 9.65695 9.68826C9.95794 9.38727 10.3091 9.15316 10.7104 8.98594C11.1118 8.81872 11.5426 8.73511 12.003 8.73511C12.4594 8.73511 12.8872 8.81872 13.2866 8.98594C13.686 9.15316 14.0361 9.38727 14.3372 9.68826C14.6382 9.98926 14.8742 10.3385 15.0454 10.7358C15.2165 11.1332 15.3021 11.5621 15.3021 12.0225C15.3021 12.471 15.2165 12.893 15.0454 13.2884C14.8742 13.6838 14.6382 14.034 14.3372 14.339C14.0361 14.6439 13.686 14.8819 13.2866 15.0531C12.8872 15.2242 12.4594 15.3098 12.003 15.3098ZM12.003 13.2087C12.3295 13.2087 12.6108 13.0917 12.8469 12.8576C13.083 12.6235 13.201 12.3451 13.201 12.0225C13.201 11.6959 13.083 11.4156 12.8469 11.1814C12.6108 10.9473 12.3295 10.8303 12.003 10.8303C11.6725 10.8303 11.3892 10.9473 11.1531 11.1814C10.917 11.4156 10.799 11.6959 10.799 12.0225C10.799 12.3451 10.917 12.6235 11.1531 12.8576C11.3892 13.0917 11.6725 13.2087 12.003 13.2087Z" fill="white" fill-opacity="0.85"/>
</g>
<defs>
<clipPath id="clip0_1184_19144">
<rect width="16" height="10.0391" fill="white" transform="translate(4 7)"/>
</clipPath>
</defs>
</svg>
