<svg width="32" height="32" viewBox="0 0 32 32" fill="none" xmlns="http://www.w3.org/2000/svg">
<g clip-path="url(#clip0_1187_20020)">
<path d="M11.8267 22.3055C13.2572 21.9175 14.4039 21.3051 15.2667 20.4682C16.1296 19.6314 16.69 18.6093 16.9477 17.4017C17.2054 16.1943 17.1344 14.8435 16.7348 13.3493L15.1017 7.26851C14.8816 6.44615 14.5052 5.88584 13.9724 5.58759C13.4396 5.28934 12.7562 5.25315 11.9223 5.47901L3.31357 7.76366C2.47384 7.98373 1.90195 8.35726 1.59791 8.88427C1.29387 9.41127 1.25188 10.0917 1.47195 10.9257L3.08771 17.0065C3.48152 18.4949 4.0925 19.698 4.92065 20.6159C5.7488 21.5338 6.74924 22.1405 7.92197 22.4358C9.0947 22.7312 10.3963 22.6878 11.8267 22.3055ZM11.4532 20.9243C10.3181 21.2254 9.28292 21.2558 8.34763 21.0155C7.41234 20.7752 6.61459 20.2844 5.95439 19.5431C5.29419 18.8018 4.80482 17.8318 4.4863 16.633L2.87054 10.613C2.7663 10.2249 2.78367 9.90932 2.92266 9.66609C3.06165 9.42286 3.32226 9.24622 3.70448 9.13619L12.2698 6.84285C12.652 6.73861 12.9676 6.76032 13.2166 6.908C13.4657 7.05568 13.6394 7.32353 13.7379 7.71154L15.3449 13.7316C15.6692 14.9361 15.7301 16.0235 15.5274 16.9935C15.3247 17.9635 14.8802 18.7844 14.1939 19.4562C13.5076 20.128 12.594 20.6174 11.4532 20.9243ZM10.9841 19.1435C11.8991 18.8887 12.6317 18.4384 13.1819 17.7927C13.7321 17.1469 14.0216 16.3926 14.0505 15.5298C14.0564 15.3097 13.9811 15.1649 13.8247 15.0954C13.6684 15.0259 13.4975 15.0636 13.3122 15.2083C12.7215 15.6253 12.1438 15.9308 11.5791 16.1248C11.0145 16.3188 10.5845 16.4563 10.2891 16.5375C9.99379 16.6185 9.55221 16.717 8.9644 16.8328C8.37659 16.9486 7.71783 16.9718 6.98813 16.9023C6.75648 16.8733 6.58999 16.9283 6.48864 17.0674C6.38729 17.2063 6.39742 17.3627 6.51904 17.5364C6.97655 18.2719 7.6049 18.7829 8.4041 19.0696C9.20329 19.3563 10.0633 19.3809 10.9841 19.1435ZM6.73621 13.6099C7.04894 13.5289 7.29217 13.5274 7.46591 13.6056C7.63965 13.6838 7.79312 13.7055 7.92632 13.6707C8.01898 13.6476 8.08268 13.581 8.11743 13.471C8.15218 13.3609 8.14928 13.2277 8.10875 13.0714C8.01609 12.6833 7.79167 12.388 7.43551 12.1853C7.07934 11.9826 6.71015 11.9392 6.32792 12.055C5.93991 12.1534 5.64166 12.3764 5.43317 12.7239C5.22469 13.0714 5.17547 13.4362 5.2855 13.8184C5.33183 13.9806 5.39843 14.1007 5.4853 14.1789C5.57217 14.2571 5.66193 14.2846 5.75459 14.2615C5.882 14.2209 6.00072 14.1225 6.11075 13.9661C6.22079 13.8097 6.42928 13.691 6.73621 13.6099ZM11.8788 12.2114C12.1916 12.1303 12.4348 12.1288 12.6085 12.207C12.7823 12.2852 12.9357 12.3098 13.0689 12.2808C13.1616 12.2519 13.2268 12.1824 13.2645 12.0724C13.3021 11.9623 13.2977 11.8291 13.2514 11.6728C13.1588 11.2847 12.9358 10.9908 12.5825 10.791C12.2292 10.5912 11.8614 10.5493 11.4792 10.6651C11.0855 10.7577 10.7843 10.9793 10.5758 11.3296C10.3673 11.68 10.3181 12.0434 10.4282 12.4198C10.4745 12.582 10.5411 12.7036 10.628 12.7847C10.7148 12.8658 10.8046 12.8918 10.8972 12.8629C11.0304 12.8223 11.1506 12.7239 11.2577 12.5675C11.3649 12.4112 11.5719 12.2924 11.8788 12.2114ZM20.1748 24.5468C21.5995 24.9232 22.8968 24.9637 24.0666 24.6684C25.2364 24.373 26.234 23.7664 27.0592 22.8485C27.8845 21.9305 28.4969 20.7274 28.8965 19.2391L30.5296 13.1669C30.7497 12.3446 30.7048 11.6684 30.395 11.1385C30.0852 10.6086 29.5104 10.2307 28.6706 10.0049L20.0706 7.70285C19.2367 7.48278 18.5562 7.52332 18.0292 7.82447C17.5022 8.12562 17.1257 8.69026 16.8999 9.51841L16.1876 12.1245L16.7782 15.4777L18.2638 9.94407C18.368 9.55606 18.5417 9.2911 18.7849 9.14922C19.0282 9.00734 19.3409 8.98852 19.7231 9.09276L28.2884 11.3774C28.6706 11.4817 28.9312 11.6583 29.0702 11.9073C29.2092 12.1563 29.2266 12.4777 29.1224 12.8716L27.5066 18.8829C27.1881 20.0875 26.6987 21.059 26.0385 21.7974C25.3783 22.5358 24.582 23.0237 23.6496 23.2611C22.7172 23.4986 21.6777 23.4667 20.531 23.1655C19.2048 22.8007 18.1812 22.181 17.4602 21.3065C16.7392 20.4321 16.3815 19.3607 16.3874 18.0924L15.206 20.238C15.536 21.2978 16.1238 22.1926 16.9694 22.9223C17.8149 23.652 18.8834 24.1935 20.1748 24.5468ZM19.8969 15.3734C20.2154 15.4603 20.5209 15.4212 20.8133 15.2561C21.1058 15.091 21.2954 14.8464 21.3823 14.522C21.4692 14.1977 21.4286 13.8894 21.2607 13.5969C21.0928 13.3045 20.8437 13.1119 20.5137 13.0192C20.1951 12.9324 19.8911 12.9744 19.6015 13.1452C19.312 13.316 19.1208 13.5636 19.0281 13.8879C18.9413 14.2122 18.9833 14.5192 19.1541 14.8087C19.3249 15.0983 19.5725 15.2865 19.8969 15.3734ZM24.996 16.7372C25.3204 16.8183 25.6273 16.7749 25.9169 16.6069C26.2065 16.439 26.3947 16.1928 26.4816 15.8685C26.5684 15.5442 26.5278 15.2373 26.3599 14.9478C26.1919 14.6582 25.9458 14.47 25.6216 14.3831C25.2972 14.2962 24.9903 14.3353 24.7007 14.5003C24.4111 14.6654 24.2258 14.91 24.1448 15.2344C24.0521 15.5587 24.0897 15.8671 24.2577 16.1596C24.4257 16.452 24.6718 16.6446 24.996 16.7372ZM21.3389 20.0643C21.8195 20.1917 22.2669 20.3727 22.681 20.6073C23.0951 20.8418 23.528 21.1618 23.9797 21.5672C24.1534 21.7235 24.3272 21.7626 24.5009 21.6844C24.6747 21.6063 24.7558 21.4513 24.7441 21.2196C24.7152 20.4552 24.4401 19.7791 23.9189 19.1913C23.3977 18.6035 22.7201 18.2024 21.8861 17.9881C21.0522 17.7623 20.2632 17.7739 19.519 18.0229C18.7748 18.2719 18.1971 18.7178 17.786 19.3607C17.6644 19.546 17.66 19.7197 17.7729 19.8819C17.8858 20.044 18.0581 20.0991 18.2898 20.047C18.8689 19.9195 19.4017 19.8572 19.8881 19.8602C20.3747 19.8631 20.8582 19.9311 21.3389 20.0643Z" fill="white"/>
</g>
<defs>
<clipPath id="clip0_1187_20020">
<rect width="29.3333" height="20.0547" fill="white" transform="translate(1.33334 5.33301)"/>
</clipPath>
</defs>
</svg>
