<svg width="21" height="20" viewBox="0 0 21 20" fill="none" xmlns="http://www.w3.org/2000/svg">
<g clip-path="url(#clip0_1187_20157)">
<path d="M0.304616 16.8613L1.14809 13.3847C1.26774 12.8917 1.58883 12.4643 2.0291 12.2122L5.298 10.3406C5.56062 10.1902 5.56121 9.81143 5.298 9.66077L2.02907 7.78909C1.58879 7.53702 1.2677 7.10972 1.14805 6.61667L0.304616 3.14C-0.0588993 1.64172 1.45942 0.379612 2.8659 1.00977L19.1534 8.3078C20.6164 8.96335 20.6146 11.0388 19.1534 11.6935L2.8659 18.9915C1.45832 19.6222 -0.0582743 18.3569 0.304616 16.8613Z" fill="white"/>
<path d="M7.55461 12.8806C7.38934 12.5118 7.55438 12.0789 7.92312 11.9137L12.1954 9.99941L7.92312 8.08511C7.55438 7.91992 7.38934 7.48699 7.55461 7.11824C7.7198 6.74949 8.15262 6.58441 8.52148 6.74973L14.2839 9.33175C14.8592 9.58949 14.8597 10.4092 14.2839 10.6671L8.52148 13.2492C8.15281 13.4143 7.71992 13.2495 7.55461 12.8806Z" fill="#034AA6"/>
<path d="M14.2841 9.33322L10.2505 7.52588V9.12939L12.1955 10.0009L10.2505 10.8724V12.4759L14.2841 10.6686C14.8598 10.4107 14.8593 9.59099 14.2841 9.33322Z" fill="#034AA6"/>
</g>
<defs>
<clipPath id="clip0_1187_20157">
<rect width="20" height="20" fill="white" transform="translate(0.25)"/>
</clipPath>
</defs>
</svg>
