<svg width="32" height="32" viewBox="0 0 32 32" fill="none" xmlns="http://www.w3.org/2000/svg">
<g clip-path="url(#clip0_1187_20015)">
<path d="M14.7414 29.3207H17.2585C17.7404 29.3207 18.1537 29.1856 18.4984 28.9155C18.8432 28.6453 19.0696 28.2776 19.1777 27.8122L19.7134 25.4809L20.1122 25.3438L22.1434 26.5904C22.5421 26.8481 22.9616 26.9478 23.4019 26.8896C23.8422 26.8314 24.2327 26.632 24.5733 26.2913L26.3178 24.5583C26.6584 24.2175 26.8577 23.8269 26.9159 23.3865C26.9741 22.946 26.8744 22.5262 26.6168 22.1272L25.3458 20.1076L25.4953 19.7336L27.8256 19.1852C28.2825 19.0771 28.648 18.8485 28.9222 18.4994C29.1963 18.1503 29.3333 17.7389 29.3333 17.2651V14.7968C29.3333 14.323 29.1963 13.9116 28.9222 13.5626C28.648 13.2135 28.2825 12.9849 27.8256 12.8769L25.5203 12.3159L25.3583 11.9169L26.6293 9.89728C26.8868 9.49834 26.9865 9.08071 26.9284 8.64437C26.8702 8.20803 26.6708 7.81532 26.3302 7.46625L24.5857 5.72089C24.2534 5.38844 23.8671 5.19312 23.4268 5.13494C22.9866 5.07676 22.567 5.17234 22.1682 5.42168L20.1371 6.66837L19.7134 6.5063L19.1777 4.17499C19.0696 3.71788 18.8432 3.35218 18.4984 3.07791C18.1537 2.80364 17.7404 2.6665 17.2585 2.6665H14.7414C14.2596 2.6665 13.8463 2.80364 13.5016 3.07791C13.1568 3.35218 12.9304 3.71788 12.8224 4.17499L12.2742 6.5063L11.8505 6.66837L9.83177 5.42168C9.42472 5.17234 9.00312 5.07676 8.56697 5.13494C8.13084 5.19312 7.74247 5.38844 7.40187 5.72089L5.66978 7.46625C5.32087 7.81532 5.11941 8.20803 5.06541 8.64437C5.01142 9.08071 5.11319 9.49834 5.37071 9.89728L6.62928 11.9169L6.47975 12.3159L4.17445 12.8769C3.70923 12.9849 3.34163 13.2135 3.07164 13.5626C2.80165 13.9116 2.66666 14.323 2.66666 14.7968V17.2651C2.66666 17.7389 2.80373 18.1503 3.07787 18.4994C3.35202 18.8485 3.71754 19.0771 4.17445 19.1852L6.50467 19.7336L6.64174 20.1076L5.38318 22.1272C5.12564 22.5262 5.02388 22.946 5.07788 23.3865C5.13187 23.8269 5.33332 24.2175 5.68224 24.5583L7.41432 26.2913C7.75493 26.632 8.14537 26.8314 8.58567 26.8896C9.02596 26.9478 9.44964 26.8481 9.85671 26.5904L11.8754 25.3438L12.2742 25.4809L12.8224 27.8122C12.9304 28.2776 13.1568 28.6453 13.5016 28.9155C13.8463 29.1856 14.2596 29.3207 14.7414 29.3207ZM14.9408 27.3759C14.7331 27.3759 14.6127 27.2803 14.5795 27.0892L13.8318 23.9973C13.4496 23.9059 13.0862 23.7875 12.7414 23.6421C12.3967 23.4966 12.0914 23.3408 11.8255 23.1746L9.10904 24.845C8.95951 24.9531 8.80582 24.9323 8.64798 24.7827L7.17757 23.3117C7.04465 23.187 7.02804 23.0332 7.12772 22.8503L8.79751 20.1576C8.65628 19.8916 8.5109 19.5882 8.36137 19.2475C8.21184 18.9067 8.08723 18.5452 7.98754 18.1629L4.89719 17.4273C4.70612 17.394 4.61059 17.2735 4.61059 17.0657V14.9838C4.61059 14.7843 4.70612 14.6638 4.89719 14.6222L7.97508 13.8742C8.07476 13.467 8.2056 13.0888 8.3676 12.7397C8.52959 12.3907 8.66459 12.0998 8.77259 11.8671L7.11527 9.17421C7.00727 8.99136 7.01973 8.82929 7.15264 8.68801L8.63551 7.24184C8.78505 7.10886 8.94289 7.08808 9.10904 7.17952L11.8006 8.81267C12.0665 8.66306 12.3801 8.51346 12.7414 8.36386C13.1028 8.21426 13.4704 8.08959 13.8443 7.98985L14.5795 4.89808C14.6127 4.70692 14.7331 4.61134 14.9408 4.61134H17.0592C17.2669 4.61134 17.3831 4.70692 17.4081 4.89808L18.1682 8.01479C18.5587 8.11452 18.9221 8.23712 19.2585 8.38256C19.595 8.52801 19.9003 8.67554 20.1745 8.82514L22.8785 7.17952C23.0529 7.08808 23.215 7.10886 23.3645 7.24184L24.8349 8.68801C24.9762 8.82929 24.9886 8.99136 24.8722 9.17421L23.215 11.8671C23.3312 12.0998 23.4683 12.3907 23.6262 12.7397C23.784 13.0888 23.9128 13.467 24.0125 13.8742L27.1028 14.6222C27.2939 14.6638 27.3894 14.7843 27.3894 14.9838V17.0657C27.3894 17.2735 27.2939 17.394 27.1028 17.4273L24.0001 18.1629C23.9004 18.5452 23.7779 18.9067 23.6325 19.2475C23.4871 19.5882 23.3396 19.8916 23.1901 20.1576L24.8599 22.8503C24.9678 23.0332 24.9512 23.187 24.81 23.3117L23.352 24.7827C23.1942 24.9323 23.0364 24.9531 22.8785 24.845L20.162 23.1746C19.8961 23.3408 19.5929 23.4966 19.2523 23.6421C18.9118 23.7875 18.5504 23.9059 18.1682 23.9973L17.4081 27.0892C17.3831 27.2803 17.2669 27.3759 17.0592 27.3759H14.9408ZM16 20.7559C16.8723 20.7559 17.6677 20.5419 18.3863 20.1139C19.1049 19.6859 19.6781 19.1104 20.106 18.3873C20.5338 17.6641 20.7477 16.8663 20.7477 15.9936C20.7477 15.1292 20.5338 14.3376 20.106 13.6186C19.6781 12.8997 19.1049 12.3263 18.3863 11.8982C17.6677 11.4702 16.8723 11.2562 16 11.2562C15.1277 11.2562 14.3323 11.4702 13.6137 11.8982C12.8951 12.3263 12.3198 12.8997 11.8879 13.6186C11.4559 14.3376 11.2399 15.1292 11.2399 15.9936C11.2399 16.8663 11.4559 17.662 11.8879 18.381C12.3198 19.0999 12.8951 19.6755 13.6137 20.1076C14.3323 20.5398 15.1277 20.7559 16 20.7559ZM16 18.8235C15.4849 18.8235 15.0135 18.6968 14.5857 18.4433C14.1579 18.1898 13.8172 17.849 13.5639 17.421C13.3105 16.993 13.1838 16.5172 13.1838 15.9936C13.1838 15.4783 13.3105 15.0087 13.5639 14.5848C13.8172 14.161 14.1579 13.8223 14.5857 13.5688C15.0135 13.3153 15.4849 13.1885 16 13.1885C16.5067 13.1885 16.972 13.3153 17.3957 13.5688C17.8193 13.8223 18.1579 14.161 18.4113 14.5848C18.6646 15.0087 18.7913 15.4783 18.7913 15.9936C18.7913 16.5089 18.6646 16.9805 18.4113 17.4086C18.1579 17.8366 17.8193 18.1795 17.3957 18.4371C16.972 18.6947 16.5067 18.8235 16 18.8235Z" fill="white"/>
</g>
<defs>
<clipPath id="clip0_1187_20015">
<rect width="26.6667" height="26.6667" fill="white" transform="translate(2.66666 2.6665)"/>
</clipPath>
</defs>
</svg>
