<svg width="32" height="32" viewBox="0 0 32 32" fill="none" xmlns="http://www.w3.org/2000/svg">
<g clip-path="url(#clip0_1187_20010)">
<path d="M17.2492 26.684C17.546 26.684 17.8284 26.6201 18.0964 26.4923C18.3644 26.3644 18.6469 26.1603 18.9438 25.88L28.7025 16.6654C28.9416 16.4428 29.1065 16.216 29.1973 15.9851C29.288 15.7543 29.3333 15.5399 29.3333 15.342C29.3333 15.1358 29.288 14.9173 29.1973 14.6864C29.1065 14.4556 28.9416 14.2288 28.7025 14.0062L18.9438 4.87817C18.6139 4.56483 18.3273 4.34014 18.0841 4.20408C17.8409 4.06803 17.5708 4 17.2739 4C16.8369 4 16.4803 4.14842 16.2041 4.44527C15.9278 4.74211 15.7897 5.09668 15.7897 5.50897V10.1843H15.431C13.2129 10.1843 11.2979 10.5265 9.68582 11.2109C8.07378 11.8953 6.75035 12.8848 5.71551 14.1793C4.68067 15.4739 3.91382 17.0344 3.41495 18.8608C2.91609 20.6873 2.66666 22.7425 2.66666 25.0266C2.66666 25.5625 2.79653 25.9727 3.05627 26.2572C3.31601 26.5417 3.61079 26.684 3.94062 26.684C4.20448 26.684 4.47041 26.6304 4.73839 26.5232C5.00637 26.4159 5.24756 26.1644 5.46195 25.7687C6.17933 24.4164 7.00803 23.3588 7.94804 22.5961C8.88805 21.8334 9.97236 21.2954 11.201 20.982C12.4296 20.6687 13.8396 20.512 15.431 20.512H15.7897V25.2369C15.7897 25.6574 15.9278 26.0037 16.2041 26.2758C16.4803 26.548 16.8287 26.684 17.2492 26.684ZM17.9542 24.0247C17.8388 24.0247 17.7811 23.9629 17.7811 23.8392V19.0526C17.7811 18.7805 17.645 18.6444 17.3729 18.6444H15.7155C12.78 18.6444 10.3805 19.1144 8.51699 20.0544C6.65346 20.9945 5.35888 22.2396 4.63325 23.7897C4.61676 23.8309 4.60027 23.8618 4.58378 23.8824C4.56729 23.9031 4.54256 23.9135 4.50958 23.9135C4.45186 23.9135 4.423 23.8681 4.423 23.7773C4.47247 22.6147 4.62501 21.4665 4.88064 20.3327C5.13625 19.1989 5.52998 18.1331 6.06183 17.1354C6.59368 16.1377 7.28838 15.2575 8.14593 14.4947C9.00349 13.732 10.0548 13.1342 11.2999 12.7013C12.545 12.2684 14.0169 12.0519 15.7155 12.0519H17.3729C17.645 12.0519 17.7811 11.9159 17.7811 11.6438V6.73345C17.7811 6.61801 17.8429 6.56029 17.9666 6.56029C17.9995 6.56029 18.0346 6.5706 18.0717 6.59122C18.1088 6.61183 18.1438 6.6345 18.1769 6.65924L26.9833 15.107C27.0657 15.1894 27.107 15.2678 27.107 15.342C27.107 15.375 27.0987 15.41 27.0822 15.4471C27.0657 15.4842 27.0327 15.5275 26.9833 15.577L18.1644 23.9135C18.0985 23.9876 18.0284 24.0247 17.9542 24.0247Z" fill="white"/>
</g>
<defs>
<clipPath id="clip0_1187_20010">
<rect width="26.6667" height="22.6963" fill="white" transform="translate(2.66666 4)"/>
</clipPath>
</defs>
</svg>
