<svg width="24" height="24" viewBox="0 0 24 24" fill="none" xmlns="http://www.w3.org/2000/svg">
<path d="M20.8 11.6C20.8 15.8 16.88 19.2 12 19.2C11.16 19.2 10.36 19.12 9.59995 18.92C9.59995 18.92 8.07995 20.8 5.59995 20.8C6.79995 19.08 6.79995 17.72 6.79995 17.72C4.59995 16.32 3.19995 14.12 3.19995 11.6C3.19995 7.4 7.11995 4 12 4C16.88 4 20.8 7.4 20.8 11.6Z" fill="#4A2160"/>
<path d="M20.8 11.6C20.8 15.8 16.88 19.2 12 19.2C11.16 19.2 10.36 19.12 9.59995 18.92C9.59995 18.92 8.07995 20.8 5.59995 20.8C6.79995 19.08 6.79995 17.72 6.79995 17.72C4.59995 16.32 3.19995 14.12 3.19995 11.6C3.19995 7.4 7.11995 4 12 4C16.88 4 20.8 7.4 20.8 11.6Z" stroke="#4A2160" stroke-width="0.74344" stroke-miterlimit="10"/>
</svg>
