<svg width="24" height="24" viewBox="0 0 24 24" fill="none" xmlns="http://www.w3.org/2000/svg">
<g clip-path="url(#clip0_49_5464)">
<path d="M7.80469 20.1641C7.9974 20.1641 8.17448 20.112 8.33594 20.0078C8.4974 19.9037 8.69531 19.7474 8.92969 19.539L11.625 17.1406H16.6406C17.4167 17.1406 18.0703 17.0013 18.6016 16.7226C19.1328 16.444 19.5351 16.0391 19.8086 15.5078C20.082 14.9766 20.2187 14.3281 20.2187 13.5625V7.57813C20.2187 6.8125 20.082 6.16406 19.8086 5.63282C19.5351 5.10156 19.1328 4.69661 18.6016 4.41797C18.0703 4.13932 17.4167 4 16.6406 4H6.57813C5.80209 4 5.14844 4.13932 4.61718 4.41797C4.08594 4.69661 3.68359 5.10156 3.41016 5.63282C3.13672 6.16406 3 6.8125 3 7.57813V13.5625C3 14.3281 3.13672 14.9766 3.41016 15.5078C3.68359 16.0391 4.08594 16.444 4.61718 16.7226C5.14844 17.0013 5.80209 17.1406 6.57813 17.1406H6.95313V19.1718C6.95313 19.4739 7.02735 19.7148 7.17578 19.8946C7.32422 20.0742 7.53386 20.1641 7.80469 20.1641ZM8.125 18.7344V16.4687C8.125 16.2552 8.08073 16.1041 7.99218 16.0156C7.90365 15.9271 7.75261 15.8828 7.53906 15.8828H6.57813C5.78646 15.8828 5.20182 15.6862 4.82422 15.293C4.44662 14.8997 4.25782 14.3203 4.25782 13.5547V7.57813C4.25782 6.81771 4.44662 6.24089 4.82422 5.84766C5.20182 5.45443 5.78646 5.25782 6.57813 5.25782H16.6406C17.4271 5.25782 18.0104 5.45443 18.3906 5.84766C18.7709 6.24089 18.961 6.81771 18.961 7.57813V13.5547C18.961 14.3203 18.7709 14.8997 18.3906 15.293C18.0104 15.6862 17.4271 15.8828 16.6406 15.8828H11.5782C11.3594 15.8828 11.1823 15.9062 11.0469 15.9531C10.9115 16 10.7708 16.099 10.625 16.25L8.125 18.7344ZM7.58594 8.41406H15.5313C15.6615 8.41406 15.7695 8.36979 15.8554 8.28125C15.9414 8.19271 15.9844 8.08594 15.9844 7.96094C15.9844 7.83594 15.9414 7.73047 15.8554 7.64453C15.7695 7.55859 15.6615 7.51562 15.5313 7.51562H7.58594C7.45573 7.51562 7.34766 7.55859 7.26172 7.64453C7.17578 7.73047 7.13282 7.83594 7.13282 7.96094C7.13282 8.08594 7.17578 8.19271 7.26172 8.28125C7.34766 8.36979 7.45573 8.41406 7.58594 8.41406ZM7.58594 10.9531H15.5313C15.6615 10.9531 15.7695 10.9102 15.8554 10.8242C15.9414 10.7383 15.9844 10.6302 15.9844 10.5C15.9844 10.3802 15.9414 10.2747 15.8554 10.1836C15.7695 10.0924 15.6615 10.0469 15.5313 10.0469H7.58594C7.45573 10.0469 7.34766 10.0924 7.26172 10.1836C7.17578 10.2747 7.13282 10.3802 7.13282 10.5C7.13282 10.6302 7.17578 10.7383 7.26172 10.8242C7.34766 10.9102 7.45573 10.9531 7.58594 10.9531ZM7.58594 13.5H12.75C12.875 13.5 12.9818 13.457 13.0703 13.3711C13.1589 13.2851 13.2031 13.1797 13.2031 13.0547C13.2031 12.9245 13.1589 12.8151 13.0703 12.7266C12.9818 12.638 12.875 12.5938 12.75 12.5938H7.58594C7.45573 12.5938 7.34766 12.638 7.26172 12.7266C7.17578 12.8151 7.13282 12.9245 7.13282 13.0547C7.13282 13.1797 7.17578 13.2851 7.26172 13.3711C7.34766 13.457 7.45573 13.5 7.58594 13.5Z" fill="black" fill-opacity="0.54"/>
</g>
<defs>
<clipPath id="clip0_49_5464">
<rect width="17.2187" height="17.1641" fill="white" transform="translate(3 3)"/>
</clipPath>
</defs>
</svg>
