<svg width="24" height="24" viewBox="0 0 24 24" fill="none" xmlns="http://www.w3.org/2000/svg">
<g clip-path="url(#clip0_1170_7827)">
<path d="M7.64062 20.2578C7.79687 20.2578 7.9388 20.2175 8.06641 20.1367C8.19401 20.056 8.35157 19.9297 8.53906 19.7578L11.3594 17.1797L16.6406 17.1875C17.4167 17.1875 18.0703 17.0482 18.6016 16.7695C19.1328 16.4909 19.5351 16.086 19.8086 15.5547C20.082 15.0235 20.2187 14.375 20.2187 13.6094V7.625C20.2187 6.85938 20.082 6.21094 19.8086 5.67969C19.5351 5.14844 19.1328 4.74349 18.6016 4.46484C18.0703 4.1862 17.4167 4.04688 16.6406 4.04688H6.57813C5.80209 4.04688 5.14844 4.1862 4.61718 4.46484C4.08594 4.74349 3.68359 5.14844 3.41016 5.67969C3.13672 6.21094 3 6.85938 3 7.625V13.6094C3 14.375 3.13672 15.0235 3.41016 15.5547C3.68359 16.086 4.08594 16.4896 4.61718 16.7656C5.14844 17.0417 5.80209 17.1797 6.57813 17.1797H6.94531V19.4531C6.94531 19.6979 7.00521 19.8932 7.125 20.039C7.24479 20.1849 7.41667 20.2578 7.64062 20.2578ZM7.46094 8.39063C7.33073 8.39063 7.22005 8.34505 7.1289 8.25391C7.03776 8.16276 6.99218 8.05208 6.99218 7.92188C6.99218 7.79167 7.03776 7.68229 7.1289 7.59376C7.22005 7.50521 7.33073 7.46094 7.46094 7.46094H15.6562C15.7865 7.46094 15.8972 7.50521 15.9883 7.59376C16.0794 7.68229 16.125 7.79167 16.125 7.92188C16.125 8.05208 16.0794 8.16276 15.9883 8.25391C15.8972 8.34505 15.7865 8.39063 15.6562 8.39063H7.46094ZM7.46094 11.0078C7.33073 11.0078 7.22005 10.9636 7.1289 10.875C7.03776 10.7865 6.99218 10.6745 6.99218 10.5391C6.99218 10.4141 7.03776 10.3047 7.1289 10.2109C7.22005 10.1172 7.33073 10.0703 7.46094 10.0703H15.6562C15.7865 10.0703 15.8972 10.1172 15.9883 10.2109C16.0794 10.3047 16.125 10.4141 16.125 10.5391C16.125 10.6745 16.0794 10.7865 15.9883 10.875C15.8972 10.9636 15.7865 11.0078 15.6562 11.0078H7.46094ZM7.46094 13.6328C7.33073 13.6328 7.22005 13.5885 7.1289 13.5C7.03776 13.4115 6.99218 13.3021 6.99218 13.1718C6.99218 13.0364 7.03776 12.9231 7.1289 12.832C7.22005 12.7409 7.33073 12.6953 7.46094 12.6953H12.789C12.9193 12.6953 13.03 12.7409 13.1211 12.832C13.2123 12.9231 13.2578 13.0364 13.2578 13.1718C13.2578 13.3021 13.2123 13.4115 13.1211 13.5C13.03 13.5885 12.9193 13.6328 12.789 13.6328H7.46094Z" fill="#034AA6"/>
</g>
<defs>
<clipPath id="clip0_1170_7827">
<rect width="17.2187" height="17.2578" fill="white" transform="translate(3 3)"/>
</clipPath>
</defs>
</svg>
