<svg width="24" height="24" viewBox="0 0 24 24" fill="none" xmlns="http://www.w3.org/2000/svg">
<g clip-path="url(#clip0_1170_7810)">
<path d="M8.57817 17.8754C9.74859 17.5627 10.688 17.0628 11.3964 16.3757C12.1049 15.6885 12.5645 14.8522 12.7753 13.8666C12.9862 12.881 12.9258 11.7769 12.5941 10.5544L11.2649 5.57889C11.0849 4.91075 10.7757 4.45467 10.3374 4.21063C9.89905 3.9666 9.34109 3.93461 8.66347 4.11468L1.61964 5.98403C0.937293 6.16884 0.470548 6.47566 0.219405 6.90449C-0.0317377 7.33333 -0.067277 7.88893 0.112788 8.57128L1.43484 13.5396C1.7618 14.7574 2.2629 15.7418 2.93814 16.4929C3.61338 17.244 4.4296 17.7403 5.38678 17.982C6.34397 18.2237 7.40776 18.1881 8.57817 17.8754ZM7.91009 15.3308C7.16611 15.5203 6.46006 15.4978 5.79193 15.2632C5.12379 15.0287 4.60018 14.6081 4.2211 14.0016C4.14528 13.8879 4.13462 13.7872 4.18912 13.6996C4.24361 13.6119 4.34193 13.5728 4.48409 13.5823C4.95321 13.6202 5.44838 13.606 5.96962 13.5396C6.49086 13.4733 6.95524 13.3856 7.36275 13.2766C7.76078 13.1724 8.19909 13.0207 8.67767 12.8217C9.15629 12.6227 9.59225 12.3858 9.98552 12.111C10.104 12.0257 10.2106 12.0079 10.3054 12.0576C10.4002 12.1074 10.4452 12.2057 10.4404 12.3526C10.412 13.0634 10.1703 13.6854 9.71542 14.2184C9.26052 14.7515 8.65874 15.1223 7.91009 15.3308ZM4.32772 10.661C4.14765 10.7131 4.0126 10.7794 3.92257 10.86C3.83254 10.9405 3.75791 11.0152 3.69868 11.0839C3.63945 11.1526 3.57192 11.1917 3.4961 11.2012C3.43924 11.2106 3.38238 11.1881 3.32551 11.1336C3.26865 11.0791 3.22601 10.9998 3.19757 10.8955C3.11228 10.5923 3.15138 10.302 3.31486 10.0248C3.47834 9.74762 3.71408 9.57111 4.02209 9.49529C4.33009 9.41947 4.62151 9.45975 4.89634 9.61612C5.17118 9.77249 5.34887 9.99758 5.42943 10.2914C5.4626 10.4004 5.46734 10.4928 5.44364 10.5686C5.41995 10.6444 5.37967 10.6918 5.32281 10.7107C5.23752 10.7439 5.14867 10.7451 5.05627 10.7143C4.96386 10.6835 4.85962 10.6562 4.74353 10.6325C4.62743 10.6088 4.48883 10.6183 4.32772 10.661ZM8.66347 9.48818C8.48816 9.5403 8.35431 9.60664 8.26193 9.6872C8.16949 9.76775 8.09367 9.8412 8.03448 9.90754C7.97523 9.97388 7.90769 10.0118 7.83184 10.0213C7.77973 10.0355 7.72524 10.0142 7.66837 9.95729C7.6115 9.90044 7.5665 9.82225 7.53336 9.72274C7.44806 9.42421 7.48833 9.13516 7.65418 8.85558C7.82003 8.57601 8.05459 8.39832 8.35785 8.3225C8.67058 8.24194 8.96317 8.28104 9.23563 8.43978C9.50813 8.59852 9.68466 8.82479 9.76521 9.11858C9.79835 9.22756 9.80308 9.31996 9.7794 9.39578C9.75572 9.4716 9.71545 9.51898 9.65858 9.53793C9.57327 9.5711 9.48443 9.57229 9.39204 9.54149C9.29966 9.51069 9.1954 9.48344 9.07929 9.45975C8.96317 9.43606 8.82457 9.44553 8.66347 9.48818ZM22.3673 7.82496L15.3306 5.94138C14.7051 5.77079 14.178 5.78027 13.7491 5.96982C13.3203 6.15936 13.0158 6.53133 12.8357 7.08574L12.7504 7.39138L13.5324 10.3056C13.9256 11.7603 13.9718 13.0847 13.6709 14.2788C13.37 15.4729 12.7647 16.468 11.8549 17.2641C12.2008 17.8422 12.677 18.3398 13.2836 18.7567C13.8901 19.1737 14.6033 19.4912 15.423 19.7092C16.5839 20.022 17.6418 20.0563 18.5967 19.8122C19.5514 19.5682 20.3665 19.0707 21.0417 18.3197C21.7169 17.5686 22.2181 16.5841 22.545 15.3663L23.8884 10.4051C24.0685 9.73222 24.0306 9.18018 23.7747 8.74897C23.5188 8.31776 23.0497 8.00976 22.3673 7.82496ZM15.2027 12.1323C14.961 12.0707 14.7762 11.9309 14.6483 11.7129C14.5203 11.495 14.4895 11.2604 14.5558 11.0093C14.6222 10.7676 14.7643 10.5828 14.9823 10.4548C15.2003 10.3269 15.4325 10.2961 15.6789 10.3624C15.9253 10.4288 16.1125 10.5733 16.2404 10.796C16.3683 11.0187 16.3991 11.2509 16.3328 11.4926C16.2665 11.739 16.1231 11.9238 15.9028 12.047C15.6824 12.1702 15.4491 12.1986 15.2027 12.1323ZM19.3749 13.2482C19.1333 13.1819 18.9497 13.0386 18.8241 12.8182C18.6985 12.5979 18.6689 12.3645 18.7352 12.1181C18.7969 11.8717 18.9367 11.6868 19.1546 11.5636C19.3726 11.4404 19.6048 11.412 19.8512 11.4783C20.1023 11.54 20.2907 11.6809 20.4163 11.9013C20.5418 12.1216 20.5714 12.355 20.5051 12.6014C20.4387 12.8431 20.2966 13.0279 20.0786 13.1558C19.8607 13.2837 19.6261 13.3146 19.3749 13.2482ZM16.3826 15.9776C16.013 15.8733 15.641 15.82 15.2667 15.8177C14.8923 15.8153 14.4777 15.8639 14.0228 15.9634C13.8806 15.9966 13.7752 15.9658 13.7065 15.871C13.6377 15.7762 13.6413 15.672 13.7172 15.5582C13.9209 15.236 14.1851 14.9802 14.5096 14.7906C14.8342 14.6011 15.1908 14.4826 15.5794 14.4352C15.9679 14.3878 16.3636 14.421 16.7664 14.5347C17.3871 14.6911 17.893 14.9884 18.2839 15.4268C18.6748 15.8651 18.8797 16.3685 18.8987 16.9371C18.9082 17.0793 18.8596 17.1741 18.753 17.2215C18.6464 17.2689 18.541 17.2452 18.4367 17.1504C18.0813 16.8282 17.7437 16.5759 17.4238 16.3934C17.104 16.211 16.7569 16.0724 16.3826 15.9776Z" fill="#034AA6"/>
</g>
<defs>
<clipPath id="clip0_1170_7810">
<rect width="24" height="16.3996" fill="white" transform="translate(0 4)"/>
</clipPath>
</defs>
</svg>
