<svg width="24" height="24" viewBox="0 0 24 24" fill="none" xmlns="http://www.w3.org/2000/svg">
<g clip-path="url(#clip0_1340_8955)">
<g clip-path="url(#clip1_1340_8955)">
<path d="M8.58547 17.8866C9.75588 17.5691 10.6941 17.068 11.4 16.3834C12.1061 15.6987 12.5645 14.8624 12.7754 13.8744C12.9862 12.8865 12.9281 11.7813 12.6012 10.5588L11.265 5.58359C11.085 4.91075 10.777 4.45232 10.3411 4.2083C9.90513 3.96427 9.346 3.93466 8.66371 4.11945L1.62019 5.98872C0.933132 6.16877 0.465225 6.47439 0.216464 6.90558C-0.0322976 7.33676 -0.0666504 7.89351 0.113405 8.57583L1.43539 13.551C1.7576 14.7688 2.25749 15.7532 2.93507 16.5042C3.61265 17.2552 4.43119 17.7516 5.39069 17.9932C6.3502 18.2349 7.41513 18.1993 8.58547 17.8866ZM8.27987 16.7565C7.35117 17.0029 6.5042 17.0278 5.73896 16.8311C4.97372 16.6345 4.32102 16.233 3.78086 15.6265C3.24069 15.02 2.8403 14.2263 2.5797 13.2454L1.2577 8.31996C1.17242 8.00249 1.18663 7.74426 1.30035 7.54525C1.41407 7.34624 1.62729 7.20172 1.94002 7.1117L8.94799 5.23532C9.2607 5.15004 9.51893 5.1678 9.72266 5.28863C9.92645 5.40946 10.0686 5.62861 10.1492 5.94607L11.464 10.8715C11.7294 11.8571 11.7791 12.7467 11.6133 13.5404C11.4474 14.3341 11.0838 15.0057 10.5223 15.5553C9.96078 16.105 9.2133 16.5054 8.27987 16.7565ZM7.89609 15.2995C8.64471 15.091 9.24411 14.7226 9.69428 14.1943C10.1444 13.6659 10.3813 13.0488 10.405 12.3428C10.4097 12.1628 10.3481 12.0443 10.2202 11.9874C10.0923 11.9306 9.95253 11.9614 9.8009 12.0798C9.31759 12.421 8.84493 12.6709 8.38292 12.8296C7.92096 12.9884 7.56914 13.1009 7.32746 13.1673C7.08582 13.2336 6.72453 13.3141 6.24359 13.4089C5.76265 13.5037 5.22367 13.5226 4.62664 13.4658C4.43711 13.4421 4.30089 13.4871 4.21797 13.6008C4.13505 13.7145 4.14334 13.8424 4.24284 13.9846C4.61717 14.5864 5.13128 15.0045 5.78516 15.239C6.43905 15.4736 7.14269 15.4938 7.89609 15.2995ZM4.42053 10.772C4.6764 10.7057 4.87541 10.7045 5.01756 10.7685C5.15971 10.8325 5.28527 10.8502 5.39425 10.8218C5.47007 10.8028 5.52219 10.7483 5.55061 10.6583C5.57905 10.5683 5.57668 10.4593 5.54351 10.3314C5.4677 10.0139 5.28409 9.77226 4.99268 9.60641C4.70127 9.44057 4.3992 9.40504 4.08648 9.49981C3.76901 9.58035 3.52499 9.76278 3.35441 10.0471C3.18383 10.3314 3.14355 10.6299 3.23358 10.9426C3.27149 11.0753 3.32598 11.1736 3.39706 11.2376C3.46813 11.3015 3.54157 11.324 3.61738 11.3051C3.72163 11.2719 3.81876 11.1914 3.90879 11.0634C3.99882 10.9355 4.1694 10.8384 4.42053 10.772ZM8.62812 9.62774C8.88402 9.5614 9.08302 9.56022 9.22514 9.62418C9.3673 9.68815 9.49287 9.70829 9.60185 9.6846C9.67769 9.6609 9.73101 9.60404 9.76182 9.51402C9.79258 9.42399 9.78902 9.31501 9.75112 9.18708C9.67533 8.86961 9.49292 8.62914 9.20389 8.46567C8.9148 8.30219 8.6139 8.26784 8.30119 8.36261C7.97902 8.43842 7.73263 8.61967 7.56203 8.90633C7.39143 9.193 7.35116 9.49033 7.44122 9.79832C7.47911 9.93099 7.5336 10.0305 7.60468 10.0968C7.67576 10.1632 7.7492 10.1845 7.82499 10.1608C7.93396 10.1276 8.03229 10.0471 8.11997 9.91915C8.20764 9.79121 8.37703 9.69408 8.62812 9.62774ZM15.4158 19.7204C16.5814 20.0283 17.6428 20.0615 18.5999 19.8198C19.5571 19.5782 20.3733 19.0818 21.0485 18.3308C21.7237 17.5798 22.2247 16.5954 22.5517 15.3777L23.8878 10.4096C24.0679 9.73672 24.0312 9.18352 23.7777 8.74996C23.5242 8.31641 23.0539 8.00724 22.3669 7.82244L15.3305 5.93897C14.6482 5.75891 14.0914 5.79207 13.6602 6.03847C13.229 6.28486 12.921 6.74685 12.7363 7.42442L12.1535 9.55666L12.6367 12.3002L13.8522 7.77269C13.9375 7.45522 14.0796 7.23844 14.2786 7.12235C14.4776 7.00627 14.7335 6.99087 15.0462 7.07616L22.0541 8.94542C22.3669 9.03071 22.5801 9.17523 22.6938 9.37898C22.8075 9.58272 22.8218 9.8457 22.7365 10.1679L21.4145 15.0863C21.1539 16.0718 20.7535 16.8667 20.2133 17.4709C19.6731 18.075 19.0216 18.4742 18.2588 18.6685C17.4959 18.8627 16.6454 18.8367 15.7072 18.5902C14.6221 18.2917 13.7846 17.7847 13.1947 17.0693C12.6048 16.3538 12.3122 15.4772 12.3169 14.4395L11.3503 16.195C11.6204 17.0621 12.1013 17.7942 12.7931 18.3912C13.4849 18.9883 14.3591 19.4313 15.4158 19.7204ZM15.1883 12.2149C15.4489 12.286 15.6989 12.254 15.9382 12.1189C16.1774 11.9838 16.3326 11.7836 16.4037 11.5183C16.4748 11.253 16.4416 11.0007 16.3042 10.7614C16.1668 10.5221 15.9631 10.3645 15.693 10.2887C15.4324 10.2177 15.1836 10.252 14.9467 10.3918C14.7098 10.5316 14.5534 10.7341 14.4776 10.9995C14.4065 11.2648 14.4409 11.5159 14.5806 11.7529C14.7204 11.9898 14.923 12.1438 15.1883 12.2149ZM19.3604 13.3307C19.6258 13.3971 19.8769 13.3615 20.1138 13.2241C20.3507 13.0867 20.5047 12.8853 20.5758 12.62C20.6469 12.3546 20.6137 12.1035 20.4763 11.8666C20.3389 11.6297 20.1375 11.4757 19.8722 11.4046C19.6068 11.3335 19.3557 11.3655 19.1188 11.5005C18.8818 11.6356 18.7302 11.8358 18.6639 12.1011C18.588 12.3665 18.6189 12.6188 18.7563 12.8581C18.8937 13.0974 19.0951 13.2549 19.3604 13.3307ZM16.3682 16.0529C16.7614 16.1571 17.1275 16.3052 17.4663 16.4971C17.8051 16.689 18.1593 16.9508 18.5289 17.2825C18.671 17.4104 18.8131 17.4424 18.9553 17.3784C19.0975 17.3145 19.1638 17.1877 19.1543 16.9981C19.1306 16.3727 18.9055 15.8195 18.4791 15.3386C18.0527 14.8577 17.4983 14.5295 16.8159 14.3542C16.1336 14.1694 15.488 14.1789 14.8792 14.3826C14.2703 14.5864 13.7976 14.9512 13.4613 15.4772C13.3617 15.6288 13.3582 15.7709 13.4506 15.9036C13.5429 16.0363 13.6839 16.0813 13.8735 16.0387C14.3473 15.9344 14.7832 15.8835 15.1812 15.8858C15.5793 15.8882 15.9749 15.9439 16.3682 16.0529Z" fill="black" fill-opacity="0.54"/>
</g>
</g>
<defs>
<clipPath id="clip0_1340_8955">
<rect width="24" height="24" fill="white"/>
</clipPath>
<clipPath id="clip1_1340_8955">
<rect width="24" height="16.4084" fill="white" transform="translate(0 4)"/>
</clipPath>
</defs>
</svg>
