<svg width="24" height="24" viewBox="0 0 24 24" fill="none" xmlns="http://www.w3.org/2000/svg">
<path d="M21.2848 7.90293C21.3673 7.8653 21.4304 7.8541 21.4783 7.8541C21.6348 7.8541 21.7208 7.90008 21.7864 7.97125C21.8569 8.04779 21.9104 8.16091 21.9104 8.35849V15.8734C21.9104 16.071 21.8569 16.1841 21.7864 16.2607C21.7208 16.3319 21.6348 16.3779 21.4783 16.3779C21.4338 16.3779 21.3729 16.3671 21.2913 16.3284C21.1969 16.2836 21.1025 16.2231 21.0084 16.1437L18.5533 14.0191V10.2061L21.0101 8.08677L21.0148 8.08265M21.2848 7.90293C21.1971 7.94293 21.107 8.00113 21.0148 8.08265M21.2848 7.90293L21.0148 8.08265M5.65243 7.21299C5.34983 7.49678 5.1709 7.91253 5.1709 8.53192V11.2705C5.69467 11.3195 6.19694 11.4467 6.67549 11.6532C7.29637 11.9212 7.84548 12.2928 8.31945 12.7668C8.79378 13.2412 9.16443 13.7908 9.43009 14.4124C9.69871 15.0409 9.83157 15.6872 9.83157 16.3924C9.83157 16.3924 9.7336 17.4235 9.72094 17.4834H14.751C15.3849 17.4834 15.8145 17.3116 16.107 17.0259C16.3957 16.744 16.5706 16.324 16.5706 15.6928V8.53192C16.5706 7.89837 16.4035 7.47642 16.1325 7.19529C15.868 6.92091 15.4588 6.74854 14.8232 6.74854H6.99041C6.39853 6.74854 5.96917 6.91593 5.65243 7.21299Z" stroke="black" stroke-opacity="0.54"/>
<path d="M4.67076 20.0862C5.16693 20.0862 5.63662 19.9898 6.0798 19.7971C6.52299 19.6045 6.91439 19.3395 7.25401 19.0023C7.59363 18.6651 7.85978 18.2749 8.05247 17.8317C8.24517 17.3885 8.34151 16.9164 8.34151 16.4154C8.34151 15.9096 8.24637 15.4351 8.05608 14.9919C7.8658 14.5487 7.60206 14.1585 7.26485 13.8213C6.92764 13.4841 6.53744 13.2204 6.09426 13.0301C5.65107 12.8398 5.17657 12.7446 4.67076 12.7446C4.16976 12.7446 3.69767 12.8398 3.25448 13.0301C2.81129 13.2204 2.42109 13.4853 2.08388 13.8249C1.74667 14.1646 1.48173 14.5547 1.28904 14.9955C1.09635 15.4363 1 15.9096 1 16.4154C1 16.9212 1.09635 17.3957 1.28904 17.8389C1.48173 18.2821 1.74667 18.6723 2.08388 19.0095C2.42109 19.3467 2.81129 19.6105 3.25448 19.8008C3.69767 19.991 4.16976 20.0862 4.67076 20.0862Z" fill="black" fill-opacity="0.54"/>
<path d="M4.67088 18.7132C4.536 18.7132 4.42881 18.6723 4.34933 18.5904C4.26984 18.5085 4.2301 18.4025 4.2301 18.2724V16.8562H2.81382C2.68376 16.8562 2.57778 16.8164 2.49588 16.7369C2.41399 16.6574 2.37305 16.5503 2.37305 16.4154C2.37305 16.2805 2.41399 16.1733 2.49588 16.0938C2.57778 16.0144 2.68376 15.9746 2.81382 15.9746H4.2301V14.5583C4.2301 14.4283 4.26984 14.3223 4.34933 14.2404C4.42881 14.1585 4.536 14.1176 4.67088 14.1176C4.80577 14.1176 4.91295 14.1585 4.99243 14.2404C5.07192 14.3223 5.11166 14.4283 5.11166 14.5583V15.9746H6.52793C6.658 15.9746 6.76398 16.0144 6.84587 16.0938C6.92777 16.1733 6.96872 16.2805 6.96872 16.4154C6.96872 16.5503 6.92777 16.6574 6.84587 16.7369C6.76398 16.8164 6.658 16.8562 6.52793 16.8562H5.11166V18.2724C5.11166 18.4025 5.07192 18.5085 4.99243 18.5904C4.91295 18.6723 4.80577 18.7132 4.67088 18.7132Z" fill="white"/>
</svg>
