<svg width="24" height="24" viewBox="0 0 24 24" fill="none" xmlns="http://www.w3.org/2000/svg">
<g clip-path="url(#clip0_1170_7778)">
<path d="M0.300386 16.1639C0.0972678 16.4309 -0.00284038 16.6775 6.13032e-05 16.9038C0.00296299 17.1302 0.0784068 17.3144 0.226393 17.4566C0.374379 17.5988 0.562988 17.6815 0.792222 17.7048C1.02145 17.7279 1.25504 17.6699 1.49298 17.5306L7.80414 13.9267L15.2905 17.9397C15.4646 18.0268 15.6271 18.095 15.778 18.1443C15.9289 18.1936 16.0769 18.2183 16.2219 18.2183C16.634 18.2183 17.0054 18.0094 17.3362 17.5916L23.7431 9.49585C23.9172 9.27532 24.0028 9.05334 23.9999 8.82991C23.997 8.60648 23.9288 8.41497 23.7953 8.25537C23.6619 8.09578 23.4834 7.99567 23.26 7.95505C23.0365 7.91443 22.7942 7.96956 22.5331 8.12045L16.2219 11.7505L8.72688 7.73743C8.38449 7.55172 8.07401 7.45886 7.79544 7.45886C7.3892 7.45886 7.02069 7.66778 6.6899 8.08562L0.300386 16.1639ZM2.27643 15.8244C2.2242 15.8534 2.18793 15.852 2.16762 15.8201C2.14731 15.7882 2.15456 15.7519 2.18938 15.7112L7.69968 9.03448C7.80995 8.8952 7.94343 8.86618 8.10012 8.94743L15.9085 13.1172C16.0942 13.2158 16.2321 13.2564 16.322 13.239C16.412 13.2216 16.5295 13.1665 16.6746 13.0736L21.7758 9.82664C21.8164 9.80343 21.8512 9.80633 21.8803 9.83534C21.9093 9.86436 21.9063 9.89918 21.8715 9.9398L16.3351 16.6427C16.2191 16.782 16.0856 16.811 15.9346 16.7297L8.11753 12.56C7.93762 12.4614 7.80124 12.4207 7.70839 12.4382C7.61554 12.4556 7.49657 12.5078 7.35148 12.5948L2.27643 15.8244Z" fill="black" fill-opacity="0.54"/>
</g>
<defs>
<clipPath id="clip0_1170_7778">
<rect width="24" height="11.5168" fill="white" transform="translate(0 6.70154)"/>
</clipPath>
</defs>
</svg>
