<svg width="24" height="24" viewBox="0 0 24 24" fill="none" xmlns="http://www.w3.org/2000/svg">
<g clip-path="url(#clip0_1170_7594)">
<path d="M0.300386 15.4624C0.0972678 15.7294 -0.00284038 15.976 6.13032e-05 16.2023C0.00296299 16.4287 0.0784068 16.6129 0.226393 16.7551C0.374379 16.8973 0.562988 16.98 0.792222 17.0032C1.02145 17.0264 1.25504 16.9683 1.49298 16.829L7.80414 13.2252L15.2905 17.2382C15.4646 17.3253 15.6271 17.3934 15.778 17.4428C15.9289 17.4921 16.0769 17.5168 16.2219 17.5168C16.634 17.5168 17.0054 17.3078 17.3362 16.89L23.7431 8.79431C23.9172 8.57378 24.0028 8.3518 23.9999 8.12838C23.997 7.90494 23.9288 7.71343 23.7953 7.55383C23.6619 7.39424 23.4834 7.29414 23.26 7.25351C23.0365 7.21289 22.7942 7.26802 22.5331 7.41891L16.2219 11.0489L8.72688 7.03589C8.38449 6.85018 8.07401 6.75732 7.79544 6.75732C7.3892 6.75732 7.02069 6.96624 6.6899 7.38408L0.300386 15.4624Z" fill="#034AA6"/>
</g>
<defs>
<clipPath id="clip0_1170_7594">
<rect width="24" height="11.5168" fill="white" transform="translate(0 6)"/>
</clipPath>
</defs>
</svg>
