<svg width="24" height="24" viewBox="0 0 24 24" fill="none" xmlns="http://www.w3.org/2000/svg">
<path d="M1.50001 15.8571C1.49932 15.804 1.52308 15.6864 1.67061 15.4914L4.59603 11.7928L7.52442 8.09045C7.7647 7.787 7.97123 7.70557 8.14582 7.70557C8.29136 7.70557 8.49301 7.75494 8.76126 7.90043L8.76363 7.90171L12.1989 9.74102L15.6341 11.5803L15.8788 11.7113L16.1194 11.5729L19.012 9.9092L21.9047 8.24544C22.0755 8.14678 22.1776 8.14241 22.2322 8.15234C22.3333 8.17072 22.3886 8.2083 22.4289 8.25647C22.4718 8.30776 22.4987 8.36995 22.5 8.46888C22.5008 8.53201 22.4794 8.62689 22.3724 8.76252L19.4359 12.4731L16.4995 16.1835C16.2609 16.4849 16.0522 16.5684 15.8701 16.5684C15.7946 16.5684 15.7114 16.5557 15.6185 16.5253C15.5098 16.4898 15.3859 16.4385 15.2461 16.3689L11.8213 14.5331L8.39002 12.6938L8.14614 12.563L7.90586 12.7002L5.01323 14.352L2.12061 16.0038L2.11594 16.0065C1.97089 16.0914 1.86174 16.1088 1.77649 16.1002C1.66326 16.0887 1.59909 16.0531 1.55389 16.0096C1.52522 15.982 1.50114 15.9459 1.50001 15.8571Z" stroke="black" stroke-opacity="0.54"/>
</svg>
