<svg width="24" height="24" viewBox="0 0 24 24" fill="none" xmlns="http://www.w3.org/2000/svg">
<path d="M1.27535 15.1852C1.08916 15.4299 0.997396 15.656 1.00006 15.8635C1.00272 16.071 1.07187 16.2399 1.20753 16.3702C1.34318 16.5005 1.51607 16.5763 1.7262 16.5976C1.93633 16.6189 2.15045 16.5657 2.36856 16.438L8.1538 13.1344L15.0163 16.813C15.1759 16.8928 15.3249 16.9554 15.4632 17.0006C15.6015 17.0458 15.7371 17.0684 15.8701 17.0684C16.2478 17.0684 16.5883 16.8769 16.8915 16.4939L22.7645 9.07281C22.9241 8.87065 23.0026 8.66717 22.9999 8.46236C22.9973 8.25755 22.9348 8.082 22.8124 7.9357C22.6901 7.78941 22.5265 7.69765 22.3216 7.66041C22.1168 7.62317 21.8947 7.67371 21.6554 7.81202L15.8701 11.1395L8.99965 7.46092C8.68578 7.29068 8.40118 7.20557 8.14583 7.20557C7.77344 7.20557 7.43564 7.39708 7.13241 7.7801L1.27535 15.1852Z" fill="#20881D"/>
</svg>
