<svg width="24" height="24" viewBox="0 0 24 24" fill="none" xmlns="http://www.w3.org/2000/svg">
<path d="M5.8168 17.0766C5.8168 17.0766 7.60002 14.8 12 14.8C16.4 14.8 18.1833 17.0766 18.1833 17.0766M12 4C7.58172 4 4 7.58172 4 12C4 16.4182 7.58172 20 12 20C16.4182 20 20 16.4182 20 12C20 7.58172 16.4182 4 12 4ZM12 12C13.3255 12 14.4 10.9255 14.4 9.60001C14.4 8.27453 13.3255 7.20001 12 7.20001C10.6745 7.20001 9.60001 8.27453 9.60001 9.60001C9.60001 10.9255 10.6745 12 12 12Z" stroke="#77329B" stroke-width="1.2" stroke-linecap="round" stroke-linejoin="round"/>
</svg>
