<svg width="25" height="24" viewBox="0 0 25 24" fill="none" xmlns="http://www.w3.org/2000/svg">
<g clip-path="url(#clip0_1340_10012)">
<path d="M7.91455 19.7264H17.7349C19.0109 19.7264 19.6489 19.3098 19.6489 18.4764C19.6489 17.966 19.4926 17.4218 19.1802 16.8436C18.8677 16.2655 18.4159 15.7199 17.8247 15.2069C17.2336 14.6939 16.5174 14.2759 15.6762 13.953C14.8351 13.6301 13.8859 13.4686 12.8286 13.4686C11.7661 13.4686 10.8143 13.6301 9.97314 13.953C9.132 14.2759 8.41585 14.6939 7.8247 15.2069C7.23356 15.7199 6.78174 16.2655 6.46924 16.8436C6.15674 17.4218 6.00049 17.966 6.00049 18.4764C6.00049 19.3098 6.63851 19.7264 7.91455 19.7264ZM7.54736 18.5468C7.44319 18.5468 7.36898 18.5311 7.3247 18.4999C7.28044 18.4686 7.2583 18.4113 7.2583 18.328C7.2583 18.0103 7.3794 17.6418 7.62158 17.2225C7.86377 16.8033 8.22184 16.3983 8.6958 16.0077C9.16976 15.6171 9.75309 15.2928 10.4458 15.035C11.1385 14.7772 11.9328 14.6483 12.8286 14.6483C13.7244 14.6483 14.5174 14.7772 15.2075 15.035C15.8976 15.2928 16.4796 15.6171 16.9536 16.0077C17.4276 16.3983 17.7857 16.8033 18.0278 17.2225C18.27 17.6418 18.3911 18.0103 18.3911 18.328C18.3911 18.4113 18.369 18.4686 18.3247 18.4999C18.2805 18.5311 18.2088 18.5468 18.1098 18.5468H7.54736ZM12.8286 12.4999C13.4484 12.4999 14.0135 12.3332 14.5239 11.9999C15.0343 11.6665 15.4419 11.2225 15.7466 10.6678C16.0513 10.1132 16.2036 9.49988 16.2036 8.82801C16.2036 8.16134 16.0526 7.55847 15.7505 7.01941C15.4484 6.48034 15.0422 6.05196 14.5318 5.73425C14.0213 5.41654 13.4536 5.25769 12.8286 5.25769C12.2088 5.25769 11.6437 5.41915 11.1333 5.74206C10.6229 6.06498 10.2153 6.49727 9.91065 7.03894C9.60596 7.58061 9.45362 8.18217 9.45362 8.84363C9.45362 9.5103 9.60596 10.121 9.91065 10.6757C10.2153 11.2303 10.6229 11.6731 11.1333 12.0038C11.6437 12.3345 12.2088 12.4999 12.8286 12.4999ZM12.8286 11.3202C12.4484 11.3202 12.0981 11.2095 11.7778 10.9882C11.4575 10.7668 11.1997 10.4686 11.0044 10.0936C10.8091 9.71863 10.7114 9.30196 10.7114 8.84363C10.7114 8.3905 10.8078 7.98295 11.0005 7.62097C11.1932 7.25899 11.4497 6.97123 11.77 6.75769C12.0903 6.54415 12.4432 6.43738 12.8286 6.43738C13.2192 6.43738 13.5747 6.54155 13.895 6.74988C14.2154 6.95821 14.4706 7.24337 14.6606 7.60535C14.8507 7.96733 14.9458 8.37488 14.9458 8.82801C14.9458 9.28634 14.8494 9.7043 14.6567 10.0819C14.464 10.4595 14.2075 10.7603 13.8872 10.9843C13.5669 11.2082 13.214 11.3202 12.8286 11.3202Z" fill="black" fill-opacity="0.54"/>
</g>
<defs>
<clipPath id="clip0_1340_10012">
<rect width="13.6484" height="14.7266" fill="white" transform="translate(6 5)"/>
</clipPath>
</defs>
</svg>
