<svg width="25" height="24" viewBox="0 0 25 24" fill="none" xmlns="http://www.w3.org/2000/svg">
<g clip-path="url(#clip0_49_5448)">
<path d="M7.10459 20.1848H17.8974C19.2998 20.1848 20.001 19.7269 20.001 18.811C20.001 18.2501 19.8293 17.6519 19.4858 17.0165C19.1424 16.3811 18.6459 15.7815 17.9962 15.2177C17.3465 14.6539 16.5594 14.1945 15.6349 13.8396C14.7105 13.4847 13.6673 13.3072 12.5053 13.3072C11.3376 13.3072 10.2915 13.4847 9.36704 13.8396C8.4426 14.1945 7.65553 14.6539 7.00584 15.2177C6.35616 15.7815 5.8596 16.3811 5.51615 17.0165C5.1727 17.6519 5.00098 18.2501 5.00098 18.811C5.00098 19.7269 5.70218 20.1848 7.10459 20.1848ZM6.70104 18.8883C6.58655 18.8883 6.50499 18.8711 6.45633 18.8368C6.40768 18.8024 6.38335 18.7395 6.38335 18.6479C6.38335 18.2987 6.51644 17.8937 6.78261 17.4329C7.04878 16.9721 7.44231 16.5271 7.96321 16.0978C8.4841 15.6685 9.1252 15.3121 9.88651 15.0288C10.6478 14.7454 11.5207 14.6037 12.5053 14.6037C13.4898 14.6037 14.3613 14.7454 15.1198 15.0288C15.8782 15.3121 16.5179 15.6685 17.0388 16.0978C17.5597 16.5271 17.9532 16.9721 18.2194 17.4329C18.4856 17.8937 18.6187 18.2987 18.6187 18.6479C18.6187 18.7395 18.5943 18.8024 18.5457 18.8368C18.497 18.8711 18.4183 18.8883 18.3095 18.8883H6.70104ZM12.5053 12.2426C13.1865 12.2426 13.8075 12.0594 14.3685 11.6931C14.9294 11.3267 15.3773 10.8387 15.7122 10.2291C16.0471 9.61951 16.2145 8.94549 16.2145 8.20709C16.2145 7.4744 16.0485 6.81183 15.7165 6.21938C15.3845 5.62694 14.9381 5.15613 14.3771 4.80696C13.8161 4.45779 13.1922 4.2832 12.5053 4.2832C11.8241 4.2832 11.2031 4.46065 10.6421 4.81555C10.0811 5.17044 9.63322 5.64554 9.29836 6.24085C8.9635 6.83616 8.79607 7.49729 8.79607 8.22426C8.79607 8.95694 8.9635 9.6281 9.29836 10.2377C9.63322 10.8473 10.0811 11.3339 10.6421 11.6974C11.2031 12.0608 11.8241 12.2426 12.5053 12.2426ZM12.5053 10.9461C12.0874 10.9461 11.7025 10.8244 11.3505 10.5812C10.9984 10.3379 10.7151 10.0102 10.5004 9.59804C10.2858 9.18591 10.1784 8.72798 10.1784 8.22426C10.1784 7.72626 10.2843 7.27835 10.4961 6.88052C10.7079 6.4827 10.9898 6.16644 11.3419 5.93175C11.6939 5.69706 12.0817 5.57972 12.5053 5.57972C12.9346 5.57972 13.3253 5.6942 13.6773 5.92316C14.0294 6.15212 14.3098 6.46552 14.5188 6.86335C14.7277 7.26118 14.8321 7.70909 14.8321 8.20709C14.8321 8.71081 14.7262 9.17016 14.5144 9.58516C14.3027 10.0002 14.0208 10.3307 13.6687 10.5769C13.3167 10.823 12.9289 10.9461 12.5053 10.9461Z" fill="black" fill-opacity="0.54"/>
</g>
<defs>
<clipPath id="clip0_49_5448">
<rect width="15" height="16.1849" fill="white" transform="translate(5 4)"/>
</clipPath>
</defs>
</svg>
