<svg width="24" height="24" viewBox="0 0 24 24" fill="none" xmlns="http://www.w3.org/2000/svg">
<g clip-path="url(#clip0_1483_5799)">
<g filter="url(#filter0_d_1483_5799)">
<path d="M6.33594 19.3047H16.8125C17.2292 19.3047 17.556 19.2123 17.793 19.0274C18.0299 18.8425 18.1484 18.5885 18.1484 18.2656C18.1484 17.7656 17.9961 17.237 17.6914 16.6797C17.3867 16.1224 16.9492 15.6003 16.3789 15.1133C15.8086 14.6263 15.1185 14.2305 14.3086 13.9258C13.4987 13.6211 12.5859 13.4687 11.5703 13.4687C10.5599 13.4687 9.64974 13.6211 8.83984 13.9258C8.02995 14.2305 7.33854 14.6263 6.76562 15.1133C6.19271 15.6003 5.75521 16.1224 5.45312 16.6797C5.15104 17.237 5 17.7656 5 18.2656C5 18.5885 5.11849 18.8425 5.35547 19.0274C5.59245 19.2123 5.91927 19.3047 6.33594 19.3047ZM11.5781 12.0703C12.1354 12.0703 12.651 11.918 13.125 11.6133C13.5989 11.3086 13.9805 10.8958 14.2695 10.375C14.5586 9.85417 14.7031 9.26823 14.7031 8.61718C14.7031 7.97656 14.5586 7.40234 14.2695 6.89453C13.9805 6.38672 13.5989 5.98698 13.125 5.69531C12.651 5.40365 12.1354 5.25781 11.5781 5.25781C11.0208 5.25781 10.5052 5.40625 10.0312 5.70312C9.55729 6 9.17578 6.40365 8.88672 6.91406C8.59766 7.42448 8.45313 7.9974 8.45313 8.63282C8.45313 9.27864 8.59766 9.86067 8.88672 10.3789C9.17578 10.8971 9.55729 11.3086 10.0312 11.6133C10.5052 11.918 11.0208 12.0703 11.5781 12.0703Z" fill="#034AA6"/>
</g>
</g>
<defs>
<filter id="filter0_d_1483_5799" x="3" y="3.25781" width="19.1484" height="20.0469" filterUnits="userSpaceOnUse" color-interpolation-filters="sRGB">
<feFlood flood-opacity="0" result="BackgroundImageFix"/>
<feColorMatrix in="SourceAlpha" type="matrix" values="0 0 0 0 0 0 0 0 0 0 0 0 0 0 0 0 0 0 127 0" result="hardAlpha"/>
<feOffset dx="1" dy="1"/>
<feGaussianBlur stdDeviation="1.5"/>
<feComposite in2="hardAlpha" operator="out"/>
<feColorMatrix type="matrix" values="0 0 0 0 0 0 0 0 0 0 0 0 0 0 0 0 0 0 0.25 0"/>
<feBlend mode="normal" in2="BackgroundImageFix" result="effect1_dropShadow_1483_5799"/>
<feBlend mode="normal" in="SourceGraphic" in2="effect1_dropShadow_1483_5799" result="shape"/>
</filter>
<clipPath id="clip0_1483_5799">
<rect width="24" height="24" fill="white"/>
</clipPath>
</defs>
</svg>
