<svg width="44" height="44" viewBox="0 0 44 44" fill="none" xmlns="http://www.w3.org/2000/svg">
<g clip-path="url(#clip0_1481_5406)">
<rect width="44" height="44" fill="white"/>
<g filter="url(#filter0_d_1481_5406)">
<circle cx="21.5" cy="22.5" r="18.8198" stroke="#034AA6" stroke-width="1.36047" shape-rendering="crispEdges"/>
</g>
<g filter="url(#filter1_d_1481_5406)">
<path d="M25.0911 16.3943H16.7506C16.012 16.3943 15.4157 16.6072 14.9617 17.0329C14.5077 17.4587 14.2808 18.0562 14.2808 18.8257V22.2496C14.963 22.2496 15.6042 22.3791 16.2043 22.6381C16.8045 22.8972 17.3328 23.255 17.7893 23.7115C18.2459 24.168 18.6024 24.6964 18.8588 25.2965C19.1153 25.8967 19.2436 26.5378 19.2436 27.2201C19.2436 27.5073 19.2192 27.792 19.1704 28.0741C19.1217 28.3563 19.0486 28.6281 18.9512 28.8897H25.0142C25.7888 28.8897 26.3941 28.6769 26.8301 28.2511C27.2661 27.8254 27.4841 27.2252 27.4841 26.4506V18.8257C27.4841 18.0562 27.2789 17.4587 26.8685 17.0329C26.4581 16.6072 25.8657 16.3943 25.0911 16.3943ZM28.5305 24.9118L31.3312 27.3355C31.4646 27.4483 31.6043 27.5394 31.7505 27.6086C31.8967 27.6779 32.039 27.7125 32.1776 27.7125C32.4751 27.7125 32.7149 27.6138 32.897 27.4163C33.079 27.2188 33.1701 26.961 33.1701 26.643V18.641C33.1701 18.323 33.079 18.0652 32.897 17.8677C32.7149 17.6702 32.4751 17.5715 32.1776 17.5715C32.039 17.5715 31.8967 17.6048 31.7505 17.6715C31.6043 17.7382 31.4646 17.8305 31.3312 17.9485L28.5305 20.3645V24.9118Z" fill="#034AA6"/>
<path d="M14.2807 31.1286C14.8091 31.1286 15.3092 31.0261 15.7811 30.8209C16.253 30.6157 16.6698 30.3336 17.0314 29.9745C17.3931 29.6155 17.6765 29.2 17.8816 28.728C18.0868 28.2561 18.1894 27.7535 18.1894 27.22C18.1894 26.6814 18.0881 26.1761 17.8855 25.7042C17.6829 25.2323 17.402 24.8168 17.043 24.4577C16.6839 24.0987 16.2684 23.8178 15.7965 23.6152C15.3246 23.4126 14.8193 23.3113 14.2807 23.3113C13.7473 23.3113 13.2446 23.4126 12.7727 23.6152C12.3008 23.8178 11.8853 24.1 11.5262 24.4616C11.1671 24.8232 10.885 25.2387 10.6798 25.708C10.4747 26.1774 10.3721 26.6814 10.3721 27.22C10.3721 27.7586 10.4747 28.2638 10.6798 28.7357C10.885 29.2076 11.1671 29.6231 11.5262 29.9822C11.8853 30.3412 12.3008 30.6221 12.7727 30.8247C13.2446 31.0273 13.7473 31.1286 14.2807 31.1286Z" fill="#FCE872"/>
<path d="M14.2808 29.6667C14.1371 29.6667 14.023 29.6231 13.9384 29.5359C13.8537 29.4487 13.8114 29.3359 13.8114 29.1973V27.6893H12.3033C12.1648 27.6893 12.052 27.647 11.9648 27.5623C11.8776 27.4777 11.834 27.3636 11.834 27.22C11.834 27.0763 11.8776 26.9622 11.9648 26.8776C12.052 26.7929 12.1648 26.7506 12.3033 26.7506H13.8114V25.2425C13.8114 25.104 13.8537 24.9912 13.9384 24.904C14.023 24.8168 14.1371 24.7732 14.2808 24.7732C14.4244 24.7732 14.5385 24.8168 14.6231 24.904C14.7078 24.9912 14.7501 25.104 14.7501 25.2425V26.7506H16.2582C16.3967 26.7506 16.5095 26.7929 16.5967 26.8776C16.6839 26.9622 16.7275 27.0763 16.7275 27.22C16.7275 27.3636 16.6839 27.4777 16.5967 27.5623C16.5095 27.647 16.3967 27.6893 16.2582 27.6893H14.7501V29.1973C14.7501 29.3359 14.7078 29.4487 14.6231 29.5359C14.5385 29.6231 14.4244 29.6667 14.2808 29.6667Z" fill="white"/>
</g>
</g>
<defs>
<filter id="filter0_d_1481_5406" x="0.186047" y="1.18605" width="44.4419" height="44.4419" filterUnits="userSpaceOnUse" color-interpolation-filters="sRGB">
<feFlood flood-opacity="0" result="BackgroundImageFix"/>
<feColorMatrix in="SourceAlpha" type="matrix" values="0 0 0 0 0 0 0 0 0 0 0 0 0 0 0 0 0 0 127 0" result="hardAlpha"/>
<feOffset dx="0.906977" dy="0.906977"/>
<feGaussianBlur stdDeviation="1.36047"/>
<feComposite in2="hardAlpha" operator="out"/>
<feColorMatrix type="matrix" values="0 0 0 0 0 0 0 0 0 0 0 0 0 0 0 0 0 0 0.25 0"/>
<feBlend mode="normal" in2="BackgroundImageFix" result="effect1_dropShadow_1481_5406"/>
<feBlend mode="normal" in="SourceGraphic" in2="effect1_dropShadow_1481_5406" result="shape"/>
</filter>
<filter id="filter1_d_1481_5406" x="9.44184" y="15.4641" width="28.3794" height="20.3158" filterUnits="userSpaceOnUse" color-interpolation-filters="sRGB">
<feFlood flood-opacity="0" result="BackgroundImageFix"/>
<feColorMatrix in="SourceAlpha" type="matrix" values="0 0 0 0 0 0 0 0 0 0 0 0 0 0 0 0 0 0 127 0" result="hardAlpha"/>
<feOffset dx="1.86047" dy="1.86047"/>
<feGaussianBlur stdDeviation="1.39535"/>
<feComposite in2="hardAlpha" operator="out"/>
<feColorMatrix type="matrix" values="0 0 0 0 0 0 0 0 0 0 0 0 0 0 0 0 0 0 0.25 0"/>
<feBlend mode="normal" in2="BackgroundImageFix" result="effect1_dropShadow_1481_5406"/>
<feBlend mode="normal" in="SourceGraphic" in2="effect1_dropShadow_1481_5406" result="shape"/>
</filter>
<clipPath id="clip0_1481_5406">
<rect width="44" height="44" fill="white"/>
</clipPath>
</defs>
</svg>
