<svg width="24" height="24" viewBox="0 0 24 24" fill="none" xmlns="http://www.w3.org/2000/svg">
<path d="M5.65243 7.21299L5.65243 7.21299C5.34983 7.49678 5.1709 7.91253 5.1709 8.53192V11.2705C5.69467 11.3195 6.19694 11.4467 6.67549 11.6532L6.67552 11.6533C7.2964 11.9213 7.84548 12.2928 8.31945 12.7668L8.31947 12.7668C8.7938 13.2412 9.16443 13.7908 9.43009 14.4124M5.65243 7.21299L9.83162 16.4154C9.83162 15.7102 9.69871 15.0409 9.43009 14.4124M5.65243 7.21299C5.96917 6.91593 6.39853 6.74854 6.99041 6.74854H14.8232C15.4588 6.74854 15.868 6.92091 16.1325 7.19529L16.4911 6.84956L16.1325 7.19529C16.4035 7.47642 16.5706 7.89837 16.5706 8.53192V15.6928C16.5706 16.324 16.3957 16.744 16.107 17.0259C15.8145 17.3116 15.3849 17.4834 14.751 17.4834H9.72094C9.7336 17.4235 9.74518 17.3632 9.75566 17.3025L5.65243 7.21299ZM9.43009 14.4124L8.98289 14.6036L9.43009 14.4124ZM21.2913 16.3284L21.2914 16.3284C21.373 16.3671 21.4338 16.3779 21.4783 16.3779C21.6348 16.3779 21.7208 16.3319 21.7864 16.2607C21.8569 16.1841 21.9104 16.071 21.9104 15.8734V8.35849C21.9104 8.16091 21.8569 8.04779 21.7864 7.97125C21.7208 7.90008 21.6348 7.8541 21.4783 7.8541C21.4304 7.8541 21.3673 7.8653 21.2848 7.90293L21.2913 16.3284ZM21.2913 16.3284C21.1969 16.2836 21.1025 16.2231 21.0084 16.1437L18.5533 14.0191V10.2061L21.0101 8.08677L21.0101 8.0868M21.2913 16.3284L21.0101 8.0868M21.0101 8.0868L21.0148 8.08266M21.0101 8.0868L21.0148 8.08266M21.0148 8.08266C21.107 8.00114 21.1971 7.94294 21.2848 7.90294L21.0148 8.08266Z" stroke="black" stroke-opacity="0.54"/>
<path d="M4.67088 20.0862C5.16706 20.0862 5.63674 19.9898 6.07992 19.7971C6.52311 19.6045 6.91452 19.3395 7.25414 19.0023C7.59375 18.6651 7.8599 18.2749 8.0526 17.8317C8.24529 17.3885 8.34163 16.9164 8.34163 16.4154C8.34163 15.9096 8.24649 15.4351 8.05621 14.9919C7.86593 14.5487 7.60218 14.1585 7.26498 13.8213C6.92776 13.4841 6.53757 13.2204 6.09438 13.0301C5.65119 12.8398 5.17669 12.7446 4.67088 12.7446C4.16988 12.7446 3.69779 12.8398 3.2546 13.0301C2.81142 13.2204 2.42122 13.4853 2.084 13.8249C1.7468 14.1646 1.48185 14.5547 1.28916 14.9955C1.09647 15.4363 1.00012 15.9096 1.00012 16.4154C1.00012 16.9212 1.09647 17.3957 1.28916 17.8389C1.48185 18.2821 1.7468 18.6723 2.084 19.0095C2.42122 19.3467 2.81142 19.6105 3.2546 19.8008C3.69779 19.991 4.16988 20.0862 4.67088 20.0862Z" fill="black" fill-opacity="0.54"/>
<path d="M4.67088 18.7131C4.536 18.7131 4.42881 18.6721 4.34933 18.5902C4.26984 18.5084 4.2301 18.4024 4.2301 18.2723V16.8561H2.81382C2.68376 16.8561 2.57778 16.8163 2.49588 16.7368C2.41399 16.6573 2.37305 16.5502 2.37305 16.4153C2.37305 16.2804 2.41399 16.1732 2.49588 16.0937C2.57778 16.0142 2.68376 15.9745 2.81382 15.9745H4.2301V14.5582C4.2301 14.4281 4.26984 14.3221 4.34933 14.2403C4.42881 14.1584 4.536 14.1174 4.67088 14.1174C4.80577 14.1174 4.91295 14.1584 4.99243 14.2403C5.07192 14.3221 5.11166 14.4281 5.11166 14.5582V15.9745H6.52793C6.658 15.9745 6.76398 16.0142 6.84587 16.0937C6.92777 16.1732 6.96872 16.2804 6.96872 16.4153C6.96872 16.5502 6.92777 16.6573 6.84587 16.7368C6.76398 16.8163 6.658 16.8561 6.52793 16.8561H5.11166V18.2723C5.11166 18.4024 5.07192 18.5084 4.99243 18.5902C4.91295 18.6721 4.80577 18.7131 4.67088 18.7131Z" fill="white"/>
</svg>
