<svg width="24" height="24" viewBox="0 0 24 24" fill="none" xmlns="http://www.w3.org/2000/svg">
<g clip-path="url(#clip0_1170_7815)">
<path d="M18.9922 14.2187L21.8359 16.6797C21.9713 16.7995 22.1133 16.8932 22.2617 16.961C22.4102 17.0286 22.5547 17.0625 22.6953 17.0625C22.9974 17.0625 23.2409 16.9622 23.4258 16.7617C23.6107 16.5612 23.7031 16.2995 23.7031 15.9766V7.85156C23.7031 7.52864 23.6107 7.26693 23.4258 7.06641C23.2409 6.86589 22.9974 6.76562 22.6953 6.76562C22.5547 6.76562 22.4102 6.80078 22.2617 6.8711C22.1133 6.94141 21.9713 7.03385 21.8359 7.14844L18.9922 9.60156V14.2187ZM15.5 5.57031H7.03125C6.28125 5.57031 5.67578 5.78646 5.21484 6.21875C4.75391 6.65104 4.52344 7.26041 4.52344 8.04687V12.289C4.61198 12.2578 4.70443 12.2331 4.80078 12.2149C4.89714 12.1966 4.99739 12.1875 5.10156 12.1875C5.40885 12.1875 5.6888 12.2656 5.94141 12.4218C6.19401 12.5781 6.38802 12.7786 6.52344 13.0234C6.65885 12.9818 6.79166 12.961 6.92187 12.961C7.33854 12.961 7.70182 13.0912 8.01172 13.3516C8.32161 13.612 8.51562 13.9349 8.59375 14.3203C8.59896 14.3463 8.60286 14.3711 8.60547 14.3946C8.60807 14.418 8.60938 14.4427 8.60938 14.4687C8.63542 14.4583 8.66016 14.4492 8.68359 14.4414C8.70703 14.4336 8.73177 14.4297 8.75782 14.4297C9.07554 14.4297 9.36331 14.5065 9.62112 14.6602C9.87893 14.8138 10.0847 15.0195 10.2383 15.2774C10.3919 15.5352 10.4687 15.8203 10.4687 16.1328V18.2578H15.4218C16.2083 18.2578 16.8229 18.0417 17.2656 17.6094C17.7083 17.1771 17.9297 16.5703 17.9297 15.789V8.04687C17.9297 7.26041 17.7214 6.65104 17.3047 6.21875C16.888 5.78646 16.2865 5.57031 15.5 5.57031ZM1.42969 18.1718C1.5599 18.1718 1.66797 18.1302 1.75391 18.0469C1.83985 17.9635 1.88282 17.8619 1.88282 17.7422V16.5547C1.88282 16.4297 1.83985 16.3242 1.75391 16.2383C1.66797 16.1523 1.5599 16.1094 1.42969 16.1094C1.3099 16.1094 1.20833 16.1523 1.125 16.2383C1.04167 16.3242 1 16.4297 1 16.5547V17.7422C1 17.8619 1.04167 17.9635 1.125 18.0469C1.20833 18.1302 1.3099 18.1718 1.42969 18.1718ZM3.27344 19.4844C3.39844 19.4844 3.5026 19.4427 3.58594 19.3594C3.66927 19.2761 3.71094 19.1693 3.71094 19.039V15.2422C3.71094 15.1224 3.66927 15.0195 3.58594 14.9336C3.5026 14.8477 3.39844 14.8047 3.27344 14.8047C3.14844 14.8047 3.04297 14.8477 2.95703 14.9336C2.8711 15.0195 2.82813 15.1224 2.82813 15.2422V19.039C2.82813 19.1693 2.8711 19.2761 2.95703 19.3594C3.04297 19.4427 3.14844 19.4844 3.27344 19.4844ZM5.10156 20.8359C5.22656 20.8359 5.33203 20.7943 5.41797 20.711C5.5039 20.6276 5.54687 20.5234 5.54687 20.3984V13.9062C5.54687 13.7761 5.5039 13.668 5.41797 13.582C5.33203 13.4961 5.22656 13.4531 5.10156 13.4531C4.98177 13.4531 4.8789 13.4961 4.79297 13.582C4.70703 13.668 4.66406 13.7761 4.66406 13.9062V20.3984C4.66406 20.5234 4.70573 20.6276 4.78906 20.711C4.8724 20.7943 4.97656 20.8359 5.10156 20.8359ZM6.92969 20.0625C7.05469 20.0625 7.16015 20.0195 7.2461 19.9336C7.33203 19.8477 7.375 19.7422 7.375 19.6172V14.6641C7.375 14.5443 7.33203 14.4427 7.2461 14.3594C7.16015 14.2761 7.05469 14.2344 6.92969 14.2344C6.8099 14.2344 6.70703 14.2761 6.6211 14.3594C6.53515 14.4427 6.49218 14.5443 6.49218 14.6641V19.6172C6.49218 19.7422 6.53515 19.8477 6.6211 19.9336C6.70703 20.0195 6.8099 20.0625 6.92969 20.0625ZM8.76562 18.5859C8.89583 18.5859 9.0026 18.5443 9.08592 18.461C9.16928 18.3776 9.21096 18.2734 9.21096 18.1484V16.1406C9.21096 16.0156 9.16928 15.9115 9.08592 15.8282C9.0026 15.7448 8.89583 15.7031 8.76562 15.7031C8.64583 15.7031 8.54297 15.7461 8.45703 15.832C8.3711 15.918 8.32813 16.0209 8.32813 16.1406V18.1484C8.32813 18.2682 8.3711 18.3711 8.45703 18.457C8.54297 18.543 8.64583 18.5859 8.76562 18.5859Z" fill="#034AA6"/>
</g>
<defs>
<clipPath id="clip0_1170_7815">
<rect width="22.7031" height="17.8359" fill="white" transform="translate(1 3)"/>
</clipPath>
</defs>
</svg>
