<svg width="24" height="24" viewBox="0 0 24 24" fill="none" xmlns="http://www.w3.org/2000/svg">
<g clip-path="url(#clip0_1340_7897)">
<path d="M10.4687 18.3359H15.6562C16.6094 18.3359 17.3555 18.0716 17.8946 17.543C18.4336 17.0143 18.7031 16.2734 18.7031 15.3203V14.25L21.6562 16.75C21.8125 16.8802 21.974 16.9857 22.1406 17.0664C22.3073 17.1472 22.4714 17.1875 22.6328 17.1875C22.9765 17.1875 23.2526 17.0729 23.461 16.8438C23.6693 16.6146 23.7734 16.3177 23.7734 15.9531V7.875C23.7734 7.51042 23.6693 7.21355 23.461 6.98438C23.2526 6.75521 22.9765 6.64063 22.6328 6.64063C22.4714 6.64063 22.3073 6.68099 22.1406 6.76172C21.974 6.84245 21.8125 6.94792 21.6562 7.07813L18.7031 9.57813V8.5C18.7031 7.55209 18.4336 6.81381 17.8946 6.28516C17.3555 5.75651 16.6094 5.49219 15.6562 5.49219H7.49218C6.58073 5.49219 5.84505 5.75651 5.28516 6.28516C4.72526 6.81381 4.44531 7.55209 4.44531 8.5V12.3203C4.54427 12.2787 4.64844 12.2461 4.75782 12.2226C4.86719 12.1992 4.98177 12.1875 5.10156 12.1875C5.20573 12.1875 5.3086 12.1966 5.41016 12.2149C5.51172 12.2331 5.60937 12.2604 5.70313 12.2969V8.68751C5.70313 8.01042 5.87761 7.50391 6.22656 7.16797C6.57552 6.83204 7.07031 6.66407 7.71094 6.66407H15.4375C16.0781 6.66407 16.5729 6.83204 16.9218 7.16797C17.2708 7.50391 17.4453 8.01042 17.4453 8.68751V15.1406C17.4453 15.8177 17.2708 16.3229 16.9218 16.6562C16.5729 16.9896 16.0781 17.1562 15.4375 17.1562H10.4687V18.3359ZM18.7031 12.7656V11.0625L22.2422 8.14063C22.2786 8.11458 22.3112 8.09245 22.3398 8.07422C22.3685 8.05599 22.3984 8.04688 22.4297 8.04688C22.5182 8.04688 22.5625 8.10938 22.5625 8.23438V15.5938C22.5625 15.7136 22.5182 15.7734 22.4297 15.7734C22.3984 15.7734 22.3685 15.7643 22.3398 15.7461C22.3112 15.7278 22.2786 15.7083 22.2422 15.6875L18.7031 12.7656ZM1.42969 18.1718C1.5599 18.1718 1.66797 18.1302 1.75391 18.0469C1.83985 17.9635 1.88282 17.8619 1.88282 17.7422V16.5547C1.88282 16.4297 1.83985 16.3242 1.75391 16.2383C1.66797 16.1523 1.5599 16.1094 1.42969 16.1094C1.3099 16.1094 1.20833 16.1523 1.125 16.2383C1.04167 16.3242 1 16.4297 1 16.5547V17.7422C1 17.8619 1.04167 17.9635 1.125 18.0469C1.20833 18.1302 1.3099 18.1718 1.42969 18.1718ZM3.27344 19.4844C3.39844 19.4844 3.5026 19.4427 3.58594 19.3594C3.66927 19.2761 3.71094 19.1693 3.71094 19.039V15.2422C3.71094 15.1224 3.66927 15.0195 3.58594 14.9336C3.5026 14.8477 3.39844 14.8047 3.27344 14.8047C3.14844 14.8047 3.04297 14.8477 2.95703 14.9336C2.8711 15.0195 2.82813 15.1224 2.82813 15.2422V19.039C2.82813 19.1693 2.8711 19.2761 2.95703 19.3594C3.04297 19.4427 3.14844 19.4844 3.27344 19.4844ZM5.10156 20.8359C5.22656 20.8359 5.33203 20.7943 5.41797 20.711C5.5039 20.6276 5.54687 20.5234 5.54687 20.3984V13.9062C5.54687 13.7761 5.5039 13.668 5.41797 13.582C5.33203 13.4961 5.22656 13.4531 5.10156 13.4531C4.98177 13.4531 4.8789 13.4961 4.79297 13.582C4.70703 13.668 4.66406 13.7761 4.66406 13.9062V20.3984C4.66406 20.5234 4.70573 20.6276 4.78906 20.711C4.8724 20.7943 4.97656 20.8359 5.10156 20.8359ZM6.92969 20.0625C7.05469 20.0625 7.16015 20.0195 7.2461 19.9336C7.33203 19.8477 7.375 19.7422 7.375 19.6172V14.6641C7.375 14.5443 7.33203 14.4427 7.2461 14.3594C7.16015 14.2761 7.05469 14.2344 6.92969 14.2344C6.8099 14.2344 6.70703 14.2761 6.6211 14.3594C6.53515 14.4427 6.49218 14.5443 6.49218 14.6641V19.6172C6.49218 19.7422 6.53515 19.8477 6.6211 19.9336C6.70703 20.0195 6.8099 20.0625 6.92969 20.0625ZM8.76562 18.5859C8.89583 18.5859 9.0026 18.5443 9.08592 18.461C9.16928 18.3776 9.21096 18.2734 9.21096 18.1484V16.1406C9.21096 16.0156 9.16928 15.9115 9.08592 15.8282C9.0026 15.7448 8.89583 15.7031 8.76562 15.7031C8.64583 15.7031 8.54297 15.7461 8.45703 15.832C8.3711 15.918 8.32813 16.0209 8.32813 16.1406V18.1484C8.32813 18.2682 8.3711 18.3711 8.45703 18.457C8.54297 18.543 8.64583 18.5859 8.76562 18.5859Z" fill="black" fill-opacity="0.54"/>
</g>
<defs>
<clipPath id="clip0_1340_7897">
<rect width="22.7734" height="17.8359" fill="white" transform="translate(1 3)"/>
</clipPath>
</defs>
</svg>
