<svg width="680" height="396" viewBox="0 0 680 396" fill="none" xmlns="http://www.w3.org/2000/svg">
<path d="M56.1265 347.536C43.9665 347.536 34.4945 344.464 27.7105 338.32C20.9265 332.048 17.5345 322.768 17.5345 310.48V219.856H47.4865V310.096C47.4865 314.448 48.6385 317.84 50.9425 320.272C53.2465 322.576 56.3825 323.728 60.3505 323.728C65.0865 323.728 69.1185 322.448 72.4465 319.888L80.5105 341.008C77.4385 343.184 73.7265 344.848 69.3745 346C65.1505 347.024 60.7345 347.536 56.1265 347.536ZM1.5985 268.048V245.008H73.2145V268.048H1.5985ZM160.684 346V325.84L158.764 321.424V285.328C158.764 278.928 156.78 273.936 152.812 270.352C148.972 266.768 143.02 264.976 134.956 264.976C129.452 264.976 124.012 265.872 118.636 267.664C113.388 269.328 108.908 271.632 105.196 274.576L94.444 253.648C100.076 249.68 106.86 246.608 114.796 244.432C122.732 242.256 130.796 241.168 138.988 241.168C154.732 241.168 166.956 244.88 175.66 252.304C184.364 259.728 188.716 271.312 188.716 287.056V346H160.684ZM129.196 347.536C121.132 347.536 114.22 346.192 108.46 343.504C102.7 340.688 98.284 336.912 95.212 332.176C92.14 327.44 90.604 322.128 90.604 316.24C90.604 310.096 92.076 304.72 95.02 300.112C98.092 295.504 102.892 291.92 109.42 289.36C115.948 286.672 124.46 285.328 134.956 285.328H162.412V302.8H138.22C131.18 302.8 126.316 303.952 123.628 306.256C121.068 308.56 119.788 311.44 119.788 314.896C119.788 318.736 121.26 321.808 124.204 324.112C127.276 326.288 131.436 327.376 136.684 327.376C141.676 327.376 146.156 326.224 150.124 323.92C154.092 321.488 156.972 317.968 158.764 313.36L163.372 327.184C161.196 333.84 157.228 338.896 151.468 342.352C145.708 345.808 138.284 347.536 129.196 347.536ZM278.608 241.168C286.8 241.168 294.096 242.832 300.496 246.16C307.024 249.36 312.144 254.352 315.856 261.136C319.568 267.792 321.424 276.368 321.424 286.864V346H291.472V291.472C291.472 283.152 289.616 277.008 285.904 273.04C282.32 269.072 277.2 267.088 270.544 267.088C265.808 267.088 261.52 268.112 257.68 270.16C253.968 272.08 251.024 275.088 248.848 279.184C246.8 283.28 245.776 288.528 245.776 294.928V346H215.824V242.704H244.432V271.312L239.056 262.672C242.768 255.76 248.08 250.448 254.992 246.736C261.904 243.024 269.776 241.168 278.608 241.168ZM359.755 384.784C354.379 384.784 349.067 383.952 343.819 382.288C338.571 380.624 334.283 378.32 330.955 375.376L341.899 354.064C344.203 356.112 346.827 357.712 349.771 358.864C352.843 360.016 355.851 360.592 358.795 360.592C363.019 360.592 366.347 359.568 368.779 357.52C371.339 355.6 373.643 352.336 375.691 347.728L381.067 335.056L383.371 331.792L420.427 242.704H449.227L402.571 352.336C399.243 360.656 395.403 367.184 391.051 371.92C386.827 376.656 382.091 379.984 376.843 381.904C371.723 383.824 366.027 384.784 359.755 384.784ZM377.419 350.032L331.339 242.704H362.251L397.963 329.104L377.419 350.032ZM494.701 347.536C485.869 347.536 477.357 346.512 469.165 344.464C461.101 342.288 454.701 339.6 449.965 336.4L459.949 314.896C464.685 317.84 470.253 320.272 476.653 322.192C483.181 323.984 489.581 324.88 495.853 324.88C502.765 324.88 507.629 324.048 510.445 322.384C513.389 320.72 514.861 318.416 514.861 315.472C514.861 313.04 513.709 311.248 511.405 310.096C509.229 308.816 506.285 307.856 502.573 307.216C498.861 306.576 494.765 305.936 490.285 305.296C485.933 304.656 481.517 303.824 477.037 302.8C472.557 301.648 468.461 299.984 464.749 297.808C461.037 295.632 458.029 292.688 455.725 288.976C453.549 285.264 452.461 280.464 452.461 274.576C452.461 268.048 454.317 262.288 458.029 257.296C461.869 252.304 467.373 248.4 474.541 245.584C481.709 242.64 490.285 241.168 500.269 241.168C507.309 241.168 514.477 241.936 521.773 243.472C529.069 245.008 535.149 247.248 540.013 250.192L530.029 271.504C525.037 268.56 519.981 266.576 514.861 265.552C509.869 264.4 505.005 263.824 500.269 263.824C493.613 263.824 488.749 264.72 485.677 266.512C482.605 268.304 481.069 270.608 481.069 273.424C481.069 275.984 482.157 277.904 484.333 279.184C486.637 280.464 489.645 281.488 493.357 282.256C497.069 283.024 501.101 283.728 505.453 284.368C509.933 284.88 514.413 285.712 518.893 286.864C523.373 288.016 527.405 289.68 530.989 291.856C534.701 293.904 537.709 296.784 540.013 300.496C542.317 304.08 543.469 308.816 543.469 314.704C543.469 321.104 541.549 326.8 537.709 331.792C533.869 336.656 528.301 340.496 521.005 343.312C513.837 346.128 505.069 347.536 494.701 347.536ZM605.533 347.536C596.957 347.536 589.277 345.872 582.493 342.544C575.837 339.216 570.653 334.16 566.941 327.376C563.229 320.464 561.373 311.696 561.373 301.072V242.704H591.325V296.656C591.325 305.232 593.117 311.568 596.701 315.664C600.413 319.632 605.597 321.616 612.253 321.616C616.861 321.616 620.957 320.656 624.541 318.736C628.125 316.688 630.941 313.616 632.989 309.52C635.037 305.296 636.061 300.048 636.061 293.776V242.704H666.013V346H637.597V317.584L642.781 325.84C639.325 333.008 634.205 338.448 627.421 342.16C620.765 345.744 613.469 347.536 605.533 347.536Z" fill="#4A2160"/>
<path d="M100 0H306.824V105.882H372.471V0H580V158.118H478.353V107.294H525.647V52.2353H423.294V158.118H254.588V52.2353H152.941V105.882H200.235V158.118H100V0Z" fill="#4A2160"/>
</svg>
