<svg width="476" height="860" viewBox="0 0 476 860" fill="none" xmlns="http://www.w3.org/2000/svg">
<path d="M6.31431 6.31431L12.7588 0L21.8072 8.91815L30.7904 0L37.1698 6.31431L43.4841 12.6937L33.3943 22.9789L27.2752 17.0551L30.7904 13.7353L33.3943 16.0136L36.5189 12.6937L30.7904 7.03037L24.411 13.2145V31.5065H19.2033V13.2145L12.7588 6.76998L7.09547 12.6937L10.2201 16.0136L12.7588 13.7353L16.0787 17.0551L10.2201 22.9789L0 12.6937L6.31431 6.31431Z" fill="#4A2160" fill-opacity="0.05"/>
<path d="M6.31431 294.314L12.7588 288L21.8072 296.918L30.7904 288L37.1698 294.314L43.4841 300.694L33.3943 310.979L27.2752 305.055L30.7904 301.735L33.3943 304.014L36.5189 300.694L30.7904 295.03L24.411 301.214V319.506H19.2033V301.214L12.7588 294.77L7.09547 300.694L10.2201 304.014L12.7588 301.735L16.0787 305.055L10.2201 310.979L0 300.694L6.31431 294.314Z" fill="#4A2160" fill-opacity="0.05"/>
<path d="M6.31431 582.314L12.7588 576L21.8072 584.918L30.7904 576L37.1698 582.314L43.4841 588.694L33.3943 598.979L27.2752 593.055L30.7904 589.735L33.3943 592.014L36.5189 588.694L30.7904 583.03L24.411 589.214V607.506H19.2033V589.214L12.7588 582.77L7.09547 588.694L10.2201 592.014L12.7588 589.735L16.0787 593.055L10.2201 598.979L0 588.694L6.31431 582.314Z" fill="#4A2160" fill-opacity="0.05"/>
<path d="M6.31431 150.314L12.7588 144L21.8072 152.918L30.7904 144L37.1698 150.314L43.4841 156.694L33.3943 166.979L27.2752 161.055L30.7904 157.735L33.3943 160.014L36.5189 156.694L30.7904 151.03L24.411 157.214V175.506H19.2033V157.214L12.7588 150.77L7.09547 156.694L10.2201 160.014L12.7588 157.735L16.0787 161.055L10.2201 166.979L0 156.694L6.31431 150.314Z" fill="#4A2160" fill-opacity="0.05"/>
<path d="M6.31431 438.314L12.7588 432L21.8072 440.918L30.7904 432L37.1698 438.314L43.4841 444.694L33.3943 454.979L27.2752 449.055L30.7904 445.735L33.3943 448.014L36.5189 444.694L30.7904 439.03L24.411 445.214V463.506H19.2033V445.214L12.7588 438.77L7.09547 444.694L10.2201 448.014L12.7588 445.735L16.0787 449.055L10.2201 454.979L0 444.694L6.31431 438.314Z" fill="#4A2160" fill-opacity="0.05"/>
<path d="M6.31431 726.314L12.7588 720L21.8072 728.918L30.7904 720L37.1698 726.314L43.4841 732.694L33.3943 742.979L27.2752 737.055L30.7904 733.735L33.3943 736.014L36.5189 732.694L30.7904 727.03L24.411 733.214V751.506H19.2033V733.214L12.7588 726.77L7.09547 732.694L10.2201 736.014L12.7588 733.735L16.0787 737.055L10.2201 742.979L0 732.694L6.31431 726.314Z" fill="#4A2160" fill-opacity="0.05"/>
<path d="M6.31431 78.3143L12.7588 72L21.8072 80.9182L30.7904 72L37.1698 78.3143L43.4841 84.6937L33.3943 94.9789L27.2752 89.0551L30.7904 85.7353L33.3943 88.0136L36.5189 84.6937L30.7904 79.0304L24.411 85.2145V103.506H19.2033V85.2145L12.7588 78.77L7.09547 84.6937L10.2201 88.0136L12.7588 85.7353L16.0787 89.0551L10.2201 94.9789L0 84.6937L6.31431 78.3143Z" fill="#4A2160" fill-opacity="0.05"/>
<path d="M6.31431 366.314L12.7588 360L21.8072 368.918L30.7904 360L37.1698 366.314L43.4841 372.694L33.3943 382.979L27.2752 377.055L30.7904 373.735L33.3943 376.014L36.5189 372.694L30.7904 367.03L24.411 373.214V391.506H19.2033V373.214L12.7588 366.77L7.09547 372.694L10.2201 376.014L12.7588 373.735L16.0787 377.055L10.2201 382.979L0 372.694L6.31431 366.314Z" fill="#4A2160" fill-opacity="0.05"/>
<path d="M6.31431 654.314L12.7588 648L21.8072 656.918L30.7904 648L37.1698 654.314L43.4841 660.694L33.3943 670.979L27.2752 665.055L30.7904 661.735L33.3943 664.014L36.5189 660.694L30.7904 655.03L24.411 661.214V679.506H19.2033V661.214L12.7588 654.77L7.09547 660.694L10.2201 664.014L12.7588 661.735L16.0787 665.055L10.2201 670.979L0 660.694L6.31431 654.314Z" fill="#4A2160" fill-opacity="0.05"/>
<path d="M6.31431 222.314L12.7588 216L21.8072 224.918L30.7904 216L37.1698 222.314L43.4841 228.694L33.3943 238.979L27.2752 233.055L30.7904 229.735L33.3943 232.014L36.5189 228.694L30.7904 223.03L24.411 229.214V247.506H19.2033V229.214L12.7588 222.77L7.09547 228.694L10.2201 232.014L12.7588 229.735L16.0787 233.055L10.2201 238.979L0 228.694L6.31431 222.314Z" fill="#4A2160" fill-opacity="0.05"/>
<path d="M6.31431 510.314L12.7588 504L21.8072 512.918L30.7904 504L37.1698 510.314L43.4841 516.694L33.3943 526.979L27.2752 521.055L30.7904 517.735L33.3943 520.014L36.5189 516.694L30.7904 511.03L24.411 517.214V535.506H19.2033V517.214L12.7588 510.77L7.09547 516.694L10.2201 520.014L12.7588 517.735L16.0787 521.055L10.2201 526.979L0 516.694L6.31431 510.314Z" fill="#4A2160" fill-opacity="0.05"/>
<path d="M6.31431 798.314L12.7588 792L21.8072 800.918L30.7904 792L37.1698 798.314L43.4841 804.694L33.3943 814.979L27.2752 809.055L30.7904 805.735L33.3943 808.014L36.5189 804.694L30.7904 799.03L24.411 805.214V823.506H19.2033V805.214L12.7588 798.77L7.09547 804.694L10.2201 808.014L12.7588 805.735L16.0787 809.055L10.2201 814.979L0 804.694L6.31431 798.314Z" fill="#4A2160" fill-opacity="0.05"/>
<path d="M6.31431 42.3143L12.7588 36L21.8072 44.9182L30.7904 36L37.1698 42.3143L43.4841 48.6937L33.3943 58.9789L27.2752 53.0551L30.7904 49.7353L33.3943 52.0136L36.5189 48.6937L30.7904 43.0304L24.411 49.2145V67.5065H19.2033V49.2145L12.7588 42.77L7.09547 48.6937L10.2201 52.0136L12.7588 49.7353L16.0787 53.0551L10.2201 58.9789L0 48.6937L6.31431 42.3143Z" fill="#4A2160" fill-opacity="0.05"/>
<path d="M6.31431 330.314L12.7588 324L21.8072 332.918L30.7904 324L37.1698 330.314L43.4841 336.694L33.3943 346.979L27.2752 341.055L30.7904 337.735L33.3943 340.014L36.5189 336.694L30.7904 331.03L24.411 337.214V355.506H19.2033V337.214L12.7588 330.77L7.09547 336.694L10.2201 340.014L12.7588 337.735L16.0787 341.055L10.2201 346.979L0 336.694L6.31431 330.314Z" fill="#4A2160" fill-opacity="0.05"/>
<path d="M6.31431 618.314L12.7588 612L21.8072 620.918L30.7904 612L37.1698 618.314L43.4841 624.694L33.3943 634.979L27.2752 629.055L30.7904 625.735L33.3943 628.014L36.5189 624.694L30.7904 619.03L24.411 625.214V643.506H19.2033V625.214L12.7588 618.77L7.09547 624.694L10.2201 628.014L12.7588 625.735L16.0787 629.055L10.2201 634.979L0 624.694L6.31431 618.314Z" fill="#4A2160" fill-opacity="0.05"/>
<path d="M6.31431 186.314L12.7588 180L21.8072 188.918L30.7904 180L37.1698 186.314L43.4841 192.694L33.3943 202.979L27.2752 197.055L30.7904 193.735L33.3943 196.014L36.5189 192.694L30.7904 187.03L24.411 193.214V211.506H19.2033V193.214L12.7588 186.77L7.09547 192.694L10.2201 196.014L12.7588 193.735L16.0787 197.055L10.2201 202.979L0 192.694L6.31431 186.314Z" fill="#4A2160" fill-opacity="0.05"/>
<path d="M6.31431 474.314L12.7588 468L21.8072 476.918L30.7904 468L37.1698 474.314L43.4841 480.694L33.3943 490.979L27.2752 485.055L30.7904 481.735L33.3943 484.014L36.5189 480.694L30.7904 475.03L24.411 481.214V499.506H19.2033V481.214L12.7588 474.77L7.09547 480.694L10.2201 484.014L12.7588 481.735L16.0787 485.055L10.2201 490.979L0 480.694L6.31431 474.314Z" fill="#4A2160" fill-opacity="0.05"/>
<path d="M6.31431 762.314L12.7588 756L21.8072 764.918L30.7904 756L37.1698 762.314L43.4841 768.694L33.3943 778.979L27.2752 773.055L30.7904 769.735L33.3943 772.014L36.5189 768.694L30.7904 763.03L24.411 769.214V787.506H19.2033V769.214L12.7588 762.77L7.09547 768.694L10.2201 772.014L12.7588 769.735L16.0787 773.055L10.2201 778.979L0 768.694L6.31431 762.314Z" fill="#4A2160" fill-opacity="0.05"/>
<path d="M6.31431 114.314L12.7588 108L21.8072 116.918L30.7904 108L37.1698 114.314L43.4841 120.694L33.3943 130.979L27.2752 125.055L30.7904 121.735L33.3943 124.014L36.5189 120.694L30.7904 115.03L24.411 121.214V139.506H19.2033V121.214L12.7588 114.77L7.09547 120.694L10.2201 124.014L12.7588 121.735L16.0787 125.055L10.2201 130.979L0 120.694L6.31431 114.314Z" fill="#4A2160" fill-opacity="0.05"/>
<path d="M6.31431 402.314L12.7588 396L21.8072 404.918L30.7904 396L37.1698 402.314L43.4841 408.694L33.3943 418.979L27.2752 413.055L30.7904 409.735L33.3943 412.014L36.5189 408.694L30.7904 403.03L24.411 409.214V427.506H19.2033V409.214L12.7588 402.77L7.09547 408.694L10.2201 412.014L12.7588 409.735L16.0787 413.055L10.2201 418.979L0 408.694L6.31431 402.314Z" fill="#4A2160" fill-opacity="0.05"/>
<path d="M6.31431 690.314L12.7588 684L21.8072 692.918L30.7904 684L37.1698 690.314L43.4841 696.694L33.3943 706.979L27.2752 701.055L30.7904 697.735L33.3943 700.014L36.5189 696.694L30.7904 691.03L24.411 697.214V715.506H19.2033V697.214L12.7588 690.77L7.09547 696.694L10.2201 700.014L12.7588 697.735L16.0787 701.055L10.2201 706.979L0 696.694L6.31431 690.314Z" fill="#4A2160" fill-opacity="0.05"/>
<path d="M6.31431 258.314L12.7588 252L21.8072 260.918L30.7904 252L37.1698 258.314L43.4841 264.694L33.3943 274.979L27.2752 269.055L30.7904 265.735L33.3943 268.014L36.5189 264.694L30.7904 259.03L24.411 265.214V283.506H19.2033V265.214L12.7588 258.77L7.09547 264.694L10.2201 268.014L12.7588 265.735L16.0787 269.055L10.2201 274.979L0 264.694L6.31431 258.314Z" fill="#4A2160" fill-opacity="0.05"/>
<path d="M6.31431 546.314L12.7588 540L21.8072 548.918L30.7904 540L37.1698 546.314L43.4841 552.694L33.3943 562.979L27.2752 557.055L30.7904 553.735L33.3943 556.014L36.5189 552.694L30.7904 547.03L24.411 553.214V571.506H19.2033V553.214L12.7588 546.77L7.09547 552.694L10.2201 556.014L12.7588 553.735L16.0787 557.055L10.2201 562.979L0 552.694L6.31431 546.314Z" fill="#4A2160" fill-opacity="0.05"/>
<path d="M6.31431 834.314L12.7588 828L21.8072 836.918L30.7904 828L37.1698 834.314L43.4841 840.694L33.3943 850.979L27.2752 845.055L30.7904 841.735L33.3943 844.014L36.5189 840.694L30.7904 835.03L24.411 841.214V859.506H19.2033V841.214L12.7588 834.77L7.09547 840.694L10.2201 844.014L12.7588 841.735L16.0787 845.055L10.2201 850.979L0 840.694L6.31431 834.314Z" fill="#4A2160" fill-opacity="0.05"/>
<path d="M198.314 6.31431L204.759 0L213.807 8.91815L222.79 0L229.17 6.31431L235.484 12.6937L225.394 22.9789L219.275 17.0551L222.79 13.7353L225.394 16.0136L228.519 12.6937L222.79 7.03037L216.411 13.2145V31.5065H211.203V13.2145L204.759 6.76998L199.095 12.6937L202.22 16.0136L204.759 13.7353L208.079 17.0551L202.22 22.9789L192 12.6937L198.314 6.31431Z" fill="#4A2160" fill-opacity="0.05"/>
<path d="M198.314 294.314L204.759 288L213.807 296.918L222.79 288L229.17 294.314L235.484 300.694L225.394 310.979L219.275 305.055L222.79 301.735L225.394 304.014L228.519 300.694L222.79 295.03L216.411 301.214V319.506H211.203V301.214L204.759 294.77L199.095 300.694L202.22 304.014L204.759 301.735L208.079 305.055L202.22 310.979L192 300.694L198.314 294.314Z" fill="#4A2160" fill-opacity="0.05"/>
<path d="M198.314 582.314L204.759 576L213.807 584.918L222.79 576L229.17 582.314L235.484 588.694L225.394 598.979L219.275 593.055L222.79 589.735L225.394 592.014L228.519 588.694L222.79 583.03L216.411 589.214V607.506H211.203V589.214L204.759 582.77L199.095 588.694L202.22 592.014L204.759 589.735L208.079 593.055L202.22 598.979L192 588.694L198.314 582.314Z" fill="#4A2160" fill-opacity="0.05"/>
<path d="M198.314 150.314L204.759 144L213.807 152.918L222.79 144L229.17 150.314L235.484 156.694L225.394 166.979L219.275 161.055L222.79 157.735L225.394 160.014L228.519 156.694L222.79 151.03L216.411 157.214V175.506H211.203V157.214L204.759 150.77L199.095 156.694L202.22 160.014L204.759 157.735L208.079 161.055L202.22 166.979L192 156.694L198.314 150.314Z" fill="#4A2160" fill-opacity="0.05"/>
<path d="M198.314 438.314L204.759 432L213.807 440.918L222.79 432L229.17 438.314L235.484 444.694L225.394 454.979L219.275 449.055L222.79 445.735L225.394 448.014L228.519 444.694L222.79 439.03L216.411 445.214V463.506H211.203V445.214L204.759 438.77L199.095 444.694L202.22 448.014L204.759 445.735L208.079 449.055L202.22 454.979L192 444.694L198.314 438.314Z" fill="#4A2160" fill-opacity="0.05"/>
<path d="M198.314 726.314L204.759 720L213.807 728.918L222.79 720L229.17 726.314L235.484 732.694L225.394 742.979L219.275 737.055L222.79 733.735L225.394 736.014L228.519 732.694L222.79 727.03L216.411 733.214V751.506H211.203V733.214L204.759 726.77L199.095 732.694L202.22 736.014L204.759 733.735L208.079 737.055L202.22 742.979L192 732.694L198.314 726.314Z" fill="#4A2160" fill-opacity="0.05"/>
<path d="M198.314 78.3143L204.759 72L213.807 80.9182L222.79 72L229.17 78.3143L235.484 84.6937L225.394 94.9789L219.275 89.0551L222.79 85.7353L225.394 88.0136L228.519 84.6937L222.79 79.0304L216.411 85.2145V103.506H211.203V85.2145L204.759 78.77L199.095 84.6937L202.22 88.0136L204.759 85.7353L208.079 89.0551L202.22 94.9789L192 84.6937L198.314 78.3143Z" fill="#4A2160" fill-opacity="0.05"/>
<path d="M198.314 366.314L204.759 360L213.807 368.918L222.79 360L229.17 366.314L235.484 372.694L225.394 382.979L219.275 377.055L222.79 373.735L225.394 376.014L228.519 372.694L222.79 367.03L216.411 373.214V391.506H211.203V373.214L204.759 366.77L199.095 372.694L202.22 376.014L204.759 373.735L208.079 377.055L202.22 382.979L192 372.694L198.314 366.314Z" fill="#4A2160" fill-opacity="0.05"/>
<path d="M198.314 654.314L204.759 648L213.807 656.918L222.79 648L229.17 654.314L235.484 660.694L225.394 670.979L219.275 665.055L222.79 661.735L225.394 664.014L228.519 660.694L222.79 655.03L216.411 661.214V679.506H211.203V661.214L204.759 654.77L199.095 660.694L202.22 664.014L204.759 661.735L208.079 665.055L202.22 670.979L192 660.694L198.314 654.314Z" fill="#4A2160" fill-opacity="0.05"/>
<path d="M198.314 222.314L204.759 216L213.807 224.918L222.79 216L229.17 222.314L235.484 228.694L225.394 238.979L219.275 233.055L222.79 229.735L225.394 232.014L228.519 228.694L222.79 223.03L216.411 229.214V247.506H211.203V229.214L204.759 222.77L199.095 228.694L202.22 232.014L204.759 229.735L208.079 233.055L202.22 238.979L192 228.694L198.314 222.314Z" fill="#4A2160" fill-opacity="0.05"/>
<path d="M198.314 510.314L204.759 504L213.807 512.918L222.79 504L229.17 510.314L235.484 516.694L225.394 526.979L219.275 521.055L222.79 517.735L225.394 520.014L228.519 516.694L222.79 511.03L216.411 517.214V535.506H211.203V517.214L204.759 510.77L199.095 516.694L202.22 520.014L204.759 517.735L208.079 521.055L202.22 526.979L192 516.694L198.314 510.314Z" fill="#4A2160" fill-opacity="0.05"/>
<path d="M198.314 798.314L204.759 792L213.807 800.918L222.79 792L229.17 798.314L235.484 804.694L225.394 814.979L219.275 809.055L222.79 805.735L225.394 808.014L228.519 804.694L222.79 799.03L216.411 805.214V823.506H211.203V805.214L204.759 798.77L199.095 804.694L202.22 808.014L204.759 805.735L208.079 809.055L202.22 814.979L192 804.694L198.314 798.314Z" fill="#4A2160" fill-opacity="0.05"/>
<path d="M198.314 42.3143L204.759 36L213.807 44.9182L222.79 36L229.17 42.3143L235.484 48.6937L225.394 58.9789L219.275 53.0551L222.79 49.7353L225.394 52.0136L228.519 48.6937L222.79 43.0304L216.411 49.2145V67.5065H211.203V49.2145L204.759 42.77L199.095 48.6937L202.22 52.0136L204.759 49.7353L208.079 53.0551L202.22 58.9789L192 48.6937L198.314 42.3143Z" fill="#4A2160" fill-opacity="0.05"/>
<path d="M198.314 330.314L204.759 324L213.807 332.918L222.79 324L229.17 330.314L235.484 336.694L225.394 346.979L219.275 341.055L222.79 337.735L225.394 340.014L228.519 336.694L222.79 331.03L216.411 337.214V355.506H211.203V337.214L204.759 330.77L199.095 336.694L202.22 340.014L204.759 337.735L208.079 341.055L202.22 346.979L192 336.694L198.314 330.314Z" fill="#4A2160" fill-opacity="0.05"/>
<path d="M198.314 618.314L204.759 612L213.807 620.918L222.79 612L229.17 618.314L235.484 624.694L225.394 634.979L219.275 629.055L222.79 625.735L225.394 628.014L228.519 624.694L222.79 619.03L216.411 625.214V643.506H211.203V625.214L204.759 618.77L199.095 624.694L202.22 628.014L204.759 625.735L208.079 629.055L202.22 634.979L192 624.694L198.314 618.314Z" fill="#4A2160" fill-opacity="0.05"/>
<path d="M198.314 186.314L204.759 180L213.807 188.918L222.79 180L229.17 186.314L235.484 192.694L225.394 202.979L219.275 197.055L222.79 193.735L225.394 196.014L228.519 192.694L222.79 187.03L216.411 193.214V211.506H211.203V193.214L204.759 186.77L199.095 192.694L202.22 196.014L204.759 193.735L208.079 197.055L202.22 202.979L192 192.694L198.314 186.314Z" fill="#4A2160" fill-opacity="0.05"/>
<path d="M198.314 474.314L204.759 468L213.807 476.918L222.79 468L229.17 474.314L235.484 480.694L225.394 490.979L219.275 485.055L222.79 481.735L225.394 484.014L228.519 480.694L222.79 475.03L216.411 481.214V499.506H211.203V481.214L204.759 474.77L199.095 480.694L202.22 484.014L204.759 481.735L208.079 485.055L202.22 490.979L192 480.694L198.314 474.314Z" fill="#4A2160" fill-opacity="0.05"/>
<path d="M198.314 762.314L204.759 756L213.807 764.918L222.79 756L229.17 762.314L235.484 768.694L225.394 778.979L219.275 773.055L222.79 769.735L225.394 772.014L228.519 768.694L222.79 763.03L216.411 769.214V787.506H211.203V769.214L204.759 762.77L199.095 768.694L202.22 772.014L204.759 769.735L208.079 773.055L202.22 778.979L192 768.694L198.314 762.314Z" fill="#4A2160" fill-opacity="0.05"/>
<path d="M198.314 114.314L204.759 108L213.807 116.918L222.79 108L229.17 114.314L235.484 120.694L225.394 130.979L219.275 125.055L222.79 121.735L225.394 124.014L228.519 120.694L222.79 115.03L216.411 121.214V139.506H211.203V121.214L204.759 114.77L199.095 120.694L202.22 124.014L204.759 121.735L208.079 125.055L202.22 130.979L192 120.694L198.314 114.314Z" fill="#4A2160" fill-opacity="0.05"/>
<path d="M198.314 402.314L204.759 396L213.807 404.918L222.79 396L229.17 402.314L235.484 408.694L225.394 418.979L219.275 413.055L222.79 409.735L225.394 412.014L228.519 408.694L222.79 403.03L216.411 409.214V427.506H211.203V409.214L204.759 402.77L199.095 408.694L202.22 412.014L204.759 409.735L208.079 413.055L202.22 418.979L192 408.694L198.314 402.314Z" fill="#4A2160" fill-opacity="0.05"/>
<path d="M198.314 690.314L204.759 684L213.807 692.918L222.79 684L229.17 690.314L235.484 696.694L225.394 706.979L219.275 701.055L222.79 697.735L225.394 700.014L228.519 696.694L222.79 691.03L216.411 697.214V715.506H211.203V697.214L204.759 690.77L199.095 696.694L202.22 700.014L204.759 697.735L208.079 701.055L202.22 706.979L192 696.694L198.314 690.314Z" fill="#4A2160" fill-opacity="0.05"/>
<path d="M198.314 258.314L204.759 252L213.807 260.918L222.79 252L229.17 258.314L235.484 264.694L225.394 274.979L219.275 269.055L222.79 265.735L225.394 268.014L228.519 264.694L222.79 259.03L216.411 265.214V283.506H211.203V265.214L204.759 258.77L199.095 264.694L202.22 268.014L204.759 265.735L208.079 269.055L202.22 274.979L192 264.694L198.314 258.314Z" fill="#4A2160" fill-opacity="0.05"/>
<path d="M198.314 546.314L204.759 540L213.807 548.918L222.79 540L229.17 546.314L235.484 552.694L225.394 562.979L219.275 557.055L222.79 553.735L225.394 556.014L228.519 552.694L222.79 547.03L216.411 553.214V571.506H211.203V553.214L204.759 546.77L199.095 552.694L202.22 556.014L204.759 553.735L208.079 557.055L202.22 562.979L192 552.694L198.314 546.314Z" fill="#4A2160" fill-opacity="0.05"/>
<path d="M198.314 834.314L204.759 828L213.807 836.918L222.79 828L229.17 834.314L235.484 840.694L225.394 850.979L219.275 845.055L222.79 841.735L225.394 844.014L228.519 840.694L222.79 835.03L216.411 841.214V859.506H211.203V841.214L204.759 834.77L199.095 840.694L202.22 844.014L204.759 841.735L208.079 845.055L202.22 850.979L192 840.694L198.314 834.314Z" fill="#4A2160" fill-opacity="0.05"/>
<path d="M102.314 6.31431L108.759 0L117.807 8.91815L126.79 0L133.17 6.31431L139.484 12.6937L129.394 22.9789L123.275 17.0551L126.79 13.7353L129.394 16.0136L132.519 12.6937L126.79 7.03037L120.411 13.2145V31.5065H115.203V13.2145L108.759 6.76998L103.095 12.6937L106.22 16.0136L108.759 13.7353L112.079 17.0551L106.22 22.9789L96 12.6937L102.314 6.31431Z" fill="#4A2160" fill-opacity="0.05"/>
<path d="M102.314 294.314L108.759 288L117.807 296.918L126.79 288L133.17 294.314L139.484 300.694L129.394 310.979L123.275 305.055L126.79 301.735L129.394 304.014L132.519 300.694L126.79 295.03L120.411 301.214V319.506H115.203V301.214L108.759 294.77L103.095 300.694L106.22 304.014L108.759 301.735L112.079 305.055L106.22 310.979L96 300.694L102.314 294.314Z" fill="#4A2160" fill-opacity="0.05"/>
<path d="M102.314 582.314L108.759 576L117.807 584.918L126.79 576L133.17 582.314L139.484 588.694L129.394 598.979L123.275 593.055L126.79 589.735L129.394 592.014L132.519 588.694L126.79 583.03L120.411 589.214V607.506H115.203V589.214L108.759 582.77L103.095 588.694L106.22 592.014L108.759 589.735L112.079 593.055L106.22 598.979L96 588.694L102.314 582.314Z" fill="#4A2160" fill-opacity="0.05"/>
<path d="M102.314 150.314L108.759 144L117.807 152.918L126.79 144L133.17 150.314L139.484 156.694L129.394 166.979L123.275 161.055L126.79 157.735L129.394 160.014L132.519 156.694L126.79 151.03L120.411 157.214V175.506H115.203V157.214L108.759 150.77L103.095 156.694L106.22 160.014L108.759 157.735L112.079 161.055L106.22 166.979L96 156.694L102.314 150.314Z" fill="#4A2160" fill-opacity="0.05"/>
<path d="M102.314 438.314L108.759 432L117.807 440.918L126.79 432L133.17 438.314L139.484 444.694L129.394 454.979L123.275 449.055L126.79 445.735L129.394 448.014L132.519 444.694L126.79 439.03L120.411 445.214V463.506H115.203V445.214L108.759 438.77L103.095 444.694L106.22 448.014L108.759 445.735L112.079 449.055L106.22 454.979L96 444.694L102.314 438.314Z" fill="#4A2160" fill-opacity="0.05"/>
<path d="M102.314 726.314L108.759 720L117.807 728.918L126.79 720L133.17 726.314L139.484 732.694L129.394 742.979L123.275 737.055L126.79 733.735L129.394 736.014L132.519 732.694L126.79 727.03L120.411 733.214V751.506H115.203V733.214L108.759 726.77L103.095 732.694L106.22 736.014L108.759 733.735L112.079 737.055L106.22 742.979L96 732.694L102.314 726.314Z" fill="#4A2160" fill-opacity="0.05"/>
<path d="M102.314 78.3143L108.759 72L117.807 80.9182L126.79 72L133.17 78.3143L139.484 84.6937L129.394 94.9789L123.275 89.0551L126.79 85.7353L129.394 88.0136L132.519 84.6937L126.79 79.0304L120.411 85.2145V103.506H115.203V85.2145L108.759 78.77L103.095 84.6937L106.22 88.0136L108.759 85.7353L112.079 89.0551L106.22 94.9789L96 84.6937L102.314 78.3143Z" fill="#4A2160" fill-opacity="0.05"/>
<path d="M102.314 366.314L108.759 360L117.807 368.918L126.79 360L133.17 366.314L139.484 372.694L129.394 382.979L123.275 377.055L126.79 373.735L129.394 376.014L132.519 372.694L126.79 367.03L120.411 373.214V391.506H115.203V373.214L108.759 366.77L103.095 372.694L106.22 376.014L108.759 373.735L112.079 377.055L106.22 382.979L96 372.694L102.314 366.314Z" fill="#4A2160" fill-opacity="0.05"/>
<path d="M102.314 654.314L108.759 648L117.807 656.918L126.79 648L133.17 654.314L139.484 660.694L129.394 670.979L123.275 665.055L126.79 661.735L129.394 664.014L132.519 660.694L126.79 655.03L120.411 661.214V679.506H115.203V661.214L108.759 654.77L103.095 660.694L106.22 664.014L108.759 661.735L112.079 665.055L106.22 670.979L96 660.694L102.314 654.314Z" fill="#4A2160" fill-opacity="0.05"/>
<path d="M102.314 222.314L108.759 216L117.807 224.918L126.79 216L133.17 222.314L139.484 228.694L129.394 238.979L123.275 233.055L126.79 229.735L129.394 232.014L132.519 228.694L126.79 223.03L120.411 229.214V247.506H115.203V229.214L108.759 222.77L103.095 228.694L106.22 232.014L108.759 229.735L112.079 233.055L106.22 238.979L96 228.694L102.314 222.314Z" fill="#4A2160" fill-opacity="0.05"/>
<path d="M102.314 510.314L108.759 504L117.807 512.918L126.79 504L133.17 510.314L139.484 516.694L129.394 526.979L123.275 521.055L126.79 517.735L129.394 520.014L132.519 516.694L126.79 511.03L120.411 517.214V535.506H115.203V517.214L108.759 510.77L103.095 516.694L106.22 520.014L108.759 517.735L112.079 521.055L106.22 526.979L96 516.694L102.314 510.314Z" fill="#4A2160" fill-opacity="0.05"/>
<path d="M102.314 798.314L108.759 792L117.807 800.918L126.79 792L133.17 798.314L139.484 804.694L129.394 814.979L123.275 809.055L126.79 805.735L129.394 808.014L132.519 804.694L126.79 799.03L120.411 805.214V823.506H115.203V805.214L108.759 798.77L103.095 804.694L106.22 808.014L108.759 805.735L112.079 809.055L106.22 814.979L96 804.694L102.314 798.314Z" fill="#4A2160" fill-opacity="0.05"/>
<path d="M102.314 42.3143L108.759 36L117.807 44.9182L126.79 36L133.17 42.3143L139.484 48.6937L129.394 58.9789L123.275 53.0551L126.79 49.7353L129.394 52.0136L132.519 48.6937L126.79 43.0304L120.411 49.2145V67.5065H115.203V49.2145L108.759 42.77L103.095 48.6937L106.22 52.0136L108.759 49.7353L112.079 53.0551L106.22 58.9789L96 48.6937L102.314 42.3143Z" fill="#4A2160" fill-opacity="0.05"/>
<path d="M102.314 330.314L108.759 324L117.807 332.918L126.79 324L133.17 330.314L139.484 336.694L129.394 346.979L123.275 341.055L126.79 337.735L129.394 340.014L132.519 336.694L126.79 331.03L120.411 337.214V355.506H115.203V337.214L108.759 330.77L103.095 336.694L106.22 340.014L108.759 337.735L112.079 341.055L106.22 346.979L96 336.694L102.314 330.314Z" fill="#4A2160" fill-opacity="0.05"/>
<path d="M102.314 618.314L108.759 612L117.807 620.918L126.79 612L133.17 618.314L139.484 624.694L129.394 634.979L123.275 629.055L126.79 625.735L129.394 628.014L132.519 624.694L126.79 619.03L120.411 625.214V643.506H115.203V625.214L108.759 618.77L103.095 624.694L106.22 628.014L108.759 625.735L112.079 629.055L106.22 634.979L96 624.694L102.314 618.314Z" fill="#4A2160" fill-opacity="0.05"/>
<path d="M102.314 186.314L108.759 180L117.807 188.918L126.79 180L133.17 186.314L139.484 192.694L129.394 202.979L123.275 197.055L126.79 193.735L129.394 196.014L132.519 192.694L126.79 187.03L120.411 193.214V211.506H115.203V193.214L108.759 186.77L103.095 192.694L106.22 196.014L108.759 193.735L112.079 197.055L106.22 202.979L96 192.694L102.314 186.314Z" fill="#4A2160" fill-opacity="0.05"/>
<path d="M102.314 474.314L108.759 468L117.807 476.918L126.79 468L133.17 474.314L139.484 480.694L129.394 490.979L123.275 485.055L126.79 481.735L129.394 484.014L132.519 480.694L126.79 475.03L120.411 481.214V499.506H115.203V481.214L108.759 474.77L103.095 480.694L106.22 484.014L108.759 481.735L112.079 485.055L106.22 490.979L96 480.694L102.314 474.314Z" fill="#4A2160" fill-opacity="0.05"/>
<path d="M102.314 762.314L108.759 756L117.807 764.918L126.79 756L133.17 762.314L139.484 768.694L129.394 778.979L123.275 773.055L126.79 769.735L129.394 772.014L132.519 768.694L126.79 763.03L120.411 769.214V787.506H115.203V769.214L108.759 762.77L103.095 768.694L106.22 772.014L108.759 769.735L112.079 773.055L106.22 778.979L96 768.694L102.314 762.314Z" fill="#4A2160" fill-opacity="0.05"/>
<path d="M102.314 114.314L108.759 108L117.807 116.918L126.79 108L133.17 114.314L139.484 120.694L129.394 130.979L123.275 125.055L126.79 121.735L129.394 124.014L132.519 120.694L126.79 115.03L120.411 121.214V139.506H115.203V121.214L108.759 114.77L103.095 120.694L106.22 124.014L108.759 121.735L112.079 125.055L106.22 130.979L96 120.694L102.314 114.314Z" fill="#4A2160" fill-opacity="0.05"/>
<path d="M102.314 402.314L108.759 396L117.807 404.918L126.79 396L133.17 402.314L139.484 408.694L129.394 418.979L123.275 413.055L126.79 409.735L129.394 412.014L132.519 408.694L126.79 403.03L120.411 409.214V427.506H115.203V409.214L108.759 402.77L103.095 408.694L106.22 412.014L108.759 409.735L112.079 413.055L106.22 418.979L96 408.694L102.314 402.314Z" fill="#4A2160" fill-opacity="0.05"/>
<path d="M102.314 690.314L108.759 684L117.807 692.918L126.79 684L133.17 690.314L139.484 696.694L129.394 706.979L123.275 701.055L126.79 697.735L129.394 700.014L132.519 696.694L126.79 691.03L120.411 697.214V715.506H115.203V697.214L108.759 690.77L103.095 696.694L106.22 700.014L108.759 697.735L112.079 701.055L106.22 706.979L96 696.694L102.314 690.314Z" fill="#4A2160" fill-opacity="0.05"/>
<path d="M102.314 258.314L108.759 252L117.807 260.918L126.79 252L133.17 258.314L139.484 264.694L129.394 274.979L123.275 269.055L126.79 265.735L129.394 268.014L132.519 264.694L126.79 259.03L120.411 265.214V283.506H115.203V265.214L108.759 258.77L103.095 264.694L106.22 268.014L108.759 265.735L112.079 269.055L106.22 274.979L96 264.694L102.314 258.314Z" fill="#4A2160" fill-opacity="0.05"/>
<path d="M102.314 546.314L108.759 540L117.807 548.918L126.79 540L133.17 546.314L139.484 552.694L129.394 562.979L123.275 557.055L126.79 553.735L129.394 556.014L132.519 552.694L126.79 547.03L120.411 553.214V571.506H115.203V553.214L108.759 546.77L103.095 552.694L106.22 556.014L108.759 553.735L112.079 557.055L106.22 562.979L96 552.694L102.314 546.314Z" fill="#4A2160" fill-opacity="0.05"/>
<path d="M102.314 834.314L108.759 828L117.807 836.918L126.79 828L133.17 834.314L139.484 840.694L129.394 850.979L123.275 845.055L126.79 841.735L129.394 844.014L132.519 840.694L126.79 835.03L120.411 841.214V859.506H115.203V841.214L108.759 834.77L103.095 840.694L106.22 844.014L108.759 841.735L112.079 845.055L106.22 850.979L96 840.694L102.314 834.314Z" fill="#4A2160" fill-opacity="0.05"/>
<path d="M294.314 6.31431L300.759 0L309.807 8.91815L318.79 0L325.17 6.31431L331.484 12.6937L321.394 22.9789L315.275 17.0551L318.79 13.7353L321.394 16.0136L324.519 12.6937L318.79 7.03037L312.411 13.2145V31.5065H307.203V13.2145L300.759 6.76998L295.095 12.6937L298.22 16.0136L300.759 13.7353L304.079 17.0551L298.22 22.9789L288 12.6937L294.314 6.31431Z" fill="#4A2160" fill-opacity="0.05"/>
<path d="M294.314 294.314L300.759 288L309.807 296.918L318.79 288L325.17 294.314L331.484 300.694L321.394 310.979L315.275 305.055L318.79 301.735L321.394 304.014L324.519 300.694L318.79 295.03L312.411 301.214V319.506H307.203V301.214L300.759 294.77L295.095 300.694L298.22 304.014L300.759 301.735L304.079 305.055L298.22 310.979L288 300.694L294.314 294.314Z" fill="#4A2160" fill-opacity="0.05"/>
<path d="M294.314 582.314L300.759 576L309.807 584.918L318.79 576L325.17 582.314L331.484 588.694L321.394 598.979L315.275 593.055L318.79 589.735L321.394 592.014L324.519 588.694L318.79 583.03L312.411 589.214V607.506H307.203V589.214L300.759 582.77L295.095 588.694L298.22 592.014L300.759 589.735L304.079 593.055L298.22 598.979L288 588.694L294.314 582.314Z" fill="#4A2160" fill-opacity="0.05"/>
<path d="M294.314 150.314L300.759 144L309.807 152.918L318.79 144L325.17 150.314L331.484 156.694L321.394 166.979L315.275 161.055L318.79 157.735L321.394 160.014L324.519 156.694L318.79 151.03L312.411 157.214V175.506H307.203V157.214L300.759 150.77L295.095 156.694L298.22 160.014L300.759 157.735L304.079 161.055L298.22 166.979L288 156.694L294.314 150.314Z" fill="#4A2160" fill-opacity="0.05"/>
<path d="M294.314 438.314L300.759 432L309.807 440.918L318.79 432L325.17 438.314L331.484 444.694L321.394 454.979L315.275 449.055L318.79 445.735L321.394 448.014L324.519 444.694L318.79 439.03L312.411 445.214V463.506H307.203V445.214L300.759 438.77L295.095 444.694L298.22 448.014L300.759 445.735L304.079 449.055L298.22 454.979L288 444.694L294.314 438.314Z" fill="#4A2160" fill-opacity="0.05"/>
<path d="M294.314 726.314L300.759 720L309.807 728.918L318.79 720L325.17 726.314L331.484 732.694L321.394 742.979L315.275 737.055L318.79 733.735L321.394 736.014L324.519 732.694L318.79 727.03L312.411 733.214V751.506H307.203V733.214L300.759 726.77L295.095 732.694L298.22 736.014L300.759 733.735L304.079 737.055L298.22 742.979L288 732.694L294.314 726.314Z" fill="#4A2160" fill-opacity="0.05"/>
<path d="M294.314 78.3143L300.759 72L309.807 80.9182L318.79 72L325.17 78.3143L331.484 84.6937L321.394 94.9789L315.275 89.0551L318.79 85.7353L321.394 88.0136L324.519 84.6937L318.79 79.0304L312.411 85.2145V103.506H307.203V85.2145L300.759 78.77L295.095 84.6937L298.22 88.0136L300.759 85.7353L304.079 89.0551L298.22 94.9789L288 84.6937L294.314 78.3143Z" fill="#4A2160" fill-opacity="0.05"/>
<path d="M294.314 366.314L300.759 360L309.807 368.918L318.79 360L325.17 366.314L331.484 372.694L321.394 382.979L315.275 377.055L318.79 373.735L321.394 376.014L324.519 372.694L318.79 367.03L312.411 373.214V391.506H307.203V373.214L300.759 366.77L295.095 372.694L298.22 376.014L300.759 373.735L304.079 377.055L298.22 382.979L288 372.694L294.314 366.314Z" fill="#4A2160" fill-opacity="0.05"/>
<path d="M294.314 654.314L300.759 648L309.807 656.918L318.79 648L325.17 654.314L331.484 660.694L321.394 670.979L315.275 665.055L318.79 661.735L321.394 664.014L324.519 660.694L318.79 655.03L312.411 661.214V679.506H307.203V661.214L300.759 654.77L295.095 660.694L298.22 664.014L300.759 661.735L304.079 665.055L298.22 670.979L288 660.694L294.314 654.314Z" fill="#4A2160" fill-opacity="0.05"/>
<path d="M294.314 222.314L300.759 216L309.807 224.918L318.79 216L325.17 222.314L331.484 228.694L321.394 238.979L315.275 233.055L318.79 229.735L321.394 232.014L324.519 228.694L318.79 223.03L312.411 229.214V247.506H307.203V229.214L300.759 222.77L295.095 228.694L298.22 232.014L300.759 229.735L304.079 233.055L298.22 238.979L288 228.694L294.314 222.314Z" fill="#4A2160" fill-opacity="0.05"/>
<path d="M294.314 510.314L300.759 504L309.807 512.918L318.79 504L325.17 510.314L331.484 516.694L321.394 526.979L315.275 521.055L318.79 517.735L321.394 520.014L324.519 516.694L318.79 511.03L312.411 517.214V535.506H307.203V517.214L300.759 510.77L295.095 516.694L298.22 520.014L300.759 517.735L304.079 521.055L298.22 526.979L288 516.694L294.314 510.314Z" fill="#4A2160" fill-opacity="0.05"/>
<path d="M294.314 798.314L300.759 792L309.807 800.918L318.79 792L325.17 798.314L331.484 804.694L321.394 814.979L315.275 809.055L318.79 805.735L321.394 808.014L324.519 804.694L318.79 799.03L312.411 805.214V823.506H307.203V805.214L300.759 798.77L295.095 804.694L298.22 808.014L300.759 805.735L304.079 809.055L298.22 814.979L288 804.694L294.314 798.314Z" fill="#4A2160" fill-opacity="0.05"/>
<path d="M294.314 42.3143L300.759 36L309.807 44.9182L318.79 36L325.17 42.3143L331.484 48.6937L321.394 58.9789L315.275 53.0551L318.79 49.7353L321.394 52.0136L324.519 48.6937L318.79 43.0304L312.411 49.2145V67.5065H307.203V49.2145L300.759 42.77L295.095 48.6937L298.22 52.0136L300.759 49.7353L304.079 53.0551L298.22 58.9789L288 48.6937L294.314 42.3143Z" fill="#4A2160" fill-opacity="0.05"/>
<path d="M294.314 330.314L300.759 324L309.807 332.918L318.79 324L325.17 330.314L331.484 336.694L321.394 346.979L315.275 341.055L318.79 337.735L321.394 340.014L324.519 336.694L318.79 331.03L312.411 337.214V355.506H307.203V337.214L300.759 330.77L295.095 336.694L298.22 340.014L300.759 337.735L304.079 341.055L298.22 346.979L288 336.694L294.314 330.314Z" fill="#4A2160" fill-opacity="0.05"/>
<path d="M294.314 618.314L300.759 612L309.807 620.918L318.79 612L325.17 618.314L331.484 624.694L321.394 634.979L315.275 629.055L318.79 625.735L321.394 628.014L324.519 624.694L318.79 619.03L312.411 625.214V643.506H307.203V625.214L300.759 618.77L295.095 624.694L298.22 628.014L300.759 625.735L304.079 629.055L298.22 634.979L288 624.694L294.314 618.314Z" fill="#4A2160" fill-opacity="0.05"/>
<path d="M294.314 186.314L300.759 180L309.807 188.918L318.79 180L325.17 186.314L331.484 192.694L321.394 202.979L315.275 197.055L318.79 193.735L321.394 196.014L324.519 192.694L318.79 187.03L312.411 193.214V211.506H307.203V193.214L300.759 186.77L295.095 192.694L298.22 196.014L300.759 193.735L304.079 197.055L298.22 202.979L288 192.694L294.314 186.314Z" fill="#4A2160" fill-opacity="0.05"/>
<path d="M294.314 474.314L300.759 468L309.807 476.918L318.79 468L325.17 474.314L331.484 480.694L321.394 490.979L315.275 485.055L318.79 481.735L321.394 484.014L324.519 480.694L318.79 475.03L312.411 481.214V499.506H307.203V481.214L300.759 474.77L295.095 480.694L298.22 484.014L300.759 481.735L304.079 485.055L298.22 490.979L288 480.694L294.314 474.314Z" fill="#4A2160" fill-opacity="0.05"/>
<path d="M294.314 762.314L300.759 756L309.807 764.918L318.79 756L325.17 762.314L331.484 768.694L321.394 778.979L315.275 773.055L318.79 769.735L321.394 772.014L324.519 768.694L318.79 763.03L312.411 769.214V787.506H307.203V769.214L300.759 762.77L295.095 768.694L298.22 772.014L300.759 769.735L304.079 773.055L298.22 778.979L288 768.694L294.314 762.314Z" fill="#4A2160" fill-opacity="0.05"/>
<path d="M294.314 114.314L300.759 108L309.807 116.918L318.79 108L325.17 114.314L331.484 120.694L321.394 130.979L315.275 125.055L318.79 121.735L321.394 124.014L324.519 120.694L318.79 115.03L312.411 121.214V139.506H307.203V121.214L300.759 114.77L295.095 120.694L298.22 124.014L300.759 121.735L304.079 125.055L298.22 130.979L288 120.694L294.314 114.314Z" fill="#4A2160" fill-opacity="0.05"/>
<path d="M294.314 402.314L300.759 396L309.807 404.918L318.79 396L325.17 402.314L331.484 408.694L321.394 418.979L315.275 413.055L318.79 409.735L321.394 412.014L324.519 408.694L318.79 403.03L312.411 409.214V427.506H307.203V409.214L300.759 402.77L295.095 408.694L298.22 412.014L300.759 409.735L304.079 413.055L298.22 418.979L288 408.694L294.314 402.314Z" fill="#4A2160" fill-opacity="0.05"/>
<path d="M294.314 690.314L300.759 684L309.807 692.918L318.79 684L325.17 690.314L331.484 696.694L321.394 706.979L315.275 701.055L318.79 697.735L321.394 700.014L324.519 696.694L318.79 691.03L312.411 697.214V715.506H307.203V697.214L300.759 690.77L295.095 696.694L298.22 700.014L300.759 697.735L304.079 701.055L298.22 706.979L288 696.694L294.314 690.314Z" fill="#4A2160" fill-opacity="0.05"/>
<path d="M294.314 258.314L300.759 252L309.807 260.918L318.79 252L325.17 258.314L331.484 264.694L321.394 274.979L315.275 269.055L318.79 265.735L321.394 268.014L324.519 264.694L318.79 259.03L312.411 265.214V283.506H307.203V265.214L300.759 258.77L295.095 264.694L298.22 268.014L300.759 265.735L304.079 269.055L298.22 274.979L288 264.694L294.314 258.314Z" fill="#4A2160" fill-opacity="0.05"/>
<path d="M294.314 546.314L300.759 540L309.807 548.918L318.79 540L325.17 546.314L331.484 552.694L321.394 562.979L315.275 557.055L318.79 553.735L321.394 556.014L324.519 552.694L318.79 547.03L312.411 553.214V571.506H307.203V553.214L300.759 546.77L295.095 552.694L298.22 556.014L300.759 553.735L304.079 557.055L298.22 562.979L288 552.694L294.314 546.314Z" fill="#4A2160" fill-opacity="0.05"/>
<path d="M294.314 834.314L300.759 828L309.807 836.918L318.79 828L325.17 834.314L331.484 840.694L321.394 850.979L315.275 845.055L318.79 841.735L321.394 844.014L324.519 840.694L318.79 835.03L312.411 841.214V859.506H307.203V841.214L300.759 834.77L295.095 840.694L298.22 844.014L300.759 841.735L304.079 845.055L298.22 850.979L288 840.694L294.314 834.314Z" fill="#4A2160" fill-opacity="0.05"/>
<path d="M390.314 6.31431L396.759 0L405.807 8.91815L414.79 0L421.17 6.31431L427.484 12.6937L417.394 22.9789L411.275 17.0551L414.79 13.7353L417.394 16.0136L420.519 12.6937L414.79 7.03037L408.411 13.2145V31.5065H403.203V13.2145L396.759 6.76998L391.095 12.6937L394.22 16.0136L396.759 13.7353L400.079 17.0551L394.22 22.9789L384 12.6937L390.314 6.31431Z" fill="#4A2160" fill-opacity="0.05"/>
<path d="M390.314 294.314L396.759 288L405.807 296.918L414.79 288L421.17 294.314L427.484 300.694L417.394 310.979L411.275 305.055L414.79 301.735L417.394 304.014L420.519 300.694L414.79 295.03L408.411 301.214V319.506H403.203V301.214L396.759 294.77L391.095 300.694L394.22 304.014L396.759 301.735L400.079 305.055L394.22 310.979L384 300.694L390.314 294.314Z" fill="#4A2160" fill-opacity="0.05"/>
<path d="M390.314 582.314L396.759 576L405.807 584.918L414.79 576L421.17 582.314L427.484 588.694L417.394 598.979L411.275 593.055L414.79 589.735L417.394 592.014L420.519 588.694L414.79 583.03L408.411 589.214V607.506H403.203V589.214L396.759 582.77L391.095 588.694L394.22 592.014L396.759 589.735L400.079 593.055L394.22 598.979L384 588.694L390.314 582.314Z" fill="#4A2160" fill-opacity="0.05"/>
<path d="M390.314 150.314L396.759 144L405.807 152.918L414.79 144L421.17 150.314L427.484 156.694L417.394 166.979L411.275 161.055L414.79 157.735L417.394 160.014L420.519 156.694L414.79 151.03L408.411 157.214V175.506H403.203V157.214L396.759 150.77L391.095 156.694L394.22 160.014L396.759 157.735L400.079 161.055L394.22 166.979L384 156.694L390.314 150.314Z" fill="#4A2160" fill-opacity="0.05"/>
<path d="M390.314 438.314L396.759 432L405.807 440.918L414.79 432L421.17 438.314L427.484 444.694L417.394 454.979L411.275 449.055L414.79 445.735L417.394 448.014L420.519 444.694L414.79 439.03L408.411 445.214V463.506H403.203V445.214L396.759 438.77L391.095 444.694L394.22 448.014L396.759 445.735L400.079 449.055L394.22 454.979L384 444.694L390.314 438.314Z" fill="#4A2160" fill-opacity="0.05"/>
<path d="M390.314 726.314L396.759 720L405.807 728.918L414.79 720L421.17 726.314L427.484 732.694L417.394 742.979L411.275 737.055L414.79 733.735L417.394 736.014L420.519 732.694L414.79 727.03L408.411 733.214V751.506H403.203V733.214L396.759 726.77L391.095 732.694L394.22 736.014L396.759 733.735L400.079 737.055L394.22 742.979L384 732.694L390.314 726.314Z" fill="#4A2160" fill-opacity="0.05"/>
<path d="M390.314 78.3143L396.759 72L405.807 80.9182L414.79 72L421.17 78.3143L427.484 84.6937L417.394 94.9789L411.275 89.0551L414.79 85.7353L417.394 88.0136L420.519 84.6937L414.79 79.0304L408.411 85.2145V103.506H403.203V85.2145L396.759 78.77L391.095 84.6937L394.22 88.0136L396.759 85.7353L400.079 89.0551L394.22 94.9789L384 84.6937L390.314 78.3143Z" fill="#4A2160" fill-opacity="0.05"/>
<path d="M390.314 366.314L396.759 360L405.807 368.918L414.79 360L421.17 366.314L427.484 372.694L417.394 382.979L411.275 377.055L414.79 373.735L417.394 376.014L420.519 372.694L414.79 367.03L408.411 373.214V391.506H403.203V373.214L396.759 366.77L391.095 372.694L394.22 376.014L396.759 373.735L400.079 377.055L394.22 382.979L384 372.694L390.314 366.314Z" fill="#4A2160" fill-opacity="0.05"/>
<path d="M390.314 654.314L396.759 648L405.807 656.918L414.79 648L421.17 654.314L427.484 660.694L417.394 670.979L411.275 665.055L414.79 661.735L417.394 664.014L420.519 660.694L414.79 655.03L408.411 661.214V679.506H403.203V661.214L396.759 654.77L391.095 660.694L394.22 664.014L396.759 661.735L400.079 665.055L394.22 670.979L384 660.694L390.314 654.314Z" fill="#4A2160" fill-opacity="0.05"/>
<path d="M390.314 222.314L396.759 216L405.807 224.918L414.79 216L421.17 222.314L427.484 228.694L417.394 238.979L411.275 233.055L414.79 229.735L417.394 232.014L420.519 228.694L414.79 223.03L408.411 229.214V247.506H403.203V229.214L396.759 222.77L391.095 228.694L394.22 232.014L396.759 229.735L400.079 233.055L394.22 238.979L384 228.694L390.314 222.314Z" fill="#4A2160" fill-opacity="0.05"/>
<path d="M390.314 510.314L396.759 504L405.807 512.918L414.79 504L421.17 510.314L427.484 516.694L417.394 526.979L411.275 521.055L414.79 517.735L417.394 520.014L420.519 516.694L414.79 511.03L408.411 517.214V535.506H403.203V517.214L396.759 510.77L391.095 516.694L394.22 520.014L396.759 517.735L400.079 521.055L394.22 526.979L384 516.694L390.314 510.314Z" fill="#4A2160" fill-opacity="0.05"/>
<path d="M390.314 798.314L396.759 792L405.807 800.918L414.79 792L421.17 798.314L427.484 804.694L417.394 814.979L411.275 809.055L414.79 805.735L417.394 808.014L420.519 804.694L414.79 799.03L408.411 805.214V823.506H403.203V805.214L396.759 798.77L391.095 804.694L394.22 808.014L396.759 805.735L400.079 809.055L394.22 814.979L384 804.694L390.314 798.314Z" fill="#4A2160" fill-opacity="0.05"/>
<path d="M390.314 42.3143L396.759 36L405.807 44.9182L414.79 36L421.17 42.3143L427.484 48.6937L417.394 58.9789L411.275 53.0551L414.79 49.7353L417.394 52.0136L420.519 48.6937L414.79 43.0304L408.411 49.2145V67.5065H403.203V49.2145L396.759 42.77L391.095 48.6937L394.22 52.0136L396.759 49.7353L400.079 53.0551L394.22 58.9789L384 48.6937L390.314 42.3143Z" fill="#4A2160" fill-opacity="0.05"/>
<path d="M390.314 330.314L396.759 324L405.807 332.918L414.79 324L421.17 330.314L427.484 336.694L417.394 346.979L411.275 341.055L414.79 337.735L417.394 340.014L420.519 336.694L414.79 331.03L408.411 337.214V355.506H403.203V337.214L396.759 330.77L391.095 336.694L394.22 340.014L396.759 337.735L400.079 341.055L394.22 346.979L384 336.694L390.314 330.314Z" fill="#4A2160" fill-opacity="0.05"/>
<path d="M390.314 618.314L396.759 612L405.807 620.918L414.79 612L421.17 618.314L427.484 624.694L417.394 634.979L411.275 629.055L414.79 625.735L417.394 628.014L420.519 624.694L414.79 619.03L408.411 625.214V643.506H403.203V625.214L396.759 618.77L391.095 624.694L394.22 628.014L396.759 625.735L400.079 629.055L394.22 634.979L384 624.694L390.314 618.314Z" fill="#4A2160" fill-opacity="0.05"/>
<path d="M390.314 186.314L396.759 180L405.807 188.918L414.79 180L421.17 186.314L427.484 192.694L417.394 202.979L411.275 197.055L414.79 193.735L417.394 196.014L420.519 192.694L414.79 187.03L408.411 193.214V211.506H403.203V193.214L396.759 186.77L391.095 192.694L394.22 196.014L396.759 193.735L400.079 197.055L394.22 202.979L384 192.694L390.314 186.314Z" fill="#4A2160" fill-opacity="0.05"/>
<path d="M390.314 474.314L396.759 468L405.807 476.918L414.79 468L421.17 474.314L427.484 480.694L417.394 490.979L411.275 485.055L414.79 481.735L417.394 484.014L420.519 480.694L414.79 475.03L408.411 481.214V499.506H403.203V481.214L396.759 474.77L391.095 480.694L394.22 484.014L396.759 481.735L400.079 485.055L394.22 490.979L384 480.694L390.314 474.314Z" fill="#4A2160" fill-opacity="0.05"/>
<path d="M390.314 762.314L396.759 756L405.807 764.918L414.79 756L421.17 762.314L427.484 768.694L417.394 778.979L411.275 773.055L414.79 769.735L417.394 772.014L420.519 768.694L414.79 763.03L408.411 769.214V787.506H403.203V769.214L396.759 762.77L391.095 768.694L394.22 772.014L396.759 769.735L400.079 773.055L394.22 778.979L384 768.694L390.314 762.314Z" fill="#4A2160" fill-opacity="0.05"/>
<path d="M390.314 114.314L396.759 108L405.807 116.918L414.79 108L421.17 114.314L427.484 120.694L417.394 130.979L411.275 125.055L414.79 121.735L417.394 124.014L420.519 120.694L414.79 115.03L408.411 121.214V139.506H403.203V121.214L396.759 114.77L391.095 120.694L394.22 124.014L396.759 121.735L400.079 125.055L394.22 130.979L384 120.694L390.314 114.314Z" fill="#4A2160" fill-opacity="0.05"/>
<path d="M390.314 402.314L396.759 396L405.807 404.918L414.79 396L421.17 402.314L427.484 408.694L417.394 418.979L411.275 413.055L414.79 409.735L417.394 412.014L420.519 408.694L414.79 403.03L408.411 409.214V427.506H403.203V409.214L396.759 402.77L391.095 408.694L394.22 412.014L396.759 409.735L400.079 413.055L394.22 418.979L384 408.694L390.314 402.314Z" fill="#4A2160" fill-opacity="0.05"/>
<path d="M390.314 690.314L396.759 684L405.807 692.918L414.79 684L421.17 690.314L427.484 696.694L417.394 706.979L411.275 701.055L414.79 697.735L417.394 700.014L420.519 696.694L414.79 691.03L408.411 697.214V715.506H403.203V697.214L396.759 690.77L391.095 696.694L394.22 700.014L396.759 697.735L400.079 701.055L394.22 706.979L384 696.694L390.314 690.314Z" fill="#4A2160" fill-opacity="0.05"/>
<path d="M390.314 258.314L396.759 252L405.807 260.918L414.79 252L421.17 258.314L427.484 264.694L417.394 274.979L411.275 269.055L414.79 265.735L417.394 268.014L420.519 264.694L414.79 259.03L408.411 265.214V283.506H403.203V265.214L396.759 258.77L391.095 264.694L394.22 268.014L396.759 265.735L400.079 269.055L394.22 274.979L384 264.694L390.314 258.314Z" fill="#4A2160" fill-opacity="0.05"/>
<path d="M390.314 546.314L396.759 540L405.807 548.918L414.79 540L421.17 546.314L427.484 552.694L417.394 562.979L411.275 557.055L414.79 553.735L417.394 556.014L420.519 552.694L414.79 547.03L408.411 553.214V571.506H403.203V553.214L396.759 546.77L391.095 552.694L394.22 556.014L396.759 553.735L400.079 557.055L394.22 562.979L384 552.694L390.314 546.314Z" fill="#4A2160" fill-opacity="0.05"/>
<path d="M390.314 834.314L396.759 828L405.807 836.918L414.79 828L421.17 834.314L427.484 840.694L417.394 850.979L411.275 845.055L414.79 841.735L417.394 844.014L420.519 840.694L414.79 835.03L408.411 841.214V859.506H403.203V841.214L396.759 834.77L391.095 840.694L394.22 844.014L396.759 841.735L400.079 845.055L394.22 850.979L384 840.694L390.314 834.314Z" fill="#4A2160" fill-opacity="0.05"/>
<path d="M85.0011 25.192L78.5566 31.5063L69.5083 22.5882L60.525 31.5063L54.1456 25.192L47.8313 18.8126L57.9212 8.52746L64.0402 14.4512L60.525 17.7711L57.9212 15.4927L54.7966 18.8126L60.525 24.476L66.9044 18.2919L66.9044 -0.00011279L72.1121 -0.000112334L72.1121 18.2919L78.5566 24.7364L84.22 18.8126L81.0954 15.4927L78.5566 17.7711L75.2367 14.4512L81.0954 8.52746L91.3154 18.8126L85.0011 25.192Z" fill="#4A2160" fill-opacity="0.05"/>
<path d="M85.0011 313.192L78.5566 319.506L69.5083 310.588L60.525 319.506L54.1456 313.192L47.8313 306.813L57.9212 296.527L64.0402 302.451L60.525 305.771L57.9212 303.493L54.7966 306.813L60.525 312.476L66.9044 306.292L66.9044 288L72.1121 288L72.1121 306.292L78.5566 312.736L84.22 306.813L81.0954 303.493L78.5566 305.771L75.2367 302.451L81.0954 296.527L91.3154 306.813L85.0011 313.192Z" fill="#4A2160" fill-opacity="0.05"/>
<path d="M85.0011 601.192L78.5566 607.506L69.5083 598.588L60.525 607.506L54.1456 601.192L47.8313 594.813L57.9212 584.527L64.0402 590.451L60.525 593.771L57.9212 591.493L54.7966 594.813L60.525 600.476L66.9044 594.292L66.9044 576L72.1121 576L72.1121 594.292L78.5566 600.736L84.22 594.813L81.0954 591.493L78.5566 593.771L75.2367 590.451L81.0954 584.527L91.3154 594.813L85.0011 601.192Z" fill="#4A2160" fill-opacity="0.05"/>
<path d="M85.0011 169.192L78.5566 175.506L69.5083 166.588L60.525 175.506L54.1456 169.192L47.8313 162.813L57.9212 152.527L64.0402 158.451L60.525 161.771L57.9212 159.493L54.7966 162.813L60.525 168.476L66.9044 162.292L66.9044 144L72.1121 144L72.1121 162.292L78.5566 168.736L84.22 162.813L81.0954 159.493L78.5566 161.771L75.2367 158.451L81.0954 152.527L91.3154 162.813L85.0011 169.192Z" fill="#4A2160" fill-opacity="0.05"/>
<path d="M85.0011 457.192L78.5566 463.506L69.5083 454.588L60.525 463.506L54.1456 457.192L47.8313 450.813L57.9212 440.527L64.0402 446.451L60.525 449.771L57.9212 447.493L54.7966 450.813L60.525 456.476L66.9044 450.292L66.9044 432L72.1121 432L72.1121 450.292L78.5566 456.736L84.22 450.813L81.0954 447.493L78.5566 449.771L75.2367 446.451L81.0954 440.527L91.3154 450.813L85.0011 457.192Z" fill="#4A2160" fill-opacity="0.05"/>
<path d="M85.0011 745.192L78.5566 751.506L69.5083 742.588L60.525 751.506L54.1456 745.192L47.8313 738.813L57.9212 728.527L64.0402 734.451L60.525 737.771L57.9212 735.493L54.7966 738.813L60.525 744.476L66.9044 738.292L66.9044 720L72.1121 720L72.1121 738.292L78.5566 744.736L84.22 738.813L81.0954 735.493L78.5566 737.771L75.2367 734.451L81.0954 728.527L91.3154 738.813L85.0011 745.192Z" fill="#4A2160" fill-opacity="0.05"/>
<path d="M85.0011 97.192L78.5566 103.506L69.5083 94.5882L60.525 103.506L54.1456 97.192L47.8313 90.8126L57.9212 80.5275L64.0402 86.4512L60.525 89.7711L57.9212 87.4927L54.7966 90.8126L60.525 96.476L66.9044 90.2919L66.9044 71.9999L72.1121 71.9999L72.1121 90.2919L78.5566 96.7364L84.22 90.8126L81.0954 87.4927L78.5566 89.7711L75.2367 86.4512L81.0954 80.5275L91.3154 90.8126L85.0011 97.192Z" fill="#4A2160" fill-opacity="0.05"/>
<path d="M85.0011 385.192L78.5566 391.506L69.5083 382.588L60.525 391.506L54.1456 385.192L47.8313 378.813L57.9212 368.527L64.0402 374.451L60.525 377.771L57.9212 375.493L54.7966 378.813L60.525 384.476L66.9044 378.292L66.9044 360L72.1121 360L72.1121 378.292L78.5566 384.736L84.22 378.813L81.0954 375.493L78.5566 377.771L75.2367 374.451L81.0954 368.527L91.3154 378.813L85.0011 385.192Z" fill="#4A2160" fill-opacity="0.05"/>
<path d="M85.0011 673.192L78.5566 679.506L69.5083 670.588L60.525 679.506L54.1456 673.192L47.8313 666.813L57.9212 656.527L64.0402 662.451L60.525 665.771L57.9212 663.493L54.7966 666.813L60.525 672.476L66.9044 666.292L66.9044 648L72.1121 648L72.1121 666.292L78.5566 672.736L84.22 666.813L81.0954 663.493L78.5566 665.771L75.2367 662.451L81.0954 656.527L91.3154 666.813L85.0011 673.192Z" fill="#4A2160" fill-opacity="0.05"/>
<path d="M85.0011 241.192L78.5566 247.506L69.5083 238.588L60.525 247.506L54.1456 241.192L47.8313 234.813L57.9212 224.527L64.0402 230.451L60.525 233.771L57.9212 231.493L54.7966 234.813L60.525 240.476L66.9044 234.292L66.9044 216L72.1121 216L72.1121 234.292L78.5566 240.736L84.22 234.813L81.0954 231.493L78.5566 233.771L75.2367 230.451L81.0954 224.527L91.3154 234.813L85.0011 241.192Z" fill="#4A2160" fill-opacity="0.05"/>
<path d="M85.0011 529.192L78.5566 535.506L69.5083 526.588L60.525 535.506L54.1456 529.192L47.8313 522.813L57.9212 512.527L64.0402 518.451L60.525 521.771L57.9212 519.493L54.7966 522.813L60.525 528.476L66.9044 522.292L66.9044 504L72.1121 504L72.1121 522.292L78.5566 528.736L84.22 522.813L81.0954 519.493L78.5566 521.771L75.2367 518.451L81.0954 512.527L91.3154 522.813L85.0011 529.192Z" fill="#4A2160" fill-opacity="0.05"/>
<path d="M85.0011 817.192L78.5566 823.506L69.5083 814.588L60.525 823.506L54.1456 817.192L47.8313 810.813L57.9212 800.527L64.0402 806.451L60.525 809.771L57.9212 807.493L54.7966 810.813L60.525 816.476L66.9044 810.292L66.9044 792L72.1121 792L72.1121 810.292L78.5566 816.736L84.22 810.813L81.0954 807.493L78.5566 809.771L75.2367 806.451L81.0954 800.527L91.3154 810.813L85.0011 817.192Z" fill="#4A2160" fill-opacity="0.05"/>
<path d="M85.0011 61.192L78.5566 67.5063L69.5083 58.5882L60.525 67.5063L54.1456 61.192L47.8313 54.8126L57.9212 44.5275L64.0402 50.4512L60.525 53.7711L57.9212 51.4927L54.7966 54.8126L60.525 60.476L66.9044 54.2919L66.9044 35.9999L72.1121 35.9999L72.1121 54.2919L78.5566 60.7364L84.22 54.8126L81.0954 51.4927L78.5566 53.7711L75.2367 50.4512L81.0954 44.5275L91.3154 54.8126L85.0011 61.192Z" fill="#4A2160" fill-opacity="0.05"/>
<path d="M85.0011 349.192L78.5566 355.506L69.5083 346.588L60.525 355.506L54.1456 349.192L47.8313 342.813L57.9212 332.527L64.0402 338.451L60.525 341.771L57.9212 339.493L54.7966 342.813L60.525 348.476L66.9044 342.292L66.9044 324L72.1121 324L72.1121 342.292L78.5566 348.736L84.22 342.813L81.0954 339.493L78.5566 341.771L75.2367 338.451L81.0954 332.527L91.3154 342.813L85.0011 349.192Z" fill="#4A2160" fill-opacity="0.05"/>
<path d="M85.0011 637.192L78.5566 643.506L69.5083 634.588L60.525 643.506L54.1456 637.192L47.8313 630.813L57.9212 620.527L64.0402 626.451L60.525 629.771L57.9212 627.493L54.7966 630.813L60.525 636.476L66.9044 630.292L66.9044 612L72.1121 612L72.1121 630.292L78.5566 636.736L84.22 630.813L81.0954 627.493L78.5566 629.771L75.2367 626.451L81.0954 620.527L91.3154 630.813L85.0011 637.192Z" fill="#4A2160" fill-opacity="0.05"/>
<path d="M85.0011 205.192L78.5566 211.506L69.5083 202.588L60.525 211.506L54.1456 205.192L47.8313 198.813L57.9212 188.527L64.0402 194.451L60.525 197.771L57.9212 195.493L54.7966 198.813L60.525 204.476L66.9044 198.292L66.9044 180L72.1121 180L72.1121 198.292L78.5566 204.736L84.22 198.813L81.0954 195.493L78.5566 197.771L75.2367 194.451L81.0954 188.527L91.3154 198.813L85.0011 205.192Z" fill="#4A2160" fill-opacity="0.05"/>
<path d="M85.0011 493.192L78.5566 499.506L69.5083 490.588L60.525 499.506L54.1456 493.192L47.8313 486.813L57.9212 476.527L64.0402 482.451L60.525 485.771L57.9212 483.493L54.7966 486.813L60.525 492.476L66.9044 486.292L66.9044 468L72.1121 468L72.1121 486.292L78.5566 492.736L84.22 486.813L81.0954 483.493L78.5566 485.771L75.2367 482.451L81.0954 476.527L91.3154 486.813L85.0011 493.192Z" fill="#4A2160" fill-opacity="0.05"/>
<path d="M85.0011 781.192L78.5566 787.506L69.5083 778.588L60.525 787.506L54.1456 781.192L47.8313 774.813L57.9212 764.527L64.0402 770.451L60.525 773.771L57.9212 771.493L54.7966 774.813L60.525 780.476L66.9044 774.292L66.9044 756L72.1121 756L72.1121 774.292L78.5566 780.736L84.22 774.813L81.0954 771.493L78.5566 773.771L75.2367 770.451L81.0954 764.527L91.3154 774.813L85.0011 781.192Z" fill="#4A2160" fill-opacity="0.05"/>
<path d="M85.0011 133.192L78.5566 139.506L69.5083 130.588L60.525 139.506L54.1456 133.192L47.8313 126.813L57.9212 116.527L64.0402 122.451L60.525 125.771L57.9212 123.493L54.7966 126.813L60.525 132.476L66.9044 126.292L66.9044 108L72.1121 108L72.1121 126.292L78.5566 132.736L84.22 126.813L81.0954 123.493L78.5566 125.771L75.2367 122.451L81.0954 116.527L91.3154 126.813L85.0011 133.192Z" fill="#4A2160" fill-opacity="0.05"/>
<path d="M85.0011 421.192L78.5566 427.506L69.5083 418.588L60.525 427.506L54.1456 421.192L47.8313 414.813L57.9212 404.527L64.0402 410.451L60.525 413.771L57.9212 411.493L54.7966 414.813L60.525 420.476L66.9044 414.292L66.9044 396L72.1121 396L72.1121 414.292L78.5566 420.736L84.22 414.813L81.0954 411.493L78.5566 413.771L75.2367 410.451L81.0954 404.527L91.3154 414.813L85.0011 421.192Z" fill="#4A2160" fill-opacity="0.05"/>
<path d="M85.0011 709.192L78.5566 715.506L69.5083 706.588L60.525 715.506L54.1456 709.192L47.8313 702.813L57.9212 692.527L64.0402 698.451L60.525 701.771L57.9212 699.493L54.7966 702.813L60.525 708.476L66.9044 702.292L66.9044 684L72.1121 684L72.1121 702.292L78.5566 708.736L84.22 702.813L81.0954 699.493L78.5566 701.771L75.2367 698.451L81.0954 692.527L91.3154 702.813L85.0011 709.192Z" fill="#4A2160" fill-opacity="0.05"/>
<path d="M85.0011 277.192L78.5566 283.506L69.5083 274.588L60.525 283.506L54.1456 277.192L47.8313 270.813L57.9212 260.527L64.0402 266.451L60.525 269.771L57.9212 267.493L54.7966 270.813L60.525 276.476L66.9044 270.292L66.9044 252L72.1121 252L72.1121 270.292L78.5566 276.736L84.22 270.813L81.0954 267.493L78.5566 269.771L75.2367 266.451L81.0954 260.527L91.3154 270.813L85.0011 277.192Z" fill="#4A2160" fill-opacity="0.05"/>
<path d="M85.0011 565.192L78.5566 571.506L69.5083 562.588L60.525 571.506L54.1456 565.192L47.8313 558.813L57.9212 548.527L64.0402 554.451L60.525 557.771L57.9212 555.493L54.7966 558.813L60.525 564.476L66.9044 558.292L66.9044 540L72.1121 540L72.1121 558.292L78.5566 564.736L84.22 558.813L81.0954 555.493L78.5566 557.771L75.2367 554.451L81.0954 548.527L91.3154 558.813L85.0011 565.192Z" fill="#4A2160" fill-opacity="0.05"/>
<path d="M85.0011 853.192L78.5566 859.506L69.5083 850.588L60.525 859.506L54.1456 853.192L47.8313 846.813L57.9212 836.527L64.0402 842.451L60.525 845.771L57.9212 843.493L54.7966 846.813L60.525 852.476L66.9044 846.292L66.9044 828L72.1121 828L72.1121 846.292L78.5566 852.736L84.22 846.813L81.0954 843.493L78.5566 845.771L75.2367 842.451L81.0954 836.527L91.3154 846.813L85.0011 853.192Z" fill="#4A2160" fill-opacity="0.05"/>
<path d="M277.001 25.192L270.557 31.5063L261.508 22.5882L252.525 31.5063L246.146 25.192L239.831 18.8126L249.921 8.52746L256.04 14.4512L252.525 17.7711L249.921 15.4927L246.797 18.8126L252.525 24.476L258.904 18.2919L258.904 -0.00011279L264.112 -0.000112334L264.112 18.2919L270.557 24.7364L276.22 18.8126L273.095 15.4927L270.557 17.7711L267.237 14.4512L273.095 8.52746L283.315 18.8126L277.001 25.192Z" fill="#4A2160" fill-opacity="0.05"/>
<path d="M277.001 313.192L270.557 319.506L261.508 310.588L252.525 319.506L246.146 313.192L239.831 306.813L249.921 296.527L256.04 302.451L252.525 305.771L249.921 303.493L246.797 306.813L252.525 312.476L258.904 306.292L258.904 288L264.112 288L264.112 306.292L270.557 312.736L276.22 306.813L273.095 303.493L270.557 305.771L267.237 302.451L273.095 296.527L283.315 306.813L277.001 313.192Z" fill="#4A2160" fill-opacity="0.05"/>
<path d="M277.001 601.192L270.557 607.506L261.508 598.588L252.525 607.506L246.146 601.192L239.831 594.813L249.921 584.527L256.04 590.451L252.525 593.771L249.921 591.493L246.797 594.813L252.525 600.476L258.904 594.292L258.904 576L264.112 576L264.112 594.292L270.557 600.736L276.22 594.813L273.095 591.493L270.557 593.771L267.237 590.451L273.095 584.527L283.315 594.813L277.001 601.192Z" fill="#4A2160" fill-opacity="0.05"/>
<path d="M277.001 169.192L270.557 175.506L261.508 166.588L252.525 175.506L246.146 169.192L239.831 162.813L249.921 152.527L256.04 158.451L252.525 161.771L249.921 159.493L246.797 162.813L252.525 168.476L258.904 162.292L258.904 144L264.112 144L264.112 162.292L270.557 168.736L276.22 162.813L273.095 159.493L270.557 161.771L267.237 158.451L273.095 152.527L283.315 162.813L277.001 169.192Z" fill="#4A2160" fill-opacity="0.05"/>
<path d="M277.001 457.192L270.557 463.506L261.508 454.588L252.525 463.506L246.146 457.192L239.831 450.813L249.921 440.527L256.04 446.451L252.525 449.771L249.921 447.493L246.797 450.813L252.525 456.476L258.904 450.292L258.904 432L264.112 432L264.112 450.292L270.557 456.736L276.22 450.813L273.095 447.493L270.557 449.771L267.237 446.451L273.095 440.527L283.315 450.813L277.001 457.192Z" fill="#4A2160" fill-opacity="0.05"/>
<path d="M277.001 745.192L270.557 751.506L261.508 742.588L252.525 751.506L246.146 745.192L239.831 738.813L249.921 728.527L256.04 734.451L252.525 737.771L249.921 735.493L246.797 738.813L252.525 744.476L258.904 738.292L258.904 720L264.112 720L264.112 738.292L270.557 744.736L276.22 738.813L273.095 735.493L270.557 737.771L267.237 734.451L273.095 728.527L283.315 738.813L277.001 745.192Z" fill="#4A2160" fill-opacity="0.05"/>
<path d="M277.001 97.192L270.557 103.506L261.508 94.5882L252.525 103.506L246.146 97.192L239.831 90.8126L249.921 80.5275L256.04 86.4512L252.525 89.7711L249.921 87.4927L246.797 90.8126L252.525 96.476L258.904 90.2919L258.904 71.9999L264.112 71.9999L264.112 90.2919L270.557 96.7364L276.22 90.8126L273.095 87.4927L270.557 89.7711L267.237 86.4512L273.095 80.5275L283.315 90.8126L277.001 97.192Z" fill="#4A2160" fill-opacity="0.05"/>
<path d="M277.001 385.192L270.557 391.506L261.508 382.588L252.525 391.506L246.146 385.192L239.831 378.813L249.921 368.527L256.04 374.451L252.525 377.771L249.921 375.493L246.797 378.813L252.525 384.476L258.904 378.292L258.904 360L264.112 360L264.112 378.292L270.557 384.736L276.22 378.813L273.095 375.493L270.557 377.771L267.237 374.451L273.095 368.527L283.315 378.813L277.001 385.192Z" fill="#4A2160" fill-opacity="0.05"/>
<path d="M277.001 673.192L270.557 679.506L261.508 670.588L252.525 679.506L246.146 673.192L239.831 666.813L249.921 656.527L256.04 662.451L252.525 665.771L249.921 663.493L246.797 666.813L252.525 672.476L258.904 666.292L258.904 648L264.112 648L264.112 666.292L270.557 672.736L276.22 666.813L273.095 663.493L270.557 665.771L267.237 662.451L273.095 656.527L283.315 666.813L277.001 673.192Z" fill="#4A2160" fill-opacity="0.05"/>
<path d="M277.001 241.192L270.557 247.506L261.508 238.588L252.525 247.506L246.146 241.192L239.831 234.813L249.921 224.527L256.04 230.451L252.525 233.771L249.921 231.493L246.797 234.813L252.525 240.476L258.904 234.292L258.904 216L264.112 216L264.112 234.292L270.557 240.736L276.22 234.813L273.095 231.493L270.557 233.771L267.237 230.451L273.095 224.527L283.315 234.813L277.001 241.192Z" fill="#4A2160" fill-opacity="0.05"/>
<path d="M277.001 529.192L270.557 535.506L261.508 526.588L252.525 535.506L246.146 529.192L239.831 522.813L249.921 512.527L256.04 518.451L252.525 521.771L249.921 519.493L246.797 522.813L252.525 528.476L258.904 522.292L258.904 504L264.112 504L264.112 522.292L270.557 528.736L276.22 522.813L273.095 519.493L270.557 521.771L267.237 518.451L273.095 512.527L283.315 522.813L277.001 529.192Z" fill="#4A2160" fill-opacity="0.05"/>
<path d="M277.001 817.192L270.557 823.506L261.508 814.588L252.525 823.506L246.146 817.192L239.831 810.813L249.921 800.527L256.04 806.451L252.525 809.771L249.921 807.493L246.797 810.813L252.525 816.476L258.904 810.292L258.904 792L264.112 792L264.112 810.292L270.557 816.736L276.22 810.813L273.095 807.493L270.557 809.771L267.237 806.451L273.095 800.527L283.315 810.813L277.001 817.192Z" fill="#4A2160" fill-opacity="0.05"/>
<path d="M277.001 61.192L270.557 67.5063L261.508 58.5882L252.525 67.5063L246.146 61.192L239.831 54.8126L249.921 44.5275L256.04 50.4512L252.525 53.7711L249.921 51.4927L246.797 54.8126L252.525 60.476L258.904 54.2919L258.904 35.9999L264.112 35.9999L264.112 54.2919L270.557 60.7364L276.22 54.8126L273.095 51.4927L270.557 53.7711L267.237 50.4512L273.095 44.5275L283.315 54.8126L277.001 61.192Z" fill="#4A2160" fill-opacity="0.05"/>
<path d="M277.001 349.192L270.557 355.506L261.508 346.588L252.525 355.506L246.146 349.192L239.831 342.813L249.921 332.527L256.04 338.451L252.525 341.771L249.921 339.493L246.797 342.813L252.525 348.476L258.904 342.292L258.904 324L264.112 324L264.112 342.292L270.557 348.736L276.22 342.813L273.095 339.493L270.557 341.771L267.237 338.451L273.095 332.527L283.315 342.813L277.001 349.192Z" fill="#4A2160" fill-opacity="0.05"/>
<path d="M277.001 637.192L270.557 643.506L261.508 634.588L252.525 643.506L246.146 637.192L239.831 630.813L249.921 620.527L256.04 626.451L252.525 629.771L249.921 627.493L246.797 630.813L252.525 636.476L258.904 630.292L258.904 612L264.112 612L264.112 630.292L270.557 636.736L276.22 630.813L273.095 627.493L270.557 629.771L267.237 626.451L273.095 620.527L283.315 630.813L277.001 637.192Z" fill="#4A2160" fill-opacity="0.05"/>
<path d="M277.001 205.192L270.557 211.506L261.508 202.588L252.525 211.506L246.146 205.192L239.831 198.813L249.921 188.527L256.04 194.451L252.525 197.771L249.921 195.493L246.797 198.813L252.525 204.476L258.904 198.292L258.904 180L264.112 180L264.112 198.292L270.557 204.736L276.22 198.813L273.095 195.493L270.557 197.771L267.237 194.451L273.095 188.527L283.315 198.813L277.001 205.192Z" fill="#4A2160" fill-opacity="0.05"/>
<path d="M277.001 493.192L270.557 499.506L261.508 490.588L252.525 499.506L246.146 493.192L239.831 486.813L249.921 476.527L256.04 482.451L252.525 485.771L249.921 483.493L246.797 486.813L252.525 492.476L258.904 486.292L258.904 468L264.112 468L264.112 486.292L270.557 492.736L276.22 486.813L273.095 483.493L270.557 485.771L267.237 482.451L273.095 476.527L283.315 486.813L277.001 493.192Z" fill="#4A2160" fill-opacity="0.05"/>
<path d="M277.001 781.192L270.557 787.506L261.508 778.588L252.525 787.506L246.146 781.192L239.831 774.813L249.921 764.527L256.04 770.451L252.525 773.771L249.921 771.493L246.797 774.813L252.525 780.476L258.904 774.292L258.904 756L264.112 756L264.112 774.292L270.557 780.736L276.22 774.813L273.095 771.493L270.557 773.771L267.237 770.451L273.095 764.527L283.315 774.813L277.001 781.192Z" fill="#4A2160" fill-opacity="0.05"/>
<path d="M277.001 133.192L270.557 139.506L261.508 130.588L252.525 139.506L246.146 133.192L239.831 126.813L249.921 116.527L256.04 122.451L252.525 125.771L249.921 123.493L246.797 126.813L252.525 132.476L258.904 126.292L258.904 108L264.112 108L264.112 126.292L270.557 132.736L276.22 126.813L273.095 123.493L270.557 125.771L267.237 122.451L273.095 116.527L283.315 126.813L277.001 133.192Z" fill="#4A2160" fill-opacity="0.05"/>
<path d="M277.001 421.192L270.557 427.506L261.508 418.588L252.525 427.506L246.146 421.192L239.831 414.813L249.921 404.527L256.04 410.451L252.525 413.771L249.921 411.493L246.797 414.813L252.525 420.476L258.904 414.292L258.904 396L264.112 396L264.112 414.292L270.557 420.736L276.22 414.813L273.095 411.493L270.557 413.771L267.237 410.451L273.095 404.527L283.315 414.813L277.001 421.192Z" fill="#4A2160" fill-opacity="0.05"/>
<path d="M277.001 709.192L270.557 715.506L261.508 706.588L252.525 715.506L246.146 709.192L239.831 702.813L249.921 692.527L256.04 698.451L252.525 701.771L249.921 699.493L246.797 702.813L252.525 708.476L258.904 702.292L258.904 684L264.112 684L264.112 702.292L270.557 708.736L276.22 702.813L273.095 699.493L270.557 701.771L267.237 698.451L273.095 692.527L283.315 702.813L277.001 709.192Z" fill="#4A2160" fill-opacity="0.05"/>
<path d="M277.001 277.192L270.557 283.506L261.508 274.588L252.525 283.506L246.146 277.192L239.831 270.813L249.921 260.527L256.04 266.451L252.525 269.771L249.921 267.493L246.797 270.813L252.525 276.476L258.904 270.292L258.904 252L264.112 252L264.112 270.292L270.557 276.736L276.22 270.813L273.095 267.493L270.557 269.771L267.237 266.451L273.095 260.527L283.315 270.813L277.001 277.192Z" fill="#4A2160" fill-opacity="0.05"/>
<path d="M277.001 565.192L270.557 571.506L261.508 562.588L252.525 571.506L246.146 565.192L239.831 558.813L249.921 548.527L256.04 554.451L252.525 557.771L249.921 555.493L246.797 558.813L252.525 564.476L258.904 558.292L258.904 540L264.112 540L264.112 558.292L270.557 564.736L276.22 558.813L273.095 555.493L270.557 557.771L267.237 554.451L273.095 548.527L283.315 558.813L277.001 565.192Z" fill="#4A2160" fill-opacity="0.05"/>
<path d="M277.001 853.192L270.557 859.506L261.508 850.588L252.525 859.506L246.146 853.192L239.831 846.813L249.921 836.527L256.04 842.451L252.525 845.771L249.921 843.493L246.797 846.813L252.525 852.476L258.904 846.292L258.904 828L264.112 828L264.112 846.292L270.557 852.736L276.22 846.813L273.095 843.493L270.557 845.771L267.237 842.451L273.095 836.527L283.315 846.813L277.001 853.192Z" fill="#4A2160" fill-opacity="0.05"/>
<path d="M181.001 25.192L174.557 31.5063L165.508 22.5882L156.525 31.5063L150.146 25.192L143.831 18.8126L153.921 8.52746L160.04 14.4512L156.525 17.7711L153.921 15.4927L150.797 18.8126L156.525 24.476L162.904 18.2919L162.904 -0.000112194L168.112 -0.000111738L168.112 18.2919L174.557 24.7364L180.22 18.8126L177.095 15.4927L174.557 17.7711L171.237 14.4512L177.095 8.52746L187.315 18.8126L181.001 25.192Z" fill="#4A2160" fill-opacity="0.05"/>
<path d="M181.001 313.192L174.557 319.506L165.508 310.588L156.525 319.506L150.146 313.192L143.831 306.813L153.921 296.527L160.04 302.451L156.525 305.771L153.921 303.493L150.797 306.813L156.525 312.476L162.904 306.292L162.904 288L168.112 288L168.112 306.292L174.557 312.736L180.22 306.813L177.095 303.493L174.557 305.771L171.237 302.451L177.095 296.527L187.315 306.813L181.001 313.192Z" fill="#4A2160" fill-opacity="0.05"/>
<path d="M181.001 601.192L174.557 607.506L165.508 598.588L156.525 607.506L150.146 601.192L143.831 594.813L153.921 584.527L160.04 590.451L156.525 593.771L153.921 591.493L150.797 594.813L156.525 600.476L162.904 594.292L162.904 576L168.112 576L168.112 594.292L174.557 600.736L180.22 594.813L177.095 591.493L174.557 593.771L171.237 590.451L177.095 584.527L187.315 594.813L181.001 601.192Z" fill="#4A2160" fill-opacity="0.05"/>
<path d="M181.001 169.192L174.557 175.506L165.508 166.588L156.525 175.506L150.146 169.192L143.831 162.813L153.921 152.527L160.04 158.451L156.525 161.771L153.921 159.493L150.797 162.813L156.525 168.476L162.904 162.292L162.904 144L168.112 144L168.112 162.292L174.557 168.736L180.22 162.813L177.095 159.493L174.557 161.771L171.237 158.451L177.095 152.527L187.315 162.813L181.001 169.192Z" fill="#4A2160" fill-opacity="0.05"/>
<path d="M181.001 457.192L174.557 463.506L165.508 454.588L156.525 463.506L150.146 457.192L143.831 450.813L153.921 440.527L160.04 446.451L156.525 449.771L153.921 447.493L150.797 450.813L156.525 456.476L162.904 450.292L162.904 432L168.112 432L168.112 450.292L174.557 456.736L180.22 450.813L177.095 447.493L174.557 449.771L171.237 446.451L177.095 440.527L187.315 450.813L181.001 457.192Z" fill="#4A2160" fill-opacity="0.05"/>
<path d="M181.001 745.192L174.557 751.506L165.508 742.588L156.525 751.506L150.146 745.192L143.831 738.813L153.921 728.527L160.04 734.451L156.525 737.771L153.921 735.493L150.797 738.813L156.525 744.476L162.904 738.292L162.904 720L168.112 720L168.112 738.292L174.557 744.736L180.22 738.813L177.095 735.493L174.557 737.771L171.237 734.451L177.095 728.527L187.315 738.813L181.001 745.192Z" fill="#4A2160" fill-opacity="0.05"/>
<path d="M181.001 97.192L174.557 103.506L165.508 94.5882L156.525 103.506L150.146 97.192L143.831 90.8126L153.921 80.5275L160.04 86.4512L156.525 89.7711L153.921 87.4927L150.797 90.8126L156.525 96.476L162.904 90.2919L162.904 71.9999L168.112 71.9999L168.112 90.2919L174.557 96.7364L180.22 90.8126L177.095 87.4927L174.557 89.7711L171.237 86.4512L177.095 80.5275L187.315 90.8126L181.001 97.192Z" fill="#4A2160" fill-opacity="0.05"/>
<path d="M181.001 385.192L174.557 391.506L165.508 382.588L156.525 391.506L150.146 385.192L143.831 378.813L153.921 368.527L160.04 374.451L156.525 377.771L153.921 375.493L150.797 378.813L156.525 384.476L162.904 378.292L162.904 360L168.112 360L168.112 378.292L174.557 384.736L180.22 378.813L177.095 375.493L174.557 377.771L171.237 374.451L177.095 368.527L187.315 378.813L181.001 385.192Z" fill="#4A2160" fill-opacity="0.05"/>
<path d="M181.001 673.192L174.557 679.506L165.508 670.588L156.525 679.506L150.146 673.192L143.831 666.813L153.921 656.527L160.04 662.451L156.525 665.771L153.921 663.493L150.797 666.813L156.525 672.476L162.904 666.292L162.904 648L168.112 648L168.112 666.292L174.557 672.736L180.22 666.813L177.095 663.493L174.557 665.771L171.237 662.451L177.095 656.527L187.315 666.813L181.001 673.192Z" fill="#4A2160" fill-opacity="0.05"/>
<path d="M181.001 241.192L174.557 247.506L165.508 238.588L156.525 247.506L150.146 241.192L143.831 234.813L153.921 224.527L160.04 230.451L156.525 233.771L153.921 231.493L150.797 234.813L156.525 240.476L162.904 234.292L162.904 216L168.112 216L168.112 234.292L174.557 240.736L180.22 234.813L177.095 231.493L174.557 233.771L171.237 230.451L177.095 224.527L187.315 234.813L181.001 241.192Z" fill="#4A2160" fill-opacity="0.05"/>
<path d="M181.001 529.192L174.557 535.506L165.508 526.588L156.525 535.506L150.146 529.192L143.831 522.813L153.921 512.527L160.04 518.451L156.525 521.771L153.921 519.493L150.797 522.813L156.525 528.476L162.904 522.292L162.904 504L168.112 504L168.112 522.292L174.557 528.736L180.22 522.813L177.095 519.493L174.557 521.771L171.237 518.451L177.095 512.527L187.315 522.813L181.001 529.192Z" fill="#4A2160" fill-opacity="0.05"/>
<path d="M181.001 817.192L174.557 823.506L165.508 814.588L156.525 823.506L150.146 817.192L143.831 810.813L153.921 800.527L160.04 806.451L156.525 809.771L153.921 807.493L150.797 810.813L156.525 816.476L162.904 810.292L162.904 792L168.112 792L168.112 810.292L174.557 816.736L180.22 810.813L177.095 807.493L174.557 809.771L171.237 806.451L177.095 800.527L187.315 810.813L181.001 817.192Z" fill="#4A2160" fill-opacity="0.05"/>
<path d="M181.001 61.192L174.557 67.5063L165.508 58.5882L156.525 67.5063L150.146 61.192L143.831 54.8126L153.921 44.5275L160.04 50.4512L156.525 53.7711L153.921 51.4927L150.797 54.8126L156.525 60.476L162.904 54.2919L162.904 35.9999L168.112 35.9999L168.112 54.2919L174.557 60.7364L180.22 54.8126L177.095 51.4927L174.557 53.7711L171.237 50.4512L177.095 44.5275L187.315 54.8126L181.001 61.192Z" fill="#4A2160" fill-opacity="0.05"/>
<path d="M181.001 349.192L174.557 355.506L165.508 346.588L156.525 355.506L150.146 349.192L143.831 342.813L153.921 332.527L160.04 338.451L156.525 341.771L153.921 339.493L150.797 342.813L156.525 348.476L162.904 342.292L162.904 324L168.112 324L168.112 342.292L174.557 348.736L180.22 342.813L177.095 339.493L174.557 341.771L171.237 338.451L177.095 332.527L187.315 342.813L181.001 349.192Z" fill="#4A2160" fill-opacity="0.05"/>
<path d="M181.001 637.192L174.557 643.506L165.508 634.588L156.525 643.506L150.146 637.192L143.831 630.813L153.921 620.527L160.04 626.451L156.525 629.771L153.921 627.493L150.797 630.813L156.525 636.476L162.904 630.292L162.904 612L168.112 612L168.112 630.292L174.557 636.736L180.22 630.813L177.095 627.493L174.557 629.771L171.237 626.451L177.095 620.527L187.315 630.813L181.001 637.192Z" fill="#4A2160" fill-opacity="0.05"/>
<path d="M181.001 205.192L174.557 211.506L165.508 202.588L156.525 211.506L150.146 205.192L143.831 198.813L153.921 188.527L160.04 194.451L156.525 197.771L153.921 195.493L150.797 198.813L156.525 204.476L162.904 198.292L162.904 180L168.112 180L168.112 198.292L174.557 204.736L180.22 198.813L177.095 195.493L174.557 197.771L171.237 194.451L177.095 188.527L187.315 198.813L181.001 205.192Z" fill="#4A2160" fill-opacity="0.05"/>
<path d="M181.001 493.192L174.557 499.506L165.508 490.588L156.525 499.506L150.146 493.192L143.831 486.813L153.921 476.527L160.04 482.451L156.525 485.771L153.921 483.493L150.797 486.813L156.525 492.476L162.904 486.292L162.904 468L168.112 468L168.112 486.292L174.557 492.736L180.22 486.813L177.095 483.493L174.557 485.771L171.237 482.451L177.095 476.527L187.315 486.813L181.001 493.192Z" fill="#4A2160" fill-opacity="0.05"/>
<path d="M181.001 781.192L174.557 787.506L165.508 778.588L156.525 787.506L150.146 781.192L143.831 774.813L153.921 764.527L160.04 770.451L156.525 773.771L153.921 771.493L150.797 774.813L156.525 780.476L162.904 774.292L162.904 756L168.112 756L168.112 774.292L174.557 780.736L180.22 774.813L177.095 771.493L174.557 773.771L171.237 770.451L177.095 764.527L187.315 774.813L181.001 781.192Z" fill="#4A2160" fill-opacity="0.05"/>
<path d="M181.001 133.192L174.557 139.506L165.508 130.588L156.525 139.506L150.146 133.192L143.831 126.813L153.921 116.527L160.04 122.451L156.525 125.771L153.921 123.493L150.797 126.813L156.525 132.476L162.904 126.292L162.904 108L168.112 108L168.112 126.292L174.557 132.736L180.22 126.813L177.095 123.493L174.557 125.771L171.237 122.451L177.095 116.527L187.315 126.813L181.001 133.192Z" fill="#4A2160" fill-opacity="0.05"/>
<path d="M181.001 421.192L174.557 427.506L165.508 418.588L156.525 427.506L150.146 421.192L143.831 414.813L153.921 404.527L160.04 410.451L156.525 413.771L153.921 411.493L150.797 414.813L156.525 420.476L162.904 414.292L162.904 396L168.112 396L168.112 414.292L174.557 420.736L180.22 414.813L177.095 411.493L174.557 413.771L171.237 410.451L177.095 404.527L187.315 414.813L181.001 421.192Z" fill="#4A2160" fill-opacity="0.05"/>
<path d="M181.001 709.192L174.557 715.506L165.508 706.588L156.525 715.506L150.146 709.192L143.831 702.813L153.921 692.527L160.04 698.451L156.525 701.771L153.921 699.493L150.797 702.813L156.525 708.476L162.904 702.292L162.904 684L168.112 684L168.112 702.292L174.557 708.736L180.22 702.813L177.095 699.493L174.557 701.771L171.237 698.451L177.095 692.527L187.315 702.813L181.001 709.192Z" fill="#4A2160" fill-opacity="0.05"/>
<path d="M181.001 277.192L174.557 283.506L165.508 274.588L156.525 283.506L150.146 277.192L143.831 270.813L153.921 260.527L160.04 266.451L156.525 269.771L153.921 267.493L150.797 270.813L156.525 276.476L162.904 270.292L162.904 252L168.112 252L168.112 270.292L174.557 276.736L180.22 270.813L177.095 267.493L174.557 269.771L171.237 266.451L177.095 260.527L187.315 270.813L181.001 277.192Z" fill="#4A2160" fill-opacity="0.05"/>
<path d="M181.001 565.192L174.557 571.506L165.508 562.588L156.525 571.506L150.146 565.192L143.831 558.813L153.921 548.527L160.04 554.451L156.525 557.771L153.921 555.493L150.797 558.813L156.525 564.476L162.904 558.292L162.904 540L168.112 540L168.112 558.292L174.557 564.736L180.22 558.813L177.095 555.493L174.557 557.771L171.237 554.451L177.095 548.527L187.315 558.813L181.001 565.192Z" fill="#4A2160" fill-opacity="0.05"/>
<path d="M181.001 853.192L174.557 859.506L165.508 850.588L156.525 859.506L150.146 853.192L143.831 846.813L153.921 836.527L160.04 842.451L156.525 845.771L153.921 843.493L150.797 846.813L156.525 852.476L162.904 846.292L162.904 828L168.112 828L168.112 846.292L174.557 852.736L180.22 846.813L177.095 843.493L174.557 845.771L171.237 842.451L177.095 836.527L187.315 846.813L181.001 853.192Z" fill="#4A2160" fill-opacity="0.05"/>
<path d="M373.001 25.192L366.557 31.5063L357.508 22.5882L348.525 31.5063L342.146 25.192L335.831 18.8126L345.921 8.52746L352.04 14.4512L348.525 17.7711L345.921 15.4927L342.797 18.8126L348.525 24.476L354.904 18.2919L354.904 -0.000112194L360.112 -0.000111738L360.112 18.2919L366.557 24.7364L372.22 18.8126L369.095 15.4927L366.557 17.7711L363.237 14.4512L369.095 8.52746L379.315 18.8126L373.001 25.192Z" fill="#4A2160" fill-opacity="0.05"/>
<path d="M373.001 313.192L366.557 319.506L357.508 310.588L348.525 319.506L342.146 313.192L335.831 306.813L345.921 296.527L352.04 302.451L348.525 305.771L345.921 303.493L342.797 306.813L348.525 312.476L354.904 306.292L354.904 288L360.112 288L360.112 306.292L366.557 312.736L372.22 306.813L369.095 303.493L366.557 305.771L363.237 302.451L369.095 296.527L379.315 306.813L373.001 313.192Z" fill="#4A2160" fill-opacity="0.05"/>
<path d="M373.001 601.192L366.557 607.506L357.508 598.588L348.525 607.506L342.146 601.192L335.831 594.813L345.921 584.527L352.04 590.451L348.525 593.771L345.921 591.493L342.797 594.813L348.525 600.476L354.904 594.292L354.904 576L360.112 576L360.112 594.292L366.557 600.736L372.22 594.813L369.095 591.493L366.557 593.771L363.237 590.451L369.095 584.527L379.315 594.813L373.001 601.192Z" fill="#4A2160" fill-opacity="0.05"/>
<path d="M373.001 169.192L366.557 175.506L357.508 166.588L348.525 175.506L342.146 169.192L335.831 162.813L345.921 152.527L352.04 158.451L348.525 161.771L345.921 159.493L342.797 162.813L348.525 168.476L354.904 162.292L354.904 144L360.112 144L360.112 162.292L366.557 168.736L372.22 162.813L369.095 159.493L366.557 161.771L363.237 158.451L369.095 152.527L379.315 162.813L373.001 169.192Z" fill="#4A2160" fill-opacity="0.05"/>
<path d="M373.001 457.192L366.557 463.506L357.508 454.588L348.525 463.506L342.146 457.192L335.831 450.813L345.921 440.527L352.04 446.451L348.525 449.771L345.921 447.493L342.797 450.813L348.525 456.476L354.904 450.292L354.904 432L360.112 432L360.112 450.292L366.557 456.736L372.22 450.813L369.095 447.493L366.557 449.771L363.237 446.451L369.095 440.527L379.315 450.813L373.001 457.192Z" fill="#4A2160" fill-opacity="0.05"/>
<path d="M373.001 745.192L366.557 751.506L357.508 742.588L348.525 751.506L342.146 745.192L335.831 738.813L345.921 728.527L352.04 734.451L348.525 737.771L345.921 735.493L342.797 738.813L348.525 744.476L354.904 738.292L354.904 720L360.112 720L360.112 738.292L366.557 744.736L372.22 738.813L369.095 735.493L366.557 737.771L363.237 734.451L369.095 728.527L379.315 738.813L373.001 745.192Z" fill="#4A2160" fill-opacity="0.05"/>
<path d="M373.001 97.192L366.557 103.506L357.508 94.5882L348.525 103.506L342.146 97.192L335.831 90.8126L345.921 80.5275L352.04 86.4512L348.525 89.7711L345.921 87.4927L342.797 90.8126L348.525 96.476L354.904 90.2919L354.904 71.9999L360.112 71.9999L360.112 90.2919L366.557 96.7364L372.22 90.8126L369.095 87.4927L366.557 89.7711L363.237 86.4512L369.095 80.5275L379.315 90.8126L373.001 97.192Z" fill="#4A2160" fill-opacity="0.05"/>
<path d="M373.001 385.192L366.557 391.506L357.508 382.588L348.525 391.506L342.146 385.192L335.831 378.813L345.921 368.527L352.04 374.451L348.525 377.771L345.921 375.493L342.797 378.813L348.525 384.476L354.904 378.292L354.904 360L360.112 360L360.112 378.292L366.557 384.736L372.22 378.813L369.095 375.493L366.557 377.771L363.237 374.451L369.095 368.527L379.315 378.813L373.001 385.192Z" fill="#4A2160" fill-opacity="0.05"/>
<path d="M373.001 673.192L366.557 679.506L357.508 670.588L348.525 679.506L342.146 673.192L335.831 666.813L345.921 656.527L352.04 662.451L348.525 665.771L345.921 663.493L342.797 666.813L348.525 672.476L354.904 666.292L354.904 648L360.112 648L360.112 666.292L366.557 672.736L372.22 666.813L369.095 663.493L366.557 665.771L363.237 662.451L369.095 656.527L379.315 666.813L373.001 673.192Z" fill="#4A2160" fill-opacity="0.05"/>
<path d="M373.001 241.192L366.557 247.506L357.508 238.588L348.525 247.506L342.146 241.192L335.831 234.813L345.921 224.527L352.04 230.451L348.525 233.771L345.921 231.493L342.797 234.813L348.525 240.476L354.904 234.292L354.904 216L360.112 216L360.112 234.292L366.557 240.736L372.22 234.813L369.095 231.493L366.557 233.771L363.237 230.451L369.095 224.527L379.315 234.813L373.001 241.192Z" fill="#4A2160" fill-opacity="0.05"/>
<path d="M373.001 529.192L366.557 535.506L357.508 526.588L348.525 535.506L342.146 529.192L335.831 522.813L345.921 512.527L352.04 518.451L348.525 521.771L345.921 519.493L342.797 522.813L348.525 528.476L354.904 522.292L354.904 504L360.112 504L360.112 522.292L366.557 528.736L372.22 522.813L369.095 519.493L366.557 521.771L363.237 518.451L369.095 512.527L379.315 522.813L373.001 529.192Z" fill="#4A2160" fill-opacity="0.05"/>
<path d="M373.001 817.192L366.557 823.506L357.508 814.588L348.525 823.506L342.146 817.192L335.831 810.813L345.921 800.527L352.04 806.451L348.525 809.771L345.921 807.493L342.797 810.813L348.525 816.476L354.904 810.292L354.904 792L360.112 792L360.112 810.292L366.557 816.736L372.22 810.813L369.095 807.493L366.557 809.771L363.237 806.451L369.095 800.527L379.315 810.813L373.001 817.192Z" fill="#4A2160" fill-opacity="0.05"/>
<path d="M373.001 61.192L366.557 67.5063L357.508 58.5882L348.525 67.5063L342.146 61.192L335.831 54.8126L345.921 44.5275L352.04 50.4512L348.525 53.7711L345.921 51.4927L342.797 54.8126L348.525 60.476L354.904 54.2919L354.904 35.9999L360.112 35.9999L360.112 54.2919L366.557 60.7364L372.22 54.8126L369.095 51.4927L366.557 53.7711L363.237 50.4512L369.095 44.5275L379.315 54.8126L373.001 61.192Z" fill="#4A2160" fill-opacity="0.05"/>
<path d="M373.001 349.192L366.557 355.506L357.508 346.588L348.525 355.506L342.146 349.192L335.831 342.813L345.921 332.527L352.04 338.451L348.525 341.771L345.921 339.493L342.797 342.813L348.525 348.476L354.904 342.292L354.904 324L360.112 324L360.112 342.292L366.557 348.736L372.22 342.813L369.095 339.493L366.557 341.771L363.237 338.451L369.095 332.527L379.315 342.813L373.001 349.192Z" fill="#4A2160" fill-opacity="0.05"/>
<path d="M373.001 637.192L366.557 643.506L357.508 634.588L348.525 643.506L342.146 637.192L335.831 630.813L345.921 620.527L352.04 626.451L348.525 629.771L345.921 627.493L342.797 630.813L348.525 636.476L354.904 630.292L354.904 612L360.112 612L360.112 630.292L366.557 636.736L372.22 630.813L369.095 627.493L366.557 629.771L363.237 626.451L369.095 620.527L379.315 630.813L373.001 637.192Z" fill="#4A2160" fill-opacity="0.05"/>
<path d="M373.001 205.192L366.557 211.506L357.508 202.588L348.525 211.506L342.146 205.192L335.831 198.813L345.921 188.527L352.04 194.451L348.525 197.771L345.921 195.493L342.797 198.813L348.525 204.476L354.904 198.292L354.904 180L360.112 180L360.112 198.292L366.557 204.736L372.22 198.813L369.095 195.493L366.557 197.771L363.237 194.451L369.095 188.527L379.315 198.813L373.001 205.192Z" fill="#4A2160" fill-opacity="0.05"/>
<path d="M373.001 493.192L366.557 499.506L357.508 490.588L348.525 499.506L342.146 493.192L335.831 486.813L345.921 476.527L352.04 482.451L348.525 485.771L345.921 483.493L342.797 486.813L348.525 492.476L354.904 486.292L354.904 468L360.112 468L360.112 486.292L366.557 492.736L372.22 486.813L369.095 483.493L366.557 485.771L363.237 482.451L369.095 476.527L379.315 486.813L373.001 493.192Z" fill="#4A2160" fill-opacity="0.05"/>
<path d="M373.001 781.192L366.557 787.506L357.508 778.588L348.525 787.506L342.146 781.192L335.831 774.813L345.921 764.527L352.04 770.451L348.525 773.771L345.921 771.493L342.797 774.813L348.525 780.476L354.904 774.292L354.904 756L360.112 756L360.112 774.292L366.557 780.736L372.22 774.813L369.095 771.493L366.557 773.771L363.237 770.451L369.095 764.527L379.315 774.813L373.001 781.192Z" fill="#4A2160" fill-opacity="0.05"/>
<path d="M373.001 133.192L366.557 139.506L357.508 130.588L348.525 139.506L342.146 133.192L335.831 126.813L345.921 116.527L352.04 122.451L348.525 125.771L345.921 123.493L342.797 126.813L348.525 132.476L354.904 126.292L354.904 108L360.112 108L360.112 126.292L366.557 132.736L372.22 126.813L369.095 123.493L366.557 125.771L363.237 122.451L369.095 116.527L379.315 126.813L373.001 133.192Z" fill="#4A2160" fill-opacity="0.05"/>
<path d="M373.001 421.192L366.557 427.506L357.508 418.588L348.525 427.506L342.146 421.192L335.831 414.813L345.921 404.527L352.04 410.451L348.525 413.771L345.921 411.493L342.797 414.813L348.525 420.476L354.904 414.292L354.904 396L360.112 396L360.112 414.292L366.557 420.736L372.22 414.813L369.095 411.493L366.557 413.771L363.237 410.451L369.095 404.527L379.315 414.813L373.001 421.192Z" fill="#4A2160" fill-opacity="0.05"/>
<path d="M373.001 709.192L366.557 715.506L357.508 706.588L348.525 715.506L342.146 709.192L335.831 702.813L345.921 692.527L352.04 698.451L348.525 701.771L345.921 699.493L342.797 702.813L348.525 708.476L354.904 702.292L354.904 684L360.112 684L360.112 702.292L366.557 708.736L372.22 702.813L369.095 699.493L366.557 701.771L363.237 698.451L369.095 692.527L379.315 702.813L373.001 709.192Z" fill="#4A2160" fill-opacity="0.05"/>
<path d="M373.001 277.192L366.557 283.506L357.508 274.588L348.525 283.506L342.146 277.192L335.831 270.813L345.921 260.527L352.04 266.451L348.525 269.771L345.921 267.493L342.797 270.813L348.525 276.476L354.904 270.292L354.904 252L360.112 252L360.112 270.292L366.557 276.736L372.22 270.813L369.095 267.493L366.557 269.771L363.237 266.451L369.095 260.527L379.315 270.813L373.001 277.192Z" fill="#4A2160" fill-opacity="0.05"/>
<path d="M373.001 565.192L366.557 571.506L357.508 562.588L348.525 571.506L342.146 565.192L335.831 558.813L345.921 548.527L352.04 554.451L348.525 557.771L345.921 555.493L342.797 558.813L348.525 564.476L354.904 558.292L354.904 540L360.112 540L360.112 558.292L366.557 564.736L372.22 558.813L369.095 555.493L366.557 557.771L363.237 554.451L369.095 548.527L379.315 558.813L373.001 565.192Z" fill="#4A2160" fill-opacity="0.05"/>
<path d="M373.001 853.192L366.557 859.506L357.508 850.588L348.525 859.506L342.146 853.192L335.831 846.813L345.921 836.527L352.04 842.451L348.525 845.771L345.921 843.493L342.797 846.813L348.525 852.476L354.904 846.292L354.904 828L360.112 828L360.112 846.292L366.557 852.736L372.22 846.813L369.095 843.493L366.557 845.771L363.237 842.451L369.095 836.527L379.315 846.813L373.001 853.192Z" fill="#4A2160" fill-opacity="0.05"/>
<path d="M469.001 25.192L462.557 31.5063L453.508 22.5882L444.525 31.5063L438.146 25.192L431.831 18.8126L441.921 8.52746L448.04 14.4512L444.525 17.7711L441.921 15.4927L438.797 18.8126L444.525 24.476L450.904 18.2919L450.904 -0.000112194L456.112 -0.000111738L456.112 18.2919L462.557 24.7364L468.22 18.8126L465.095 15.4927L462.557 17.7711L459.237 14.4512L465.095 8.52746L475.315 18.8126L469.001 25.192Z" fill="#4A2160" fill-opacity="0.05"/>
<path d="M469.001 313.192L462.557 319.506L453.508 310.588L444.525 319.506L438.146 313.192L431.831 306.813L441.921 296.527L448.04 302.451L444.525 305.771L441.921 303.493L438.797 306.813L444.525 312.476L450.904 306.292L450.904 288L456.112 288L456.112 306.292L462.557 312.736L468.22 306.813L465.095 303.493L462.557 305.771L459.237 302.451L465.095 296.527L475.315 306.813L469.001 313.192Z" fill="#4A2160" fill-opacity="0.05"/>
<path d="M469.001 601.192L462.557 607.506L453.508 598.588L444.525 607.506L438.146 601.192L431.831 594.813L441.921 584.527L448.04 590.451L444.525 593.771L441.921 591.493L438.797 594.813L444.525 600.476L450.904 594.292L450.904 576L456.112 576L456.112 594.292L462.557 600.736L468.22 594.813L465.095 591.493L462.557 593.771L459.237 590.451L465.095 584.527L475.315 594.813L469.001 601.192Z" fill="#4A2160" fill-opacity="0.05"/>
<path d="M469.001 169.192L462.557 175.506L453.508 166.588L444.525 175.506L438.146 169.192L431.831 162.813L441.921 152.527L448.04 158.451L444.525 161.771L441.921 159.493L438.797 162.813L444.525 168.476L450.904 162.292L450.904 144L456.112 144L456.112 162.292L462.557 168.736L468.22 162.813L465.095 159.493L462.557 161.771L459.237 158.451L465.095 152.527L475.315 162.813L469.001 169.192Z" fill="#4A2160" fill-opacity="0.05"/>
<path d="M469.001 457.192L462.557 463.506L453.508 454.588L444.525 463.506L438.146 457.192L431.831 450.813L441.921 440.527L448.04 446.451L444.525 449.771L441.921 447.493L438.797 450.813L444.525 456.476L450.904 450.292L450.904 432L456.112 432L456.112 450.292L462.557 456.736L468.22 450.813L465.095 447.493L462.557 449.771L459.237 446.451L465.095 440.527L475.315 450.813L469.001 457.192Z" fill="#4A2160" fill-opacity="0.05"/>
<path d="M469.001 745.192L462.557 751.506L453.508 742.588L444.525 751.506L438.146 745.192L431.831 738.813L441.921 728.527L448.04 734.451L444.525 737.771L441.921 735.493L438.797 738.813L444.525 744.476L450.904 738.292L450.904 720L456.112 720L456.112 738.292L462.557 744.736L468.22 738.813L465.095 735.493L462.557 737.771L459.237 734.451L465.095 728.527L475.315 738.813L469.001 745.192Z" fill="#4A2160" fill-opacity="0.05"/>
<path d="M469.001 97.192L462.557 103.506L453.508 94.5882L444.525 103.506L438.146 97.192L431.831 90.8126L441.921 80.5275L448.04 86.4512L444.525 89.7711L441.921 87.4927L438.797 90.8126L444.525 96.476L450.904 90.2919L450.904 71.9999L456.112 71.9999L456.112 90.2919L462.557 96.7364L468.22 90.8126L465.095 87.4927L462.557 89.7711L459.237 86.4512L465.095 80.5275L475.315 90.8126L469.001 97.192Z" fill="#4A2160" fill-opacity="0.05"/>
<path d="M469.001 385.192L462.557 391.506L453.508 382.588L444.525 391.506L438.146 385.192L431.831 378.813L441.921 368.527L448.04 374.451L444.525 377.771L441.921 375.493L438.797 378.813L444.525 384.476L450.904 378.292L450.904 360L456.112 360L456.112 378.292L462.557 384.736L468.22 378.813L465.095 375.493L462.557 377.771L459.237 374.451L465.095 368.527L475.315 378.813L469.001 385.192Z" fill="#4A2160" fill-opacity="0.05"/>
<path d="M469.001 673.192L462.557 679.506L453.508 670.588L444.525 679.506L438.146 673.192L431.831 666.813L441.921 656.527L448.04 662.451L444.525 665.771L441.921 663.493L438.797 666.813L444.525 672.476L450.904 666.292L450.904 648L456.112 648L456.112 666.292L462.557 672.736L468.22 666.813L465.095 663.493L462.557 665.771L459.237 662.451L465.095 656.527L475.315 666.813L469.001 673.192Z" fill="#4A2160" fill-opacity="0.05"/>
<path d="M469.001 241.192L462.557 247.506L453.508 238.588L444.525 247.506L438.146 241.192L431.831 234.813L441.921 224.527L448.04 230.451L444.525 233.771L441.921 231.493L438.797 234.813L444.525 240.476L450.904 234.292L450.904 216L456.112 216L456.112 234.292L462.557 240.736L468.22 234.813L465.095 231.493L462.557 233.771L459.237 230.451L465.095 224.527L475.315 234.813L469.001 241.192Z" fill="#4A2160" fill-opacity="0.05"/>
<path d="M469.001 529.192L462.557 535.506L453.508 526.588L444.525 535.506L438.146 529.192L431.831 522.813L441.921 512.527L448.04 518.451L444.525 521.771L441.921 519.493L438.797 522.813L444.525 528.476L450.904 522.292L450.904 504L456.112 504L456.112 522.292L462.557 528.736L468.22 522.813L465.095 519.493L462.557 521.771L459.237 518.451L465.095 512.527L475.315 522.813L469.001 529.192Z" fill="#4A2160" fill-opacity="0.05"/>
<path d="M469.001 817.192L462.557 823.506L453.508 814.588L444.525 823.506L438.146 817.192L431.831 810.813L441.921 800.527L448.04 806.451L444.525 809.771L441.921 807.493L438.797 810.813L444.525 816.476L450.904 810.292L450.904 792L456.112 792L456.112 810.292L462.557 816.736L468.22 810.813L465.095 807.493L462.557 809.771L459.237 806.451L465.095 800.527L475.315 810.813L469.001 817.192Z" fill="#4A2160" fill-opacity="0.05"/>
<path d="M469.001 61.192L462.557 67.5063L453.508 58.5882L444.525 67.5063L438.146 61.192L431.831 54.8126L441.921 44.5275L448.04 50.4512L444.525 53.7711L441.921 51.4927L438.797 54.8126L444.525 60.476L450.904 54.2919L450.904 35.9999L456.112 35.9999L456.112 54.2919L462.557 60.7364L468.22 54.8126L465.095 51.4927L462.557 53.7711L459.237 50.4512L465.095 44.5275L475.315 54.8126L469.001 61.192Z" fill="#4A2160" fill-opacity="0.05"/>
<path d="M469.001 349.192L462.557 355.506L453.508 346.588L444.525 355.506L438.146 349.192L431.831 342.813L441.921 332.527L448.04 338.451L444.525 341.771L441.921 339.493L438.797 342.813L444.525 348.476L450.904 342.292L450.904 324L456.112 324L456.112 342.292L462.557 348.736L468.22 342.813L465.095 339.493L462.557 341.771L459.237 338.451L465.095 332.527L475.315 342.813L469.001 349.192Z" fill="#4A2160" fill-opacity="0.05"/>
<path d="M469.001 637.192L462.557 643.506L453.508 634.588L444.525 643.506L438.146 637.192L431.831 630.813L441.921 620.527L448.04 626.451L444.525 629.771L441.921 627.493L438.797 630.813L444.525 636.476L450.904 630.292L450.904 612L456.112 612L456.112 630.292L462.557 636.736L468.22 630.813L465.095 627.493L462.557 629.771L459.237 626.451L465.095 620.527L475.315 630.813L469.001 637.192Z" fill="#4A2160" fill-opacity="0.05"/>
<path d="M469.001 205.192L462.557 211.506L453.508 202.588L444.525 211.506L438.146 205.192L431.831 198.813L441.921 188.527L448.04 194.451L444.525 197.771L441.921 195.493L438.797 198.813L444.525 204.476L450.904 198.292L450.904 180L456.112 180L456.112 198.292L462.557 204.736L468.22 198.813L465.095 195.493L462.557 197.771L459.237 194.451L465.095 188.527L475.315 198.813L469.001 205.192Z" fill="#4A2160" fill-opacity="0.05"/>
<path d="M469.001 493.192L462.557 499.506L453.508 490.588L444.525 499.506L438.146 493.192L431.831 486.813L441.921 476.527L448.04 482.451L444.525 485.771L441.921 483.493L438.797 486.813L444.525 492.476L450.904 486.292L450.904 468L456.112 468L456.112 486.292L462.557 492.736L468.22 486.813L465.095 483.493L462.557 485.771L459.237 482.451L465.095 476.527L475.315 486.813L469.001 493.192Z" fill="#4A2160" fill-opacity="0.05"/>
<path d="M469.001 781.192L462.557 787.506L453.508 778.588L444.525 787.506L438.146 781.192L431.831 774.813L441.921 764.527L448.04 770.451L444.525 773.771L441.921 771.493L438.797 774.813L444.525 780.476L450.904 774.292L450.904 756L456.112 756L456.112 774.292L462.557 780.736L468.22 774.813L465.095 771.493L462.557 773.771L459.237 770.451L465.095 764.527L475.315 774.813L469.001 781.192Z" fill="#4A2160" fill-opacity="0.05"/>
<path d="M469.001 133.192L462.557 139.506L453.508 130.588L444.525 139.506L438.146 133.192L431.831 126.813L441.921 116.527L448.04 122.451L444.525 125.771L441.921 123.493L438.797 126.813L444.525 132.476L450.904 126.292L450.904 108L456.112 108L456.112 126.292L462.557 132.736L468.22 126.813L465.095 123.493L462.557 125.771L459.237 122.451L465.095 116.527L475.315 126.813L469.001 133.192Z" fill="#4A2160" fill-opacity="0.05"/>
<path d="M469.001 421.192L462.557 427.506L453.508 418.588L444.525 427.506L438.146 421.192L431.831 414.813L441.921 404.527L448.04 410.451L444.525 413.771L441.921 411.493L438.797 414.813L444.525 420.476L450.904 414.292L450.904 396L456.112 396L456.112 414.292L462.557 420.736L468.22 414.813L465.095 411.493L462.557 413.771L459.237 410.451L465.095 404.527L475.315 414.813L469.001 421.192Z" fill="#4A2160" fill-opacity="0.05"/>
<path d="M469.001 709.192L462.557 715.506L453.508 706.588L444.525 715.506L438.146 709.192L431.831 702.813L441.921 692.527L448.04 698.451L444.525 701.771L441.921 699.493L438.797 702.813L444.525 708.476L450.904 702.292L450.904 684L456.112 684L456.112 702.292L462.557 708.736L468.22 702.813L465.095 699.493L462.557 701.771L459.237 698.451L465.095 692.527L475.315 702.813L469.001 709.192Z" fill="#4A2160" fill-opacity="0.05"/>
<path d="M469.001 277.192L462.557 283.506L453.508 274.588L444.525 283.506L438.146 277.192L431.831 270.813L441.921 260.527L448.04 266.451L444.525 269.771L441.921 267.493L438.797 270.813L444.525 276.476L450.904 270.292L450.904 252L456.112 252L456.112 270.292L462.557 276.736L468.22 270.813L465.095 267.493L462.557 269.771L459.237 266.451L465.095 260.527L475.315 270.813L469.001 277.192Z" fill="#4A2160" fill-opacity="0.05"/>
<path d="M469.001 565.192L462.557 571.506L453.508 562.588L444.525 571.506L438.146 565.192L431.831 558.813L441.921 548.527L448.04 554.451L444.525 557.771L441.921 555.493L438.797 558.813L444.525 564.476L450.904 558.292L450.904 540L456.112 540L456.112 558.292L462.557 564.736L468.22 558.813L465.095 555.493L462.557 557.771L459.237 554.451L465.095 548.527L475.315 558.813L469.001 565.192Z" fill="#4A2160" fill-opacity="0.05"/>
<path d="M469.001 853.192L462.557 859.506L453.508 850.588L444.525 859.506L438.146 853.192L431.831 846.813L441.921 836.527L448.04 842.451L444.525 845.771L441.921 843.493L438.797 846.813L444.525 852.476L450.904 846.292L450.904 828L456.112 828L456.112 846.292L462.557 852.736L468.22 846.813L465.095 843.493L462.557 845.771L459.237 842.451L465.095 836.527L475.315 846.813L469.001 853.192Z" fill="#4A2160" fill-opacity="0.05"/>
</svg>
