<svg width="24" height="24" viewBox="0 0 24 24" fill="none" xmlns="http://www.w3.org/2000/svg">
<g clip-path="url(#clip0_16_14164)">
<path d="M2.00665 13.4378C2.00222 13.6285 2.05212 13.7771 2.15635 13.8836C2.26059 13.99 2.39255 14.0433 2.55223 14.0433C2.71635 14.0433 2.84941 13.99 2.95143 13.8836C3.05344 13.7771 3.10667 13.6285 3.11111 13.4378L3.10445 10.6367C3.10445 10.477 3.16877 10.3972 3.29741 10.3972C3.4216 10.3972 3.48369 10.477 3.48369 10.6367V17.7226C3.48369 17.9355 3.54247 18.0984 3.66001 18.2115C3.77755 18.3247 3.92725 18.3813 4.10911 18.3813C4.28654 18.3813 4.43291 18.3247 4.54823 18.2115C4.66356 18.0984 4.72122 17.9355 4.72122 17.7226V13.3247C4.72122 13.1694 4.77888 13.0918 4.89421 13.0918C5.01397 13.0918 5.07385 13.1694 5.07385 13.3247V17.7226C5.07385 17.9355 5.13262 18.0984 5.25016 18.2115C5.36771 18.3247 5.51297 18.3813 5.68596 18.3813C5.86782 18.3813 6.01752 18.3247 6.13506 18.2115C6.2526 18.0984 6.31137 17.9355 6.31137 17.7226V10.6367C6.31137 10.477 6.37347 10.3972 6.49766 10.3972C6.61742 10.3972 6.6773 10.477 6.6773 10.6367L6.68396 13.4378C6.68396 13.6285 6.73608 13.7771 6.84031 13.8836C6.94455 13.99 7.07651 14.0433 7.23619 14.0433C7.40031 14.0433 7.53337 13.99 7.63539 13.8836C7.7374 13.7771 7.78841 13.6285 7.78841 13.4378V10.6767C7.78841 10.0956 7.68085 9.62875 7.46573 9.27612C7.2506 8.92349 6.92792 8.66623 6.49766 8.50433C6.06742 8.34244 5.53293 8.26149 4.89421 8.26149C4.25549 8.26149 3.72211 8.34244 3.29407 8.50433C2.86604 8.66623 2.54336 8.92349 2.32601 9.27612C2.10867 9.62875 2 10.0956 2 10.6767L2.00665 13.4378ZM3.55689 6.36528C3.55689 6.60923 3.61677 6.83323 3.73653 7.03727C3.85629 7.2413 4.01818 7.40431 4.22222 7.52629C4.42626 7.64827 4.65025 7.70926 4.89421 7.70926C5.1426 7.70926 5.36881 7.64827 5.57285 7.52629C5.77689 7.40431 5.93989 7.2413 6.06187 7.03727C6.18385 6.83323 6.24484 6.60923 6.24484 6.36528C6.24484 6.11689 6.18385 5.89067 6.06187 5.68664C5.93989 5.4826 5.77689 5.31959 5.57285 5.19762C5.36881 5.07564 5.1426 5.01465 4.89421 5.01465C4.65025 5.01465 4.42626 5.07564 4.22222 5.19762C4.01818 5.31959 3.85629 5.4826 3.73653 5.68664C3.61677 5.89067 3.55689 6.11689 3.55689 6.36528ZM16.2116 13.4378C16.2116 13.6285 16.2637 13.7771 16.3679 13.8836C16.4722 13.99 16.6063 14.0433 16.7705 14.0433C16.9257 14.0433 17.0566 13.99 17.163 13.8836C17.2694 13.7771 17.3226 13.6285 17.3226 13.4378V10.6367C17.3226 10.477 17.3848 10.3972 17.509 10.3972C17.6287 10.3972 17.6886 10.477 17.6886 10.6367V17.7226C17.6886 17.9355 17.7485 18.0984 17.8682 18.2115C17.988 18.3247 18.1388 18.3813 18.3207 18.3813C18.4936 18.3813 18.6378 18.3247 18.7531 18.2115C18.8685 18.0984 18.9262 17.9355 18.9262 17.7226V13.3247C18.9262 13.1694 18.986 13.0918 19.1058 13.0918C19.2211 13.0918 19.2787 13.1694 19.2787 13.3247V17.7226C19.2787 17.9355 19.3386 18.0984 19.4584 18.2115C19.5782 18.3247 19.7245 18.3813 19.8975 18.3813C20.0794 18.3813 20.228 18.3247 20.3433 18.2115C20.4586 18.0984 20.5163 17.9355 20.5163 17.7226V10.6367C20.5163 10.477 20.5806 10.3972 20.7092 10.3972C20.8334 10.3972 20.8955 10.477 20.8955 10.6367V13.4378C20.8955 13.6285 20.9477 13.7771 21.0519 13.8836C21.1561 13.99 21.2903 14.0433 21.4544 14.0433C21.6185 14.0433 21.7505 13.99 21.8503 13.8836C21.9501 13.7771 22 13.6285 22 13.4378V10.6767C22 10.0956 21.8924 9.62875 21.6773 9.27612C21.4622 8.92349 21.1395 8.66623 20.7092 8.50433C20.279 8.34244 19.7445 8.26149 19.1058 8.26149C18.4671 8.26149 17.9326 8.34244 17.5023 8.50433C17.072 8.66623 16.7494 8.92349 16.5342 9.27612C16.3191 9.62875 16.2116 10.0956 16.2116 10.6767V13.4378ZM17.7618 6.36528C17.7618 6.60923 17.8228 6.83323 17.9447 7.03727C18.0667 7.2413 18.2298 7.40431 18.4338 7.52629C18.6378 7.64827 18.8618 7.70926 19.1058 7.70926C19.3542 7.70926 19.5804 7.64827 19.7844 7.52629C19.9884 7.40431 20.1514 7.2413 20.2734 7.03727C20.3954 6.83323 20.4564 6.60923 20.4564 6.36528C20.4564 6.11689 20.3954 5.89067 20.2734 5.68664C20.1514 5.4826 19.9884 5.31959 19.7844 5.19762C19.5804 5.07564 19.3542 5.01465 19.1058 5.01465C18.8618 5.01465 18.6378 5.07564 18.4338 5.19762C18.2298 5.31959 18.0667 5.4826 17.9447 5.68664C17.8228 5.89067 17.7618 6.11689 17.7618 6.36528ZM9.44508 12.5329C9.68017 12.5329 9.87977 12.4509 10.0439 12.2868C10.208 12.1226 10.2901 11.923 10.2901 11.688C10.2901 11.4529 10.208 11.2533 10.0439 11.0892C9.87977 10.925 9.68017 10.843 9.44508 10.843C9.21003 10.843 9.00932 10.925 8.84294 11.0892C8.67663 11.2533 8.59347 11.4529 8.59347 11.688C8.59347 11.923 8.67663 12.1226 8.84294 12.2868C9.00932 12.4509 9.21003 12.5329 9.44508 12.5329ZM12.0066 12.5329C12.2417 12.5329 12.4424 12.4509 12.6088 12.2868C12.7751 12.1226 12.8583 11.923 12.8583 11.688C12.8583 11.4529 12.7751 11.2533 12.6088 11.0892C12.4424 10.925 12.2417 10.843 12.0066 10.843C11.7715 10.843 11.5719 10.925 11.4078 11.0892C11.2437 11.2533 11.1617 11.4529 11.1617 11.688C11.1617 11.923 11.2437 12.1226 11.4078 12.2868C11.5719 12.4509 11.7715 12.5329 12.0066 12.5329ZM14.5682 12.5329C14.8033 12.5329 15.0029 12.4509 15.167 12.2868C15.3311 12.1226 15.4132 11.923 15.4132 11.688C15.4132 11.4529 15.3311 11.2533 15.167 11.0892C15.0029 10.925 14.8033 10.843 14.5682 10.843C14.3331 10.843 14.1335 10.925 13.9694 11.0892C13.8053 11.2533 13.7232 11.4529 13.7232 11.688C13.7232 11.923 13.8053 12.1226 13.9694 12.2868C14.1335 12.4509 14.3331 12.5329 14.5682 12.5329Z" fill="black"/>
</g>
<defs>
<clipPath id="clip0_16_14164">
<rect width="20" height="13.3799" fill="white" transform="translate(2 5)"/>
</clipPath>
</defs>
</svg>
