<svg width="24" height="24" viewBox="0 0 24 24" fill="none" xmlns="http://www.w3.org/2000/svg">
<g clip-path="url(#clip0_16_14143)">
<path d="M6.31641 20.877C6.77214 20.877 7.22461 20.7891 7.67383 20.6133C8.12305 20.4375 8.54623 20.1901 8.94336 19.8711L7.9375 18.8555C7.69661 19.0248 7.44108 19.155 7.1709 19.2461C6.90071 19.3372 6.61914 19.3828 6.32617 19.3828C5.81185 19.3828 5.35124 19.2754 4.94434 19.0605C4.53743 18.8457 4.21679 18.5495 3.98242 18.1719C3.74805 17.7943 3.63086 17.3581 3.63086 16.8633C3.63086 16.1472 3.80827 15.5563 4.16309 15.0908C4.5179 14.6253 4.98502 14.2949 5.56445 14.0996C6.14388 13.9043 6.77539 13.8587 7.45898 13.9629C7.84961 13.097 8.18815 12.1823 8.47461 11.2188C8.76107 10.2552 9.0166 9.2819 9.24121 8.29883C9.46582 7.31576 9.69205 6.35872 9.91992 5.42773C10.0632 4.82878 10.2829 4.36979 10.5791 4.05078C10.8753 3.73177 11.2904 3.57227 11.8242 3.57227C12.3515 3.57227 12.7633 3.73177 13.0596 4.05078C13.3558 4.36979 13.5755 4.82878 13.7188 5.42773C13.9466 6.35872 14.1744 7.31576 14.4023 8.29883C14.6302 9.2819 14.8857 10.2552 15.1689 11.2188C15.4522 12.1823 15.7924 13.097 16.1895 13.9629C16.8666 13.8587 17.4964 13.9043 18.0791 14.0996C18.6618 14.2949 19.1305 14.6253 19.4854 15.0908C19.8402 15.5563 20.0176 16.1472 20.0176 16.8633C20.0176 17.3581 19.9004 17.7943 19.666 18.1719C19.4317 18.5495 19.111 18.8457 18.7041 19.0605C18.2972 19.2754 17.8366 19.3828 17.3223 19.3828C17.0293 19.3828 16.7477 19.3372 16.4775 19.2461C16.2074 19.155 15.9486 19.0248 15.7012 18.8555L14.7051 19.8711C15.0957 20.1901 15.5172 20.4375 15.9697 20.6133C16.4222 20.7891 16.8763 20.877 17.332 20.877C18.1979 20.877 18.9548 20.7061 19.6025 20.3643C20.2503 20.0225 20.7532 19.544 21.1113 18.9287C21.4694 18.3135 21.6484 17.5925 21.6484 16.7656C21.6484 15.9844 21.471 15.2797 21.1162 14.6514C20.7614 14.0231 20.2617 13.5088 19.6172 13.1084C18.9727 12.708 18.2207 12.4622 17.3613 12.3711C17.14 11.7917 16.9284 11.1992 16.7266 10.5938C16.5247 9.98828 16.3359 9.37468 16.1602 8.75293C15.9844 8.13118 15.8167 7.50944 15.6572 6.8877C15.4977 6.26595 15.3464 5.64909 15.2031 5.03711C14.9818 4.04102 14.5911 3.28581 14.0312 2.77148C13.4713 2.25716 12.7357 2 11.8242 2C10.9128 2 10.1771 2.25716 9.61719 2.77148C9.05729 3.28581 8.66666 4.04102 8.44531 5.03711C8.30208 5.64909 8.15072 6.26595 7.99121 6.8877C7.8317 7.50944 7.66243 8.13118 7.4834 8.75293C7.30436 9.37468 7.11556 9.98828 6.91699 10.5938C6.71842 11.1992 6.50846 11.7917 6.28711 12.3711C5.42122 12.4622 4.66764 12.708 4.02637 13.1084C3.38509 13.5088 2.88704 14.0231 2.53223 14.6514C2.17741 15.2797 2 15.9844 2 16.7656C2 17.5925 2.17904 18.3135 2.53711 18.9287C2.89518 19.544 3.39811 20.0225 4.0459 20.3643C4.69369 20.7061 5.45052 20.877 6.31641 20.877ZM11.8242 21.1699C12.6185 21.1699 13.2988 21.0625 13.8652 20.8477C14.4316 20.6328 14.9134 20.3545 15.3105 20.0127C15.7076 19.6709 16.0494 19.3112 16.3359 18.9336C16.5508 19.0638 16.7754 19.1289 17.0098 19.1289C17.4004 19.1289 17.7031 19.015 17.918 18.7871C18.1328 18.5592 18.2402 18.3021 18.2402 18.0156C18.2402 17.7357 18.1393 17.4801 17.9375 17.249C17.7357 17.0179 17.4525 16.9023 17.0879 16.9023C16.821 16.9023 16.598 16.9707 16.4189 17.1074C16.2399 17.2441 16.0397 17.4297 15.8184 17.6641C15.4147 18.1003 15.0143 18.4551 14.6172 18.7285C14.2201 19.002 13.7969 19.2038 13.3477 19.334C12.8984 19.4642 12.3906 19.5293 11.8242 19.5293C11.2578 19.5293 10.7484 19.4642 10.2959 19.334C9.84343 19.2038 9.41862 19.002 9.02148 18.7285C8.62435 18.4551 8.22721 18.1003 7.83008 17.6641C7.60873 17.4297 7.4069 17.2441 7.22461 17.1074C7.04232 16.9707 6.82096 16.9023 6.56055 16.9023C6.18946 16.9023 5.90462 17.0179 5.70605 17.249C5.50748 17.4801 5.4082 17.7357 5.4082 18.0156C5.4082 18.3021 5.51562 18.5592 5.73047 18.7871C5.94531 19.015 6.24479 19.1289 6.62891 19.1289C6.86328 19.1289 7.08789 19.0638 7.30273 18.9336C7.5957 19.3112 7.94076 19.6709 8.33789 20.0127C8.73502 20.3545 9.21679 20.6328 9.7832 20.8477C10.3496 21.0625 11.0299 21.1699 11.8242 21.1699Z" fill="black"/>
</g>
<defs>
<clipPath id="clip0_16_14143">
<rect width="19.6484" height="19.248" fill="white" transform="translate(2 2)"/>
</clipPath>
</defs>
</svg>
