<svg width="24" height="24" viewBox="0 0 24 24" fill="none" xmlns="http://www.w3.org/2000/svg">
<g clip-path="url(#clip0_16_14157)">
<path d="M2.78125 8.23047C3.3086 8.23047 3.57227 7.96354 3.57227 7.42969V5.125C3.57227 4.61719 3.70248 4.2347 3.96289 3.97754C4.22331 3.72038 4.59766 3.5918 5.08594 3.5918H7.44922C7.98307 3.5918 8.25 3.32813 8.25 2.80078C8.25 2.27995 7.98307 2.01953 7.44922 2.01953H5.06641C4.04427 2.01953 3.27767 2.27181 2.7666 2.77637C2.25553 3.28092 2 4.0345 2 5.03711V7.42969C2 7.96354 2.26042 8.23047 2.78125 8.23047ZM20.3301 8.23047C20.8574 8.23047 21.1211 7.96354 21.1211 7.42969V5.03711C21.1211 4.0345 20.8656 3.28092 20.3545 2.77637C19.8434 2.27181 19.0768 2.01953 18.0547 2.01953H15.6621C15.1348 2.01953 14.8711 2.27995 14.8711 2.80078C14.8711 3.32813 15.1348 3.5918 15.6621 3.5918H18.0254C18.5071 3.5918 18.8815 3.72038 19.1484 3.97754C19.4153 4.2347 19.5488 4.61719 19.5488 5.125V7.42969C19.5488 7.96354 19.8092 8.23047 20.3301 8.23047ZM5.06641 21.1309H7.44922C7.98307 21.1309 8.25 20.8705 8.25 20.3496C8.25 19.8223 7.98307 19.5586 7.44922 19.5586H5.08594C4.59766 19.5586 4.22331 19.43 3.96289 19.1729C3.70248 18.9157 3.57227 18.5332 3.57227 18.0254V15.7207C3.57227 15.1868 3.3086 14.9199 2.78125 14.9199C2.26042 14.9199 2 15.1868 2 15.7207V18.1035C2 19.1126 2.25553 19.8695 2.7666 20.374C3.27767 20.8786 4.04427 21.1309 5.06641 21.1309ZM15.6621 21.1309H18.0547C19.0768 21.1309 19.8434 20.8786 20.3545 20.374C20.8656 19.8695 21.1211 19.1126 21.1211 18.1035V15.7207C21.1211 15.1868 20.8574 14.9199 20.3301 14.9199C19.8092 14.9199 19.5488 15.1868 19.5488 15.7207V18.0254C19.5488 18.5332 19.4153 18.9157 19.1484 19.1729C18.8815 19.43 18.5071 19.5586 18.0254 19.5586H15.6621C15.1348 19.5586 14.8711 19.8223 14.8711 20.3496C14.8711 20.8705 15.1348 21.1309 15.6621 21.1309ZM6.65523 17.0147H16.4734C16.6882 17.0147 16.8475 16.952 16.9514 16.8267C17.0552 16.7014 17.1071 16.5385 17.1071 16.338C17.1071 16.0443 16.9943 15.663 16.7688 15.1939C16.5432 14.7248 16.203 14.2558 15.7483 13.7867C15.2936 13.3176 14.7189 12.922 14.0242 12.5998C13.3295 12.2775 12.5096 12.1164 11.5643 12.1164C10.619 12.1164 9.79904 12.2775 9.10439 12.5998C8.40974 12.922 7.83505 13.3176 7.38031 13.7867C6.92557 14.2558 6.58541 14.7248 6.35983 15.1939C6.13424 15.663 6.02145 16.0443 6.02145 16.338C6.02145 16.5385 6.07337 16.7014 6.17721 16.8267C6.28105 16.952 6.44039 17.0147 6.65523 17.0147ZM11.5643 11.2355C12.0728 11.2427 12.5365 11.1138 12.9554 10.8488C13.3743 10.5839 13.7073 10.224 13.9544 9.76926C14.2015 9.31451 14.325 8.80069 14.325 8.22779C14.325 7.69069 14.2015 7.19835 13.9544 6.75077C13.7073 6.30319 13.3743 5.94512 12.9554 5.67657C12.5365 5.40802 12.0728 5.27375 11.5643 5.27375C11.0558 5.27375 10.5922 5.40802 10.1732 5.67657C9.75428 5.94512 9.42128 6.30319 9.17422 6.75077C8.92715 7.19835 8.80362 7.69069 8.80362 8.22779C8.80362 8.80069 8.92715 9.31272 9.17422 9.76388C9.42128 10.215 9.75428 10.5731 10.1732 10.8381C10.5922 11.103 11.0558 11.2355 11.5643 11.2355Z" fill="black"/>
</g>
<defs>
<clipPath id="clip0_16_14157">
<rect width="19.1211" height="19.1309" fill="white" transform="translate(2 2)"/>
</clipPath>
</defs>
</svg>
