<svg width="24" height="24" viewBox="0 0 24 24" fill="none" xmlns="http://www.w3.org/2000/svg">
<g clip-path="url(#clip0_16_14150)">
<path d="M11.9609 21.9219C13.3216 21.9219 14.6026 21.6615 15.8037 21.1406C17.0049 20.6198 18.0645 19.9004 18.9824 18.9824C19.9004 18.0645 20.6198 17.0049 21.1406 15.8037C21.6615 14.6026 21.9219 13.3216 21.9219 11.9609C21.9219 10.6003 21.6615 9.31933 21.1406 8.11816C20.6198 6.91699 19.9004 5.85742 18.9824 4.93945C18.0645 4.02148 17.0033 3.30208 15.7988 2.78125C14.5944 2.26042 13.3119 2 11.9512 2C10.5905 2 9.30957 2.26042 8.1084 2.78125C6.90723 3.30208 5.84928 4.02148 4.93457 4.93945C4.01986 5.85742 3.30208 6.91699 2.78125 8.11816C2.26042 9.31933 2 10.6003 2 11.9609C2 13.3216 2.26042 14.6026 2.78125 15.8037C3.30208 17.0049 4.02148 18.0645 4.93945 18.9824C5.85742 19.9004 6.91699 20.6198 8.11816 21.1406C9.31933 21.6615 10.6003 21.9219 11.9609 21.9219ZM11.9609 20.2617C10.8086 20.2617 9.73112 20.0469 8.72852 19.6172C7.72591 19.1875 6.84538 18.5935 6.08691 17.835C5.32845 17.0765 4.736 16.196 4.30957 15.1934C3.88314 14.1908 3.66992 13.1133 3.66992 11.9609C3.66992 10.8086 3.88314 9.73112 4.30957 8.72852C4.736 7.72591 5.32682 6.84375 6.08203 6.08203C6.83724 5.32031 7.71614 4.72623 8.71875 4.2998C9.72136 3.87337 10.7988 3.66016 11.9512 3.66016C13.1035 3.66016 14.181 3.87337 15.1836 4.2998C16.1862 4.72623 17.0684 5.32031 17.8301 6.08203C18.5918 6.84375 19.1875 7.72591 19.6172 8.72852C20.0469 9.73112 20.2617 10.8086 20.2617 11.9609C20.2617 13.1133 20.0485 14.1908 19.6221 15.1934C19.1956 16.196 18.6032 17.0765 17.8447 17.835C17.0862 18.5935 16.2041 19.1875 15.1982 19.6172C14.1924 20.0469 13.1133 20.2617 11.9609 20.2617ZM14.1973 15.8867L12.8984 14.5781C12.7487 14.6367 12.5957 14.6823 12.4395 14.7148C12.2832 14.7474 12.1205 14.7637 11.9512 14.7637C11.4303 14.7637 10.9567 14.6367 10.5303 14.3828C10.1038 14.1289 9.76367 13.7888 9.50977 13.3623C9.25586 12.9359 9.12891 12.4688 9.12891 11.9609C9.12891 11.6224 9.19076 11.3034 9.31445 11.0039L7.44922 9.12891C6.96094 9.46745 6.54265 9.81901 6.19434 10.1836C5.84603 10.5482 5.5791 10.8883 5.39355 11.2041C5.208 11.5199 5.11523 11.7721 5.11523 11.9609C5.11523 12.1628 5.22428 12.4378 5.44238 12.7861C5.66048 13.1344 5.97135 13.5072 6.375 13.9043C6.77865 14.3014 7.26205 14.6774 7.8252 15.0322C8.38835 15.3871 9.0166 15.6768 9.70996 15.9014C10.4033 16.126 11.1504 16.2383 11.9512 16.2383C12.3483 16.2383 12.7357 16.2057 13.1133 16.1406C13.4909 16.0755 13.8522 15.9909 14.1973 15.8867ZM11.7363 13.416L10.4766 12.166C10.4701 12.485 10.5889 12.7747 10.833 13.0352C11.0771 13.2956 11.3783 13.4225 11.7363 13.416ZM14.5781 12.9082L16.4531 14.793C16.9349 14.4545 17.3499 14.1029 17.6982 13.7383C18.0465 13.3737 18.3135 13.0335 18.499 12.7178C18.6845 12.402 18.7773 12.1497 18.7773 11.9609C18.7773 11.7591 18.6699 11.484 18.4551 11.1357C18.2402 10.7874 17.9326 10.4147 17.5322 10.0176C17.1318 9.62045 16.65 9.24447 16.0869 8.88965C15.5238 8.53483 14.8939 8.24512 14.1973 8.02051C13.5006 7.7959 12.7519 7.68359 11.9512 7.68359C11.554 7.68359 11.1683 7.71452 10.794 7.77637C10.4196 7.83822 10.0599 7.92448 9.71484 8.03516L11.0039 9.33398C11.1471 9.27539 11.2985 9.23144 11.458 9.20215C11.6175 9.17285 11.7819 9.1582 11.9512 9.1582C12.4655 9.1582 12.9359 9.28353 13.3623 9.53418C13.7888 9.78483 14.1273 10.1217 14.3779 10.5449C14.6286 10.9681 14.7539 11.4401 14.7539 11.9609C14.7539 12.2864 14.6953 12.6022 14.5781 12.9082ZM12.166 10.4961L13.4062 11.7266C13.4062 11.4076 13.2858 11.1227 13.0449 10.8721C12.804 10.6214 12.5111 10.4961 12.166 10.4961ZM16.541 17.1855C16.6257 17.2636 16.7315 17.3043 16.8584 17.3076C16.9853 17.3109 17.0879 17.2702 17.166 17.1855C17.2571 17.0944 17.3027 16.9886 17.3027 16.8682C17.3027 16.7477 17.2571 16.6452 17.166 16.5605L7.33203 6.7168C7.24088 6.62565 7.13509 6.58008 7.01465 6.58008C6.8942 6.58008 6.78841 6.62565 6.69727 6.7168C6.61263 6.80143 6.57031 6.9056 6.57031 7.0293C6.57031 7.15299 6.61263 7.25716 6.69727 7.3418L16.541 17.1855Z" fill="black"/>
</g>
<defs>
<clipPath id="clip0_16_14150">
<rect width="19.9219" height="19.9316" fill="white" transform="translate(2 2)"/>
</clipPath>
</defs>
</svg>
