<svg width="24" height="24" viewBox="0 0 24 24" fill="none" xmlns="http://www.w3.org/2000/svg">
<g clip-path="url(#clip0_1182_18373)">
<path d="M14.0018 9.01273H18.6328C18.7798 9.01273 18.9042 8.96184 19.006 8.86006C19.1078 8.75828 19.1587 8.63388 19.1587 8.48687C19.1587 8.33985 19.1078 8.21686 19.006 8.1179C18.9042 8.01895 18.7798 7.96947 18.6328 7.96947H14.0018C13.8491 7.96947 13.7218 8.01895 13.62 8.1179C13.5182 8.21686 13.4673 8.33985 13.4673 8.48687C13.4673 8.63388 13.5182 8.75828 13.62 8.86006C13.7218 8.96184 13.8491 9.01273 14.0018 9.01273ZM14.0018 12.3376H18.6328C18.7798 12.3376 18.9042 12.2867 19.006 12.1849C19.1078 12.0831 19.1587 11.9559 19.1587 11.8032C19.1587 11.6619 19.1078 11.5417 19.006 11.4428C18.9042 11.3438 18.7798 11.2943 18.6328 11.2943H14.0018C13.8491 11.2943 13.7218 11.3438 13.62 11.4428C13.5182 11.5417 13.4673 11.6619 13.4673 11.8032C13.4673 11.9559 13.5182 12.0831 13.62 12.1849C13.7218 12.2867 13.8491 12.3376 14.0018 12.3376ZM14.0018 15.654H18.6328C18.7798 15.654 18.9042 15.6045 19.006 15.5056C19.1078 15.4066 19.1587 15.2864 19.1587 15.145C19.1587 14.998 19.1078 14.8722 19.006 14.7677C18.9042 14.663 18.7798 14.6107 18.6328 14.6107H14.0018C13.8491 14.6107 13.7218 14.663 13.62 14.7677C13.5182 14.8722 13.4673 14.998 13.4673 15.145C13.4673 15.2864 13.5182 15.4066 13.62 15.5056C13.7218 15.6045 13.8491 15.654 14.0018 15.654ZM5.16371 15.654H11.7879C11.9237 15.654 12.0269 15.6116 12.0976 15.5268C12.1682 15.4419 12.2035 15.3373 12.2035 15.213C12.2035 15.015 12.1286 14.7578 11.9789 14.4411C11.829 14.1244 11.6 13.8064 11.2918 13.4869C10.9836 13.1674 10.5949 12.9002 10.1255 12.6853C9.65622 12.4705 9.1049 12.363 8.4716 12.363C7.83829 12.363 7.28839 12.4705 6.82189 12.6853C6.35539 12.9002 5.96806 13.1674 5.65989 13.4869C5.35172 13.8064 5.12271 14.1244 4.97286 14.4411C4.82302 14.7578 4.74809 15.015 4.74809 15.213C4.74809 15.3373 4.78344 15.4419 4.85412 15.5268C4.9248 15.6116 5.02799 15.654 5.16371 15.654ZM8.4716 11.7693C8.98616 11.7693 9.42438 11.5771 9.78627 11.1925C10.1482 10.808 10.3291 10.3246 10.3291 9.74217C10.3291 9.38028 10.2457 9.04949 10.0789 8.7498C9.91209 8.45011 9.68873 8.20979 9.40883 8.02884C9.12894 7.8479 8.81653 7.75743 8.4716 7.75743C8.13232 7.75743 7.82133 7.8479 7.5386 8.02884C7.25587 8.20979 7.03111 8.45011 6.8643 8.7498C6.69749 9.04949 6.61409 9.38028 6.61409 9.74217C6.61409 10.3246 6.79645 10.808 7.16116 11.1925C7.52588 11.5771 7.96269 11.7693 8.4716 11.7693ZM4.66328 19.6149H19.3367C20.2302 19.6149 20.8974 19.3958 21.3384 18.9576C21.7795 18.5194 22 17.8648 22 16.9941V6.62935C22 5.75856 21.7795 5.10263 21.3384 4.66158C20.8974 4.22053 20.2302 4 19.3367 4H4.66328C3.77552 4 3.1097 4.21911 2.66582 4.65734C2.22194 5.09556 2 5.7529 2 6.62935V16.9941C2 17.8648 2.22194 18.5194 2.66582 18.9576C3.1097 19.3958 3.77552 19.6149 4.66328 19.6149ZM4.68024 18.2493C4.25616 18.2493 3.93102 18.1377 3.70484 17.9144C3.47866 17.691 3.36557 17.3588 3.36557 16.9177V6.70568C3.36557 6.26464 3.47866 5.93102 3.70484 5.70484C3.93102 5.47866 4.25616 5.36557 4.68024 5.36557H19.3198C19.7383 5.36557 20.062 5.47866 20.291 5.70484C20.52 5.93102 20.6345 6.26464 20.6345 6.70568V16.9177C20.6345 17.3588 20.52 17.691 20.291 17.9144C20.062 18.1377 19.7383 18.2493 19.3198 18.2493H4.68024Z" fill="#034AA6"/>
</g>
<defs>
<clipPath id="clip0_1182_18373">
<rect width="20" height="15.6149" fill="white" transform="translate(2 4)"/>
</clipPath>
</defs>
</svg>
