<svg width="24" height="24" viewBox="0 0 24 24" fill="none" xmlns="http://www.w3.org/2000/svg">
<g clip-path="url(#clip0_16_14178)">
<path d="M6.68777 19.5935C7.3379 19.5935 7.94668 19.4054 8.51412 19.029C9.08156 18.6526 9.57913 18.1194 10.0069 17.4293C10.4346 16.7393 10.7682 15.9166 11.0077 14.9614C11.2473 14.0061 11.367 12.9497 11.367 11.792C11.367 10.6286 11.2473 9.57075 11.0077 8.61836C10.7682 7.66598 10.4346 6.84477 10.0069 6.15472C9.57913 5.46467 9.08156 4.93287 8.51412 4.55933C7.94668 4.18579 7.3379 3.99902 6.68777 3.99902C6.03194 3.99902 5.42174 4.18579 4.85715 4.55933C4.29256 4.93287 3.79641 5.46467 3.36869 6.15472C2.94098 6.84477 2.60593 7.66598 2.36356 8.61836C2.12119 9.57075 2 10.6286 2 11.792C2 12.9497 2.12119 14.0061 2.36356 14.9614C2.60593 15.9166 2.94098 16.7393 3.36869 17.4293C3.79641 18.1194 4.29256 18.6526 4.85715 19.029C5.42174 19.4054 6.03194 19.5935 6.68777 19.5935ZM6.68777 18.3874C6.22014 18.3874 5.77816 18.2292 5.36185 17.9127C4.94554 17.5961 4.5777 17.1456 4.25834 16.561C3.93898 15.9765 3.68805 15.2807 3.50556 14.4738C3.32307 13.6669 3.23182 12.7729 3.23182 11.792C3.23182 10.8168 3.32165 9.92717 3.50129 9.12307C3.68092 8.31896 3.93185 7.62606 4.25406 7.04436C4.57628 6.46267 4.94554 6.01214 5.36185 5.69278C5.77816 5.37342 6.22014 5.21089 6.68777 5.20518C7.16111 5.20518 7.60736 5.36344 8.02652 5.67995C8.44569 5.99646 8.81495 6.44556 9.13431 7.02726C9.45368 7.60895 9.7046 8.30327 9.8871 9.11024C10.0696 9.9172 10.1608 10.8111 10.1608 11.792C10.1608 12.7672 10.0696 13.6569 9.8871 14.461C9.7046 15.2651 9.45368 15.9594 9.13431 16.544C8.81495 17.1285 8.44569 17.5805 8.02652 17.8998C7.60736 18.2192 7.16111 18.3817 6.68777 18.3874ZM4.84004 14.8117C5.5529 14.8117 6.12746 14.5836 6.56374 14.1274C7.00001 13.6711 7.21814 13.0666 7.21814 12.3138C7.21814 11.5725 7.00001 10.9737 6.56374 10.5174C6.12746 10.0612 5.5529 9.83308 4.84004 9.83308C4.12148 9.83308 3.54406 10.0612 3.10779 10.5174C2.67152 10.9737 2.45338 11.5725 2.45338 12.3138C2.45338 13.0666 2.67152 13.6711 3.10779 14.1274C3.54406 14.5836 4.12148 14.8117 4.84004 14.8117ZM4.16424 12.023C4.01027 12.0002 3.89193 11.9104 3.80924 11.7535C3.72655 11.5967 3.70231 11.4242 3.73653 11.236C3.77075 11.0535 3.85344 10.9038 3.9846 10.7869C4.11577 10.67 4.25264 10.6258 4.39522 10.6543C4.54919 10.6828 4.6661 10.7741 4.74594 10.928C4.82578 11.082 4.84859 11.2502 4.81437 11.4327C4.78016 11.6209 4.70032 11.7721 4.57485 11.8861C4.44939 12.0002 4.31252 12.0458 4.16424 12.023ZM17.3123 19.5935C17.9681 19.5935 18.5783 19.4054 19.1429 19.029C19.7075 18.6526 20.2036 18.1194 20.6313 17.4293C21.0591 16.7393 21.3941 15.9166 21.6365 14.9614C21.8788 14.0061 22 12.9497 22 11.792C22 10.6286 21.8788 9.57075 21.6365 8.61836C21.3941 7.66598 21.0591 6.84477 20.6313 6.15472C20.2036 5.46467 19.7075 4.93287 19.1429 4.55933C18.5783 4.18579 17.9681 3.99902 17.3123 3.99902C16.6621 3.99902 16.0533 4.18579 15.4859 4.55933C14.9184 4.93287 14.4209 5.46467 13.9932 6.15472C13.5655 6.84477 13.2318 7.66598 12.9923 8.61836C12.7528 9.57075 12.6331 10.6286 12.6331 11.792C12.6331 12.9497 12.7528 14.0061 12.9923 14.9614C13.2318 15.9166 13.5655 16.7393 13.9932 17.4293C14.4209 18.1194 14.9184 18.6526 15.4859 19.029C16.0533 19.4054 16.6621 19.5935 17.3123 19.5935ZM17.3123 18.3788C16.8446 18.3788 16.4012 18.2206 15.982 17.9041C15.5629 17.5876 15.1922 17.137 14.87 16.5525C14.5478 15.968 14.2954 15.2722 14.1129 14.4652C13.9304 13.6583 13.8392 12.7672 13.8392 11.792C13.8392 10.8168 13.9304 9.92717 14.1129 9.12307C14.2954 8.31896 14.5478 7.62606 14.87 7.04436C15.1922 6.46267 15.5614 6.01357 15.9777 5.69706C16.3941 5.38055 16.8389 5.21944 17.3123 5.21374C17.7799 5.21374 18.2233 5.37199 18.6424 5.6885C19.0616 6.00501 19.4309 6.45554 19.7503 7.04009C20.0696 7.62464 20.3205 8.31896 20.503 9.12307C20.6855 9.92717 20.7767 10.8168 20.7767 11.792C20.7767 12.7672 20.6855 13.6569 20.503 14.461C20.3205 15.2651 20.0696 15.9594 19.7503 16.544C19.4309 17.1285 19.0616 17.5791 18.6424 17.8956C18.2233 18.212 17.7799 18.3731 17.3123 18.3788ZM15.4559 14.8117C16.1688 14.8117 16.7462 14.5836 17.1882 14.1274C17.6302 13.6711 17.8512 13.0666 17.8512 12.3138C17.8512 11.5725 17.6302 10.9737 17.1882 10.5174C16.7462 10.0612 16.1688 9.83308 15.4559 9.83308C14.7374 9.83308 14.16 10.0612 13.7237 10.5174C13.2874 10.9737 13.0693 11.5725 13.0693 12.3138C13.0693 13.0666 13.2874 13.6711 13.7237 14.1274C14.16 14.5836 14.7374 14.8117 15.4559 14.8117ZM14.7801 12.023C14.6319 11.9945 14.5164 11.9032 14.4337 11.7493C14.351 11.5953 14.3268 11.4242 14.361 11.236C14.4009 11.0535 14.4836 10.9038 14.6091 10.7869C14.7346 10.67 14.8714 10.6258 15.0197 10.6543C15.1737 10.6771 15.2906 10.7669 15.3704 10.9238C15.4503 11.0806 15.4702 11.2502 15.4303 11.4327C15.3961 11.6209 15.3162 11.7721 15.1908 11.8861C15.0653 12.0002 14.9285 12.0458 14.7801 12.023Z" fill="black"/>
</g>
<defs>
<clipPath id="clip0_16_14178">
<rect width="20" height="15.5945" fill="white" transform="translate(2 4)"/>
</clipPath>
</defs>
</svg>
