<svg width="24" height="24" viewBox="0 0 24 24" fill="none" xmlns="http://www.w3.org/2000/svg">
<path d="M7.41268 13.4127C7.02106 13.8042 6.55019 14 6.00006 14C5.44993 14 4.97905 13.8042 4.58743 13.4127C4.19581 13.021 4 12.5501 4 11.9999C4 11.4499 4.19581 10.979 4.58743 10.5873C4.97905 10.1958 5.44993 10 6.00006 10C6.55019 10 7.02106 10.1958 7.41268 10.5873C7.80429 10.979 8.0001 11.4499 8.0001 11.9999C8.0001 12.5501 7.80429 13.021 7.41268 13.4127Z" fill="black"/>
<path d="M13.4409 13.4127C13.0492 13.8042 12.5783 14 12.0282 14C11.478 14 11.0072 13.8042 10.6155 13.4127C10.2239 13.021 10.0281 12.5501 10.0281 11.9999C10.0281 11.4499 10.2239 10.979 10.6155 10.5873C11.0072 10.1958 11.478 10 12.0282 10C12.5783 10 13.0492 10.1958 13.4409 10.5873C13.8324 10.979 14.0282 11.4499 14.0282 11.9999C14.0282 12.5501 13.8324 13.021 13.4409 13.4127Z" fill="black"/>
<path d="M19.4688 13.4127C19.0773 13.8042 18.6064 14 18.0563 14C17.5061 14 17.0353 13.8042 16.6437 13.4127C16.252 13.021 16.0562 12.5501 16.0562 11.9999C16.0562 11.4499 16.252 10.979 16.6437 10.5873C17.0353 10.1958 17.5061 10 18.0563 10C18.6064 10 19.0773 10.1958 19.4688 10.5873C19.8605 10.979 20.0563 11.4499 20.0563 11.9999C20.0563 12.5501 19.8605 13.021 19.4688 13.4127Z" fill="black"/>
</svg>
