<svg width="390" height="844" viewBox="0 0 390 844" fill="none" xmlns="http://www.w3.org/2000/svg">
<path d="M355.912 -1.26981L360.311 3.12953L352.041 11.4922L337.089 -3.55459L346.411 -12.9723L355.93 -22.299L369.441 -8.98176L369.793 -8.63458L370.144 -8.98303L383.555 -22.296L392.972 -12.9751L392.975 -12.9714L402.298 -3.55233L387.534 11.4977L378.892 3.13205L383.567 -1.2827L387.214 1.9083L387.577 2.22582L387.907 1.87469L392.694 -3.21122L393.028 -3.56647L392.681 -3.90947L383.906 -12.5854L383.557 -12.9296L383.206 -12.5889L373.433 -3.11512L373.281 -2.96778V-2.75611V24.7662H366.303V-2.75611V-2.96322L366.157 -3.10966L356.284 -12.9823L355.923 -13.3439L355.569 -12.9743L346.893 -3.89942L346.565 -3.55659L346.891 -3.21122L351.677 1.87469L352.012 2.23026L352.375 1.90413L355.912 -1.26981Z" stroke="#034AA6" stroke-opacity="0.08"/>
<path d="M355.912 660.887L360.311 665.286L352.041 673.649L337.089 658.602L346.411 649.185L355.93 639.858L369.441 653.175L369.793 653.522L370.144 653.174L383.555 639.861L392.972 649.182L392.975 649.185L402.298 658.605L387.534 673.655L378.892 665.289L383.567 660.874L387.214 664.065L387.577 664.383L387.907 664.032L392.694 658.946L393.028 658.59L392.681 658.247L383.906 649.572L383.557 649.227L383.206 649.568L373.433 659.042L373.281 659.189V659.401V686.923H366.303V659.401V659.194L366.157 659.047L356.284 649.175L355.923 648.813L355.569 649.183L346.893 658.258L346.565 658.6L346.891 658.946L351.677 664.032L352.012 664.387L352.375 664.061L355.912 660.887Z" stroke="#034AA6" stroke-opacity="0.08"/>
<path d="M355.912 109.16L360.311 113.56L352.041 121.922L337.089 106.875L346.411 97.4577L355.93 88.1311L369.441 101.448L369.793 101.795L370.144 101.447L383.555 88.1341L392.972 97.455L392.975 97.4586L402.298 106.878L387.534 121.928L378.892 113.562L383.567 109.147L387.214 112.338L387.577 112.656L387.907 112.305L392.694 107.219L393.028 106.864L392.681 106.521L383.906 97.8446L383.557 97.5005L383.206 97.8412L373.433 107.315L373.281 107.462V107.674V135.196H366.303V107.674V107.467L366.157 107.32L356.284 97.4478L355.923 97.0862L355.569 97.4558L346.893 106.531L346.565 106.873L346.891 107.219L351.677 112.305L352.012 112.66L352.375 112.334L355.912 109.16Z" stroke="#034AA6" stroke-opacity="0.08"/>
<path d="M355.912 771.317L360.311 775.717L352.041 784.079L337.089 769.032L346.411 759.615L355.93 750.288L369.441 763.605L369.793 763.952L370.144 763.604L383.555 750.291L392.972 759.612L392.975 759.616L402.298 769.035L387.534 784.085L378.892 775.719L383.567 771.304L387.214 774.495L387.577 774.813L387.907 774.462L392.694 769.376L393.028 769.021L392.681 768.678L383.906 760.002L383.557 759.657L383.206 759.998L373.433 769.472L373.281 769.619V769.831V797.353H366.303V769.831V769.624L366.157 769.477L356.284 759.605L355.923 759.243L355.569 759.613L346.893 768.688L346.565 769.03L346.891 769.376L351.677 774.462L352.012 774.817L352.375 774.491L355.912 771.317Z" stroke="#034AA6" stroke-opacity="0.08"/>
<path d="M355.912 219.742L360.311 224.141L352.041 232.504L337.089 217.457L346.411 208.039L355.93 198.713L369.441 212.03L369.793 212.377L370.144 212.029L383.555 198.716L392.972 208.037L392.975 208.04L402.298 217.459L387.534 232.509L378.892 224.144L383.567 219.729L387.214 222.92L387.577 223.237L387.907 222.886L392.694 217.8L393.028 217.445L392.681 217.102L383.906 208.426L383.557 208.082L383.206 208.423L373.433 217.896L373.281 218.044V218.255V245.778H366.303V218.255V218.048L366.157 217.902L356.284 208.029L355.923 207.668L355.569 208.037L346.893 217.112L346.565 217.455L346.891 217.8L351.677 222.886L352.012 223.242L352.375 222.916L355.912 219.742Z" stroke="#034AA6" stroke-opacity="0.08"/>
<path d="M355.912 53.8695L360.311 58.2688L352.041 66.6315L337.089 51.5847L346.411 42.167L355.93 32.8403L369.441 46.1575L369.793 46.5047L370.144 46.1563L383.555 32.8433L392.972 42.1642L392.975 42.1678L402.298 51.5869L387.534 66.637L378.892 58.2713L383.567 53.8566L387.214 57.0476L387.577 57.3651L387.907 57.014L392.694 51.9281L393.028 51.5728L392.681 51.2298L383.906 42.5539L383.557 42.2097L383.206 42.5504L373.433 52.0242L373.281 52.1715V52.3832V79.9055H366.303V52.3832V52.1761L366.157 52.0296L356.284 42.157L355.923 41.7954L355.569 42.165L346.893 51.2399L346.565 51.5827L346.891 51.9281L351.677 57.014L352.012 57.3695L352.375 57.0434L355.912 53.8695Z" stroke="#034AA6" stroke-opacity="0.08"/>
<path d="M355.912 716.026L360.311 720.426L352.041 728.788L337.089 713.742L346.411 704.324L355.93 694.997L369.441 708.314L369.793 708.662L370.144 708.313L383.555 695L392.972 704.321L392.975 704.325L402.298 713.744L387.534 728.794L378.892 720.428L383.567 716.014L387.214 719.204L387.577 719.522L387.907 719.171L392.694 714.085L393.028 713.73L392.681 713.387L383.906 704.711L383.557 704.367L383.206 704.707L373.433 714.181L373.281 714.328V714.54V742.062H366.303V714.54V714.333L366.157 714.187L356.284 704.314L355.923 703.952L355.569 704.322L346.893 713.397L346.565 713.74L346.891 714.085L351.677 719.171L352.012 719.526L352.375 719.2L355.912 716.026Z" stroke="#034AA6" stroke-opacity="0.08"/>
<path d="M355.912 164.299L360.311 168.699L352.041 177.061L337.089 162.015L346.411 152.597L355.93 143.27L369.441 156.587L369.793 156.935L370.144 156.586L383.555 143.273L392.972 152.594L392.975 152.598L402.298 162.017L387.534 177.067L378.892 168.701L383.567 164.286L387.214 167.477L387.577 167.795L387.907 167.444L392.694 162.358L393.028 162.003L392.681 161.66L383.906 152.984L383.557 152.64L383.206 152.98L373.433 162.454L373.281 162.601V162.813V190.335H366.303V162.813V162.606L366.157 162.459L356.284 152.587L355.923 152.225L355.569 152.595L346.893 161.67L346.565 162.013L346.891 162.358L351.677 167.444L352.012 167.799L352.375 167.473L355.912 164.299Z" stroke="#034AA6" stroke-opacity="0.08"/>
<path d="M355.912 826.456L360.311 830.856L352.041 839.218L337.089 824.171L346.411 814.754L355.93 805.427L369.441 818.744L369.793 819.091L370.144 818.743L383.555 805.43L392.972 814.751L392.975 814.755L402.298 824.174L387.534 839.224L378.892 830.858L383.567 826.443L387.214 829.634L387.577 829.952L387.907 829.601L392.694 824.515L393.028 824.16L392.681 823.817L383.906 815.141L383.557 814.797L383.206 815.137L373.433 824.611L373.281 824.758V824.97V852.492H366.303V824.97V824.763L366.157 824.616L356.284 814.744L355.923 814.382L355.569 814.752L346.893 823.827L346.565 824.169L346.891 824.515L351.677 829.601L352.012 829.956L352.375 829.63L355.912 826.456Z" stroke="#034AA6" stroke-opacity="0.08"/>
<path d="M355.912 274.881L360.311 279.28L352.041 287.643L337.089 272.596L346.411 263.178L355.93 253.852L369.441 267.169L369.793 267.516L370.144 267.168L383.555 253.855L392.972 263.176L392.975 263.179L402.298 272.598L387.534 287.648L378.892 279.283L383.567 274.868L387.214 278.059L387.577 278.377L387.907 278.025L392.694 272.939L393.028 272.584L392.681 272.241L383.906 263.565L383.557 263.221L383.206 263.562L373.433 273.036L373.281 273.183V273.395V300.917H366.303V273.395V273.187L366.157 273.041L356.284 263.168L355.923 262.807L355.569 263.176L346.893 272.251L346.565 272.594L346.891 272.939L351.677 278.025L352.012 278.381L352.375 278.055L355.912 274.881Z" stroke="#034AA6" stroke-opacity="0.08"/>
<path d="M209.358 -1.26981L213.758 3.12953L205.487 11.4922L190.535 -3.55459L199.857 -12.9723L209.376 -22.299L222.887 -8.98176L223.24 -8.63458L223.591 -8.98303L237.001 -22.296L246.418 -12.9751L246.422 -12.9714L255.744 -3.55233L240.98 11.4977L232.339 3.13205L237.013 -1.2827L240.66 1.9083L241.023 2.22582L241.353 1.87469L246.14 -3.21122L246.474 -3.56647L246.128 -3.90947L237.352 -12.5854L237.004 -12.9296L236.652 -12.5889L226.879 -3.11512L226.727 -2.96778V-2.75611V24.7662H219.75V-2.75611V-2.96322L219.603 -3.10966L209.73 -12.9823L209.369 -13.3439L209.015 -12.9743L200.34 -3.89942L200.012 -3.55659L200.337 -3.21122L205.124 1.87469L205.458 2.23026L205.822 1.90413L209.358 -1.26981Z" stroke="#034AA6" stroke-opacity="0.08"/>
<path d="M209.358 660.887L213.758 665.286L205.487 673.649L190.535 658.602L199.857 649.185L209.376 639.858L222.887 653.175L223.24 653.522L223.591 653.174L237.001 639.861L246.418 649.182L246.422 649.185L255.744 658.605L240.98 673.655L232.339 665.289L237.013 660.874L240.66 664.065L241.023 664.383L241.353 664.032L246.14 658.946L246.474 658.59L246.128 658.247L237.352 649.572L237.004 649.227L236.652 649.568L226.879 659.042L226.727 659.189V659.401V686.923H219.75V659.401V659.194L219.603 659.047L209.73 649.175L209.369 648.813L209.015 649.183L200.34 658.258L200.012 658.6L200.337 658.946L205.124 664.032L205.458 664.387L205.822 664.061L209.358 660.887Z" stroke="#034AA6" stroke-opacity="0.08"/>
<path d="M209.358 109.16L213.758 113.56L205.487 121.922L190.535 106.875L199.857 97.4577L209.376 88.1311L222.887 101.448L223.24 101.795L223.591 101.447L237.001 88.1341L246.418 97.455L246.422 97.4586L255.744 106.878L240.98 121.928L232.339 113.562L237.013 109.147L240.66 112.338L241.023 112.656L241.353 112.305L246.14 107.219L246.474 106.864L246.128 106.521L237.352 97.8446L237.004 97.5005L236.652 97.8412L226.879 107.315L226.727 107.462V107.674V135.196H219.75V107.674V107.467L219.603 107.32L209.73 97.4478L209.369 97.0862L209.015 97.4558L200.34 106.531L200.012 106.873L200.337 107.219L205.124 112.305L205.458 112.66L205.822 112.334L209.358 109.16Z" stroke="#034AA6" stroke-opacity="0.08"/>
<path d="M209.358 771.317L213.758 775.717L205.487 784.079L190.535 769.032L199.857 759.615L209.376 750.288L222.887 763.605L223.24 763.952L223.591 763.604L237.001 750.291L246.418 759.612L246.422 759.616L255.744 769.035L240.98 784.085L232.339 775.719L237.013 771.304L240.66 774.495L241.023 774.813L241.353 774.462L246.14 769.376L246.474 769.021L246.128 768.678L237.352 760.002L237.004 759.657L236.652 759.998L226.879 769.472L226.727 769.619V769.831V797.353H219.75V769.831V769.624L219.603 769.477L209.73 759.605L209.369 759.243L209.015 759.613L200.34 768.688L200.012 769.03L200.337 769.376L205.124 774.462L205.458 774.817L205.822 774.491L209.358 771.317Z" stroke="#034AA6" stroke-opacity="0.08"/>
<path d="M209.358 219.742L213.758 224.141L205.487 232.504L190.535 217.457L199.857 208.039L209.376 198.713L222.887 212.03L223.24 212.377L223.591 212.029L237.001 198.716L246.418 208.037L246.422 208.04L255.744 217.459L240.98 232.509L232.339 224.144L237.013 219.729L240.66 222.92L241.023 223.237L241.353 222.886L246.14 217.8L246.474 217.445L246.128 217.102L237.352 208.426L237.004 208.082L236.652 208.423L226.879 217.896L226.727 218.044V218.255V245.778H219.75V218.255V218.048L219.603 217.902L209.73 208.029L209.369 207.668L209.015 208.037L200.34 217.112L200.012 217.455L200.337 217.8L205.124 222.886L205.458 223.242L205.822 222.916L209.358 219.742Z" stroke="#034AA6" stroke-opacity="0.08"/>
<path d="M209.358 53.8695L213.758 58.2688L205.487 66.6315L190.535 51.5847L199.857 42.167L209.376 32.8403L222.887 46.1575L223.24 46.5047L223.591 46.1563L237.001 32.8433L246.418 42.1642L246.422 42.1678L255.744 51.5869L240.98 66.637L232.339 58.2713L237.013 53.8566L240.66 57.0476L241.023 57.3651L241.353 57.014L246.14 51.9281L246.474 51.5728L246.128 51.2298L237.352 42.5539L237.004 42.2097L236.652 42.5504L226.879 52.0242L226.727 52.1715V52.3832V79.9055H219.75V52.3832V52.1761L219.603 52.0296L209.73 42.157L209.369 41.7954L209.015 42.165L200.34 51.2399L200.012 51.5827L200.337 51.9281L205.124 57.014L205.458 57.3695L205.822 57.0434L209.358 53.8695Z" stroke="#034AA6" stroke-opacity="0.08"/>
<path d="M209.358 716.026L213.758 720.426L205.487 728.788L190.535 713.742L199.857 704.324L209.376 694.997L222.887 708.314L223.24 708.662L223.591 708.313L237.001 695L246.418 704.321L246.422 704.325L255.744 713.744L240.98 728.794L232.339 720.428L237.013 716.014L240.66 719.204L241.023 719.522L241.353 719.171L246.14 714.085L246.474 713.73L246.128 713.387L237.352 704.711L237.004 704.367L236.652 704.707L226.879 714.181L226.727 714.328V714.54V742.062H219.75V714.54V714.333L219.603 714.187L209.73 704.314L209.369 703.952L209.015 704.322L200.34 713.397L200.012 713.74L200.337 714.085L205.124 719.171L205.458 719.526L205.822 719.2L209.358 716.026Z" stroke="#034AA6" stroke-opacity="0.08"/>
<path d="M209.358 164.299L213.758 168.699L205.487 177.061L190.535 162.015L199.857 152.597L209.376 143.27L222.887 156.587L223.24 156.935L223.591 156.586L237.001 143.273L246.418 152.594L246.422 152.598L255.744 162.017L240.98 177.067L232.339 168.701L237.013 164.286L240.66 167.477L241.023 167.795L241.353 167.444L246.14 162.358L246.474 162.003L246.128 161.66L237.352 152.984L237.004 152.64L236.652 152.98L226.879 162.454L226.727 162.601V162.813V190.335H219.75V162.813V162.606L219.603 162.459L209.73 152.587L209.369 152.225L209.015 152.595L200.34 161.67L200.012 162.013L200.337 162.358L205.124 167.444L205.458 167.799L205.822 167.473L209.358 164.299Z" stroke="#034AA6" stroke-opacity="0.08"/>
<path d="M209.358 826.456L213.758 830.856L205.487 839.218L190.535 824.171L199.857 814.754L209.376 805.427L222.887 818.744L223.24 819.091L223.591 818.743L237.001 805.43L246.418 814.751L246.422 814.755L255.744 824.174L240.98 839.224L232.339 830.858L237.013 826.443L240.66 829.634L241.023 829.952L241.353 829.601L246.14 824.515L246.474 824.16L246.128 823.817L237.352 815.141L237.004 814.797L236.652 815.137L226.879 824.611L226.727 824.758V824.97V852.492H219.75V824.97V824.763L219.603 824.616L209.73 814.744L209.369 814.382L209.015 814.752L200.34 823.827L200.012 824.169L200.337 824.515L205.124 829.601L205.458 829.956L205.822 829.63L209.358 826.456Z" stroke="#034AA6" stroke-opacity="0.08"/>
<path d="M209.358 274.881L213.758 279.28L205.487 287.643L190.535 272.596L199.857 263.178L209.376 253.852L222.887 267.169L223.24 267.516L223.591 267.168L237.001 253.855L246.418 263.176L246.422 263.179L255.744 272.598L240.98 287.648L232.339 279.283L237.013 274.868L240.66 278.059L241.023 278.377L241.353 278.025L246.14 272.939L246.474 272.584L246.128 272.241L237.352 263.565L237.004 263.221L236.652 263.562L226.879 273.036L226.727 273.183V273.395V300.917H219.75V273.395V273.187L219.603 273.041L209.73 263.168L209.369 262.807L209.015 263.176L200.34 272.251L200.012 272.594L200.337 272.939L205.124 278.025L205.458 278.381L205.822 278.055L209.358 274.881Z" stroke="#034AA6" stroke-opacity="0.08"/>
<path d="M62.8046 -1.26981L67.2039 3.12953L58.9331 11.4922L43.9815 -3.55459L53.3032 -12.9723L62.8221 -22.299L76.3338 -8.98176L76.686 -8.63458L77.037 -8.98303L90.4471 -22.296L99.8642 -12.9751L99.8678 -12.9714L109.191 -3.55233L94.4265 11.4977L85.785 3.13205L90.4595 -1.2827L94.1063 1.9083L94.4692 2.22582L94.7997 1.87469L99.5864 -3.21122L99.9208 -3.56647L99.5738 -3.90947L90.7982 -12.5854L90.4501 -12.9296L90.0986 -12.5889L80.3257 -3.11512L80.1737 -2.96778V-2.75611V24.7662H73.1958V-2.75611V-2.96322L73.0494 -3.10966L63.1767 -12.9823L62.8151 -13.3439L62.4618 -12.9743L53.7858 -3.89942L53.4581 -3.55659L53.7831 -3.21122L58.5699 1.87469L58.9045 2.23026L59.2679 1.90413L62.8046 -1.26981Z" stroke="#034AA6" stroke-opacity="0.08"/>
<path d="M62.8046 660.887L67.2039 665.286L58.9331 673.649L43.9815 658.602L53.3032 649.185L62.8221 639.858L76.3338 653.175L76.686 653.522L77.037 653.174L90.4471 639.861L99.8642 649.182L99.8678 649.185L109.191 658.605L94.4265 673.655L85.785 665.289L90.4595 660.874L94.1063 664.065L94.4692 664.383L94.7997 664.032L99.5864 658.946L99.9208 658.59L99.5738 658.247L90.7982 649.572L90.4501 649.227L90.0986 649.568L80.3257 659.042L80.1737 659.189V659.401V686.923H73.1958V659.401V659.194L73.0494 659.047L63.1767 649.175L62.8151 648.813L62.4618 649.183L53.7858 658.258L53.4581 658.6L53.7831 658.946L58.5699 664.032L58.9045 664.387L59.2679 664.061L62.8046 660.887Z" stroke="#034AA6" stroke-opacity="0.08"/>
<path d="M62.8046 109.16L67.2039 113.56L58.9331 121.922L43.9815 106.875L53.3032 97.4577L62.8221 88.1311L76.3338 101.448L76.686 101.795L77.037 101.447L90.4471 88.1341L99.8642 97.455L99.8678 97.4586L109.191 106.878L94.4265 121.928L85.785 113.562L90.4595 109.147L94.1063 112.338L94.4692 112.656L94.7997 112.305L99.5864 107.219L99.9208 106.864L99.5738 106.521L90.7982 97.8446L90.4501 97.5005L90.0986 97.8412L80.3257 107.315L80.1737 107.462V107.674V135.196H73.1958V107.674V107.467L73.0494 107.32L63.1767 97.4478L62.8151 97.0862L62.4618 97.4558L53.7858 106.531L53.4581 106.873L53.7831 107.219L58.5699 112.305L58.9045 112.66L59.2679 112.334L62.8046 109.16Z" stroke="#034AA6" stroke-opacity="0.08"/>
<path d="M62.8046 771.317L67.2039 775.717L58.9331 784.079L43.9815 769.032L53.3032 759.615L62.8221 750.288L76.3338 763.605L76.686 763.952L77.037 763.604L90.4471 750.291L99.8642 759.612L99.8678 759.616L109.191 769.035L94.4265 784.085L85.785 775.719L90.4595 771.304L94.1063 774.495L94.4692 774.813L94.7997 774.462L99.5864 769.376L99.9208 769.021L99.5738 768.678L90.7982 760.002L90.4501 759.657L90.0986 759.998L80.3257 769.472L80.1737 769.619V769.831V797.353H73.1958V769.831V769.624L73.0494 769.477L63.1767 759.605L62.8151 759.243L62.4618 759.613L53.7858 768.688L53.4581 769.03L53.7831 769.376L58.5699 774.462L58.9045 774.817L59.2679 774.491L62.8046 771.317Z" stroke="#034AA6" stroke-opacity="0.08"/>
<path d="M62.8046 219.742L67.2039 224.141L58.9331 232.504L43.9815 217.457L53.3032 208.039L62.8221 198.713L76.3338 212.03L76.686 212.377L77.037 212.029L90.4471 198.716L99.8642 208.037L99.8678 208.04L109.191 217.459L94.4265 232.509L85.785 224.144L90.4595 219.729L94.1063 222.92L94.4692 223.237L94.7997 222.886L99.5864 217.8L99.9208 217.445L99.5738 217.102L90.7982 208.426L90.4501 208.082L90.0986 208.423L80.3257 217.896L80.1737 218.044V218.255V245.778H73.1958V218.255V218.048L73.0494 217.902L63.1767 208.029L62.8151 207.668L62.4618 208.037L53.7858 217.112L53.4581 217.455L53.7831 217.8L58.5699 222.886L58.9045 223.242L59.2679 222.916L62.8046 219.742Z" stroke="#034AA6" stroke-opacity="0.08"/>
<path d="M62.8046 53.8695L67.2039 58.2688L58.9331 66.6315L43.9815 51.5847L53.3032 42.167L62.8221 32.8403L76.3338 46.1575L76.686 46.5047L77.037 46.1563L90.4471 32.8433L99.8642 42.1642L99.8678 42.1678L109.191 51.5869L94.4265 66.637L85.785 58.2713L90.4595 53.8566L94.1063 57.0476L94.4692 57.3651L94.7997 57.014L99.5864 51.9281L99.9208 51.5728L99.5738 51.2298L90.7982 42.5539L90.4501 42.2097L90.0986 42.5504L80.3257 52.0242L80.1737 52.1715V52.3832V79.9055H73.1958V52.3832V52.1761L73.0494 52.0296L63.1767 42.157L62.8151 41.7954L62.4618 42.165L53.7858 51.2399L53.4581 51.5827L53.7831 51.9281L58.5699 57.014L58.9045 57.3695L59.2679 57.0434L62.8046 53.8695Z" stroke="#034AA6" stroke-opacity="0.08"/>
<path d="M62.8046 716.026L67.2039 720.426L58.9331 728.788L43.9815 713.742L53.3032 704.324L62.8221 694.997L76.3338 708.314L76.686 708.662L77.037 708.313L90.4471 695L99.8642 704.321L99.8678 704.325L109.191 713.744L94.4265 728.794L85.785 720.428L90.4595 716.014L94.1063 719.204L94.4692 719.522L94.7997 719.171L99.5864 714.085L99.9208 713.73L99.5738 713.387L90.7982 704.711L90.4501 704.367L90.0986 704.707L80.3257 714.181L80.1737 714.328V714.54V742.062H73.1958V714.54V714.333L73.0494 714.187L63.1767 704.314L62.8151 703.952L62.4618 704.322L53.7858 713.397L53.4581 713.74L53.7831 714.085L58.5699 719.171L58.9045 719.526L59.2679 719.2L62.8046 716.026Z" stroke="#034AA6" stroke-opacity="0.08"/>
<path d="M62.8046 164.299L67.2039 168.699L58.9331 177.061L43.9815 162.015L53.3032 152.597L62.8221 143.27L76.3338 156.587L76.686 156.935L77.037 156.586L90.4471 143.273L99.8642 152.594L99.8678 152.598L109.191 162.017L94.4265 177.067L85.785 168.701L90.4595 164.286L94.1063 167.477L94.4692 167.795L94.7997 167.444L99.5864 162.358L99.9208 162.003L99.5738 161.66L90.7982 152.984L90.4501 152.64L90.0986 152.98L80.3257 162.454L80.1737 162.601V162.813V190.335H73.1958V162.813V162.606L73.0494 162.459L63.1767 152.587L62.8151 152.225L62.4618 152.595L53.7858 161.67L53.4581 162.013L53.7831 162.358L58.5699 167.444L58.9045 167.799L59.2679 167.473L62.8046 164.299Z" stroke="#034AA6" stroke-opacity="0.08"/>
<path d="M62.8046 826.456L67.2039 830.856L58.9331 839.218L43.9815 824.171L53.3032 814.754L62.8221 805.427L76.3338 818.744L76.686 819.091L77.037 818.743L90.4471 805.43L99.8642 814.751L99.8678 814.755L109.191 824.174L94.4265 839.224L85.785 830.858L90.4595 826.443L94.1063 829.634L94.4692 829.952L94.7997 829.601L99.5864 824.515L99.9208 824.16L99.5738 823.817L90.7982 815.141L90.4501 814.797L90.0986 815.137L80.3257 824.611L80.1737 824.758V824.97V852.492H73.1958V824.97V824.763L73.0494 824.616L63.1767 814.744L62.8151 814.382L62.4618 814.752L53.7858 823.827L53.4581 824.169L53.7831 824.515L58.5699 829.601L58.9045 829.956L59.2679 829.63L62.8046 826.456Z" stroke="#034AA6" stroke-opacity="0.08"/>
<path d="M62.8046 274.881L67.2039 279.28L58.9331 287.643L43.9815 272.596L53.3032 263.178L62.8221 253.852L76.3338 267.169L76.686 267.516L77.037 267.168L90.4471 253.855L99.8642 263.176L99.8678 263.179L109.191 272.598L94.4265 287.648L85.785 279.283L90.4595 274.868L94.1063 278.059L94.4692 278.377L94.7997 278.025L99.5864 272.939L99.9208 272.584L99.5738 272.241L90.7982 263.565L90.4501 263.221L90.0986 263.562L80.3257 273.036L80.1737 273.183V273.395V300.917H73.1958V273.395V273.187L73.0494 273.041L63.1767 263.168L62.8151 262.807L62.4618 263.176L53.7858 272.251L53.4581 272.594L53.7831 272.939L58.5699 278.025L58.9045 278.381L59.2679 278.055L62.8046 274.881Z" stroke="#034AA6" stroke-opacity="0.08"/>
<path d="M310.195 3.53604L305.796 -0.863297L314.067 -9.22599L329.018 5.82082L319.697 15.2386L310.178 24.5652L296.666 11.248L296.314 10.9008L295.963 11.2493L282.553 24.5622L273.136 15.2413L273.132 15.2377L263.809 5.81856L278.574 -9.23148L287.215 -0.865818L282.541 3.54893L278.894 0.357936L278.531 0.0404157L278.2 0.391543L273.414 5.47745L273.079 5.8327L273.426 6.1757L282.202 14.8517L282.55 15.1958L282.901 14.8551L292.674 5.38135L292.826 5.23401L292.826 5.02234L292.826 -22.5L299.804 -22.5L299.804 5.02234L299.804 5.22945L299.951 5.3759L309.823 15.2485L310.185 15.6101L310.538 15.2405L319.214 6.16565L319.542 5.82283L319.217 5.47745L314.43 0.391546L314.095 0.0359765L313.732 0.362106L310.195 3.53604Z" stroke="#034AA6" stroke-opacity="0.08"/>
<path d="M310.195 665.693L305.796 661.294L314.067 652.931L329.018 667.978L319.697 677.395L310.178 686.722L296.666 673.405L296.314 673.058L295.963 673.406L282.553 686.719L273.136 677.398L273.132 677.395L263.809 667.975L278.574 652.925L287.215 661.291L282.541 665.706L278.894 662.515L278.531 662.197L278.2 662.548L273.414 667.634L273.079 667.99L273.426 668.333L282.202 677.009L282.55 677.353L282.901 677.012L292.674 667.538L292.826 667.391L292.826 667.179L292.826 639.657L299.804 639.657L299.804 667.179L299.804 667.386L299.951 667.533L309.823 677.405L310.185 677.767L310.538 677.397L319.214 668.323L319.542 667.98L319.217 667.634L314.43 662.548L314.095 662.193L313.732 662.519L310.195 665.693Z" stroke="#034AA6" stroke-opacity="0.08"/>
<path d="M310.195 113.966L305.796 109.567L314.067 101.204L329.018 116.251L319.697 125.668L310.178 134.995L296.666 121.678L296.314 121.331L295.963 121.679L282.553 134.992L273.136 125.671L273.132 125.668L263.809 116.248L278.574 101.198L287.215 109.564L282.541 113.979L278.894 110.788L278.531 110.47L278.2 110.821L273.414 115.907L273.079 116.263L273.426 116.606L282.202 125.282L282.55 125.626L282.901 125.285L292.674 115.811L292.826 115.664L292.826 115.452L292.826 87.9299L299.804 87.9299L299.804 115.452L299.804 115.659L299.951 115.806L309.823 125.678L310.185 126.04L310.538 125.67L319.214 116.596L319.542 116.253L319.217 115.907L314.43 110.821L314.095 110.466L313.732 110.792L310.195 113.966Z" stroke="#034AA6" stroke-opacity="0.08"/>
<path d="M310.195 776.123L305.796 771.723L314.067 763.361L329.018 778.408L319.697 787.825L310.178 797.152L296.666 783.835L296.314 783.488L295.963 783.836L282.553 797.149L273.136 787.828L273.132 787.824L263.809 778.405L278.574 763.355L287.215 771.721L282.541 776.136L278.894 772.945L278.531 772.627L278.2 772.978L273.414 778.064L273.079 778.419L273.426 778.762L282.202 787.438L282.55 787.783L282.901 787.442L292.674 777.968L292.826 777.821L292.826 777.609L292.826 750.087L299.804 750.087L299.804 777.609L299.804 777.816L299.951 777.963L309.823 787.835L310.185 788.197L310.538 787.827L319.214 778.752L319.542 778.41L319.217 778.064L314.43 772.978L314.095 772.623L313.732 772.949L310.195 776.123Z" stroke="#034AA6" stroke-opacity="0.08"/>
<path d="M310.195 224.547L305.796 220.148L314.067 211.785L329.018 226.832L319.697 236.25L310.178 245.577L296.666 232.259L296.314 231.912L295.963 232.261L282.553 245.574L273.136 236.253L273.132 236.249L263.809 226.83L278.574 211.78L287.215 220.146L282.541 224.56L278.894 221.369L278.531 221.052L278.2 221.403L273.414 226.489L273.079 226.844L273.426 227.187L282.202 235.863L282.55 236.207L282.901 235.867L292.674 226.393L292.826 226.245L292.826 226.034L292.826 198.511L299.804 198.511L299.804 226.034L299.804 226.241L299.951 226.387L309.823 236.26L310.185 236.622L310.538 236.252L319.214 227.177L319.542 226.834L319.217 226.489L314.43 221.403L314.095 221.047L313.732 221.374L310.195 224.547Z" stroke="#034AA6" stroke-opacity="0.08"/>
<path d="M310.195 58.6751L305.796 54.2758L314.067 45.9131L329.018 60.9599L319.697 70.3777L310.178 79.7043L296.666 66.3871L296.314 66.0399L295.963 66.3884L282.553 79.7013L273.136 70.3804L273.132 70.3768L263.809 60.9577L278.574 45.9076L287.215 54.2733L282.541 58.688L278.894 55.497L278.531 55.1795L278.2 55.5306L273.414 60.6165L273.079 60.9718L273.426 61.3148L282.202 69.9907L282.55 70.3349L282.901 69.9942L292.674 60.5204L292.826 60.3731L292.826 60.1614L292.826 32.6391L299.804 32.6391L299.804 60.1614L299.804 60.3685L299.951 60.515L309.823 70.3876L310.185 70.7492L310.538 70.3796L319.214 61.3048L319.542 60.9619L319.217 60.6165L314.43 55.5306L314.095 55.1751L313.732 55.5012L310.195 58.6751Z" stroke="#034AA6" stroke-opacity="0.08"/>
<path d="M310.195 720.832L305.796 716.433L314.067 708.07L329.018 723.117L319.697 732.535L310.178 741.861L296.666 728.544L296.314 728.197L295.963 728.545L282.553 741.858L273.136 732.537L273.132 732.534L263.809 723.115L278.574 708.065L287.215 716.43L282.541 720.845L278.894 717.654L278.531 717.336L278.2 717.688L273.414 722.773L273.079 723.129L273.426 723.472L282.202 732.148L282.55 732.492L282.901 732.151L292.674 722.677L292.826 722.53L292.826 722.318L292.826 694.796L299.804 694.796L299.804 722.318L299.804 722.525L299.951 722.672L309.823 732.545L310.185 732.906L310.538 732.537L319.214 723.462L319.542 723.119L319.217 722.773L314.43 717.688L314.095 717.332L313.732 717.658L310.195 720.832Z" stroke="#034AA6" stroke-opacity="0.08"/>
<path d="M310.195 169.105L305.796 164.706L314.067 156.343L329.018 171.39L319.697 180.808L310.178 190.134L296.666 176.817L296.314 176.47L295.963 176.818L282.553 190.131L273.136 180.81L273.132 180.807L263.809 171.388L278.574 156.338L287.215 164.703L282.541 169.118L278.894 165.927L278.531 165.61L278.2 165.961L273.414 171.047L273.079 171.402L273.426 171.745L282.202 180.421L282.55 180.765L282.901 180.424L292.674 170.951L292.826 170.803L292.826 170.591L292.826 143.069L299.804 143.069L299.804 170.591L299.804 170.799L299.951 170.945L309.823 180.818L310.185 181.179L310.538 180.81L319.214 171.735L319.542 171.392L319.217 171.047L314.43 165.961L314.095 165.605L313.732 165.931L310.195 169.105Z" stroke="#034AA6" stroke-opacity="0.08"/>
<path d="M310.195 831.262L305.796 826.863L314.067 818.5L329.018 833.547L319.697 842.965L310.178 852.291L296.666 838.974L296.314 838.627L295.963 838.975L282.553 852.288L273.136 842.967L273.132 842.964L263.809 833.545L278.574 818.495L287.215 826.86L282.541 831.275L278.894 828.084L278.531 827.766L278.2 828.118L273.414 833.204L273.079 833.559L273.426 833.902L282.202 842.578L282.55 842.922L282.901 842.581L292.674 833.107L292.826 832.96L292.826 832.748L292.826 805.226L299.804 805.226L299.804 832.748L299.804 832.956L299.951 833.102L309.823 842.975L310.185 843.336L310.538 842.967L319.214 833.892L319.542 833.549L319.217 833.204L314.43 828.118L314.095 827.762L313.732 828.088L310.195 831.262Z" stroke="#034AA6" stroke-opacity="0.08"/>
<path d="M310.195 279.687L305.796 275.287L314.067 266.925L329.018 281.972L319.697 291.389L310.178 300.716L296.666 287.399L296.314 287.052L295.963 287.4L282.553 300.713L273.136 291.392L273.132 291.388L263.809 281.969L278.574 266.919L287.215 275.285L282.541 279.7L278.894 276.509L278.531 276.191L278.2 276.542L273.414 281.628L273.079 281.983L273.426 282.326L282.202 291.002L282.55 291.346L282.901 291.006L292.674 281.532L292.826 281.385L292.826 281.173L292.826 253.651L299.804 253.651L299.804 281.173L299.804 281.38L299.951 281.527L309.823 291.399L310.185 291.761L310.538 291.391L319.214 282.316L319.542 281.974L319.217 281.628L314.43 276.542L314.095 276.187L313.732 276.513L310.195 279.687Z" stroke="#034AA6" stroke-opacity="0.08"/>
<path d="M163.642 3.53604L159.242 -0.863297L167.513 -9.22599L182.465 5.82082L173.143 15.2386L163.624 24.5652L150.113 11.248L149.76 10.9008L149.409 11.2493L135.999 24.5622L126.582 15.2413L126.578 15.2377L117.256 5.81856L132.02 -9.23148L140.661 -0.865818L135.987 3.54893L132.34 0.357936L131.977 0.0404157L131.647 0.391543L126.86 5.47745L126.526 5.8327L126.872 6.1757L135.648 14.8517L135.996 15.1958L136.348 14.8551L146.121 5.38135L146.273 5.23401L146.273 5.02234L146.273 -22.5L153.25 -22.5L153.25 5.02234L153.25 5.22945L153.397 5.3759L163.27 15.2485L163.631 15.6101L163.985 15.2405L172.66 6.16565L172.988 5.82283L172.663 5.47745L167.876 0.391546L167.542 0.0359765L167.178 0.362106L163.642 3.53604Z" stroke="#034AA6" stroke-opacity="0.08"/>
<path d="M163.642 665.693L159.242 661.294L167.513 652.931L182.465 667.978L173.143 677.395L163.624 686.722L150.113 673.405L149.76 673.058L149.409 673.406L135.999 686.719L126.582 677.398L126.578 677.395L117.256 667.975L132.02 652.925L140.661 661.291L135.987 665.706L132.34 662.515L131.977 662.197L131.647 662.548L126.86 667.634L126.526 667.99L126.872 668.333L135.648 677.009L135.996 677.353L136.348 677.012L146.121 667.538L146.273 667.391L146.273 667.179L146.273 639.657L153.25 639.657L153.25 667.179L153.25 667.386L153.397 667.533L163.27 677.405L163.631 677.767L163.985 677.397L172.66 668.323L172.988 667.98L172.663 667.634L167.876 662.548L167.542 662.193L167.178 662.519L163.642 665.693Z" stroke="#034AA6" stroke-opacity="0.08"/>
<path d="M163.642 113.966L159.242 109.567L167.513 101.204L182.465 116.251L173.143 125.668L163.624 134.995L150.113 121.678L149.76 121.331L149.409 121.679L135.999 134.992L126.582 125.671L126.578 125.668L117.256 116.248L132.02 101.198L140.661 109.564L135.987 113.979L132.34 110.788L131.977 110.47L131.647 110.821L126.86 115.907L126.526 116.263L126.872 116.606L135.648 125.282L135.996 125.626L136.348 125.285L146.121 115.811L146.273 115.664L146.273 115.452L146.273 87.9299L153.25 87.9299L153.25 115.452L153.25 115.659L153.397 115.806L163.27 125.678L163.631 126.04L163.985 125.67L172.66 116.596L172.988 116.253L172.663 115.907L167.876 110.821L167.542 110.466L167.178 110.792L163.642 113.966Z" stroke="#034AA6" stroke-opacity="0.08"/>
<path d="M163.642 776.123L159.242 771.723L167.513 763.361L182.465 778.408L173.143 787.825L163.624 797.152L150.113 783.835L149.76 783.488L149.409 783.836L135.999 797.149L126.582 787.828L126.578 787.824L117.256 778.405L132.02 763.355L140.661 771.721L135.987 776.136L132.34 772.945L131.977 772.627L131.647 772.978L126.86 778.064L126.526 778.419L126.872 778.762L135.648 787.438L135.996 787.783L136.348 787.442L146.121 777.968L146.273 777.821L146.273 777.609L146.273 750.087L153.25 750.087L153.25 777.609L153.25 777.816L153.397 777.963L163.27 787.835L163.631 788.197L163.985 787.827L172.66 778.752L172.988 778.41L172.663 778.064L167.876 772.978L167.542 772.623L167.178 772.949L163.642 776.123Z" stroke="#034AA6" stroke-opacity="0.08"/>
<path d="M163.642 224.547L159.242 220.148L167.513 211.785L182.465 226.832L173.143 236.25L163.624 245.577L150.113 232.259L149.76 231.912L149.409 232.261L135.999 245.574L126.582 236.253L126.578 236.249L117.256 226.83L132.02 211.78L140.661 220.146L135.987 224.56L132.34 221.369L131.977 221.052L131.647 221.403L126.86 226.489L126.526 226.844L126.872 227.187L135.648 235.863L135.996 236.207L136.348 235.867L146.121 226.393L146.273 226.245L146.273 226.034L146.273 198.511L153.25 198.511L153.25 226.034L153.25 226.241L153.397 226.387L163.27 236.26L163.631 236.622L163.985 236.252L172.66 227.177L172.988 226.834L172.663 226.489L167.876 221.403L167.542 221.047L167.178 221.374L163.642 224.547Z" stroke="#034AA6" stroke-opacity="0.08"/>
<path d="M163.642 58.6751L159.242 54.2758L167.513 45.9131L182.465 60.9599L173.143 70.3777L163.624 79.7043L150.113 66.3871L149.76 66.0399L149.409 66.3884L135.999 79.7013L126.582 70.3804L126.578 70.3768L117.256 60.9577L132.02 45.9076L140.661 54.2733L135.987 58.688L132.34 55.497L131.977 55.1795L131.647 55.5306L126.86 60.6165L126.526 60.9718L126.872 61.3148L135.648 69.9907L135.996 70.3349L136.348 69.9942L146.121 60.5204L146.273 60.3731L146.273 60.1614L146.273 32.6391L153.25 32.6391L153.25 60.1614L153.25 60.3685L153.397 60.515L163.27 70.3876L163.631 70.7492L163.985 70.3796L172.66 61.3048L172.988 60.9619L172.663 60.6165L167.876 55.5306L167.542 55.1751L167.178 55.5012L163.642 58.6751Z" stroke="#034AA6" stroke-opacity="0.08"/>
<path d="M163.642 720.832L159.242 716.433L167.513 708.07L182.465 723.117L173.143 732.535L163.624 741.861L150.113 728.544L149.76 728.197L149.409 728.545L135.999 741.858L126.582 732.537L126.578 732.534L117.256 723.115L132.02 708.065L140.661 716.43L135.987 720.845L132.34 717.654L131.977 717.336L131.647 717.688L126.86 722.773L126.526 723.129L126.872 723.472L135.648 732.148L135.996 732.492L136.348 732.151L146.121 722.677L146.273 722.53L146.273 722.318L146.273 694.796L153.25 694.796L153.25 722.318L153.25 722.525L153.397 722.672L163.27 732.545L163.631 732.906L163.985 732.537L172.66 723.462L172.988 723.119L172.663 722.773L167.876 717.688L167.542 717.332L167.178 717.658L163.642 720.832Z" stroke="#034AA6" stroke-opacity="0.08"/>
<path d="M163.642 169.105L159.242 164.706L167.513 156.343L182.465 171.39L173.143 180.808L163.624 190.134L150.113 176.817L149.76 176.47L149.409 176.818L135.999 190.131L126.582 180.81L126.578 180.807L117.256 171.388L132.02 156.338L140.661 164.703L135.987 169.118L132.34 165.927L131.977 165.61L131.647 165.961L126.86 171.047L126.526 171.402L126.872 171.745L135.648 180.421L135.996 180.765L136.348 180.424L146.121 170.951L146.273 170.803L146.273 170.591L146.273 143.069L153.25 143.069L153.25 170.591L153.25 170.799L153.397 170.945L163.27 180.818L163.631 181.179L163.985 180.81L172.66 171.735L172.988 171.392L172.663 171.047L167.876 165.961L167.542 165.605L167.178 165.931L163.642 169.105Z" stroke="#034AA6" stroke-opacity="0.08"/>
<path d="M163.642 831.262L159.242 826.863L167.513 818.5L182.465 833.547L173.143 842.965L163.624 852.291L150.113 838.974L149.76 838.627L149.409 838.975L135.999 852.288L126.582 842.967L126.578 842.964L117.256 833.545L132.02 818.495L140.661 826.86L135.987 831.275L132.34 828.084L131.977 827.766L131.647 828.118L126.86 833.204L126.526 833.559L126.872 833.902L135.648 842.578L135.996 842.922L136.348 842.581L146.121 833.107L146.273 832.96L146.273 832.748L146.273 805.226L153.25 805.226L153.25 832.748L153.25 832.956L153.397 833.102L163.27 842.975L163.631 843.336L163.985 842.967L172.66 833.892L172.988 833.549L172.663 833.204L167.876 828.118L167.542 827.762L167.178 828.088L163.642 831.262Z" stroke="#034AA6" stroke-opacity="0.08"/>
<path d="M163.642 279.687L159.242 275.287L167.513 266.925L182.465 281.972L173.143 291.389L163.624 300.716L150.113 287.399L149.76 287.052L149.409 287.4L135.999 300.713L126.582 291.392L126.578 291.388L117.256 281.969L132.02 266.919L140.661 275.285L135.987 279.7L132.34 276.509L131.977 276.191L131.647 276.542L126.86 281.628L126.526 281.983L126.872 282.326L135.648 291.002L135.996 291.346L136.348 291.006L146.121 281.532L146.273 281.385L146.273 281.173L146.273 253.651L153.25 253.651L153.25 281.173L153.25 281.38L153.397 281.527L163.27 291.399L163.631 291.761L163.985 291.391L172.66 282.316L172.988 281.974L172.663 281.628L167.876 276.542L167.542 276.187L167.178 276.513L163.642 279.687Z" stroke="#034AA6" stroke-opacity="0.08"/>
<path d="M17.088 3.53604L12.6887 -0.863297L20.9595 -9.22599L35.911 5.82082L26.5894 15.2386L17.0704 24.5652L3.5588 11.248L3.20655 10.9008L2.85555 11.2493L-10.5546 24.5622L-19.9716 15.2413L-19.9752 15.2377L-29.2982 5.81856L-14.5339 -9.23148L-5.89244 -0.865818L-10.5669 3.54893L-14.2137 0.357936L-14.5766 0.0404157L-14.9071 0.391543L-19.6938 5.47745L-20.0282 5.8327L-19.6813 6.1757L-10.9056 14.8517L-10.5575 15.1958L-10.206 14.8551L-0.433113 5.38135L-0.281128 5.23401L-0.281128 5.02234L-0.281125 -22.5L6.69677 -22.5L6.69676 5.02234L6.69676 5.22945L6.84321 5.3759L16.7158 15.2485L17.0774 15.6101L17.4308 15.2405L26.1068 6.16565L26.4345 5.82283L26.1095 5.47745L21.3227 0.391546L20.9881 0.0359765L20.6247 0.362106L17.088 3.53604Z" stroke="#034AA6" stroke-opacity="0.08"/>
<path d="M17.088 665.693L12.6887 661.294L20.9595 652.931L35.911 667.978L26.5894 677.395L17.0704 686.722L3.5588 673.405L3.20655 673.058L2.85555 673.406L-10.5546 686.719L-19.9716 677.398L-19.9752 677.395L-29.2982 667.975L-14.5339 652.925L-5.89244 661.291L-10.5669 665.706L-14.2137 662.515L-14.5766 662.197L-14.9071 662.548L-19.6938 667.634L-20.0282 667.99L-19.6813 668.333L-10.9056 677.009L-10.5575 677.353L-10.206 677.012L-0.433113 667.538L-0.281128 667.391L-0.281128 667.179L-0.281125 639.657L6.69677 639.657L6.69676 667.179L6.69676 667.386L6.84321 667.533L16.7158 677.405L17.0774 677.767L17.4308 677.397L26.1068 668.323L26.4345 667.98L26.1095 667.634L21.3227 662.548L20.9881 662.193L20.6247 662.519L17.088 665.693Z" stroke="#034AA6" stroke-opacity="0.08"/>
<path d="M17.088 113.966L12.6887 109.567L20.9595 101.204L35.911 116.251L26.5894 125.668L17.0704 134.995L3.5588 121.678L3.20655 121.331L2.85555 121.679L-10.5546 134.992L-19.9716 125.671L-19.9752 125.668L-29.2982 116.248L-14.5339 101.198L-5.89244 109.564L-10.5669 113.979L-14.2137 110.788L-14.5766 110.47L-14.9071 110.821L-19.6938 115.907L-20.0282 116.263L-19.6813 116.606L-10.9056 125.282L-10.5575 125.626L-10.206 125.285L-0.433113 115.811L-0.281128 115.664L-0.281128 115.452L-0.281125 87.9299L6.69677 87.9299L6.69676 115.452L6.69676 115.659L6.84321 115.806L16.7158 125.678L17.0774 126.04L17.4308 125.67L26.1068 116.596L26.4345 116.253L26.1095 115.907L21.3227 110.821L20.9881 110.466L20.6247 110.792L17.088 113.966Z" stroke="#034AA6" stroke-opacity="0.08"/>
<path d="M17.088 776.123L12.6887 771.723L20.9595 763.361L35.911 778.408L26.5894 787.825L17.0704 797.152L3.5588 783.835L3.20655 783.488L2.85555 783.836L-10.5546 797.149L-19.9716 787.828L-19.9752 787.824L-29.2982 778.405L-14.5339 763.355L-5.89244 771.721L-10.5669 776.136L-14.2137 772.945L-14.5766 772.627L-14.9071 772.978L-19.6938 778.064L-20.0282 778.419L-19.6813 778.762L-10.9056 787.438L-10.5575 787.783L-10.206 787.442L-0.433113 777.968L-0.281128 777.821L-0.281128 777.609L-0.281125 750.087L6.69677 750.087L6.69676 777.609L6.69676 777.816L6.84321 777.963L16.7158 787.835L17.0774 788.197L17.4308 787.827L26.1068 778.752L26.4345 778.41L26.1095 778.064L21.3227 772.978L20.9881 772.623L20.6247 772.949L17.088 776.123Z" stroke="#034AA6" stroke-opacity="0.08"/>
<path d="M17.088 224.547L12.6887 220.148L20.9595 211.785L35.911 226.832L26.5894 236.25L17.0704 245.577L3.5588 232.259L3.20655 231.912L2.85555 232.261L-10.5546 245.574L-19.9716 236.253L-19.9752 236.249L-29.2982 226.83L-14.5339 211.78L-5.89244 220.146L-10.5669 224.56L-14.2137 221.369L-14.5766 221.052L-14.9071 221.403L-19.6938 226.489L-20.0282 226.844L-19.6813 227.187L-10.9056 235.863L-10.5575 236.207L-10.206 235.867L-0.433113 226.393L-0.281128 226.245L-0.281128 226.034L-0.281125 198.511L6.69677 198.511L6.69676 226.034L6.69676 226.241L6.84321 226.387L16.7158 236.26L17.0774 236.622L17.4308 236.252L26.1068 227.177L26.4345 226.834L26.1095 226.489L21.3227 221.403L20.9881 221.047L20.6247 221.374L17.088 224.547Z" stroke="#034AA6" stroke-opacity="0.08"/>
<path d="M17.088 58.6751L12.6887 54.2758L20.9595 45.9131L35.911 60.9599L26.5894 70.3777L17.0704 79.7043L3.5588 66.3871L3.20655 66.0399L2.85555 66.3884L-10.5546 79.7013L-19.9716 70.3804L-19.9752 70.3768L-29.2982 60.9577L-14.5339 45.9076L-5.89244 54.2733L-10.5669 58.688L-14.2137 55.497L-14.5766 55.1795L-14.9071 55.5306L-19.6938 60.6165L-20.0282 60.9718L-19.6813 61.3148L-10.9056 69.9907L-10.5575 70.3349L-10.206 69.9942L-0.433113 60.5204L-0.281128 60.3731L-0.281128 60.1614L-0.281125 32.6391L6.69677 32.6391L6.69676 60.1614L6.69676 60.3685L6.84321 60.515L16.7158 70.3876L17.0774 70.7492L17.4308 70.3796L26.1068 61.3048L26.4345 60.9619L26.1095 60.6165L21.3227 55.5306L20.9881 55.1751L20.6247 55.5012L17.088 58.6751Z" stroke="#034AA6" stroke-opacity="0.08"/>
<path d="M17.088 720.832L12.6887 716.433L20.9595 708.07L35.911 723.117L26.5894 732.535L17.0704 741.861L3.5588 728.544L3.20655 728.197L2.85555 728.545L-10.5546 741.858L-19.9716 732.537L-19.9752 732.534L-29.2982 723.115L-14.5339 708.065L-5.89244 716.43L-10.5669 720.845L-14.2137 717.654L-14.5766 717.336L-14.9071 717.688L-19.6938 722.773L-20.0282 723.129L-19.6813 723.472L-10.9056 732.148L-10.5575 732.492L-10.206 732.151L-0.433113 722.677L-0.281128 722.53L-0.281128 722.318L-0.281125 694.796L6.69677 694.796L6.69676 722.318L6.69676 722.525L6.84321 722.672L16.7158 732.545L17.0774 732.906L17.4308 732.537L26.1068 723.462L26.4345 723.119L26.1095 722.773L21.3227 717.688L20.9881 717.332L20.6247 717.658L17.088 720.832Z" stroke="#034AA6" stroke-opacity="0.08"/>
<path d="M17.088 169.105L12.6887 164.706L20.9595 156.343L35.911 171.39L26.5894 180.808L17.0704 190.134L3.5588 176.817L3.20655 176.47L2.85555 176.818L-10.5546 190.131L-19.9716 180.81L-19.9752 180.807L-29.2982 171.388L-14.5339 156.338L-5.89244 164.703L-10.5669 169.118L-14.2137 165.927L-14.5766 165.61L-14.9071 165.961L-19.6938 171.047L-20.0282 171.402L-19.6813 171.745L-10.9056 180.421L-10.5575 180.765L-10.206 180.424L-0.433113 170.951L-0.281128 170.803L-0.281128 170.591L-0.281125 143.069L6.69677 143.069L6.69676 170.591L6.69676 170.799L6.84321 170.945L16.7158 180.818L17.0774 181.179L17.4308 180.81L26.1068 171.735L26.4345 171.392L26.1095 171.047L21.3227 165.961L20.9881 165.605L20.6247 165.931L17.088 169.105Z" stroke="#034AA6" stroke-opacity="0.08"/>
<path d="M17.088 831.262L12.6887 826.863L20.9595 818.5L35.911 833.547L26.5894 842.965L17.0704 852.291L3.5588 838.974L3.20655 838.627L2.85555 838.975L-10.5546 852.288L-19.9716 842.967L-19.9752 842.964L-29.2982 833.545L-14.5339 818.495L-5.89244 826.86L-10.5669 831.275L-14.2137 828.084L-14.5766 827.766L-14.9071 828.118L-19.6938 833.204L-20.0282 833.559L-19.6813 833.902L-10.9056 842.578L-10.5575 842.922L-10.206 842.581L-0.433113 833.107L-0.281128 832.96L-0.281128 832.748L-0.281125 805.226L6.69677 805.226L6.69676 832.748L6.69676 832.956L6.84321 833.102L16.7158 842.975L17.0774 843.336L17.4308 842.967L26.1068 833.892L26.4345 833.549L26.1095 833.204L21.3227 828.118L20.9881 827.762L20.6247 828.088L17.088 831.262Z" stroke="#034AA6" stroke-opacity="0.08"/>
<path d="M17.088 279.687L12.6887 275.287L20.9595 266.925L35.911 281.972L26.5894 291.389L17.0704 300.716L3.5588 287.399L3.20655 287.052L2.85555 287.4L-10.5546 300.713L-19.9716 291.392L-19.9752 291.388L-29.2982 281.969L-14.5339 266.919L-5.89244 275.285L-10.5669 279.7L-14.2137 276.509L-14.5766 276.191L-14.9071 276.542L-19.6938 281.628L-20.0282 281.983L-19.6813 282.326L-10.9056 291.002L-10.5575 291.346L-10.206 291.006L-0.433113 281.532L-0.281128 281.385L-0.281128 281.173L-0.281125 253.651L6.69677 253.651L6.69676 281.173L6.69676 281.38L6.84321 281.527L16.7158 291.399L17.0774 291.761L17.4308 291.391L26.1068 282.316L26.4345 281.974L26.1095 281.628L21.3227 276.542L20.9881 276.187L20.6247 276.513L17.088 279.687Z" stroke="#034AA6" stroke-opacity="0.08"/>
<path d="M355.912 329.809L360.311 334.208L352.041 342.571L337.089 327.524L346.411 318.106L355.93 308.779L369.441 322.097L369.793 322.444L370.144 322.095L383.555 308.782L392.972 318.103L392.975 318.107L402.298 327.526L387.534 342.576L378.892 334.211L383.567 329.796L387.214 332.987L387.577 333.304L387.907 332.953L392.694 327.867L393.028 327.512L392.681 327.169L383.906 318.493L383.557 318.149L383.206 318.49L373.433 327.963L373.281 328.111V328.322V355.845H366.303V328.322V328.115L366.157 327.969L356.284 318.096L355.923 317.735L355.569 318.104L346.893 327.179L346.565 327.522L346.891 327.867L351.677 332.953L352.012 333.309L352.375 332.983L355.912 329.809Z" stroke="#034AA6" stroke-opacity="0.08"/>
<path d="M355.912 440.239L360.311 444.638L352.041 453.001L337.089 437.954L346.411 428.536L355.93 419.209L369.441 432.527L369.793 432.874L370.144 432.525L383.555 419.213L392.972 428.533L392.975 428.537L402.298 437.956L387.534 453.006L378.892 444.641L383.567 440.226L387.214 443.417L387.577 443.734L387.907 443.383L392.694 438.297L393.028 437.942L392.681 437.599L383.906 428.923L383.557 428.579L383.206 428.92L373.433 438.393L373.281 438.541V438.752V466.275H366.303V438.752V438.545L366.157 438.399L356.284 428.526L355.923 428.165L355.569 428.534L346.893 437.609L346.565 437.952L346.891 438.297L351.677 443.383L352.012 443.739L352.375 443.413L355.912 440.239Z" stroke="#034AA6" stroke-opacity="0.08"/>
<path d="M355.912 550.82L360.311 555.22L352.041 563.582L337.089 548.535L346.411 539.118L355.93 529.791L369.441 543.108L369.793 543.455L370.144 543.107L383.555 529.794L392.972 539.115L392.975 539.119L402.298 548.538L387.534 563.588L378.892 555.222L383.567 550.807L387.214 553.998L387.577 554.316L387.907 553.965L392.694 548.879L393.028 548.524L392.681 548.181L383.906 539.505L383.557 539.16L383.206 539.501L373.433 548.975L373.281 549.122V549.334V576.856H366.303V549.334V549.127L366.157 548.98L356.284 539.108L355.923 538.746L355.569 539.116L346.893 548.191L346.565 548.533L346.891 548.879L351.677 553.965L352.012 554.32L352.375 553.994L355.912 550.82Z" stroke="#034AA6" stroke-opacity="0.08"/>
<path d="M355.912 384.948L360.311 389.347L352.041 397.71L337.089 382.663L346.411 373.245L355.93 363.919L369.441 377.236L369.793 377.583L370.144 377.235L383.555 363.922L392.972 373.243L392.975 373.246L402.298 382.665L387.534 397.715L378.892 389.35L383.567 384.935L387.214 388.126L387.577 388.444L387.907 388.092L392.694 383.006L393.028 382.651L392.681 382.308L383.906 373.632L383.557 373.288L383.206 373.629L373.433 383.103L373.281 383.25V383.462V410.984H366.303V383.462V383.254L366.157 383.108L356.284 373.235L355.923 372.874L355.569 373.243L346.893 382.318L346.565 382.661L346.891 383.006L351.677 388.092L352.012 388.448L352.375 388.122L355.912 384.948Z" stroke="#034AA6" stroke-opacity="0.08"/>
<path d="M355.912 495.378L360.311 499.777L352.041 508.14L337.089 493.093L346.411 483.675L355.93 474.349L369.441 487.666L369.793 488.013L370.144 487.665L383.555 474.352L392.972 483.673L392.975 483.676L402.298 493.095L387.534 508.145L378.892 499.78L383.567 495.365L387.214 498.556L387.577 498.873L387.907 498.522L392.694 493.436L393.028 493.081L392.681 492.738L383.906 484.062L383.557 483.718L383.206 484.059L373.433 493.532L373.281 493.68V493.892V521.414H366.303V493.892V493.684L366.157 493.538L356.284 483.665L355.923 483.304L355.569 483.673L346.893 492.748L346.565 493.091L346.891 493.436L351.677 498.522L352.012 498.878L352.375 498.552L355.912 495.378Z" stroke="#034AA6" stroke-opacity="0.08"/>
<path d="M355.912 605.959L360.311 610.359L352.041 618.721L337.089 603.675L346.411 594.257L355.93 584.93L369.441 598.247L369.793 598.595L370.144 598.246L383.555 584.933L392.972 594.254L392.975 594.258L402.298 603.677L387.534 618.727L378.892 610.361L383.567 605.946L387.214 609.137L387.577 609.455L387.907 609.104L392.694 604.018L393.028 603.663L392.681 603.32L383.906 594.644L383.557 594.3L383.206 594.64L373.433 604.114L373.281 604.261V604.473V631.995H366.303V604.473V604.266L366.157 604.119L356.284 594.247L355.923 593.885L355.569 594.255L346.893 603.33L346.565 603.673L346.891 604.018L351.677 609.104L352.012 609.459L352.375 609.133L355.912 605.959Z" stroke="#034AA6" stroke-opacity="0.08"/>
<path d="M209.358 329.809L213.758 334.208L205.487 342.571L190.535 327.524L199.857 318.106L209.376 308.779L222.887 322.097L223.24 322.444L223.591 322.095L237.001 308.782L246.418 318.103L246.422 318.107L255.744 327.526L240.98 342.576L232.339 334.211L237.013 329.796L240.66 332.987L241.023 333.304L241.353 332.953L246.14 327.867L246.474 327.512L246.128 327.169L237.352 318.493L237.004 318.149L236.652 318.49L226.879 327.963L226.727 328.111V328.322V355.845H219.75V328.322V328.115L219.603 327.969L209.73 318.096L209.369 317.735L209.015 318.104L200.34 327.179L200.012 327.522L200.337 327.867L205.124 332.953L205.458 333.309L205.822 332.983L209.358 329.809Z" stroke="#034AA6" stroke-opacity="0.08"/>
<path d="M209.358 440.239L213.758 444.638L205.487 453.001L190.535 437.954L199.857 428.536L209.376 419.209L222.887 432.527L223.24 432.874L223.591 432.525L237.001 419.213L246.418 428.533L246.422 428.537L255.744 437.956L240.98 453.006L232.339 444.641L237.013 440.226L240.66 443.417L241.023 443.734L241.353 443.383L246.14 438.297L246.474 437.942L246.128 437.599L237.352 428.923L237.004 428.579L236.652 428.92L226.879 438.393L226.727 438.541V438.752V466.275H219.75V438.752V438.545L219.603 438.399L209.73 428.526L209.369 428.165L209.015 428.534L200.34 437.609L200.012 437.952L200.337 438.297L205.124 443.383L205.458 443.739L205.822 443.413L209.358 440.239Z" stroke="#034AA6" stroke-opacity="0.08"/>
<path d="M209.358 550.82L213.758 555.22L205.487 563.582L190.535 548.535L199.857 539.118L209.376 529.791L222.887 543.108L223.24 543.455L223.591 543.107L237.001 529.794L246.418 539.115L246.422 539.119L255.744 548.538L240.98 563.588L232.339 555.222L237.013 550.807L240.66 553.998L241.023 554.316L241.353 553.965L246.14 548.879L246.474 548.524L246.128 548.181L237.352 539.505L237.004 539.16L236.652 539.501L226.879 548.975L226.727 549.122V549.334V576.856H219.75V549.334V549.127L219.603 548.98L209.73 539.108L209.369 538.746L209.015 539.116L200.34 548.191L200.012 548.533L200.337 548.879L205.124 553.965L205.458 554.32L205.822 553.994L209.358 550.82Z" stroke="#034AA6" stroke-opacity="0.08"/>
<path d="M209.358 384.948L213.758 389.347L205.487 397.71L190.535 382.663L199.857 373.245L209.376 363.919L222.887 377.236L223.24 377.583L223.591 377.235L237.001 363.922L246.418 373.243L246.422 373.246L255.744 382.665L240.98 397.715L232.339 389.35L237.013 384.935L240.66 388.126L241.023 388.444L241.353 388.092L246.14 383.006L246.474 382.651L246.128 382.308L237.352 373.632L237.004 373.288L236.652 373.629L226.879 383.103L226.727 383.25V383.462V410.984H219.75V383.462V383.254L219.603 383.108L209.73 373.235L209.369 372.874L209.015 373.243L200.34 382.318L200.012 382.661L200.337 383.006L205.124 388.092L205.458 388.448L205.822 388.122L209.358 384.948Z" stroke="#034AA6" stroke-opacity="0.08"/>
<path d="M209.358 495.378L213.758 499.777L205.487 508.14L190.535 493.093L199.857 483.675L209.376 474.349L222.887 487.666L223.24 488.013L223.591 487.665L237.001 474.352L246.418 483.673L246.422 483.676L255.744 493.095L240.98 508.145L232.339 499.78L237.013 495.365L240.66 498.556L241.023 498.873L241.353 498.522L246.14 493.436L246.474 493.081L246.128 492.738L237.352 484.062L237.004 483.718L236.652 484.059L226.879 493.532L226.727 493.68V493.892V521.414H219.75V493.892V493.684L219.603 493.538L209.73 483.665L209.369 483.304L209.015 483.673L200.34 492.748L200.012 493.091L200.337 493.436L205.124 498.522L205.458 498.878L205.822 498.552L209.358 495.378Z" stroke="#034AA6" stroke-opacity="0.08"/>
<path d="M209.358 605.959L213.758 610.359L205.487 618.721L190.535 603.675L199.857 594.257L209.376 584.93L222.887 598.247L223.24 598.595L223.591 598.246L237.001 584.933L246.418 594.254L246.422 594.258L255.744 603.677L240.98 618.727L232.339 610.361L237.013 605.946L240.66 609.137L241.023 609.455L241.353 609.104L246.14 604.018L246.474 603.663L246.128 603.32L237.352 594.644L237.004 594.3L236.652 594.64L226.879 604.114L226.727 604.261V604.473V631.995H219.75V604.473V604.266L219.603 604.119L209.73 594.247L209.369 593.885L209.015 594.255L200.34 603.33L200.012 603.673L200.337 604.018L205.124 609.104L205.458 609.459L205.822 609.133L209.358 605.959Z" stroke="#034AA6" stroke-opacity="0.08"/>
<path d="M62.8046 329.809L67.2039 334.208L58.9331 342.571L43.9815 327.524L53.3032 318.106L62.8221 308.779L76.3338 322.097L76.686 322.444L77.037 322.095L90.4471 308.782L99.8642 318.103L99.8678 318.107L109.191 327.526L94.4265 342.576L85.785 334.211L90.4595 329.796L94.1063 332.987L94.4692 333.304L94.7997 332.953L99.5864 327.867L99.9208 327.512L99.5738 327.169L90.7982 318.493L90.4501 318.149L90.0986 318.49L80.3257 327.963L80.1737 328.111V328.322V355.845H73.1958V328.322V328.115L73.0494 327.969L63.1767 318.096L62.8151 317.735L62.4618 318.104L53.7858 327.179L53.4581 327.522L53.7831 327.867L58.5699 332.953L58.9045 333.309L59.2679 332.983L62.8046 329.809Z" stroke="#034AA6" stroke-opacity="0.08"/>
<path d="M62.8046 440.239L67.2039 444.638L58.9331 453.001L43.9815 437.954L53.3032 428.536L62.8221 419.209L76.3338 432.527L76.686 432.874L77.037 432.525L90.4471 419.213L99.8642 428.533L99.8678 428.537L109.191 437.956L94.4265 453.006L85.785 444.641L90.4595 440.226L94.1063 443.417L94.4692 443.734L94.7997 443.383L99.5864 438.297L99.9208 437.942L99.5738 437.599L90.7982 428.923L90.4501 428.579L90.0986 428.92L80.3257 438.393L80.1737 438.541V438.752V466.275H73.1958V438.752V438.545L73.0494 438.399L63.1767 428.526L62.8151 428.165L62.4618 428.534L53.7858 437.609L53.4581 437.952L53.7831 438.297L58.5699 443.383L58.9045 443.739L59.2679 443.413L62.8046 440.239Z" stroke="#034AA6" stroke-opacity="0.08"/>
<path d="M62.8046 550.82L67.2039 555.22L58.9331 563.582L43.9815 548.535L53.3032 539.118L62.8221 529.791L76.3338 543.108L76.686 543.455L77.037 543.107L90.4471 529.794L99.8642 539.115L99.8678 539.119L109.191 548.538L94.4265 563.588L85.785 555.222L90.4595 550.807L94.1063 553.998L94.4692 554.316L94.7997 553.965L99.5864 548.879L99.9208 548.524L99.5738 548.181L90.7982 539.505L90.4501 539.16L90.0986 539.501L80.3257 548.975L80.1737 549.122V549.334V576.856H73.1958V549.334V549.127L73.0494 548.98L63.1767 539.108L62.8151 538.746L62.4618 539.116L53.7858 548.191L53.4581 548.533L53.7831 548.879L58.5699 553.965L58.9045 554.32L59.2679 553.994L62.8046 550.82Z" stroke="#034AA6" stroke-opacity="0.08"/>
<path d="M62.8046 384.948L67.2039 389.347L58.9331 397.71L43.9815 382.663L53.3032 373.245L62.8221 363.919L76.3338 377.236L76.686 377.583L77.037 377.235L90.4471 363.922L99.8642 373.243L99.8678 373.246L109.191 382.665L94.4265 397.715L85.785 389.35L90.4595 384.935L94.1063 388.126L94.4692 388.444L94.7997 388.092L99.5864 383.006L99.9208 382.651L99.5738 382.308L90.7982 373.632L90.4501 373.288L90.0986 373.629L80.3257 383.103L80.1737 383.25V383.462V410.984H73.1958V383.462V383.254L73.0494 383.108L63.1767 373.235L62.8151 372.874L62.4618 373.243L53.7858 382.318L53.4581 382.661L53.7831 383.006L58.5699 388.092L58.9045 388.448L59.2679 388.122L62.8046 384.948Z" stroke="#034AA6" stroke-opacity="0.08"/>
<path d="M62.8046 495.378L67.2039 499.777L58.9331 508.14L43.9815 493.093L53.3032 483.675L62.8221 474.349L76.3338 487.666L76.686 488.013L77.037 487.665L90.4471 474.352L99.8642 483.673L99.8678 483.676L109.191 493.095L94.4265 508.145L85.785 499.78L90.4595 495.365L94.1063 498.556L94.4692 498.873L94.7997 498.522L99.5864 493.436L99.9208 493.081L99.5738 492.738L90.7982 484.062L90.4501 483.718L90.0986 484.059L80.3257 493.532L80.1737 493.68V493.892V521.414H73.1958V493.892V493.684L73.0494 493.538L63.1767 483.665L62.8151 483.304L62.4618 483.673L53.7858 492.748L53.4581 493.091L53.7831 493.436L58.5699 498.522L58.9045 498.878L59.2679 498.552L62.8046 495.378Z" stroke="#034AA6" stroke-opacity="0.08"/>
<path d="M62.8046 605.959L67.2039 610.359L58.9331 618.721L43.9815 603.675L53.3032 594.257L62.8221 584.93L76.3338 598.247L76.686 598.595L77.037 598.246L90.4471 584.933L99.8642 594.254L99.8678 594.258L109.191 603.677L94.4265 618.727L85.785 610.361L90.4595 605.946L94.1063 609.137L94.4692 609.455L94.7997 609.104L99.5864 604.018L99.9208 603.663L99.5738 603.32L90.7982 594.644L90.4501 594.3L90.0986 594.64L80.3257 604.114L80.1737 604.261V604.473V631.995H73.1958V604.473V604.266L73.0494 604.119L63.1767 594.247L62.8151 593.885L62.4618 594.255L53.7858 603.33L53.4581 603.673L53.7831 604.018L58.5699 609.104L58.9045 609.459L59.2679 609.133L62.8046 605.959Z" stroke="#034AA6" stroke-opacity="0.08"/>
<path d="M310.195 334.615L305.796 330.215L314.067 321.852L329.018 336.899L319.697 346.317L310.178 355.644L296.666 342.326L296.314 341.979L295.963 342.328L282.553 355.641L273.136 346.32L273.132 346.316L263.809 336.897L278.574 321.847L287.215 330.213L282.541 334.627L278.894 331.436L278.531 331.119L278.2 331.47L273.414 336.556L273.079 336.911L273.426 337.254L282.202 345.93L282.55 346.274L282.901 345.934L292.674 336.46L292.826 336.312L292.826 336.101L292.826 308.578L299.804 308.578L299.804 336.101L299.804 336.308L299.951 336.454L309.823 346.327L310.185 346.689L310.538 346.319L319.214 337.244L319.542 336.901L319.217 336.556L314.43 331.47L314.095 331.114L313.732 331.441L310.195 334.615Z" stroke="#034AA6" stroke-opacity="0.08"/>
<path d="M310.195 445.044L305.796 440.645L314.067 432.282L329.018 447.329L319.697 456.747L310.178 466.074L296.666 452.756L296.314 452.409L295.963 452.758L282.553 466.071L273.136 456.75L273.132 456.746L263.809 447.327L278.574 432.277L287.215 440.643L282.541 445.057L278.894 441.866L278.531 441.549L278.2 441.9L273.414 446.986L273.079 447.341L273.426 447.684L282.202 456.36L282.55 456.704L282.901 456.363L292.674 446.89L292.826 446.742L292.826 446.531L292.826 419.008L299.804 419.008L299.804 446.531L299.804 446.738L299.951 446.884L309.823 456.757L310.185 457.118L310.538 456.749L319.214 447.674L319.542 447.331L319.217 446.986L314.43 441.9L314.095 441.544L313.732 441.87L310.195 445.044Z" stroke="#034AA6" stroke-opacity="0.08"/>
<path d="M310.195 555.626L305.796 551.227L314.067 542.864L329.018 557.911L319.697 567.328L310.178 576.655L296.666 563.338L296.314 562.991L295.963 563.339L282.553 576.652L273.136 567.331L273.132 567.328L263.809 557.908L278.574 542.858L287.215 551.224L282.541 555.639L278.894 552.448L278.531 552.13L278.2 552.481L273.414 557.567L273.079 557.923L273.426 558.266L282.202 566.942L282.55 567.286L282.901 566.945L292.674 557.471L292.826 557.324L292.826 557.112L292.826 529.59L299.804 529.59L299.804 557.112L299.804 557.319L299.951 557.466L309.823 567.338L310.185 567.7L310.538 567.33L319.214 558.256L319.542 557.913L319.217 557.567L314.43 552.481L314.095 552.126L313.732 552.452L310.195 555.626Z" stroke="#034AA6" stroke-opacity="0.08"/>
<path d="M310.195 389.754L305.796 385.354L314.067 376.992L329.018 392.038L319.697 401.456L310.178 410.783L296.666 397.466L296.314 397.118L295.963 397.467L282.553 410.78L273.136 401.459L273.132 401.455L263.809 392.036L278.574 376.986L287.215 385.352L282.541 389.767L278.894 386.576L278.531 386.258L278.2 386.609L273.414 391.695L273.079 392.05L273.426 392.393L282.202 401.069L282.55 401.413L282.901 401.073L292.674 391.599L292.826 391.452L292.826 391.24L292.826 363.718L299.804 363.718L299.804 391.24L299.804 391.447L299.951 391.593L309.823 401.466L310.185 401.828L310.538 401.458L319.214 392.383L319.542 392.04L319.217 391.695L314.43 386.609L314.095 386.254L313.732 386.58L310.195 389.754Z" stroke="#034AA6" stroke-opacity="0.08"/>
<path d="M310.195 500.184L305.796 495.784L314.067 487.422L329.018 502.468L319.697 511.886L310.178 521.213L296.666 507.896L296.314 507.548L295.963 507.897L282.553 521.21L273.136 511.889L273.132 511.885L263.809 502.466L278.574 487.416L287.215 495.782L282.541 500.197L278.894 497.006L278.531 496.688L278.2 497.039L273.414 502.125L273.079 502.48L273.426 502.823L282.202 511.499L282.55 511.843L282.901 511.503L292.674 502.029L292.826 501.882L292.826 501.67L292.826 474.148L299.804 474.148L299.804 501.67L299.804 501.877L299.951 502.023L309.823 511.896L310.185 512.258L310.538 511.888L319.214 502.813L319.542 502.47L319.217 502.125L314.43 497.039L314.095 496.684L313.732 497.01L310.195 500.184Z" stroke="#034AA6" stroke-opacity="0.08"/>
<path d="M310.195 610.765L305.796 606.366L314.067 598.003L329.018 613.05L319.697 622.468L310.178 631.794L296.666 618.477L296.314 618.13L295.963 618.478L282.553 631.791L273.136 622.47L273.132 622.467L263.809 613.048L278.574 597.998L287.215 606.363L282.541 610.778L278.894 607.587L278.531 607.27L278.2 607.621L273.414 612.707L273.079 613.062L273.426 613.405L282.202 622.081L282.55 622.425L282.901 622.084L292.674 612.61L292.826 612.463L292.826 612.251L292.826 584.729L299.804 584.729L299.804 612.251L299.804 612.459L299.951 612.605L309.823 622.478L310.185 622.839L310.538 622.47L319.214 613.395L319.542 613.052L319.217 612.707L314.43 607.621L314.095 607.265L313.732 607.591L310.195 610.765Z" stroke="#034AA6" stroke-opacity="0.08"/>
<path d="M163.642 334.615L159.242 330.215L167.513 321.852L182.465 336.899L173.143 346.317L163.624 355.644L150.113 342.326L149.76 341.979L149.409 342.328L135.999 355.641L126.582 346.32L126.578 346.316L117.256 336.897L132.02 321.847L140.661 330.213L135.987 334.627L132.34 331.436L131.977 331.119L131.647 331.47L126.86 336.556L126.526 336.911L126.872 337.254L135.648 345.93L135.996 346.274L136.348 345.934L146.121 336.46L146.273 336.312L146.273 336.101L146.273 308.578L153.25 308.578L153.25 336.101L153.25 336.308L153.397 336.454L163.27 346.327L163.631 346.689L163.985 346.319L172.66 337.244L172.988 336.901L172.663 336.556L167.876 331.47L167.542 331.114L167.178 331.441L163.642 334.615Z" stroke="#034AA6" stroke-opacity="0.08"/>
<path d="M163.642 445.044L159.242 440.645L167.513 432.282L182.465 447.329L173.143 456.747L163.624 466.074L150.113 452.756L149.76 452.409L149.409 452.758L135.999 466.071L126.582 456.75L126.578 456.746L117.256 447.327L132.02 432.277L140.661 440.643L135.987 445.057L132.34 441.866L131.977 441.549L131.647 441.9L126.86 446.986L126.526 447.341L126.872 447.684L135.648 456.36L135.996 456.704L136.348 456.363L146.121 446.89L146.273 446.742L146.273 446.531L146.273 419.008L153.25 419.008L153.25 446.531L153.25 446.738L153.397 446.884L163.27 456.757L163.631 457.118L163.985 456.749L172.66 447.674L172.988 447.331L172.663 446.986L167.876 441.9L167.542 441.544L167.178 441.87L163.642 445.044Z" stroke="#034AA6" stroke-opacity="0.08"/>
<path d="M163.642 555.626L159.242 551.227L167.513 542.864L182.465 557.911L173.143 567.328L163.624 576.655L150.113 563.338L149.76 562.991L149.409 563.339L135.999 576.652L126.582 567.331L126.578 567.328L117.256 557.908L132.02 542.858L140.661 551.224L135.987 555.639L132.34 552.448L131.977 552.13L131.647 552.481L126.86 557.567L126.526 557.923L126.872 558.266L135.648 566.942L135.996 567.286L136.348 566.945L146.121 557.471L146.273 557.324L146.273 557.112L146.273 529.59L153.25 529.59L153.25 557.112L153.25 557.319L153.397 557.466L163.27 567.338L163.631 567.7L163.985 567.33L172.66 558.256L172.988 557.913L172.663 557.567L167.876 552.481L167.542 552.126L167.178 552.452L163.642 555.626Z" stroke="#034AA6" stroke-opacity="0.08"/>
<path d="M163.642 389.754L159.242 385.354L167.513 376.992L182.465 392.038L173.143 401.456L163.624 410.783L150.113 397.466L149.76 397.118L149.409 397.467L135.999 410.78L126.582 401.459L126.578 401.455L117.256 392.036L132.02 376.986L140.661 385.352L135.987 389.767L132.34 386.576L131.977 386.258L131.647 386.609L126.86 391.695L126.526 392.05L126.872 392.393L135.648 401.069L135.996 401.413L136.348 401.073L146.121 391.599L146.273 391.452L146.273 391.24L146.273 363.718L153.25 363.718L153.25 391.24L153.25 391.447L153.397 391.593L163.27 401.466L163.631 401.828L163.985 401.458L172.66 392.383L172.988 392.04L172.663 391.695L167.876 386.609L167.542 386.254L167.178 386.58L163.642 389.754Z" stroke="#034AA6" stroke-opacity="0.08"/>
<path d="M163.642 500.184L159.242 495.784L167.513 487.422L182.465 502.468L173.143 511.886L163.624 521.213L150.113 507.896L149.76 507.548L149.409 507.897L135.999 521.21L126.582 511.889L126.578 511.885L117.256 502.466L132.02 487.416L140.661 495.782L135.987 500.197L132.34 497.006L131.977 496.688L131.647 497.039L126.86 502.125L126.526 502.48L126.872 502.823L135.648 511.499L135.996 511.843L136.348 511.503L146.121 502.029L146.273 501.882L146.273 501.67L146.273 474.148L153.25 474.148L153.25 501.67L153.25 501.877L153.397 502.023L163.27 511.896L163.631 512.258L163.985 511.888L172.66 502.813L172.988 502.47L172.663 502.125L167.876 497.039L167.542 496.684L167.178 497.01L163.642 500.184Z" stroke="#034AA6" stroke-opacity="0.08"/>
<path d="M163.642 610.765L159.242 606.366L167.513 598.003L182.465 613.05L173.143 622.468L163.624 631.794L150.113 618.477L149.76 618.13L149.409 618.478L135.999 631.791L126.582 622.47L126.578 622.467L117.256 613.048L132.02 597.998L140.661 606.363L135.987 610.778L132.34 607.587L131.977 607.27L131.647 607.621L126.86 612.707L126.526 613.062L126.872 613.405L135.648 622.081L135.996 622.425L136.348 622.084L146.121 612.61L146.273 612.463L146.273 612.251L146.273 584.729L153.25 584.729L153.25 612.251L153.25 612.459L153.397 612.605L163.27 622.478L163.631 622.839L163.985 622.47L172.66 613.395L172.988 613.052L172.663 612.707L167.876 607.621L167.542 607.265L167.178 607.591L163.642 610.765Z" stroke="#034AA6" stroke-opacity="0.08"/>
<path d="M17.088 334.615L12.6887 330.215L20.9595 321.852L35.911 336.899L26.5894 346.317L17.0704 355.644L3.5588 342.326L3.20655 341.979L2.85555 342.328L-10.5546 355.641L-19.9716 346.32L-19.9752 346.316L-29.2982 336.897L-14.5339 321.847L-5.89244 330.213L-10.5669 334.627L-14.2137 331.436L-14.5766 331.119L-14.9071 331.47L-19.6938 336.556L-20.0282 336.911L-19.6813 337.254L-10.9056 345.93L-10.5575 346.274L-10.206 345.934L-0.433113 336.46L-0.281128 336.312L-0.281128 336.101L-0.281125 308.578L6.69677 308.578L6.69676 336.101L6.69676 336.308L6.84321 336.454L16.7158 346.327L17.0774 346.689L17.4308 346.319L26.1068 337.244L26.4345 336.901L26.1095 336.556L21.3227 331.47L20.9881 331.114L20.6247 331.441L17.088 334.615Z" stroke="#034AA6" stroke-opacity="0.08"/>
<path d="M17.088 445.044L12.6887 440.645L20.9595 432.282L35.911 447.329L26.5894 456.747L17.0704 466.074L3.5588 452.756L3.20655 452.409L2.85555 452.758L-10.5546 466.071L-19.9716 456.75L-19.9752 456.746L-29.2982 447.327L-14.5339 432.277L-5.89244 440.643L-10.5669 445.057L-14.2137 441.866L-14.5766 441.549L-14.9071 441.9L-19.6938 446.986L-20.0282 447.341L-19.6813 447.684L-10.9056 456.36L-10.5575 456.704L-10.206 456.363L-0.433113 446.89L-0.281128 446.742L-0.281128 446.531L-0.281125 419.008L6.69677 419.008L6.69676 446.531L6.69676 446.738L6.84321 446.884L16.7158 456.757L17.0774 457.118L17.4308 456.749L26.1068 447.674L26.4345 447.331L26.1095 446.986L21.3227 441.9L20.9881 441.544L20.6247 441.87L17.088 445.044Z" stroke="#034AA6" stroke-opacity="0.08"/>
<path d="M17.088 555.626L12.6887 551.227L20.9595 542.864L35.911 557.911L26.5894 567.328L17.0704 576.655L3.5588 563.338L3.20655 562.991L2.85555 563.339L-10.5546 576.652L-19.9716 567.331L-19.9752 567.328L-29.2982 557.908L-14.5339 542.858L-5.89244 551.224L-10.5669 555.639L-14.2137 552.448L-14.5766 552.13L-14.9071 552.481L-19.6938 557.567L-20.0282 557.923L-19.6813 558.266L-10.9056 566.942L-10.5575 567.286L-10.206 566.945L-0.433113 557.471L-0.281128 557.324L-0.281128 557.112L-0.281125 529.59L6.69677 529.59L6.69676 557.112L6.69676 557.319L6.84321 557.466L16.7158 567.338L17.0774 567.7L17.4308 567.33L26.1068 558.256L26.4345 557.913L26.1095 557.567L21.3227 552.481L20.9881 552.126L20.6247 552.452L17.088 555.626Z" stroke="#034AA6" stroke-opacity="0.08"/>
<path d="M17.088 389.754L12.6887 385.354L20.9595 376.992L35.911 392.038L26.5894 401.456L17.0704 410.783L3.5588 397.466L3.20655 397.118L2.85555 397.467L-10.5546 410.78L-19.9716 401.459L-19.9752 401.455L-29.2982 392.036L-14.5339 376.986L-5.89244 385.352L-10.5669 389.767L-14.2137 386.576L-14.5766 386.258L-14.9071 386.609L-19.6938 391.695L-20.0282 392.05L-19.6813 392.393L-10.9056 401.069L-10.5575 401.413L-10.206 401.073L-0.433113 391.599L-0.281128 391.452L-0.281128 391.24L-0.281125 363.718L6.69677 363.718L6.69676 391.24L6.69676 391.447L6.84321 391.593L16.7158 401.466L17.0774 401.828L17.4308 401.458L26.1068 392.383L26.4345 392.04L26.1095 391.695L21.3227 386.609L20.9881 386.254L20.6247 386.58L17.088 389.754Z" stroke="#034AA6" stroke-opacity="0.08"/>
<path d="M17.088 500.184L12.6887 495.784L20.9595 487.422L35.911 502.468L26.5894 511.886L17.0704 521.213L3.5588 507.896L3.20655 507.548L2.85555 507.897L-10.5546 521.21L-19.9716 511.889L-19.9752 511.885L-29.2982 502.466L-14.5339 487.416L-5.89244 495.782L-10.5669 500.197L-14.2137 497.006L-14.5766 496.688L-14.9071 497.039L-19.6938 502.125L-20.0282 502.48L-19.6813 502.823L-10.9056 511.499L-10.5575 511.843L-10.206 511.503L-0.433113 502.029L-0.281128 501.882L-0.281128 501.67L-0.281125 474.148L6.69677 474.148L6.69676 501.67L6.69676 501.877L6.84321 502.023L16.7158 511.896L17.0774 512.258L17.4308 511.888L26.1068 502.813L26.4345 502.47L26.1095 502.125L21.3227 497.039L20.9881 496.684L20.6247 497.01L17.088 500.184Z" stroke="#034AA6" stroke-opacity="0.08"/>
<path d="M17.088 610.765L12.6887 606.366L20.9595 598.003L35.911 613.05L26.5894 622.468L17.0704 631.794L3.5588 618.477L3.20655 618.13L2.85555 618.478L-10.5546 631.791L-19.9716 622.47L-19.9752 622.467L-29.2982 613.048L-14.5339 597.998L-5.89244 606.363L-10.5669 610.778L-14.2137 607.587L-14.5766 607.27L-14.9071 607.621L-19.6938 612.707L-20.0282 613.062L-19.6813 613.405L-10.9056 622.081L-10.5575 622.425L-10.206 622.084L-0.433113 612.61L-0.281128 612.463L-0.281128 612.251L-0.281125 584.729L6.69677 584.729L6.69676 612.251L6.69676 612.459L6.84321 612.605L16.7158 622.478L17.0774 622.839L17.4308 622.47L26.1068 613.395L26.4345 613.052L26.1095 612.707L21.3227 607.621L20.9881 607.265L20.6247 607.591L17.088 610.765Z" stroke="#034AA6" stroke-opacity="0.08"/>
</svg>
