<svg width="24" height="24" viewBox="0 0 24 24" fill="none" xmlns="http://www.w3.org/2000/svg">
<g clip-path="url(#clip0_1193_25549)">
<path d="M12.0181 12.8677C12.3804 12.8677 12.7518 12.6775 13.1323 12.297L21.0126 4.49814C20.6745 4.17809 20.0556 4.01807 19.1558 4.01807H4.57247C3.80555 4.01807 3.27415 4.16601 2.97826 4.46191L10.904 12.297C11.2784 12.6775 11.6498 12.8677 12.0181 12.8677ZM2.22645 18.1666L8.63044 11.8351L2.20833 5.50357C2.06944 5.76324 2 6.20104 2 6.81698V16.817C2 17.4571 2.07548 17.9069 2.22645 18.1666ZM4.84421 19.6249H19.4276C20.1824 19.6249 20.7108 19.48 21.0126 19.1902L14.4819 12.7228L13.8841 13.3297C13.2742 13.9094 12.6522 14.1992 12.0181 14.1992C11.378 14.1992 10.756 13.9094 10.1522 13.3297L9.54529 12.7228L3.03261 19.1811C3.37681 19.477 3.98068 19.6249 4.84421 19.6249ZM21.7826 18.1576C21.9275 17.8919 22 17.445 22 16.817V6.81698C22 6.20708 21.9336 5.77833 21.8008 5.53075L15.3968 11.8351L21.7826 18.1576Z" fill="#034AA6"/>
</g>
<defs>
<clipPath id="clip0_1193_25549">
<rect width="20" height="15.625" fill="white" transform="translate(2 4)"/>
</clipPath>
</defs>
</svg>
