<svg width="24" height="24" viewBox="0 0 24 24" fill="none" xmlns="http://www.w3.org/2000/svg">
<path d="M12.1603 7.09333C13.6626 7.09333 14.6759 7.74222 15.2537 8.28444L17.5114 6.08C16.1248 4.79111 14.3203 4 12.1603 4C9.03145 4 6.32923 5.79556 5.01367 8.40889L7.60034 10.4178C8.24923 8.48889 10.0448 7.09333 12.1603 7.09333Z" fill="#034AA6"/>
<path d="M19.8402 12.1778C19.8402 11.52 19.7868 11.04 19.6713 10.5422H12.1602V13.5111H16.569C16.4802 14.2489 16.0002 15.36 14.9335 16.1067L17.4579 18.0622C18.969 16.6667 19.8402 14.6133 19.8402 12.1778Z" fill="#034AA6"/>
<path d="M7.60905 13.5823C7.44016 13.0845 7.34238 12.5512 7.34238 12C7.34238 11.4489 7.44016 10.9156 7.60016 10.4178L5.01349 8.40894C4.47127 9.49338 4.16016 10.7112 4.16016 12C4.16016 13.2889 4.47127 14.5067 5.01349 15.5912L7.60905 13.5823Z" fill="#034AA6"/>
<path d="M12.1602 20.0001C14.3202 20.0001 16.1336 19.2889 17.458 18.0623L14.9336 16.1067C14.258 16.5778 13.3513 16.9067 12.1602 16.9067C10.0447 16.9067 8.24913 15.5112 7.60913 13.5823L5.02246 15.5912C6.33802 18.2045 9.03135 20.0001 12.1602 20.0001Z" fill="#034AA6"/>
</svg>
