<svg width="170" height="99" viewBox="0 0 170 99" fill="none" xmlns="http://www.w3.org/2000/svg">
<path d="M14.0316 87.384C10.9916 87.384 8.62363 86.616 6.92763 85.08C5.23163 83.512 4.38363 81.192 4.38363 78.12V55.464H11.8716V78.024C11.8716 79.112 12.1596 79.96 12.7356 80.568C13.3116 81.144 14.0956 81.432 15.0876 81.432C16.2716 81.432 17.2796 81.112 18.1116 80.472L20.1276 85.752C19.3596 86.296 18.4316 86.712 17.3436 87C16.2876 87.256 15.1836 87.384 14.0316 87.384ZM0.399625 67.512V61.752H18.3036V67.512H0.399625ZM40.171 87V81.96L39.691 80.856V71.832C39.691 70.232 39.195 68.984 38.203 68.088C37.243 67.192 35.755 66.744 33.739 66.744C32.363 66.744 31.003 66.968 29.659 67.416C28.347 67.832 27.227 68.408 26.299 69.144L23.611 63.912C25.019 62.92 26.715 62.152 28.699 61.608C30.683 61.064 32.699 60.792 34.747 60.792C38.683 60.792 41.739 61.72 43.915 63.576C46.091 65.432 47.179 68.328 47.179 72.264V87H40.171ZM32.299 87.384C30.283 87.384 28.555 87.048 27.115 86.376C25.675 85.672 24.571 84.728 23.803 83.544C23.035 82.36 22.651 81.032 22.651 79.56C22.651 78.024 23.019 76.68 23.755 75.528C24.523 74.376 25.723 73.48 27.355 72.84C28.987 72.168 31.115 71.832 33.739 71.832H40.603V76.2H34.555C32.795 76.2 31.579 76.488 30.907 77.064C30.267 77.64 29.947 78.36 29.947 79.224C29.947 80.184 30.315 80.952 31.051 81.528C31.819 82.072 32.859 82.344 34.171 82.344C35.419 82.344 36.539 82.056 37.531 81.48C38.523 80.872 39.243 79.992 39.691 78.84L40.843 82.296C40.299 83.96 39.307 85.224 37.867 86.088C36.427 86.952 34.571 87.384 32.299 87.384ZM69.652 60.792C71.7 60.792 73.524 61.208 75.124 62.04C76.756 62.84 78.036 64.088 78.964 65.784C79.892 67.448 80.356 69.592 80.356 72.216V87H72.868V73.368C72.868 71.288 72.404 69.752 71.476 68.76C70.58 67.768 69.3 67.272 67.636 67.272C66.452 67.272 65.38 67.528 64.42 68.04C63.492 68.52 62.756 69.272 62.212 70.296C61.7 71.32 61.444 72.632 61.444 74.232V87H53.956V61.176H61.108V68.328L59.764 66.168C60.692 64.44 62.02 63.112 63.748 62.184C65.476 61.256 67.444 60.792 69.652 60.792ZM89.9388 96.696C88.5948 96.696 87.2668 96.488 85.9548 96.072C84.6428 95.656 83.5708 95.08 82.7387 94.344L85.4748 89.016C86.0508 89.528 86.7068 89.928 87.4428 90.216C88.2108 90.504 88.9628 90.648 89.6988 90.648C90.7548 90.648 91.5868 90.392 92.1948 89.88C92.8348 89.4 93.4108 88.584 93.9228 87.432L95.2668 84.264L95.8428 83.448L105.107 61.176H112.307L100.643 88.584C99.8108 90.664 98.8508 92.296 97.7628 93.48C96.7068 94.664 95.5228 95.496 94.2108 95.976C92.9308 96.456 91.5068 96.696 89.9388 96.696ZM94.3548 88.008L82.8347 61.176H90.5628L99.4908 82.776L94.3548 88.008ZM123.675 87.384C121.467 87.384 119.339 87.128 117.291 86.616C115.275 86.072 113.675 85.4 112.491 84.6L114.987 79.224C116.171 79.96 117.563 80.568 119.163 81.048C120.795 81.496 122.395 81.72 123.963 81.72C125.691 81.72 126.907 81.512 127.611 81.096C128.347 80.68 128.715 80.104 128.715 79.368C128.715 78.76 128.427 78.312 127.851 78.024C127.307 77.704 126.571 77.464 125.643 77.304C124.715 77.144 123.691 76.984 122.571 76.824C121.483 76.664 120.379 76.456 119.259 76.2C118.139 75.912 117.115 75.496 116.187 74.952C115.259 74.408 114.507 73.672 113.931 72.744C113.387 71.816 113.115 70.616 113.115 69.144C113.115 67.512 113.579 66.072 114.507 64.824C115.467 63.576 116.843 62.6 118.635 61.896C120.427 61.16 122.571 60.792 125.067 60.792C126.827 60.792 128.619 60.984 130.443 61.368C132.267 61.752 133.787 62.312 135.003 63.048L132.507 68.376C131.259 67.64 129.995 67.144 128.715 66.888C127.467 66.6 126.251 66.456 125.067 66.456C123.403 66.456 122.187 66.68 121.419 67.128C120.651 67.576 120.267 68.152 120.267 68.856C120.267 69.496 120.539 69.976 121.083 70.296C121.659 70.616 122.411 70.872 123.339 71.064C124.267 71.256 125.275 71.432 126.363 71.592C127.483 71.72 128.603 71.928 129.723 72.216C130.843 72.504 131.851 72.92 132.747 73.464C133.675 73.976 134.427 74.696 135.003 75.624C135.579 76.52 135.867 77.704 135.867 79.176C135.867 80.776 135.387 82.2 134.427 83.448C133.467 84.664 132.075 85.624 130.251 86.328C128.459 87.032 126.267 87.384 123.675 87.384ZM151.383 87.384C149.239 87.384 147.319 86.968 145.623 86.136C143.959 85.304 142.663 84.04 141.735 82.344C140.807 80.616 140.343 78.424 140.343 75.768V61.176H147.831V74.664C147.831 76.808 148.279 78.392 149.175 79.416C150.103 80.408 151.399 80.904 153.063 80.904C154.215 80.904 155.239 80.664 156.135 80.184C157.031 79.672 157.735 78.904 158.247 77.88C158.759 76.824 159.015 75.512 159.015 73.944V61.176H166.503V87H159.399V79.896L160.695 81.96C159.831 83.752 158.551 85.112 156.855 86.04C155.191 86.936 153.367 87.384 151.383 87.384Z" fill="white"/>
<path d="M25 0H76.7059V26.4706H93.1176V0H145V39.5294H119.588V26.8235H131.412V13.0588H105.824V39.5294H63.6471V13.0588H38.2353V26.4706H50.0588V39.5294H25V0Z" fill="white"/>
</svg>
