<svg width="24" height="24" viewBox="0 0 24 24" fill="none" xmlns="http://www.w3.org/2000/svg">
<path d="M18.0517 12.5679C18.0427 10.9292 18.7839 9.69239 20.2842 8.78151C19.4448 7.5804 18.1767 6.91956 16.5023 6.79007C14.9172 6.66505 13.1847 7.71435 12.5507 7.71435C11.8809 7.71435 10.3449 6.83472 9.13933 6.83472C6.6478 6.87491 4 8.82169 4 12.7822C4 13.9521 4.21432 15.1606 4.64297 16.4079C5.21451 18.0466 7.27738 22.0652 9.42956 21.9982C10.5548 21.9714 11.3496 21.1989 12.8141 21.1989C14.234 21.1989 14.9707 21.9982 16.2254 21.9982C18.3955 21.9669 20.2619 18.3145 20.8066 16.6713C17.8954 15.3006 18.0517 12.6527 18.0517 12.5679V12.5679ZM15.5244 5.23622C16.7434 3.78953 16.6318 2.47232 16.596 1.99902C15.52 2.06153 14.2742 2.7313 13.5642 3.55734C12.7828 4.44143 12.3229 5.53538 12.4212 6.76775C13.5866 6.85705 14.6493 6.25873 15.5244 5.23622V5.23622Z" fill="white"/>
</svg>
