<svg width="24" height="24" viewBox="0 0 24 24" fill="none" xmlns="http://www.w3.org/2000/svg">
<path d="M16.5187 12.4556C16.5115 11.1446 17.1045 10.1552 18.3047 9.42648C17.6332 8.46559 16.6187 7.93692 15.2792 7.83333C14.0111 7.73331 12.6251 8.57275 12.1179 8.57275C11.5821 8.57275 10.3533 7.86905 9.38881 7.86905C7.39559 7.9012 5.27734 9.45862 5.27734 12.6271C5.27734 13.5629 5.4488 14.5298 5.79172 15.5276C6.24895 16.8385 7.89925 20.0534 9.62099 19.9998C10.5212 19.9784 11.157 19.3604 12.3286 19.3604C13.4645 19.3604 14.0539 19.9998 15.0577 19.9998C16.7937 19.9748 18.2869 17.0529 18.7226 15.7383C16.3937 14.6417 16.5187 12.5235 16.5187 12.4556ZM14.4969 6.59025C15.4721 5.43289 15.3828 4.37913 15.3542 4.00049C14.4933 4.0505 13.4967 4.58631 12.9287 5.24714C12.3036 5.95442 11.9357 6.82957 12.0143 7.81547C12.9466 7.88691 13.7968 7.40825 14.4969 6.59025Z" fill="white"/>
</svg>
