<svg width="26" height="26" viewBox="0 0 26 26" fill="none" xmlns="http://www.w3.org/2000/svg">
<path d="M4.66675 10.9167L4.29847 11.285L3.93018 10.9167L4.29847 10.5484L4.66675 10.9167ZM21.8542 19.25C21.8542 19.5376 21.621 19.7709 21.3334 19.7709C21.0458 19.7709 20.8126 19.5376 20.8126 19.25H21.8542ZM9.5068 16.4934L4.29847 11.285L5.03503 10.5484L10.2434 15.7567L9.5068 16.4934ZM4.29847 10.5484L9.5068 5.34009L10.2434 6.07665L5.03503 11.285L4.29847 10.5484ZM4.66675 10.3959H15.0834V11.4375H4.66675V10.3959ZM21.8542 17.1667V19.25H20.8126V17.1667H21.8542ZM15.0834 10.3959C18.8228 10.3959 21.8542 13.4272 21.8542 17.1667H20.8126C20.8126 14.0025 18.2476 11.4375 15.0834 11.4375V10.3959Z" fill="#FAFF00"/>
</svg>
