<svg width="12" height="12" viewBox="0 0 12 12" fill="none" xmlns="http://www.w3.org/2000/svg">
<g clip-path="url(#clip0_173_1971)">
<path opacity="0.06" d="M6.00293 11.9944C7.5394 11.9944 9.07589 11.4095 10.2456 10.2398C12.585 7.90045 12.585 4.09395 10.2456 1.75458C9.07587 0.584836 7.5394 0 6.00293 0V11.9944Z" fill="#040000"/>
<path d="M6 12C2.69159 12 0 9.30841 0 6C0 2.69159 2.69159 0 6 0C9.30841 0 12 2.69159 12 6C12 9.30841 9.30841 12 6 12Z" fill="#F8D176"/>
<g opacity="0.2">
<path d="M7.77803 6.52767C7.71618 6.3469 7.61614 6.19467 7.47836 6.07095C7.36869 5.96128 7.23775 5.87574 7.0855 5.81386C6.93325 5.75201 6.74043 5.7042 6.50706 5.67085L6.46206 5.66403L5.90007 5.57806C5.79081 5.564 5.69921 5.5399 5.62532 5.50655C5.59438 5.49289 5.56546 5.47763 5.53815 5.46117C5.50039 5.43828 5.46664 5.41296 5.43613 5.38524C5.38351 5.33302 5.34695 5.27597 5.32527 5.21412C5.30399 5.15227 5.29314 5.08798 5.29314 5.0213C5.29314 4.84496 5.35621 4.69393 5.48235 4.56778C5.49962 4.55051 5.51809 4.53443 5.53818 4.51997C5.66352 4.42557 5.84146 4.37857 6.07164 4.37857C6.19656 4.37857 6.32671 4.38982 6.46208 4.41272C6.50746 4.42036 6.55328 4.4292 6.59987 4.43923C6.78545 4.4798 6.95699 4.5762 7.11404 4.72845L7.74231 4.10703C7.52338 3.89292 7.28317 3.74067 7.02125 3.6503C6.85335 3.59246 6.66657 3.55268 6.46168 3.5322C6.34721 3.52015 6.2267 3.51453 6.10016 3.51453C5.89771 3.51453 5.71011 3.53501 5.53818 3.57638C5.4759 3.59124 5.41567 3.60851 5.3574 3.629C5.13847 3.70493 4.95289 3.81096 4.80064 3.94634C4.64839 4.08211 4.53149 4.244 4.45077 4.43199C4.36963 4.61998 4.32946 4.82848 4.32946 5.05704C4.32946 5.49007 4.45077 5.8235 4.69339 6.05646C4.80789 6.16613 4.94324 6.25531 5.10032 6.3244C5.22444 6.37864 5.36985 6.42202 5.53815 6.45375C5.58355 6.46259 5.63014 6.47063 5.67875 6.47785L6.28572 6.57064C6.35399 6.58067 6.41265 6.59152 6.46206 6.60277C6.50584 6.61322 6.5424 6.62365 6.57132 6.6349C6.63318 6.6586 6.69022 6.69436 6.74284 6.74175C6.84728 6.84661 6.89989 6.98719 6.89989 7.16314C6.89989 7.368 6.82358 7.52506 6.67133 7.63432C6.61269 7.67691 6.5428 7.71106 6.46206 7.73674C6.33353 7.77811 6.17727 7.7986 5.99289 7.7986C5.83623 7.7986 5.68438 7.78453 5.53815 7.75641C5.46704 7.74275 5.39755 7.72587 5.32888 7.70581C5.11961 7.64396 4.934 7.53228 4.77212 7.37039L4.12939 8.0127C4.37685 8.26535 4.65161 8.4401 4.95409 8.53772C5.13404 8.59596 5.32888 8.63653 5.53857 8.65983C5.68077 8.67591 5.83021 8.68395 5.98607 8.68395C6.15156 8.68395 6.31023 8.67068 6.46208 8.64378C6.55447 8.6277 6.64445 8.60642 6.73201 8.58031C6.96299 8.51161 7.16263 8.4116 7.33175 8.28064C7.50088 8.14969 7.63302 7.989 7.72825 7.7986C7.82345 7.60819 7.87086 7.38926 7.87086 7.14183C7.87082 6.91329 7.83988 6.70882 7.77803 6.52767Z" fill="white"/>
<path d="M6.46199 3.54862V4.41267C6.32662 4.38977 6.19647 4.37852 6.07155 4.37852C5.84137 4.37852 5.66343 4.42551 5.53809 4.51992V3.54862C5.53809 3.29435 5.74616 3.08667 6.00004 3.08667C6.12698 3.08667 6.24266 3.13849 6.32622 3.22244C6.40656 3.30239 6.45759 3.41165 6.46159 3.53215C6.46199 3.53777 6.46199 3.543 6.46199 3.54862Z" fill="white"/>
<path d="M6.46199 5.66403V6.6028C6.41259 6.59155 6.35395 6.5807 6.28565 6.57067L5.67869 6.47788C5.63008 6.47063 5.58348 6.46262 5.53809 6.45378V5.46118C5.56539 5.47766 5.59431 5.49292 5.62525 5.50656C5.69917 5.53991 5.79074 5.564 5.90001 5.57806L6.46199 5.66403Z" fill="white"/>
<path d="M5.99282 7.79855C6.1772 7.79855 6.33346 7.77806 6.46199 7.73669V8.65015C6.46199 8.90402 6.25431 9.1121 6.00004 9.1121C5.74938 9.1121 5.54331 8.90925 5.53848 8.65978C5.53809 8.65657 5.53809 8.65336 5.53809 8.65015V7.75636C5.68431 7.78448 5.83614 7.79855 5.99282 7.79855Z" fill="white"/>
</g>
<g opacity="0.5">
<path d="M6.00019 11.0773C3.20053 11.0773 0.922852 8.7996 0.922852 5.99994C0.922852 3.20029 3.20051 0.922607 6.00019 0.922607C8.79984 0.922607 11.0775 3.20026 11.0775 5.99994C11.0775 8.79962 8.79984 11.0773 6.00019 11.0773ZM6.00019 2.21722C3.91439 2.21722 2.21747 3.91415 2.21747 5.99994C2.21747 8.08574 3.91439 9.78266 6.00019 9.78266C8.08598 9.78266 9.78291 8.08574 9.78291 5.99994C9.78291 3.91415 8.08596 2.21722 6.00019 2.21722Z" fill="#C69949"/>
</g>
<path d="M4.31263 1.92809C4.32337 1.95537 4.33269 1.98017 4.34045 2.00239C4.34828 2.02456 4.35395 2.04565 4.35744 2.0656C4.36096 2.08545 4.3619 2.10472 4.36019 2.12328C4.35857 2.14177 4.35337 2.16118 4.34462 2.18126C4.33298 2.20807 4.3169 2.23151 4.29641 2.25162C4.27593 2.27164 4.24907 2.28825 4.21593 2.30126C4.18286 2.31427 4.1518 2.32046 4.12283 2.3198C4.09387 2.31915 4.066 2.31307 4.03912 2.30138C4.01908 2.29257 4.00211 2.282 3.98826 2.26953C3.97436 2.25713 3.96203 2.24232 3.95141 2.22523C3.94061 2.20815 3.9306 2.18883 3.92118 2.16727C3.91169 2.14561 3.90166 2.12122 3.89092 2.09393C3.88023 2.0667 3.87098 2.04197 3.86319 2.01973C3.85532 1.99747 3.84955 1.97647 3.84573 1.95664C3.84198 1.93693 3.84086 1.91771 3.84259 1.89915C3.84421 1.88061 3.84946 1.86125 3.85815 1.84116C3.86985 1.81435 3.88602 1.79086 3.90683 1.77064C3.92758 1.75046 3.95451 1.73389 3.98769 1.72088C4.02083 1.7078 4.05175 1.70168 4.08044 1.70246C4.10905 1.70318 4.13687 1.70937 4.16369 1.721C4.18377 1.72974 4.20074 1.74043 4.21459 1.75285C4.22844 1.76532 4.2408 1.78006 4.25186 1.797C4.26285 1.81397 4.27307 1.83329 4.28249 1.8548C4.29187 1.87641 4.30201 1.90088 4.31263 1.92809ZM4.20123 1.9719C4.1905 1.94466 4.18108 1.9223 4.17301 1.90484C4.16488 1.88738 4.15743 1.8732 4.15066 1.86225C4.14388 1.85131 4.13739 1.84292 4.13106 1.83718C4.12473 1.83125 4.11777 1.82642 4.11013 1.82267C4.09853 1.81669 4.08559 1.81339 4.07139 1.81243C4.05714 1.81151 4.0423 1.81416 4.02681 1.8203C4.01134 1.82632 3.99857 1.83462 3.9888 1.84491C3.97898 1.85532 3.97155 1.86661 3.9666 1.87906C3.9636 1.8871 3.96173 1.8954 3.96114 1.90395C3.96048 1.9125 3.9614 1.9231 3.96388 1.93573C3.96641 1.94834 3.97077 1.96374 3.97698 1.98197C3.98326 2.00021 3.99173 2.02297 4.00248 2.05022C4.01317 2.07746 4.02243 2.09989 4.0303 2.11742C4.03813 2.13507 4.04542 2.14915 4.05208 2.15984C4.05873 2.17053 4.06518 2.17875 4.07144 2.18457C4.07781 2.19047 4.08477 2.19521 4.09248 2.19905C4.10453 2.2047 4.1178 2.20819 4.13219 2.20932C4.14651 2.21049 4.16139 2.208 4.17695 2.20186C4.1924 2.19577 4.20503 2.1875 4.21473 2.17683C4.22439 2.16622 4.23149 2.15478 4.23592 2.14259C4.23897 2.1346 4.2408 2.1263 4.24145 2.11775C4.24206 2.10915 4.24124 2.09869 4.23883 2.08634C4.23646 2.07404 4.23229 2.05875 4.22631 2.04038C4.22026 2.02203 4.21194 1.99915 4.20123 1.9719Z" fill="#F8D176"/>
<path d="M4.87693 2.086L4.54241 1.78799L4.64282 2.15083L4.52746 2.18277L4.36377 1.59159L4.46678 1.56311L4.80107 1.86034L4.70085 1.49833L4.81632 1.46643L4.97994 2.05752L4.87693 2.086Z" fill="#F8D176"/>
<path d="M5.10284 2.03816L5.01465 1.43113L5.41447 1.37305L5.42982 1.47877L5.14852 1.51965L5.16915 1.66196L5.40877 1.62723L5.42405 1.73284L5.18455 1.76766L5.20599 1.9152L5.48734 1.87433L5.50273 1.97998L5.10284 2.03816Z" fill="#F8D176"/>
<path d="M6.23777 1.53998C6.23765 1.56588 6.23296 1.59037 6.22366 1.6136C6.21438 1.63687 6.20111 1.65717 6.18381 1.67463C6.16652 1.69207 6.14516 1.7058 6.11987 1.71572C6.09454 1.72575 6.06613 1.73065 6.03461 1.73053L5.91651 1.73001L5.91562 1.96092L5.7959 1.9605L5.79827 1.34705L6.03602 1.34798C6.06761 1.3481 6.09606 1.35323 6.12133 1.36338C6.14655 1.37348 6.16771 1.38743 6.18489 1.40496C6.20202 1.42258 6.2152 1.44302 6.22427 1.4663C6.23338 1.48966 6.23784 1.51409 6.23777 1.53998ZM6.118 1.53956C6.11814 1.5143 6.11029 1.49386 6.09456 1.47832C6.07884 1.46273 6.05716 1.45483 6.02962 1.45481L5.91759 1.45434L5.91698 1.62227L6.02901 1.62274C6.0565 1.62283 6.07825 1.61534 6.09407 1.60019C6.10989 1.58505 6.11791 1.56483 6.118 1.53956Z" fill="#F8D176"/>
<path d="M6.3208 1.96984L6.38957 1.36035L6.79103 1.40559L6.77907 1.51173L6.49656 1.47993L6.48048 1.6229L6.72102 1.64997L6.70902 1.75616L6.46846 1.72902L6.45177 1.87712L6.73429 1.90893L6.72233 2.01512L6.3208 1.96984Z" fill="#F8D176"/>
<path d="M7.17461 2.1129L7.02292 1.69128L6.93798 2.05813L6.82129 2.03108L6.95971 1.43347L7.06375 1.45759L7.21572 1.87836L7.30045 1.51243L7.41714 1.53948L7.27877 2.13704L7.17461 2.1129Z" fill="#F8D176"/>
<path d="M7.73947 2.29761L7.64101 1.86057L7.51138 2.21401L7.39893 2.17271L7.61022 1.59692L7.71046 1.63374L7.80918 2.07003L7.93857 1.71735L8.05098 1.75864L7.83969 2.33455L7.73947 2.29761Z" fill="#F8D176"/>
<path d="M8.27687 2.26739L8.16449 2.49239L8.05811 2.43933L8.17049 2.21424L8.16718 1.80823L8.28353 1.86631L8.27563 2.1387L8.48708 1.96788L8.60343 2.02596L8.27687 2.26739Z" fill="#F8D176"/>
<path d="M7.76225 10.1402C7.75151 10.1129 7.74219 10.0881 7.73443 10.0659C7.7266 10.0437 7.72093 10.0226 7.71744 10.0027C7.71394 9.98284 7.71298 9.96355 7.71469 9.94501C7.71631 9.92652 7.72151 9.90711 7.73026 9.887C7.7419 9.86019 7.75798 9.83675 7.77847 9.81664C7.79895 9.79662 7.82581 9.78001 7.85895 9.767C7.89205 9.75399 7.92308 9.7478 7.95205 9.74846C7.98104 9.74912 8.00888 9.75519 8.03576 9.76688C8.0558 9.77569 8.07277 9.78626 8.08662 9.79873C8.10052 9.81113 8.11283 9.82594 8.12347 9.84303C8.13427 9.86012 8.14428 9.87943 8.1537 9.90099C8.16319 9.92265 8.1732 9.94705 8.18396 9.97433C8.19465 10.0016 8.2039 10.0263 8.21169 10.0485C8.21956 10.0708 8.22533 10.0918 8.22915 10.1116C8.2329 10.1313 8.23402 10.1505 8.23229 10.1691C8.23067 10.1877 8.22542 10.207 8.21673 10.2271C8.20503 10.2539 8.18886 10.2774 8.16805 10.2976C8.1473 10.3178 8.12037 10.3344 8.08719 10.3474C8.05405 10.3605 8.02313 10.3666 7.99444 10.3658C7.96583 10.3651 7.93801 10.3589 7.91119 10.3472C7.89111 10.3385 7.87412 10.3278 7.86029 10.3154C7.84644 10.3029 7.83406 10.2882 7.82302 10.2712C7.81203 10.2543 7.80181 10.235 7.79239 10.2134C7.78301 10.1918 7.77289 10.1674 7.76225 10.1402ZM7.87365 10.0963C7.88438 10.1236 7.8938 10.1459 7.90187 10.1634C7.91 10.1809 7.91745 10.195 7.92422 10.206C7.931 10.2169 7.93749 10.2253 7.94382 10.2311C7.95015 10.237 7.95711 10.2418 7.96475 10.2456C7.97635 10.2516 7.98929 10.2549 8.00349 10.2558C8.01774 10.2567 8.03258 10.2541 8.04807 10.248C8.06351 10.2419 8.07629 10.2336 8.08608 10.2234C8.09593 10.2129 8.10333 10.2016 8.10828 10.1892C8.11128 10.1812 8.11315 10.1729 8.11376 10.1643C8.11442 10.1558 8.11351 10.1452 8.11102 10.1326C8.10849 10.1199 8.10413 10.1045 8.09792 10.0863C8.09166 10.0681 8.08318 10.0453 8.07242 10.0181C8.06173 9.99083 8.05247 9.9684 8.0446 9.95087C8.03677 9.93322 8.02948 9.91916 8.02283 9.90844C8.01617 9.89776 8.00973 9.88953 8.00347 9.88372C7.99709 9.87781 7.99013 9.87308 7.98242 9.86923C7.97037 9.86359 7.95711 9.86009 7.94272 9.85897C7.9284 9.8578 7.91351 9.86028 7.89795 9.86642C7.88251 9.87251 7.86987 9.88079 7.86017 9.89145C7.85051 9.90207 7.84341 9.91351 7.83896 9.92569C7.83591 9.93369 7.83408 9.94198 7.83343 9.95054C7.83282 9.95914 7.83364 9.96959 7.83605 9.98194C7.83842 9.99425 7.84259 10.0095 7.84857 10.0279C7.85464 10.0462 7.86296 10.0691 7.87365 10.0963Z" fill="#F8D176"/>
<path d="M7.19822 9.98227L7.53275 10.2803L7.43234 9.91744L7.5477 9.8855L7.71139 10.4767L7.60838 10.5052L7.27409 10.2079L7.37431 10.5699L7.25883 10.6018L7.09521 10.0107L7.19822 9.98227Z" fill="#F8D176"/>
<path d="M6.97216 10.0302L7.06035 10.6372L6.66053 10.6953L6.64518 10.5895L6.92648 10.5487L6.90585 10.4063L6.66623 10.4411L6.65095 10.3355L6.89045 10.3006L6.86901 10.1531L6.58766 10.194L6.57227 10.0883L6.97216 10.0302Z" fill="#F8D176"/>
<path d="M5.83691 10.5282C5.83703 10.5023 5.84172 10.4778 5.85102 10.4546C5.86031 10.4313 5.87357 10.411 5.89087 10.3936C5.90816 10.3762 5.92952 10.3624 5.95481 10.3525C5.98014 10.3425 6.00855 10.3376 6.04007 10.3377L6.15815 10.3382L6.15904 10.1073L6.27876 10.1077L6.27639 10.7212L6.03864 10.7202C6.00705 10.7201 5.97859 10.715 5.95333 10.7048C5.92811 10.6947 5.90695 10.6808 5.88977 10.6633C5.87263 10.6456 5.85946 10.6252 5.85039 10.6019C5.84132 10.5785 5.83687 10.5541 5.83691 10.5282ZM5.9567 10.5286C5.95656 10.5539 5.96441 10.5743 5.98014 10.5899C5.99587 10.6055 6.01755 10.6134 6.04509 10.6134L6.15712 10.6139L6.15773 10.4459L6.0457 10.4455C6.01823 10.4454 5.99645 10.4529 5.98063 10.468C5.96479 10.4831 5.95677 10.5034 5.9567 10.5286Z" fill="#F8D176"/>
<path d="M5.75392 10.0984L5.68515 10.7079L5.28369 10.6626L5.29564 10.5565L5.57816 10.5883L5.59424 10.4453L5.35368 10.4183L5.36568 10.3121L5.60624 10.3392L5.62293 10.1911L5.34041 10.1593L5.35236 10.0531L5.75392 10.0984Z" fill="#F8D176"/>
<path d="M4.90025 9.95529L5.05193 10.3769L5.13687 10.0101L5.25357 10.0371L5.11514 10.6347L5.01111 10.6106L4.85914 10.1898L4.77441 10.5558L4.65771 10.5287L4.79609 9.93115L4.90025 9.95529Z" fill="#F8D176"/>
<path d="M4.33548 9.7706L4.43392 10.2076L4.56355 9.85421L4.676 9.8955L4.46472 10.4713L4.36447 10.4345L4.26573 9.99816L4.13633 10.3508L4.02393 10.3095L4.23521 9.73364L4.33548 9.7706Z" fill="#F8D176"/>
<path d="M3.79823 9.80081L3.91062 9.57581L4.017 9.62887L3.90462 9.85396L3.90792 10.26L3.79158 10.2019L3.79948 9.9295L3.58802 10.1003L3.47168 10.0422L3.79823 9.80081Z" fill="#F8D176"/>
<path d="M7.77803 6.42821C7.71618 6.24744 7.61614 6.09521 7.47836 5.97148C7.36869 5.86182 7.23775 5.77627 7.0855 5.7144C6.93325 5.65255 6.74043 5.60473 6.50706 5.57138L6.46206 5.56454L5.90007 5.47857C5.79081 5.46451 5.69921 5.44041 5.62532 5.40706C5.59438 5.3934 5.56546 5.37814 5.53815 5.36169C5.50039 5.33879 5.46664 5.31348 5.43613 5.28575C5.38351 5.23353 5.34695 5.17648 5.32527 5.11463C5.30399 5.05278 5.29314 4.98849 5.29314 4.92181C5.29314 4.74547 5.35621 4.59444 5.48235 4.4683C5.49962 4.45102 5.51809 4.43495 5.53818 4.42048C5.66352 4.32608 5.84146 4.27909 6.07164 4.27909C6.19656 4.27909 6.32671 4.29034 6.46208 4.31323C6.50746 4.32088 6.55328 4.32971 6.59987 4.33974C6.78545 4.38031 6.95699 4.47671 7.11404 4.62896L7.74231 4.00754C7.52338 3.79344 7.28317 3.64119 7.02125 3.55081C6.85335 3.49297 6.66657 3.4532 6.46168 3.43271C6.34721 3.42066 6.2267 3.41504 6.10016 3.41504C5.89771 3.41504 5.71011 3.43552 5.53818 3.47691C5.4759 3.49177 5.41567 3.50905 5.3574 3.52953C5.13847 3.60545 4.95289 3.7115 4.80064 3.84688C4.64839 3.98265 4.53149 4.14453 4.45077 4.33252C4.36963 4.52052 4.32946 4.72902 4.32946 4.95758C4.32946 5.39061 4.45077 5.72401 4.69339 5.957C4.80789 6.06666 4.94324 6.15584 5.10032 6.22494C5.22444 6.27917 5.36985 6.32255 5.53815 6.35429C5.58355 6.36313 5.63014 6.37116 5.67875 6.37838L6.28572 6.47117C6.35399 6.4812 6.41265 6.49205 6.46206 6.5033C6.50584 6.51376 6.5424 6.52419 6.57132 6.53544C6.63318 6.55913 6.69022 6.5949 6.74284 6.64229C6.84728 6.74712 6.89989 6.88773 6.89989 7.06367C6.89989 7.26854 6.82358 7.42559 6.67133 7.53486C6.61269 7.57745 6.5428 7.61159 6.46206 7.63728C6.33353 7.67865 6.17727 7.69913 5.99289 7.69913C5.83623 7.69913 5.68438 7.68507 5.53815 7.65695C5.46704 7.64328 5.39755 7.62641 5.32888 7.60632C5.11961 7.54447 4.934 7.43279 4.77212 7.27091L4.12939 7.91321C4.37685 8.16587 4.65161 8.34062 4.95409 8.43823C5.13404 8.49648 5.32888 8.53705 5.53857 8.56034C5.68077 8.57642 5.83021 8.58446 5.98607 8.58446C6.15156 8.58446 6.31023 8.5712 6.46208 8.54429C6.55447 8.52821 6.64445 8.50693 6.73201 8.48082C6.96299 8.41213 7.16263 8.31212 7.33175 8.18115C7.50088 8.0502 7.63302 7.88952 7.72825 7.69911C7.82345 7.5087 7.87086 7.28977 7.87086 7.04234C7.87082 6.81385 7.83988 6.60938 7.77803 6.42821Z" fill="#D9AE56"/>
<path d="M6.46199 3.44926V4.3133C6.32662 4.29041 6.19647 4.27916 6.07155 4.27916C5.84137 4.27916 5.66343 4.32615 5.53809 4.42055V3.44926C5.53809 3.19498 5.74616 2.9873 6.00004 2.9873C6.12698 2.9873 6.24266 3.03912 6.32622 3.12308C6.40656 3.20302 6.45759 3.31227 6.46159 3.43278C6.46199 3.43841 6.46199 3.44363 6.46199 3.44926Z" fill="#D9AE56"/>
<path d="M6.46199 5.56455V6.50331C6.41259 6.49206 6.35395 6.48121 6.28565 6.47118L5.67869 6.37839C5.63008 6.37115 5.58348 6.36313 5.53809 6.3543V5.36169C5.56539 5.37817 5.59431 5.39343 5.62525 5.40707C5.69917 5.44042 5.79074 5.46451 5.90001 5.47858L6.46199 5.56455Z" fill="#D9AE56"/>
<path d="M5.99282 7.69918C6.1772 7.69918 6.33346 7.6787 6.46199 7.63733V8.55078C6.46199 8.80466 6.25431 9.01274 6.00004 9.01274C5.74938 9.01274 5.54331 8.80988 5.53848 8.56041C5.53809 8.5572 5.53809 8.55399 5.53809 8.55078V7.65702C5.68431 7.68512 5.83614 7.69918 5.99282 7.69918Z" fill="#D9AE56"/>
<path d="M1.54584 6.224C1.66959 6.224 1.7699 6.12369 1.7699 5.99994C1.7699 5.8762 1.66959 5.77588 1.54584 5.77588C1.42209 5.77588 1.32178 5.8762 1.32178 5.99994C1.32178 6.12369 1.42209 6.224 1.54584 6.224Z" fill="#F8D176"/>
<path d="M10.4091 6.224C10.5329 6.224 10.6332 6.12369 10.6332 5.99994C10.6332 5.8762 10.5329 5.77588 10.4091 5.77588C10.2854 5.77588 10.1851 5.8762 10.1851 5.99994C10.1851 6.12369 10.2854 6.224 10.4091 6.224Z" fill="#F8D176"/>
<path opacity="0.06" d="M6.00293 11.9944C7.5394 11.9944 9.07589 11.4095 10.2456 10.2398C12.585 7.90045 12.585 4.09395 10.2456 1.75458C9.07587 0.584836 7.5394 0 6.00293 0V11.9944Z" fill="#040000"/>
</g>
<defs>
<clipPath id="clip0_173_1971">
<rect width="12" height="12" fill="white"/>
</clipPath>
</defs>
</svg>
