<svg width="24" height="24" viewBox="0 0 24 24" fill="none" xmlns="http://www.w3.org/2000/svg">
<path d="M12.0036 18.5503C12.9891 18.5503 13.9197 18.432 14.7954 18.1954C15.6711 17.9588 16.4798 17.6465 17.2213 17.2587C17.9629 16.8708 18.6276 16.4427 19.2155 15.9743C19.8034 15.506 20.3047 15.0364 20.7193 14.5657C21.134 14.0949 21.4511 13.6583 21.6707 13.2558C21.8902 12.8533 22 12.5276 22 12.2788C22 12.03 21.8902 11.7044 21.6707 11.3019C21.4511 10.8994 21.134 10.4627 20.7193 9.99195C20.3047 9.52116 19.8034 9.0516 19.2155 8.58325C18.6276 8.1149 17.9617 7.6868 17.2177 7.29894C16.4737 6.91109 15.6638 6.59886 14.7881 6.36224C13.9124 6.12563 12.9842 6.00732 12.0036 6.00732C11.0328 6.00732 10.1119 6.12563 9.24112 6.36224C8.37028 6.59886 7.56286 6.91109 6.81887 7.29894C6.07488 7.6868 5.40651 8.1149 4.81375 8.58325C4.221 9.0516 3.71484 9.52116 3.29528 9.99195C2.87572 10.4627 2.55494 10.8994 2.33297 11.3019C2.11099 11.7044 2 12.03 2 12.2788C2 12.5276 2.11099 12.8533 2.33297 13.2558C2.55494 13.6583 2.87572 14.0949 3.29528 14.5657C3.71484 15.0364 4.21978 15.506 4.81009 15.9743C5.40041 16.4427 6.06756 16.8708 6.81155 17.2587C7.55555 17.6465 8.36296 17.9588 9.2338 18.1954C10.1046 18.432 11.0279 18.5503 12.0036 18.5503ZM12.0036 17.3941C11.1987 17.3941 10.4254 17.2941 9.68385 17.094C8.9423 16.894 8.24709 16.6293 7.59823 16.3C6.94938 15.9707 6.3615 15.6109 5.83461 15.2206C5.30772 14.8303 4.85278 14.4437 4.46981 14.0607C4.08684 13.6777 3.7929 13.3277 3.588 13.0106C3.38309 12.6935 3.28064 12.4496 3.28064 12.2788C3.28064 12.1325 3.38309 11.908 3.588 11.6056C3.7929 11.3031 4.08684 10.9579 4.46981 10.5701C4.85278 10.1822 5.30772 9.79071 5.83461 9.39554C6.3615 9.00036 6.94938 8.63325 7.59823 8.29418C8.24709 7.95512 8.9423 7.68191 9.68385 7.47457C10.4254 7.26723 11.1987 7.16356 12.0036 7.16356C12.8037 7.16356 13.5734 7.26723 14.3125 7.47457C15.0516 7.68191 15.7456 7.95512 16.3944 8.29418C17.0433 8.63325 17.6324 9.00036 18.1617 9.39554C18.6911 9.79071 19.146 10.1822 19.5265 10.5701C19.907 10.9579 20.201 11.3031 20.4083 11.6056C20.6157 11.908 20.7193 12.1325 20.7193 12.2788C20.7193 12.4496 20.6157 12.6935 20.4083 13.0106C20.201 13.3277 19.907 13.6777 19.5265 14.0607C19.146 14.4437 18.6911 14.8303 18.1617 15.2206C17.6324 15.6109 17.0433 15.9707 16.3944 16.3C15.7456 16.6293 15.0516 16.894 14.3125 17.094C13.5734 17.2941 12.8037 17.3941 12.0036 17.3941ZM12.0036 16.3769C12.5695 16.3769 13.1013 16.2696 13.5989 16.0549C14.0966 15.8402 14.5332 15.5438 14.9089 15.1657C15.2845 14.7876 15.5784 14.351 15.7907 13.8558C16.0029 13.3606 16.109 12.835 16.109 12.2788C16.109 11.708 16.0029 11.1738 15.7907 10.6762C15.5784 10.1786 15.2845 9.74314 14.9089 9.36992C14.5332 8.99671 14.0966 8.70521 13.5989 8.49543C13.1013 8.28565 12.5695 8.18076 12.0036 8.18076C11.428 8.18076 10.8913 8.28565 10.3937 8.49543C9.89609 8.70521 9.45944 8.99671 9.08377 9.36992C8.70812 9.74314 8.41419 10.1786 8.20197 10.6762C7.98974 11.1738 7.88363 11.708 7.88363 12.2788C7.88851 12.835 7.99706 13.3606 8.20928 13.8558C8.4215 14.351 8.71544 14.7876 9.0911 15.1657C9.46673 15.5438 9.90216 15.8402 10.3974 16.0549C10.8926 16.2696 11.428 16.3769 12.0036 16.3769ZM12.0036 13.6399C11.6231 13.6399 11.2987 13.5058 11.0304 13.2375C10.762 12.9691 10.6279 12.6496 10.6279 12.2788C10.6279 11.9032 10.762 11.5824 11.0304 11.3165C11.2987 11.0506 11.6231 10.9177 12.0036 10.9177C12.3793 10.9177 12.7013 11.0506 12.9696 11.3165C13.238 11.5824 13.3721 11.9032 13.3721 12.2788C13.3721 12.6496 13.238 12.9691 12.9696 13.2375C12.7013 13.5058 12.3793 13.6399 12.0036 13.6399Z" fill="black" fill-opacity="0.54"/>
</svg>
