<svg width="24" height="24" viewBox="0 0 24 24" fill="none" xmlns="http://www.w3.org/2000/svg">
<g clip-path="url(#clip0_1159_9171)">
<path d="M12.0036 18.1249C12.6818 18.1249 13.333 18.0687 13.9575 17.9565C14.582 17.8443 15.1772 17.6906 15.7431 17.4955L14.7844 16.5368C14.3502 16.6686 13.9014 16.7734 13.438 16.8515C12.9745 16.9296 12.4964 16.9686 12.0036 16.9686C11.1987 16.9686 10.4254 16.8686 9.68385 16.6686C8.9423 16.4685 8.24709 16.2039 7.59823 15.8745C6.94938 15.5452 6.3615 15.1854 5.83461 14.7952C5.30772 14.4048 4.85278 14.0182 4.46981 13.6352C4.08684 13.2523 3.7929 12.9022 3.588 12.5852C3.38309 12.268 3.28064 12.0241 3.28064 11.8533C3.28064 11.7265 3.36236 11.5338 3.52579 11.2752C3.68923 11.0167 3.9234 10.7215 4.22831 10.3898C4.53323 10.058 4.90157 9.71406 5.33333 9.35792C5.76509 9.00178 6.25173 8.66271 6.79326 8.34072L5.88584 7.43329C5.276 7.80895 4.73081 8.20778 4.25027 8.62978C3.76973 9.05178 3.36236 9.46769 3.02817 9.87749C2.69399 10.2873 2.43908 10.6642 2.26345 11.0081C2.08782 11.3521 2 11.6338 2 11.8533C2 12.1022 2.11099 12.4278 2.33297 12.8303C2.55494 13.2328 2.87572 13.6694 3.29528 14.1402C3.71484 14.611 4.21978 15.0806 4.81009 15.5489C5.40041 16.0173 6.06756 16.4454 6.81155 16.8332C7.55555 17.2211 8.36296 17.5333 9.2338 17.7699C10.1046 18.0065 11.0279 18.1249 12.0036 18.1249ZM12.0036 5.58186C11.3645 5.58186 10.7559 5.63308 10.1778 5.73553C9.5997 5.83798 9.03987 5.97947 8.49835 6.15998L9.46431 7.11862C9.86925 7.00154 10.2803 6.90885 10.6974 6.84054C11.1145 6.77224 11.5499 6.73809 12.0036 6.73809C12.8037 6.73809 13.5746 6.84176 14.3161 7.04911C15.0576 7.25645 15.7529 7.52965 16.4018 7.86872C17.0506 8.20778 17.6385 8.5749 18.1654 8.97007C18.6923 9.36524 19.146 9.75675 19.5265 10.1446C19.907 10.5325 20.201 10.8776 20.4083 11.1801C20.6157 11.4826 20.7193 11.707 20.7193 11.8533C20.7193 12.0046 20.6425 12.2083 20.4888 12.4644C20.3351 12.7205 20.1131 13.0083 19.8229 13.3279C19.5326 13.6474 19.185 13.9755 18.7801 14.3122C18.3751 14.6488 17.919 14.9732 17.4116 15.2855L18.3117 16.1856C18.8874 15.8099 19.4033 15.4147 19.8595 15C20.3156 14.5854 20.7023 14.1793 21.0194 13.7817C21.3365 13.384 21.5792 13.0169 21.7475 12.6802C21.9158 12.3436 22 12.068 22 11.8533C22 11.6045 21.8902 11.2789 21.6707 10.8764C21.4511 10.4739 21.134 10.0373 20.7193 9.56648C20.3047 9.09569 19.8034 8.62612 19.2155 8.15777C18.6276 7.68942 17.9629 7.26132 17.2213 6.87347C16.4798 6.48562 15.6711 6.17339 14.7954 5.93677C13.9197 5.70016 12.9891 5.58186 12.0036 5.58186ZM12.0036 15.9514C12.3256 15.9514 12.6366 15.9136 12.9367 15.838C13.2367 15.7623 13.5233 15.6587 13.7965 15.527L8.30808 10.0385C8.17147 10.3117 8.06658 10.6007 7.99341 10.9057C7.92022 11.2106 7.88363 11.5265 7.88363 11.8533C7.88851 12.4095 7.99584 12.9352 8.20562 13.4304C8.4154 13.9255 8.70812 14.3622 9.08377 14.7403C9.45944 15.1184 9.89609 15.4148 10.3937 15.6294C10.8913 15.8441 11.428 15.9514 12.0036 15.9514ZM15.7578 13.456C15.87 13.212 15.9566 12.9547 16.0176 12.6839C16.0785 12.4132 16.109 12.1363 16.109 11.8533C16.109 11.2825 16.0029 10.7483 15.7907 10.2507C15.5784 9.75309 15.2845 9.31767 14.9089 8.94446C14.5332 8.57124 14.0966 8.27974 13.5989 8.06996C13.1013 7.86018 12.5695 7.75529 12.0036 7.75529C11.7158 7.75529 11.4365 7.78456 11.1657 7.8431C10.895 7.90165 10.6377 7.98458 10.3937 8.09191L15.7578 13.456ZM17.697 18.1907C17.8092 18.3029 17.9422 18.3615 18.0958 18.3663C18.2495 18.3712 18.3824 18.3127 18.4947 18.1907C18.6166 18.0687 18.6752 17.9334 18.6703 17.7846C18.6654 17.6358 18.6069 17.5052 18.4947 17.393L6.25905 5.16473C6.15172 5.0574 6.01878 5.00252 5.86022 5.00008C5.70166 4.99764 5.56628 5.05252 5.45408 5.16473C5.34674 5.27206 5.29308 5.405 5.29308 5.56356C5.29308 5.72212 5.34674 5.85506 5.45408 5.96239L17.697 18.1907Z" fill="black" fill-opacity="0.54"/>
</g>
<defs>
<clipPath id="clip0_1159_9171">
<rect width="20" height="13.6994" fill="white" transform="translate(2 5)"/>
</clipPath>
</defs>
</svg>
