<svg width="36" height="36" viewBox="0 0 36 36" fill="none" xmlns="http://www.w3.org/2000/svg">
<path d="M18 10.7083V29.6667V10.7083ZM18 10.7083H12.8438C12.084 10.7083 11.3554 10.401 10.8182 9.85406C10.281 9.30708 9.97917 8.56521 9.97917 7.79167C9.97917 7.01812 10.281 6.27625 10.8182 5.72928C11.3554 5.18229 12.084 4.875 12.8438 4.875C16.8542 4.875 18 10.7083 18 10.7083ZM18 10.7083H23.1562C23.916 10.7083 24.6446 10.401 25.1819 9.85406C25.719 9.30708 26.0208 8.56521 26.0208 7.79167C26.0208 7.01812 25.719 6.27625 25.1819 5.72928C24.6446 5.18229 23.916 4.875 23.1562 4.875C19.1458 4.875 18 10.7083 18 10.7083ZM7.79167 18H28.2083V26.4583C28.2083 28.0918 28.2083 28.9086 27.8904 29.5325C27.6109 30.0813 27.1646 30.5275 26.6158 30.8071C25.992 31.125 25.1751 31.125 23.5417 31.125H12.4583C10.8248 31.125 10.0081 31.125 9.3842 30.8071C8.83538 30.5275 8.38919 30.0813 8.10957 29.5325C7.79167 28.9086 7.79167 28.0918 7.79167 26.4583V18ZM7.20833 18H28.7917C29.6085 18 30.0168 18 30.3288 17.841C30.6032 17.7012 30.8262 17.4782 30.966 17.2038C31.125 16.8918 31.125 16.4835 31.125 15.6667V13.0417C31.125 12.2249 31.125 11.8166 30.966 11.5046C30.8262 11.2302 30.6032 11.0071 30.3288 10.8673C30.0168 10.7083 29.6085 10.7083 28.7917 10.7083H7.20833C6.39159 10.7083 5.98322 10.7083 5.67126 10.8673C5.39686 11.0071 5.17377 11.2302 5.03394 11.5046C4.875 11.8166 4.875 12.2249 4.875 13.0417V15.6667C4.875 16.4835 4.875 16.8918 5.03394 17.2038C5.17377 17.4782 5.39686 17.7012 5.67126 17.841C5.98322 18 6.39159 18 7.20833 18Z" fill="url(#paint0_linear_173_2538)"/>
<path d="M18 10.7083V29.6667M18 10.7083H12.8438C12.084 10.7083 11.3554 10.401 10.8182 9.85406C10.281 9.30708 9.97917 8.56521 9.97917 7.79167C9.97917 7.01812 10.281 6.27625 10.8182 5.72928C11.3554 5.18229 12.084 4.875 12.8438 4.875C16.8542 4.875 18 10.7083 18 10.7083ZM18 10.7083H23.1562C23.916 10.7083 24.6446 10.401 25.1819 9.85406C25.719 9.30708 26.0208 8.56521 26.0208 7.79167C26.0208 7.01812 25.719 6.27625 25.1819 5.72928C24.6446 5.18229 23.916 4.875 23.1562 4.875C19.1458 4.875 18 10.7083 18 10.7083ZM7.79167 18H28.2083V26.4583C28.2083 28.0918 28.2083 28.9086 27.8904 29.5325C27.6109 30.0813 27.1646 30.5275 26.6158 30.8071C25.992 31.125 25.1751 31.125 23.5417 31.125H12.4583C10.8248 31.125 10.0081 31.125 9.3842 30.8071C8.83538 30.5275 8.38919 30.0813 8.10957 29.5325C7.79167 28.9086 7.79167 28.0918 7.79167 26.4583V18ZM7.20833 18H28.7917C29.6085 18 30.0168 18 30.3288 17.841C30.6032 17.7012 30.8262 17.4782 30.966 17.2038C31.125 16.8918 31.125 16.4835 31.125 15.6667V13.0417C31.125 12.2249 31.125 11.8166 30.966 11.5046C30.8262 11.2302 30.6032 11.0071 30.3288 10.8673C30.0168 10.7083 29.6085 10.7083 28.7917 10.7083H7.20833C6.39159 10.7083 5.98322 10.7083 5.67126 10.8673C5.39686 11.0071 5.17377 11.2302 5.03394 11.5046C4.875 11.8166 4.875 12.2249 4.875 13.0417V15.6667C4.875 16.4835 4.875 16.8918 5.03394 17.2038C5.17377 17.4782 5.39686 17.7012 5.67126 17.841C5.98322 18 6.39159 18 7.20833 18Z" stroke="black" stroke-width="1.16667" stroke-linecap="round" stroke-linejoin="round"/>
<defs>
<linearGradient id="paint0_linear_173_2538" x1="30.8333" y1="5.16667" x2="5.16667" y2="30.8333" gradientUnits="userSpaceOnUse">
<stop stop-color="#00A0FA"/>
<stop offset="1" stop-color="#93CFF0"/>
</linearGradient>
</defs>
</svg>
