<svg width="28" height="30" viewBox="0 0 28 30" fill="none" xmlns="http://www.w3.org/2000/svg">
<g filter="url(#filter0_d_197_9229)">
<path d="M14 7V20ZM14 7H10.4643C9.94332 7 9.4437 6.78929 9.07533 6.41421C8.70695 6.03914 8.5 5.53043 8.5 5C8.5 4.46957 8.70695 3.96086 9.07533 3.58579C9.4437 3.21071 9.94332 3 10.4643 3C13.2143 3 14 7 14 7ZM14 7H17.5357C18.0567 7 18.5563 6.78929 18.9247 6.41421C19.293 6.03914 19.5 5.53043 19.5 5C19.5 4.46957 19.293 3.96086 18.9247 3.58579C18.5563 3.21071 18.0567 3 17.5357 3C14.7857 3 14 7 14 7ZM7 12H21V17.8C21 18.9201 21 19.4802 20.782 19.908C20.5903 20.2843 20.2843 20.5903 19.908 20.782C19.4802 21 18.9201 21 17.8 21H10.2C9.07989 21 8.51984 21 8.09202 20.782C7.71569 20.5903 7.40973 20.2843 7.21799 19.908C7 19.4802 7 18.9201 7 17.8V12ZM6.6 12H21.4C21.9601 12 22.2401 12 22.454 11.891C22.6422 11.7951 22.7951 11.6422 22.891 11.454C23 11.2401 23 10.9601 23 10.4V8.6C23 8.03995 23 7.75992 22.891 7.54601C22.7951 7.35785 22.6422 7.20487 22.454 7.10899C22.2401 7 21.9601 7 21.4 7H6.6C6.03995 7 5.75992 7 5.54601 7.10899C5.35785 7.20487 5.20487 7.35785 5.10899 7.54601C5 7.75992 5 8.03995 5 8.6V10.4C5 10.9601 5 11.2401 5.10899 11.454C5.20487 11.6422 5.35785 11.7951 5.54601 11.891C5.75992 12 6.03995 12 6.6 12Z" fill="white"/>
<path d="M14 7V20M14 7H10.4643C9.94332 7 9.4437 6.78929 9.07533 6.41421C8.70695 6.03914 8.5 5.53043 8.5 5C8.5 4.46957 8.70695 3.96086 9.07533 3.58579C9.4437 3.21071 9.94332 3 10.4643 3C13.2143 3 14 7 14 7ZM14 7H17.5357C18.0567 7 18.5563 6.78929 18.9247 6.41421C19.293 6.03914 19.5 5.53043 19.5 5C19.5 4.46957 19.293 3.96086 18.9247 3.58579C18.5563 3.21071 18.0567 3 17.5357 3C14.7857 3 14 7 14 7ZM7 12H21V17.8C21 18.9201 21 19.4802 20.782 19.908C20.5903 20.2843 20.2843 20.5903 19.908 20.782C19.4802 21 18.9201 21 17.8 21H10.2C9.07989 21 8.51984 21 8.09202 20.782C7.71569 20.5903 7.40973 20.2843 7.21799 19.908C7 19.4802 7 18.9201 7 17.8V12ZM6.6 12H21.4C21.9601 12 22.2401 12 22.454 11.891C22.6422 11.7951 22.7951 11.6422 22.891 11.454C23 11.2401 23 10.9601 23 10.4V8.6C23 8.03995 23 7.75992 22.891 7.54601C22.7951 7.35785 22.6422 7.20487 22.454 7.10899C22.2401 7 21.9601 7 21.4 7H6.6C6.03995 7 5.75992 7 5.54601 7.10899C5.35785 7.20487 5.20487 7.35785 5.10899 7.54601C5 7.75992 5 8.03995 5 8.6V10.4C5 10.9601 5 11.2401 5.10899 11.454C5.20487 11.6422 5.35785 11.7951 5.54601 11.891C5.75992 12 6.03995 12 6.6 12Z" stroke="#3F195A" stroke-width="0.8" stroke-linecap="round" stroke-linejoin="round"/>
</g>
<defs>
<filter id="filter0_d_197_9229" x="-2" y="0" width="32" height="32" filterUnits="userSpaceOnUse" color-interpolation-filters="sRGB">
<feFlood flood-opacity="0" result="BackgroundImageFix"/>
<feColorMatrix in="SourceAlpha" type="matrix" values="0 0 0 0 0 0 0 0 0 0 0 0 0 0 0 0 0 0 127 0" result="hardAlpha"/>
<feOffset dy="4"/>
<feGaussianBlur stdDeviation="2"/>
<feComposite in2="hardAlpha" operator="out"/>
<feColorMatrix type="matrix" values="0 0 0 0 0 0 0 0 0 0 0 0 0 0 0 0 0 0 0.25 0"/>
<feBlend mode="normal" in2="BackgroundImageFix" result="effect1_dropShadow_197_9229"/>
<feBlend mode="normal" in="SourceGraphic" in2="effect1_dropShadow_197_9229" result="shape"/>
</filter>
</defs>
</svg>
