<svg width="26" height="26" viewBox="0 0 26 26" fill="none" xmlns="http://www.w3.org/2000/svg">
<path d="M12.4456 3.40039C8.32101 3.40441 6.18694 3.4782 4.83306 4.83208C3.47918 6.18596 3.40539 8.32003 3.40137 12.4447H8.2057C7.86253 12.016 7.60611 11.5104 7.46629 10.951C6.94 8.84589 8.84687 6.93903 10.9521 7.46532C11.5113 7.60514 12.0169 7.86155 12.4456 8.20472V3.40039Z" fill="#333333"/>
<path d="M3.40137 13.9121C3.40539 18.0367 3.47918 20.1707 4.83306 21.5246C6.18694 22.8784 8.32101 22.9523 12.4456 22.9563V15.2552C11.6832 16.7779 10.1087 17.8232 8.29002 17.8232C7.88502 17.8232 7.55669 17.4949 7.55669 17.0899C7.55669 16.6849 7.88502 16.3566 8.29002 16.3566C9.79266 16.3566 11.0517 15.3136 11.3828 13.9121H3.40137Z" fill="#333333"/>
<path d="M13.9126 22.9563C18.0372 22.9523 20.1712 22.8784 21.5251 21.5246C22.8789 20.1707 22.9527 18.0367 22.9567 13.9121H14.9753C15.3064 15.3136 16.5655 16.3566 18.0682 16.3566C18.4731 16.3566 18.8015 16.6849 18.8015 17.0899C18.8015 17.4949 18.4731 17.8232 18.0682 17.8232C16.2494 17.8232 14.6749 16.7779 13.9126 15.2552V22.9563Z" fill="#333333"/>
<path d="M22.9567 12.4447C22.9527 8.32003 22.8789 6.18596 21.5251 4.83208C20.1712 3.4782 18.0372 3.40441 13.9126 3.40039V8.20472C14.3413 7.86155 14.8469 7.60514 15.4061 7.46532C17.5113 6.93903 19.4182 8.84589 18.8918 10.951C18.752 11.5104 18.4956 12.016 18.1524 12.4447H22.9567Z" fill="#333333"/>
<path d="M10.5962 8.88902C11.683 9.16072 12.4454 10.1372 12.4454 11.2575V12.4455H11.2574C10.1372 12.4455 9.16072 11.683 8.88902 10.5961C8.63126 9.56516 9.56516 8.63126 10.5962 8.88902Z" fill="#333333"/>
<path d="M13.9126 11.2575V12.4455H15.1005C16.2207 12.4455 17.1972 11.683 17.469 10.5961C17.7267 9.56516 16.7928 8.63126 15.7619 8.88902C14.675 9.16072 13.9126 10.1372 13.9126 11.2575Z" fill="#333333"/>
</svg>
