<svg width="35" height="36" viewBox="0 0 35 36" fill="none" xmlns="http://www.w3.org/2000/svg">
<path d="M17.5 10.7083V29.6667ZM17.5 10.7083H12.3438C11.584 10.7083 10.8554 10.401 10.3182 9.85406C9.78097 9.30708 9.47917 8.56521 9.47917 7.79167C9.47917 7.01812 9.78097 6.27625 10.3182 5.72928C10.8554 5.18229 11.584 4.875 12.3438 4.875C16.3542 4.875 17.5 10.7083 17.5 10.7083ZM17.5 10.7083H22.6562C23.416 10.7083 24.1446 10.401 24.6819 9.85406C25.219 9.30708 25.5208 8.56521 25.5208 7.79167C25.5208 7.01812 25.219 6.27625 24.6819 5.72928C24.1446 5.18229 23.416 4.875 22.6562 4.875C18.6458 4.875 17.5 10.7083 17.5 10.7083ZM7.29167 18H27.7083V26.4583C27.7083 28.0918 27.7083 28.9086 27.3904 29.5325C27.1109 30.0813 26.6646 30.5275 26.1158 30.8071C25.492 31.125 24.6751 31.125 23.0417 31.125H11.9583C10.3248 31.125 9.5081 31.125 8.8842 30.8071C8.33538 30.5275 7.88919 30.0813 7.60957 29.5325C7.29167 28.9086 7.29167 28.0918 7.29167 26.4583V18ZM6.70833 18H28.2917C29.1085 18 29.5168 18 29.8288 17.841C30.1032 17.7012 30.3262 17.4782 30.466 17.2038C30.625 16.8918 30.625 16.4835 30.625 15.6667V13.0417C30.625 12.2249 30.625 11.8166 30.466 11.5046C30.3262 11.2302 30.1032 11.0071 29.8288 10.8673C29.5168 10.7083 29.1085 10.7083 28.2917 10.7083H6.70833C5.89159 10.7083 5.48322 10.7083 5.17126 10.8673C4.89686 11.0071 4.67377 11.2302 4.53394 11.5046C4.375 11.8166 4.375 12.2249 4.375 13.0417V15.6667C4.375 16.4835 4.375 16.8918 4.53394 17.2038C4.67377 17.4782 4.89686 17.7012 5.17126 17.841C5.48322 18 5.89159 18 6.70833 18Z" fill="white"/>
<path d="M17.5 10.7083V29.6667M17.5 10.7083H12.3438C11.584 10.7083 10.8554 10.401 10.3182 9.85406C9.78097 9.30708 9.47917 8.56521 9.47917 7.79167C9.47917 7.01812 9.78097 6.27625 10.3182 5.72928C10.8554 5.18229 11.584 4.875 12.3438 4.875C16.3542 4.875 17.5 10.7083 17.5 10.7083ZM17.5 10.7083H22.6562C23.416 10.7083 24.1446 10.401 24.6819 9.85406C25.219 9.30708 25.5208 8.56521 25.5208 7.79167C25.5208 7.01812 25.219 6.27625 24.6819 5.72928C24.1446 5.18229 23.416 4.875 22.6562 4.875C18.6458 4.875 17.5 10.7083 17.5 10.7083ZM7.29167 18H27.7083V26.4583C27.7083 28.0918 27.7083 28.9086 27.3904 29.5325C27.1109 30.0813 26.6646 30.5275 26.1158 30.8071C25.492 31.125 24.6751 31.125 23.0417 31.125H11.9583C10.3248 31.125 9.5081 31.125 8.8842 30.8071C8.33538 30.5275 7.88919 30.0813 7.60957 29.5325C7.29167 28.9086 7.29167 28.0918 7.29167 26.4583V18ZM6.70833 18H28.2917C29.1085 18 29.5168 18 29.8288 17.841C30.1032 17.7012 30.3262 17.4782 30.466 17.2038C30.625 16.8918 30.625 16.4835 30.625 15.6667V13.0417C30.625 12.2249 30.625 11.8166 30.466 11.5046C30.3262 11.2302 30.1032 11.0071 29.8288 10.8673C29.5168 10.7083 29.1085 10.7083 28.2917 10.7083H6.70833C5.89159 10.7083 5.48322 10.7083 5.17126 10.8673C4.89686 11.0071 4.67377 11.2302 4.53394 11.5046C4.375 11.8166 4.375 12.2249 4.375 13.0417V15.6667C4.375 16.4835 4.375 16.8918 4.53394 17.2038C4.67377 17.4782 4.89686 17.7012 5.17126 17.841C5.48322 18 5.89159 18 6.70833 18Z" stroke="#00A0FA" stroke-width="1.16667" stroke-linecap="round" stroke-linejoin="round"/>
</svg>
