<svg width="25" height="25" viewBox="0 0 25 25" fill="none" xmlns="http://www.w3.org/2000/svg">
<path d="M11.9329 2.68286C7.71456 2.68697 5.53199 2.76244 4.14734 4.14709C2.76269 5.53174 2.68722 7.71431 2.68311 11.9327H7.59663C7.24566 11.4943 6.98342 10.9772 6.84042 10.4051C6.30217 8.25212 8.25237 6.30192 10.4054 6.84017C10.9774 6.98317 11.4945 7.24541 11.9329 7.59638V2.68286Z" fill="white"/>
<path d="M2.68311 13.4326C2.68722 17.6509 2.76269 19.8334 4.14734 21.2181C5.53199 22.6027 7.71456 22.6782 11.9329 22.6823V14.8062C11.1532 16.3635 9.54291 17.4326 7.68287 17.4326C7.26866 17.4326 6.93287 17.0968 6.93287 16.6826C6.93287 16.2684 7.26866 15.9326 7.68287 15.9326C9.21966 15.9326 10.5073 14.8659 10.8459 13.4326H2.68311Z" fill="white"/>
<path d="M13.4331 22.6823C17.6514 22.6782 19.8339 22.6027 21.2186 21.2181C22.6032 19.8334 22.6787 17.6509 22.6828 13.4326H14.52C14.8586 14.8659 16.1463 15.9326 17.6831 15.9326C18.0973 15.9326 18.4331 16.2684 18.4331 16.6826C18.4331 17.0968 18.0973 17.4326 17.6831 17.4326C15.823 17.4326 14.2127 16.3635 13.4331 14.8062V22.6823Z" fill="white"/>
<path d="M22.6828 11.9327C22.6787 7.71431 22.6032 5.53174 21.2186 4.14709C19.8339 2.76244 17.6514 2.68697 13.4331 2.68286V7.59638C13.8715 7.24541 14.3886 6.98317 14.9605 6.84017C17.1136 6.30192 19.0638 8.25212 18.5255 10.4051C18.3825 10.9772 18.1203 11.4943 17.7693 11.9327H22.6828Z" fill="white"/>
<path d="M10.0417 8.29527C11.1532 8.57315 11.933 9.57186 11.933 10.7176V11.9326H10.718C9.57235 11.9326 8.57364 11.1528 8.29576 10.0412C8.03215 8.98678 8.98727 8.03166 10.0417 8.29527Z" fill="white"/>
<path d="M13.4331 10.7176V11.9326H14.648C15.7937 11.9326 16.7924 11.1528 17.0703 10.0412C17.3339 8.98678 16.3788 8.03166 15.3244 8.29527C14.2128 8.57315 13.4331 9.57186 13.4331 10.7176Z" fill="white"/>
</svg>
