<svg width="32" height="32" viewBox="0 0 32 32" fill="none" xmlns="http://www.w3.org/2000/svg">
<circle cx="16" cy="16" r="16" fill="#4A2160"/>
<path d="M16 11.4167V23.3333ZM16 11.4167H12.7589C12.2814 11.4167 11.8234 11.2235 11.4857 10.8797C11.148 10.5359 10.9583 10.0696 10.9583 9.58333C10.9583 9.09711 11.148 8.63079 11.4857 8.28697C11.8234 7.94315 12.2814 7.75 12.7589 7.75C15.2798 7.75 16 11.4167 16 11.4167ZM16 11.4167H19.2411C19.7186 11.4167 20.1766 11.2235 20.5143 10.8797C20.8519 10.5359 21.0417 10.0696 21.0417 9.58333C21.0417 9.09711 20.8519 8.63079 20.5143 8.28697C20.1766 7.94315 19.7186 7.75 19.2411 7.75C16.7202 7.75 16 11.4167 16 11.4167ZM9.58333 16H22.4167V21.3167C22.4167 22.3434 22.4167 22.8569 22.2168 23.249C22.0411 23.5939 21.7606 23.8744 21.4157 24.0502C21.0235 24.25 20.5101 24.25 19.4833 24.25H12.5167C11.4899 24.25 10.9765 24.25 10.5844 24.0502C10.2394 23.8744 9.95892 23.5939 9.78316 23.249C9.58333 22.8569 9.58333 22.3434 9.58333 21.3167V16ZM9.21667 16H22.7833C23.2968 16 23.5534 16 23.7495 15.9001C23.922 15.8122 24.0622 15.672 24.1501 15.4995C24.25 15.3034 24.25 15.0468 24.25 14.5333V12.8833C24.25 12.37 24.25 12.1133 24.1501 11.9172C24.0622 11.7447 23.922 11.6045 23.7495 11.5166C23.5534 11.4167 23.2968 11.4167 22.7833 11.4167H9.21667C8.70329 11.4167 8.44659 11.4167 8.25051 11.5166C8.07803 11.6045 7.9378 11.7447 7.84991 11.9172C7.75 12.1133 7.75 12.37 7.75 12.8833V14.5333C7.75 15.0468 7.75 15.3034 7.84991 15.4995C7.9378 15.672 8.07803 15.8122 8.25051 15.9001C8.44659 16 8.70329 16 9.21667 16Z" fill="white"/>
<path d="M16 11.4167V23.3333M16 11.4167H12.7589C12.2814 11.4167 11.8234 11.2235 11.4857 10.8797C11.148 10.5359 10.9583 10.0696 10.9583 9.58333C10.9583 9.09711 11.148 8.63079 11.4857 8.28697C11.8234 7.94315 12.2814 7.75 12.7589 7.75C15.2798 7.75 16 11.4167 16 11.4167ZM16 11.4167H19.2411C19.7186 11.4167 20.1766 11.2235 20.5143 10.8797C20.8519 10.5359 21.0417 10.0696 21.0417 9.58333C21.0417 9.09711 20.8519 8.63079 20.5143 8.28697C20.1766 7.94315 19.7186 7.75 19.2411 7.75C16.7202 7.75 16 11.4167 16 11.4167ZM9.58333 16H22.4167V21.3167C22.4167 22.3434 22.4167 22.8569 22.2168 23.249C22.0411 23.5939 21.7606 23.8744 21.4157 24.0502C21.0235 24.25 20.5101 24.25 19.4833 24.25H12.5167C11.4899 24.25 10.9765 24.25 10.5844 24.0502C10.2394 23.8744 9.95892 23.5939 9.78316 23.249C9.58333 22.8569 9.58333 22.3434 9.58333 21.3167V16ZM9.21667 16H22.7833C23.2968 16 23.5534 16 23.7495 15.9001C23.922 15.8122 24.0622 15.672 24.1501 15.4995C24.25 15.3034 24.25 15.0468 24.25 14.5333V12.8833C24.25 12.37 24.25 12.1133 24.1501 11.9172C24.0622 11.7447 23.922 11.6045 23.7495 11.5166C23.5534 11.4167 23.2968 11.4167 22.7833 11.4167H9.21667C8.70329 11.4167 8.44659 11.4167 8.25051 11.5166C8.07803 11.6045 7.9378 11.7447 7.84991 11.9172C7.75 12.1133 7.75 12.37 7.75 12.8833V14.5333C7.75 15.0468 7.75 15.3034 7.84991 15.4995C7.9378 15.672 8.07803 15.8122 8.25051 15.9001C8.44659 16 8.70329 16 9.21667 16Z" stroke="#4A2160" stroke-width="0.733333" stroke-linecap="round" stroke-linejoin="round"/>
</svg>
