<svg width="24" height="24" viewBox="0 0 24 24" fill="none" xmlns="http://www.w3.org/2000/svg">
<circle cx="12" cy="12" r="11" stroke="#4A2160" stroke-width="2"/>
<path d="M12.8695 7.16988C12.6295 7.40988 12.3415 7.52988 12.0055 7.52988C11.6695 7.52988 11.3755 7.40988 11.1235 7.16988C10.8835 6.91788 10.7635 6.62388 10.7635 6.28788C10.7635 5.95188 10.8835 5.66388 11.1235 5.42388C11.3635 5.17188 11.6575 5.04588 12.0055 5.04588C12.3535 5.04588 12.6475 5.17188 12.8875 5.42388C13.1275 5.66388 13.2475 5.95188 13.2475 6.28788C13.2475 6.62388 13.1215 6.91788 12.8695 7.16988ZM12.9775 17.8799H11.0335V8.87988H12.9775V17.8799Z" fill="#4A2160"/>
</svg>
