<svg width="24" height="24" viewBox="0 0 24 24" fill="none" xmlns="http://www.w3.org/2000/svg">
<circle cx="12" cy="12" r="11" stroke="black" stroke-width="2"/>
<path d="M12.8594 19H11.1494V9.586H12.8594V19ZM11.9954 8.038C11.6954 8.038 11.4374 7.936 11.2214 7.732C11.0054 7.516 10.8974 7.258 10.8974 6.958C10.8974 6.646 11.0054 6.382 11.2214 6.166C11.4374 5.95 11.6954 5.842 11.9954 5.842C12.2954 5.842 12.5534 5.95 12.7694 6.166C12.9854 6.382 13.0934 6.646 13.0934 6.958C13.0934 7.258 12.9854 7.516 12.7694 7.732C12.5534 7.936 12.2954 8.038 11.9954 8.038Z" fill="black"/>
</svg>
