<svg width="24" height="24" viewBox="0 0 24 24" fill="none" xmlns="http://www.w3.org/2000/svg">
<path d="M18.0026 8.40112C18.0026 6.70343 17.3704 5.07529 16.2449 3.87485C15.1195 2.6744 13.5932 2 12.0016 2C10.41 2 8.88361 2.6744 7.75819 3.87485C6.63278 5.07529 6.00053 6.70343 6.00053 8.40112C6.00053 15.8691 3 18.0028 3 18.0028H21.0032C21.0032 18.0028 18.0026 15.8691 18.0026 8.40112Z" fill="#034AA6" stroke="#034AA6" stroke-width="1.50026" stroke-linecap="round" stroke-linejoin="round"/>
<path d="M13.7316 21.0029C13.5558 21.3061 13.3034 21.5577 12.9997 21.7326C12.696 21.9075 12.3518 21.9996 12.0013 21.9996C11.6508 21.9996 11.3066 21.9075 11.0029 21.7326C10.6993 21.5577 10.4468 21.3061 10.271 21.0029" fill="#034AA6"/>
<path d="M13.7316 21.0029C13.5558 21.3061 13.3034 21.5577 12.9997 21.7326C12.696 21.9075 12.3518 21.9996 12.0013 21.9996C11.6508 21.9996 11.3066 21.9075 11.0029 21.7326C10.6993 21.5577 10.4468 21.3061 10.271 21.0029" stroke="#034AA6" stroke-width="1.50026" stroke-linecap="round" stroke-linejoin="round"/>
</svg>
