<svg width="24" height="24" viewBox="0 0 24 24" fill="none" xmlns="http://www.w3.org/2000/svg">
<path d="M17.4028 8.76112C17.4028 7.23317 16.8338 5.76781 15.8208 4.6874C14.808 3.60697 13.4342 3 12.0018 3C10.5694 3 9.19564 3.60697 8.18277 4.6874C7.16989 5.76781 6.60086 7.23317 6.60086 8.76112C6.60086 15.4825 3.90039 17.4028 3.90039 17.4028H20.1032C20.1032 17.4028 17.4028 15.4825 17.4028 8.76112Z" fill="black" stroke="black" stroke-width="1.35025" stroke-linecap="round" stroke-linejoin="round"/>
<path d="M13.5589 20.1025C13.4006 20.3754 13.1735 20.6019 12.9001 20.7592C12.6269 20.9167 12.317 20.9996 12.0016 20.9996C11.6862 20.9996 11.3764 20.9167 11.1031 20.7592C10.8298 20.6019 10.6026 20.3754 10.4443 20.1025" fill="black"/>
<path d="M13.5589 20.1025C13.4006 20.3754 13.1735 20.6019 12.9001 20.7592C12.6269 20.9167 12.317 20.9996 12.0016 20.9996C11.6862 20.9996 11.3764 20.9167 11.1031 20.7592C10.8298 20.6019 10.6026 20.3754 10.4443 20.1025" stroke="black" stroke-width="1.35025" stroke-linecap="round" stroke-linejoin="round"/>
</svg>
