<svg width="18" height="18" viewBox="0 0 18 18" fill="none" xmlns="http://www.w3.org/2000/svg">
<path fill-rule="evenodd" clip-rule="evenodd" d="M9 13.5C11.071 13.5 12.75 11.821 12.75 9.75C12.75 7.67895 11.071 6 9 6C6.92893 6 5.25 7.67895 5.25 9.75C5.25 11.821 6.92893 13.5 9 13.5ZM9 12.0053C7.7544 12.0053 6.74467 10.9956 6.74467 9.75C6.74467 8.5044 7.7544 7.49467 9 7.49467C10.2456 7.49467 11.2553 8.5044 11.2553 9.75C11.2553 10.9956 10.2456 12.0053 9 12.0053Z" fill="white"/>
<path fill-rule="evenodd" clip-rule="evenodd" d="M7.17116 1.5C6.13871 1.5 5.23875 2.20267 4.98834 3.20429L4.66442 4.5H3C1.75736 4.5 0.75 5.50736 0.75 6.75V14.25C0.75 15.4927 1.75736 16.5 3 16.5H15C16.2427 16.5 17.25 15.4927 17.25 14.25V6.75C17.25 5.50736 16.2427 4.5 15 4.5H13.3356L13.0117 3.20429C12.7612 2.20267 11.8613 1.5 10.8288 1.5H7.17116ZM6.44356 3.56809C6.52702 3.23422 6.82701 3 7.17116 3H10.8288C11.173 3 11.473 3.23422 11.5564 3.56809L11.8804 4.8638C12.0473 5.53156 12.6473 6 13.3356 6H15C15.4142 6 15.75 6.33579 15.75 6.75V14.25C15.75 14.6642 15.4142 15 15 15H3C2.58579 15 2.25 14.6642 2.25 14.25V6.75C2.25 6.33579 2.58579 6 3 6H4.66442C5.35272 6 5.95269 5.53156 6.11963 4.8638L6.44356 3.56809Z" fill="white"/>
</svg>
