<svg width="22" height="22" viewBox="0 0 22 22" fill="none" xmlns="http://www.w3.org/2000/svg">
<g clip-path="url(#clip0_1102_1714)">
<path d="M11 10.7835C13.2014 10.7835 14.9862 8.61584 14.9862 5.94182C14.9862 3.26775 14.4002 1.10004 11 1.10004C7.59975 1.10004 7.01367 3.26775 7.01367 5.94182C7.01367 8.61584 8.79844 10.7835 11 10.7835Z" fill="#994BDB"/>
<path d="M3.471 18.1762C3.47032 18.0132 3.46964 18.1303 3.471 18.1762Z" fill="#994BDB"/>
<path d="M18.5288 18.3036C18.531 18.259 18.5295 17.994 18.5288 18.3036Z" fill="#994BDB"/>
<path d="M18.5202 17.9807C18.4464 13.3225 17.838 11.9952 13.1826 11.155C13.1826 11.155 12.5273 11.99 10.9999 11.99C9.47242 11.99 8.81699 11.155 8.81699 11.155C4.21235 11.986 3.56699 13.2937 3.48213 17.8294C3.47517 18.1998 3.47195 18.2192 3.4707 18.1762C3.47099 18.2568 3.47133 18.4058 3.47133 18.6656C3.47133 18.6656 4.57967 20.9 10.9999 20.9C17.4199 20.9 18.5284 18.6656 18.5284 18.6656C18.5284 18.4987 18.5285 18.3826 18.5287 18.3036C18.5274 18.3302 18.5249 18.2787 18.5202 17.9807Z" fill="#994BDB"/>
</g>
<defs>
<clipPath id="clip0_1102_1714">
<rect width="19.8" height="19.8" fill="white" transform="translate(1.1001 1.1)"/>
</clipPath>
</defs>
</svg>
