<svg width="21" height="20" viewBox="0 0 21 20" fill="none" xmlns="http://www.w3.org/2000/svg">
<g clip-path="url(#clip0_1187_22966)">
<path d="M0.304616 16.8593L1.14809 13.3828C1.26774 12.8897 1.58883 12.4624 2.0291 12.2103L5.298 10.3386C5.56062 10.1883 5.56121 9.80948 5.298 9.65881L2.02907 7.78714C1.58879 7.53507 1.2677 7.10776 1.14805 6.61472L0.304616 3.13804C-0.0588993 1.63977 1.45942 0.377659 2.8659 1.00781L19.1534 8.30585C20.6164 8.96139 20.6146 11.0368 19.1534 11.6916L2.8659 18.9896C1.45832 19.6202 -0.0582743 18.3549 0.304616 16.8593Z" fill="#333333"/>
<path d="M19.1534 8.30562L10.2505 4.31641V15.6806L19.1535 11.6914C20.6146 11.0366 20.6166 8.96112 19.1534 8.30562Z" fill="#333333"/>
<path d="M7.55488 12.8806C7.38961 12.5118 7.55465 12.0789 7.9234 11.9137L12.1957 9.99941L7.9234 8.08511C7.55465 7.91992 7.38961 7.48699 7.55488 7.11824C7.72008 6.74949 8.15289 6.58441 8.52176 6.74973L14.2842 9.33175C14.8595 9.58949 14.8599 10.4092 14.2842 10.6671L8.52176 13.2492C8.15309 13.4143 7.7202 13.2495 7.55488 12.8806Z" fill="white"/>
<path d="M14.284 9.33273L10.2505 7.52539V9.1289L12.1954 10.0004L10.2505 10.8719V12.4755L14.284 10.6681C14.8597 10.4102 14.8593 9.5905 14.284 9.33273Z" fill="white"/>
</g>
<defs>
<clipPath id="clip0_1187_22966">
<rect width="20" height="20" fill="white" transform="translate(0.25)"/>
</clipPath>
</defs>
</svg>
