<svg width="24" height="24" viewBox="0 0 24 24" fill="none" xmlns="http://www.w3.org/2000/svg">
<path d="M11.9998 14.6998C13.491 14.6998 14.6998 13.491 14.6998 11.9998C14.6998 10.5086 13.491 9.2998 11.9998 9.2998C10.5086 9.2998 9.2998 10.5086 9.2998 11.9998C9.2998 13.491 10.5086 14.6998 11.9998 14.6998Z" stroke="black" stroke-width="1.35" stroke-linecap="round" stroke-linejoin="round"/>
<path d="M18.8602 10.5559L17.8722 8.17032L19.2 6.6L17.4 4.8L15.8382 6.13466L13.402 5.13277L12.8418 3H11.0829L10.5142 5.16102L8.13397 6.16437L6.6 4.8L4.8 6.6L6.10803 8.20997L5.13525 10.6017L3 11.1V12.9L5.161 13.49L6.16418 15.8697L4.8 17.4L6.6 19.2L8.21204 17.8863L10.5573 18.8511L11.1 21H12.9L13.4441 18.8519L15.8296 17.864C16.2272 18.1482 17.4 19.2 17.4 19.2L19.2 17.4L17.8643 15.8245L18.8525 13.4382L20.9999 12.8795L21 11.1L18.8602 10.5559Z" stroke="black" stroke-width="1.35" stroke-linecap="round" stroke-linejoin="round"/>
</svg>
