<svg width="32" height="32" viewBox="0 0 32 32" fill="none" xmlns="http://www.w3.org/2000/svg">
<g clip-path="url(#clip0_1186_19350)">
<path d="M19.8833 9.27686H10.1275C9.2635 9.27686 8.56601 9.52585 8.03502 10.0239C7.50402 10.5218 7.23853 11.2208 7.23853 12.1208V16.1258C8.03652 16.1258 8.78651 16.2773 9.4885 16.5802C10.1905 16.8833 10.8085 17.3018 11.3425 17.8357C11.8765 18.3698 12.2935 18.9878 12.5935 19.6898C12.8935 20.3917 13.0435 21.1417 13.0435 21.9398C13.0435 22.2757 13.015 22.6087 12.958 22.9387C12.901 23.2687 12.8155 23.5867 12.7015 23.8927H19.7934C20.6994 23.8927 21.4074 23.6437 21.9174 23.1457C22.4274 22.6477 22.6824 21.9457 22.6824 21.0397V12.1208C22.6824 11.2208 22.4424 10.5218 21.9624 10.0239C21.4823 9.52585 20.7893 9.27686 19.8833 9.27686ZM23.9064 19.2398L27.1823 22.0748C27.3383 22.2067 27.5018 22.3132 27.6728 22.3942C27.8438 22.4752 28.0103 22.5157 28.1723 22.5157C28.5203 22.5157 28.8008 22.4002 29.0138 22.1692C29.2268 21.9382 29.3332 21.6367 29.3332 21.2647V11.9048C29.3332 11.5328 29.2268 11.2313 29.0138 11.0003C28.8008 10.7693 28.5203 10.6538 28.1723 10.6538C28.0103 10.6538 27.8438 10.6928 27.6728 10.7708C27.5018 10.8488 27.3383 10.9568 27.1823 11.0948L23.9064 13.9208V19.2398Z" fill="#034AA6"/>
<path d="M7.23858 26.5121C7.85657 26.5121 8.44156 26.3921 8.99355 26.1521C9.54555 25.9121 10.033 25.5821 10.456 25.1621C10.879 24.7421 11.2105 24.2561 11.4505 23.7041C11.6905 23.1521 11.8105 22.5641 11.8105 21.9402C11.8105 21.3102 11.692 20.7192 11.455 20.1671C11.218 19.6152 10.8895 19.1292 10.4695 18.7092C10.0495 18.2892 9.56355 17.9607 9.01156 17.7237C8.45957 17.4867 7.86857 17.3682 7.23858 17.3682C6.61458 17.3682 6.02659 17.4867 5.4746 17.7237C4.9226 17.9607 4.43661 18.2907 4.01661 18.7137C3.59661 19.1367 3.26662 19.6227 3.02662 20.1716C2.78662 20.7207 2.66663 21.3102 2.66663 21.9402C2.66663 22.5702 2.78662 23.1612 3.02662 23.7131C3.26662 24.2651 3.59661 24.7511 4.01661 25.1711C4.43661 25.5911 4.9226 25.9196 5.4746 26.1566C6.02659 26.3936 6.61458 26.5121 7.23858 26.5121Z" fill="#FCE872"/>
<path d="M7.23856 24.8015C7.07056 24.8015 6.93706 24.7505 6.83806 24.6486C6.73906 24.5466 6.68956 24.4146 6.68956 24.2525V22.4886H4.92558C4.76358 22.4886 4.63158 22.4391 4.52958 22.3401C4.42758 22.2411 4.37659 22.1076 4.37659 21.9396C4.37659 21.7716 4.42758 21.6381 4.52958 21.5391C4.63158 21.4401 4.76358 21.3906 4.92558 21.3906H6.68956V19.6266C6.68956 19.4646 6.73906 19.3326 6.83806 19.2306C6.93706 19.1286 7.07056 19.0776 7.23856 19.0776C7.40656 19.0776 7.54006 19.1286 7.63905 19.2306C7.73805 19.3326 7.78755 19.4646 7.78755 19.6266V21.3906H9.55153C9.71353 21.3906 9.84553 21.4401 9.94752 21.5391C10.0495 21.6381 10.1005 21.7716 10.1005 21.9396C10.1005 22.1076 10.0495 22.2411 9.94752 22.3401C9.84553 22.4391 9.71353 22.4886 9.55153 22.4886H7.78755V24.2525C7.78755 24.4146 7.73805 24.5466 7.63905 24.6486C7.54006 24.7505 7.40656 24.8015 7.23856 24.8015Z" fill="white"/>
</g>
<defs>
<clipPath id="clip0_1186_19350">
<rect width="26.6667" height="19.8448" fill="white" transform="translate(2.66663 6.66699)"/>
</clipPath>
</defs>
</svg>
