<svg width="24" height="24" viewBox="0 0 24 24" fill="none" xmlns="http://www.w3.org/2000/svg">
<rect x="2.5" y="2.5" width="19" height="19" rx="9.5" fill="#00A0FA"/>
<g clip-path="url(#clip0_173_2521)">
<path d="M11.6232 14.8232C11.2454 15.201 10.6324 15.201 10.2547 14.8232L8.13444 12.7028C7.75662 12.3252 7.75662 11.7121 8.13444 11.3345C8.51207 10.9566 9.12512 10.9566 9.50293 11.3345L10.7662 12.5976C10.8616 12.6928 11.0164 12.6928 11.1119 12.5976L14.5325 9.17692C14.9102 8.7991 15.5232 8.7991 15.901 9.17692C16.0825 9.35836 16.1844 9.60453 16.1844 9.8611C16.1844 10.1177 16.0825 10.3638 15.901 10.5453L11.6232 14.8232Z" fill="white"/>
</g>
<rect x="2.5" y="2.5" width="19" height="19" rx="9.5" stroke="white"/>
<defs>
<clipPath id="clip0_173_2521">
<rect width="8.33333" height="8.33333" fill="white" transform="translate(7.8335 7.83337)"/>
</clipPath>
</defs>
</svg>
